<?xml version="1.0" encoding="UTF-8" standalone="no"?>
<!DOCTYPE svg PUBLIC "-//W3C//DTD SVG 1.1//EN"
 "http://www.w3.org/Graphics/SVG/1.1/DTD/svg11.dtd">
<!-- Generated by graphviz version 2.40.1 (20161225.0304)
 -->
<!-- Title: %3 Pages: 1 -->
<svg width="190pt" height="335pt"
 viewBox="0.00 0.00 190.20 334.86" xmlns="http://www.w3.org/2000/svg" xmlns:xlink="http://www.w3.org/1999/xlink">
<g id="graph0" class="graph" transform="scale(1 1) rotate(0) translate(4 330.86)">
<title>%3</title>
<polygon fill="#ffffff" stroke="transparent" points="-4,4 -4,-330.86 186.196,-330.86 186.196,4 -4,4"/>
<!-- 1 -->
<g id="node1" class="node">
<title>1</title>
<ellipse fill="none" stroke="#ff0000" cx="44.598" cy="-277.262" rx="39.6962" ry="39.6962"/>
<text text-anchor="middle" x="44.598" y="-285.062" font-family="Times,serif" font-size="9.00" fill="#000000">1</text>
<text text-anchor="middle" x="44.598" y="-275.062" font-family="Times,serif" font-size="9.00" fill="#000000">sum, None</text>
<text text-anchor="middle" x="44.598" y="-265.062" font-family="Times,serif" font-size="9.00" fill="#000000">id</text>
<text text-anchor="middle" x="2.5" y="-319.66" font-family="Times,serif" font-size="9.00" fill="#000000">1</text>
</g>
<!-- 3 -->
<g id="node2" class="node">
<title>3</title>
<ellipse fill="none" stroke="#ff0000" cx="88.598" cy="-39.598" rx="39.6962" ry="39.6962"/>
<text text-anchor="middle" x="88.598" y="-47.398" font-family="Times,serif" font-size="9.00" fill="#000000">3</text>
<text text-anchor="middle" x="88.598" y="-37.398" font-family="Times,serif" font-size="9.00" fill="#000000">sum, None</text>
<text text-anchor="middle" x="88.598" y="-27.398" font-family="Times,serif" font-size="9.00" fill="#000000">sig</text>
<text text-anchor="middle" x="46.5" y="-81.996" font-family="Times,serif" font-size="9.00" fill="#000000">3</text>
</g>
<!-- 1&#45;&gt;3 -->
<g id="edge1" class="edge">
<title>1&#45;&gt;3</title>
<path fill="none" stroke="#c0c0c0" d="M32.3106,-239.5412C24.0676,-208.2415 16.6946,-162.916 28.598,-125.196 34.0766,-107.8352 44.4742,-90.9369 55.0947,-76.8044"/>
<polygon fill="#c0c0c0" stroke="#c0c0c0" points="57.9352,-78.8538 61.3381,-68.8203 52.4209,-74.5417 57.9352,-78.8538"/>
<text text-anchor="middle" x="38.098" y="-156.23" font-family="Times,serif" font-size="9.00" fill="#000000">&#45;0.05</text>
</g>
<!-- 4 -->
<g id="node4" class="node">
<title>4</title>
<ellipse fill="none" stroke="#000000" cx="89.598" cy="-158.43" rx="33.4697" ry="33.4697"/>
<text text-anchor="middle" x="89.598" y="-166.23" font-family="Times,serif" font-size="9.00" fill="#000000">2</text>
<text text-anchor="middle" x="89.598" y="-156.23" font-family="Times,serif" font-size="9.00" fill="#000000">ave, &#45;2.4</text>
<text text-anchor="middle" x="89.598" y="-146.23" font-family="Times,serif" font-size="9.00" fill="#000000">step</text>
<text text-anchor="middle" x="53.864" y="-194.464" font-family="Times,serif" font-size="9.00" fill="#000000">4</text>
</g>
<!-- 1&#45;&gt;4 -->
<g id="edge3" class="edge">
<title>1&#45;&gt;4</title>
<path fill="none" stroke="#000000" d="M40.6485,-237.7927C40.9258,-228.3385 42.271,-218.4445 45.598,-209.664 48.4606,-202.109 52.9699,-194.9093 58.0322,-188.4208"/>
<polygon fill="#000000" stroke="#000000" points="60.8584,-190.4995 64.6577,-180.6093 55.52,-185.9716 60.8584,-190.4995"/>
<text text-anchor="middle" x="53.598" y="-212.464" font-family="Times,serif" font-size="9.00" fill="#000000">4.09</text>
</g>
<!-- 1&#45;&gt;4 -->
<g id="edge6" class="edge">
<title>1&#45;&gt;4</title>
</g>
<!-- 2 -->
<g id="node3" class="node">
<title>2</title>
<ellipse fill="none" stroke="#ff0000" cx="142.598" cy="-277.262" rx="39.6962" ry="39.6962"/>
<text text-anchor="middle" x="142.598" y="-285.062" font-family="Times,serif" font-size="9.00" fill="#000000">1</text>
<text text-anchor="middle" x="142.598" y="-275.062" font-family="Times,serif" font-size="9.00" fill="#000000">sum, None</text>
<text text-anchor="middle" x="142.598" y="-265.062" font-family="Times,serif" font-size="9.00" fill="#000000">id</text>
<text text-anchor="middle" x="100.5" y="-319.66" font-family="Times,serif" font-size="9.00" fill="#000000">2</text>
</g>
<!-- 2&#45;&gt;3 -->
<g id="edge2" class="edge">
<title>2&#45;&gt;3</title>
<path fill="none" stroke="#000000" d="M144.3155,-237.5543C144.3985,-228.3865 144.2351,-218.679 143.598,-209.664 140.9247,-171.8401 142.9239,-161.3833 131.598,-125.196 127.118,-110.8821 120.4578,-96.0299 113.7095,-82.7952"/>
<polygon fill="#000000" stroke="#000000" points="116.7962,-81.145 109.0492,-73.9176 110.5983,-84.3986 116.7962,-81.145"/>
<text text-anchor="middle" x="149.598" y="-156.23" font-family="Times,serif" font-size="9.00" fill="#000000">0.05</text>
</g>
<!-- 2&#45;&gt;4 -->
<g id="edge5" class="edge">
<title>2&#45;&gt;4</title>
<path fill="none" stroke="#c0c0c0" d="M121.6973,-243.4448C117.3917,-235.7778 113.1065,-227.5633 109.598,-219.664 106.8529,-213.4836 104.2888,-206.8065 101.9733,-200.2121"/>
<polygon fill="#c0c0c0" stroke="#c0c0c0" points="105.2717,-199.0398 98.7665,-190.6772 98.6369,-201.2713 105.2717,-199.0398"/>
<text text-anchor="middle" x="119.098" y="-212.464" font-family="Times,serif" font-size="9.00" fill="#000000">&#45;8.47</text>
</g>
<!-- 2&#45;&gt;4 -->
<g id="edge7" class="edge">
<title>2&#45;&gt;4</title>
</g>
<!-- 4&#45;&gt;3 -->
<g id="edge4" class="edge">
<title>4&#45;&gt;3</title>
<path fill="none" stroke="#000000" d="M78.8074,-126.7635C77.0575,-120.3587 75.5188,-113.618 74.598,-107.196 73.6827,-100.8119 73.7707,-94.1249 74.4808,-87.5444"/>
<polygon fill="#000000" stroke="#000000" points="77.9879,-87.7668 76.0539,-77.35 71.0697,-86.6992 77.9879,-87.7668"/>
<text text-anchor="middle" x="82.598" y="-99.996" font-family="Times,serif" font-size="9.00" fill="#000000">1.31</text>
</g>
<!-- 4&#45;&gt;3 -->
<g id="edge8" class="edge">
<title>4&#45;&gt;3</title>
</g>
</g>
</svg>
