<?xml version="1.0" encoding="UTF-8" standalone="no"?>
<!DOCTYPE svg PUBLIC "-//W3C//DTD SVG 1.1//EN"
 "http://www.w3.org/Graphics/SVG/1.1/DTD/svg11.dtd">
<!-- Generated by graphviz version 2.40.1 (20161225.0304)
 -->
<!-- Title: %3 Pages: 1 -->
<svg width="252pt" height="413pt"
 viewBox="0.00 0.00 252.00 413.00" xmlns="http://www.w3.org/2000/svg" xmlns:xlink="http://www.w3.org/1999/xlink">
<g id="graph0" class="graph" transform="scale(1 1) rotate(0) translate(4 409)">
<title>%3</title>
<polygon fill="#ffffff" stroke="transparent" points="-4,4 -4,-409 248,-409 248,4 -4,4"/>
<!-- 1 -->
<g id="node1" class="node">
<title>1</title>
<ellipse fill="none" stroke="#ff0000" cx="55" cy="-387" rx="27" ry="18"/>
<text text-anchor="middle" x="55" y="-383.3" font-family="Times,serif" font-size="14.00" fill="#000000">1</text>
</g>
<!-- 2 -->
<g id="node2" class="node">
<title>2</title>
<ellipse fill="none" stroke="#ff0000" cx="111" cy="-18" rx="27" ry="18"/>
<text text-anchor="middle" x="111" y="-14.3" font-family="Times,serif" font-size="14.00" fill="#000000">2</text>
</g>
<!-- 1&#45;&gt;2 -->
<g id="edge1" class="edge">
<title>1&#45;&gt;2</title>
<path fill="none" stroke="#000000" stroke-width=".5" d="M66.0742,-370.4621C76.3281,-353.5211 90,-326.049 90,-300 90,-300 90,-300 90,-105 90,-84.6696 95.4859,-62.3941 100.8499,-45.4728"/>
<polygon fill="#000000" stroke="#000000" stroke-width=".5" points="104.2679,-46.2879 104.1238,-35.694 97.63,-44.0654 104.2679,-46.2879"/>
<text text-anchor="middle" x="93.5" y="-188.3" font-family="Times,serif" font-size="14.00" fill="#000000">2</text>
</g>
<!-- 20 -->
<g id="node7" class="node">
<title>20</title>
<ellipse fill="none" stroke="#000000" cx="33" cy="-300" rx="27" ry="18"/>
<text text-anchor="middle" x="33" y="-296.3" font-family="Times,serif" font-size="14.00" fill="#000000">20</text>
</g>
<!-- 1&#45;&gt;20 -->
<g id="edge5" class="edge">
<title>1&#45;&gt;20</title>
<path fill="none" stroke="#000000" stroke-width=".3" d="M50.4416,-368.9735C47.4328,-357.0751 43.4312,-341.2508 40.0199,-327.7606"/>
<polygon fill="#000000" stroke="#000000" stroke-width=".3" points="43.3974,-326.8401 37.5526,-318.0034 36.611,-328.5563 43.3974,-326.8401"/>
<text text-anchor="middle" x="49.5" y="-339.8" font-family="Times,serif" font-size="14.00" fill="#000000">1</text>
</g>
<!-- 8 -->
<g id="node3" class="node">
<title>8</title>
<ellipse fill="none" stroke="#ff0000" cx="133" cy="-387" rx="27" ry="18"/>
<text text-anchor="middle" x="133" y="-383.3" font-family="Times,serif" font-size="14.00" fill="#000000">8</text>
</g>
<!-- 8&#45;&gt;2 -->
<g id="edge2" class="edge">
<title>8&#45;&gt;2</title>
<path fill="none" stroke="#000000" stroke-width=".3" d="M133,-368.6694C133,-351.0629 133,-323.7135 133,-300 133,-300 133,-300 133,-105 133,-84.6151 127.2529,-62.3408 121.6335,-45.4337"/>
<polygon fill="#000000" stroke="#000000" stroke-width=".3" points="124.8189,-43.9409 118.2036,-35.6651 118.2142,-46.2599 124.8189,-43.9409"/>
<text text-anchor="middle" x="136.5" y="-188.3" font-family="Times,serif" font-size="14.00" fill="#000000">1</text>
</g>
<!-- 5 -->
<g id="node4" class="node">
<title>5</title>
<ellipse fill="none" stroke="#000000" cx="33" cy="-105" rx="27" ry="18"/>
<text text-anchor="middle" x="33" y="-101.3" font-family="Times,serif" font-size="14.00" fill="#000000">5</text>
</g>
<!-- 5&#45;&gt;2 -->
<g id="edge3" class="edge">
<title>5&#45;&gt;2</title>
<path fill="none" stroke="#000000" stroke-width=".5" d="M43.3787,-88.1416C50.1,-77.8085 59.3704,-64.5798 69,-54 73.8645,-48.6555 79.4981,-43.3425 85.0285,-38.5042"/>
<polygon fill="#000000" stroke="#000000" stroke-width=".5" points="87.5756,-40.9341 92.9555,-31.8068 83.058,-35.5871 87.5756,-40.9341"/>
<text text-anchor="middle" x="72.5" y="-57.8" font-family="Times,serif" font-size="14.00" fill="#000000">2</text>
</g>
<!-- 4 -->
<g id="node5" class="node">
<title>4</title>
<ellipse fill="none" stroke="#ff0000" cx="211" cy="-387" rx="27" ry="18"/>
<text text-anchor="middle" x="211" y="-383.3" font-family="Times,serif" font-size="14.00" fill="#000000">4</text>
</g>
<!-- 7 -->
<g id="node6" class="node">
<title>7</title>
<ellipse fill="none" stroke="#ff0000" cx="217" cy="-18" rx="27" ry="18"/>
<text text-anchor="middle" x="217" y="-14.3" font-family="Times,serif" font-size="14.00" fill="#000000">7</text>
</g>
<!-- 4&#45;&gt;7 -->
<g id="edge4" class="edge">
<title>4&#45;&gt;7</title>
<path fill="none" stroke="#000000" stroke-width=".5" d="M212.9646,-369.0296C214.7145,-351.4548 217,-323.9213 217,-300 217,-300 217,-300 217,-105 217,-85.5475 217,-63.6484 217,-46.6877"/>
<polygon fill="#000000" stroke="#000000" stroke-width=".5" points="220.5001,-46.3305 217,-36.3306 213.5001,-46.3306 220.5001,-46.3305"/>
<text text-anchor="middle" x="220.5" y="-188.3" font-family="Times,serif" font-size="14.00" fill="#000000">2</text>
</g>
<!-- 23 -->
<g id="node8" class="node">
<title>23</title>
<ellipse fill="none" stroke="#000000" cx="175" cy="-246" rx="27" ry="18"/>
<text text-anchor="middle" x="175" y="-242.3" font-family="Times,serif" font-size="14.00" fill="#000000">23</text>
</g>
<!-- 4&#45;&gt;23 -->
<g id="edge6" class="edge">
<title>4&#45;&gt;23</title>
<path fill="none" stroke="#000000" stroke-width=".3" d="M202.9687,-369.6763C200.4801,-363.8339 197.8966,-357.2171 196,-351 188.2042,-325.4451 182.5429,-295.4903 179.0766,-274.13"/>
<polygon fill="#000000" stroke="#000000" stroke-width=".3" points="182.5115,-273.4411 177.5079,-264.1022 175.5956,-274.523 182.5115,-273.4411"/>
<text text-anchor="middle" x="199.5" y="-339.8" font-family="Times,serif" font-size="14.00" fill="#000000">1</text>
</g>
<!-- 26 -->
<g id="node9" class="node">
<title>26</title>
<ellipse fill="none" stroke="#000000" cx="27" cy="-192" rx="27" ry="18"/>
<text text-anchor="middle" x="27" y="-188.3" font-family="Times,serif" font-size="14.00" fill="#000000">26</text>
</g>
<!-- 20&#45;&gt;26 -->
<g id="edge8" class="edge">
<title>20&#45;&gt;26</title>
<path fill="none" stroke="#000000" stroke-width=".3" d="M31.9822,-281.6793C31.0456,-264.821 29.6425,-239.5651 28.5637,-220.147"/>
<polygon fill="#000000" stroke="#000000" stroke-width=".3" points="32.0522,-219.8406 28.0028,-210.0502 25.063,-220.2289 32.0522,-219.8406"/>
<text text-anchor="middle" x="34.5" y="-242.3" font-family="Times,serif" font-size="14.00" fill="#000000">1</text>
</g>
<!-- 23&#45;&gt;2 -->
<g id="edge7" class="edge">
<title>23&#45;&gt;2</title>
<path fill="none" stroke="#000000" stroke-width=".3" d="M176.0262,-227.9476C177.2773,-192.5535 176.3109,-112.4088 147,-54 144.2572,-48.5342 140.3674,-43.3933 136.1509,-38.8009"/>
<polygon fill="#000000" stroke="#000000" stroke-width=".3" points="138.4653,-36.1674 128.8914,-31.6296 133.5458,-41.1473 138.4653,-36.1674"/>
<text text-anchor="middle" x="176.5" y="-144.8" font-family="Times,serif" font-size="14.00" fill="#000000">1</text>
</g>
<!-- 26&#45;&gt;5 -->
<g id="edge9" class="edge">
<title>26&#45;&gt;5</title>
<path fill="none" stroke="#000000" stroke-width=".5" d="M28.2432,-173.9735C29.0557,-162.1918 30.1337,-146.5607 31.0581,-133.1581"/>
<polygon fill="#000000" stroke="#000000" stroke-width=".5" points="34.562,-133.2205 31.7584,-123.0034 27.5786,-132.7388 34.562,-133.2205"/>
<text text-anchor="middle" x="34.5" y="-144.8" font-family="Times,serif" font-size="14.00" fill="#000000">2</text>
</g>
</g>
</svg>
