<?xml version="1.0" encoding="UTF-8" standalone="no"?>
<!DOCTYPE svg PUBLIC "-//W3C//DTD SVG 1.1//EN"
 "http://www.w3.org/Graphics/SVG/1.1/DTD/svg11.dtd">
<!-- Generated by graphviz version 2.40.1 (20161225.0304)
 -->
<!-- Title: %3 Pages: 1 -->
<svg width="257pt" height="409pt"
 viewBox="0.00 0.00 257.00 409.13" xmlns="http://www.w3.org/2000/svg" xmlns:xlink="http://www.w3.org/1999/xlink">
<g id="graph0" class="graph" transform="scale(1 1) rotate(0) translate(4 405.132)">
<title>%3</title>
<polygon fill="#ffffff" stroke="transparent" points="-4,4 -4,-405.132 253,-405.132 253,4 -4,4"/>
<!-- 1 -->
<g id="node1" class="node">
<title>1</title>
<ellipse fill="none" stroke="#ff0000" cx="19" cy="-384.8686" rx="16.0303" ry="16.0303"/>
<text text-anchor="middle" x="19" y="-381.7686" font-family="Times,serif" font-size="12.00" fill="#000000">1</text>
</g>
<!-- 2 -->
<g id="node2" class="node">
<title>2</title>
<ellipse fill="none" stroke="#ff0000" cx="93" cy="-16.2635" rx="16.0303" ry="16.0303"/>
<text text-anchor="middle" x="93" y="-13.1635" font-family="Times,serif" font-size="12.00" fill="#000000">2</text>
</g>
<!-- 1&#45;&gt;2 -->
<g id="edge1" class="edge">
<title>1&#45;&gt;2</title>
<path fill="none" stroke="#000000" d="M13.2994,-369.4052C7.7028,-352.8168 0,-325.5824 0,-301.3417 0,-301.3417 0,-301.3417 0,-104.033 0,-66.3002 40.9922,-39.983 68.5463,-26.5553"/>
<polygon fill="#000000" stroke="#000000" points="70.0375,-29.7219 77.6429,-22.3457 67.0976,-23.3692 70.0375,-29.7219"/>
<text text-anchor="middle" x="12.5" y="-192.3452" font-family="Times,serif" font-size="14.00" fill="#000000">2.00</text>
</g>
<!-- 5 -->
<g id="node3" class="node">
<title>5</title>
<ellipse fill="none" stroke="#000000" cx="54" cy="-301.3417" rx="16.0303" ry="16.0303"/>
<text text-anchor="middle" x="54" y="-298.2417" font-family="Times,serif" font-size="12.00" fill="#000000">5</text>
</g>
<!-- 1&#45;&gt;5 -->
<g id="edge2" class="edge">
<title>1&#45;&gt;5</title>
<path fill="none" stroke="#000000" d="M25.4195,-369.5485C30.5012,-357.4211 37.7006,-340.24 43.6021,-326.1561"/>
<polygon fill="#000000" stroke="#000000" points="46.9845,-327.1404 47.6212,-316.5647 40.5283,-324.435 46.9845,-327.1404"/>
<text text-anchor="middle" x="51.5" y="-339.4051" font-family="Times,serif" font-size="14.00" fill="#000000">2.00</text>
</g>
<!-- 23 -->
<g id="node8" class="node">
<title>23</title>
<ellipse fill="none" stroke="#000000" cx="64" cy="-196.0452" rx="20.5122" ry="20.5122"/>
<text text-anchor="middle" x="64" y="-192.9452" font-family="Times,serif" font-size="12.00" fill="#000000">23</text>
</g>
<!-- 5&#45;&gt;23 -->
<g id="edge6" class="edge">
<title>5&#45;&gt;23</title>
<path fill="none" stroke="#000000" d="M55.5625,-284.8891C57.0364,-269.3696 59.2827,-245.7172 61.087,-226.718"/>
<polygon fill="#000000" stroke="#000000" points="64.575,-227.0089 62.0363,-216.7228 57.6064,-226.347 64.575,-227.0089"/>
<text text-anchor="middle" x="72.5" y="-247.1148" font-family="Times,serif" font-size="14.00" fill="#000000">1.00</text>
</g>
<!-- 4 -->
<g id="node4" class="node">
<title>4</title>
<ellipse fill="none" stroke="#ff0000" cx="199" cy="-384.8686" rx="16.0303" ry="16.0303"/>
<text text-anchor="middle" x="199" y="-381.7686" font-family="Times,serif" font-size="12.00" fill="#000000">4</text>
</g>
<!-- 7 -->
<g id="node5" class="node">
<title>7</title>
<ellipse fill="none" stroke="#ff0000" cx="220" cy="-16.2635" rx="16.0303" ry="16.0303"/>
<text text-anchor="middle" x="220" y="-13.1635" font-family="Times,serif" font-size="12.00" fill="#000000">7</text>
</g>
<!-- 4&#45;&gt;7 -->
<g id="edge3" class="edge">
<title>4&#45;&gt;7</title>
<path fill="none" stroke="#ff0000" d="M205.1871,-369.7606C211.3816,-353.2464 220,-325.8637 220,-301.3417 220,-301.3417 220,-301.3417 220,-104.033 220,-83.4644 220,-60.1844 220,-42.771"/>
<polygon fill="#ff0000" stroke="#ff0000" points="223.5001,-42.7635 220,-32.7635 216.5001,-42.7636 223.5001,-42.7635"/>
<text text-anchor="middle" x="234.5" y="-192.3452" font-family="Times,serif" font-size="14.00" fill="#000000">&#45;0.27</text>
</g>
<!-- 9 -->
<g id="node6" class="node">
<title>9</title>
<ellipse fill="none" stroke="#000000" cx="175" cy="-250.8148" rx="16.0303" ry="16.0303"/>
<text text-anchor="middle" x="175" y="-247.7148" font-family="Times,serif" font-size="12.00" fill="#000000">9</text>
</g>
<!-- 4&#45;&gt;9 -->
<g id="edge4" class="edge">
<title>4&#45;&gt;9</title>
<path fill="none" stroke="#000000" d="M190.0509,-371.0943C186.5874,-365.0523 182.9849,-357.725 181,-350.6051 174.2441,-326.3718 173.2151,-297.5888 173.5937,-277.1772"/>
<polygon fill="#000000" stroke="#000000" points="177.0958,-277.1623 173.9092,-267.058 170.0992,-276.9441 177.0958,-277.1623"/>
<text text-anchor="middle" x="193.5" y="-339.4051" font-family="Times,serif" font-size="14.00" fill="#000000">1.00</text>
</g>
<!-- 9&#45;&gt;2 -->
<g id="edge7" class="edge">
<title>9&#45;&gt;2</title>
<path fill="none" stroke="#000000" d="M175.3459,-234.4398C175.3748,-198.4757 171.3884,-110.9838 135,-50.5269 130.1867,-42.5299 122.7982,-35.5862 115.5527,-30.0801"/>
<polygon fill="#000000" stroke="#000000" points="117.4783,-27.1559 107.2756,-24.2999 113.4704,-32.895 117.4783,-27.1559"/>
<text text-anchor="middle" x="181.5" y="-146.3391" font-family="Times,serif" font-size="14.00" fill="#000000">1.00</text>
</g>
<!-- 8 -->
<g id="node7" class="node">
<title>8</title>
<ellipse fill="none" stroke="#ff0000" cx="121" cy="-384.8686" rx="16.0303" ry="16.0303"/>
<text text-anchor="middle" x="121" y="-381.7686" font-family="Times,serif" font-size="12.00" fill="#000000">8</text>
</g>
<!-- 8&#45;&gt;2 -->
<g id="edge5" class="edge">
<title>8&#45;&gt;2</title>
<path fill="none" stroke="#000000" d="M121,-368.5434C121,-351.7063 121,-324.6886 121,-301.3417 121,-301.3417 121,-301.3417 121,-104.033 121,-81.5709 112.5736,-57.3398 104.9659,-40.0403"/>
<polygon fill="#000000" stroke="#000000" points="108.0289,-38.3254 100.6511,-30.7215 101.6767,-41.2666 108.0289,-38.3254"/>
<text text-anchor="middle" x="133.5" y="-192.3452" font-family="Times,serif" font-size="14.00" fill="#000000">1.00</text>
</g>
<!-- 26 -->
<g id="node9" class="node">
<title>26</title>
<ellipse fill="none" stroke="#000000" cx="70" cy="-104.033" rx="20.5122" ry="20.5122"/>
<text text-anchor="middle" x="70" y="-100.933" font-family="Times,serif" font-size="12.00" fill="#000000">26</text>
</g>
<!-- 23&#45;&gt;26 -->
<g id="edge8" class="edge">
<title>23&#45;&gt;26</title>
<path fill="none" stroke="#000000" d="M65.3615,-175.1662C66.1418,-163.2006 67.1353,-147.9637 68.0026,-134.6638"/>
<polygon fill="#000000" stroke="#000000" points="71.5063,-134.719 68.6646,-124.5124 64.5212,-134.2634 71.5063,-134.719"/>
<text text-anchor="middle" x="79.5" y="-146.3391" font-family="Times,serif" font-size="14.00" fill="#000000">1.00</text>
</g>
<!-- 26&#45;&gt;2 -->
<g id="edge9" class="edge">
<title>26&#45;&gt;2</title>
<path fill="none" stroke="#000000" d="M74.0765,-83.8551C76.2239,-73.7886 79.0259,-61.4584 82,-50.5269 82.7842,-47.6446 83.6591,-44.6437 84.5636,-41.6691"/>
<polygon fill="#000000" stroke="#000000" points="87.9851,-42.4576 87.6634,-31.8677 81.3109,-40.3468 87.9851,-42.4576"/>
<text text-anchor="middle" x="94.5" y="-54.3269" font-family="Times,serif" font-size="14.00" fill="#000000">2.00</text>
</g>
</g>
</svg>
