<?xml version="1.0" encoding="UTF-8" standalone="no"?>
<!DOCTYPE svg PUBLIC "-//W3C//DTD SVG 1.1//EN"
 "http://www.w3.org/Graphics/SVG/1.1/DTD/svg11.dtd">
<!-- Generated by graphviz version 2.40.1 (20161225.0304)
 -->
<!-- Title: %3 Pages: 1 -->
<svg width="227pt" height="475pt"
 viewBox="0.00 0.00 227.00 475.13" xmlns="http://www.w3.org/2000/svg" xmlns:xlink="http://www.w3.org/1999/xlink">
<g id="graph0" class="graph" transform="scale(1 1) rotate(0) translate(4 471.132)">
<title>%3</title>
<polygon fill="#ffffff" stroke="transparent" points="-4,4 -4,-471.132 223,-471.132 223,4 -4,4"/>
<!-- 1 -->
<g id="node1" class="node">
<title>1</title>
<ellipse fill="none" stroke="#ff0000" cx="24" cy="-450.8686" rx="16.0303" ry="16.0303"/>
<text text-anchor="middle" x="24" y="-447.7686" font-family="Times,serif" font-size="12.00" fill="#000000">1</text>
</g>
<!-- 2 -->
<g id="node2" class="node">
<title>2</title>
<ellipse fill="none" stroke="#ff0000" cx="74" cy="-16.2635" rx="16.0303" ry="16.0303"/>
<text text-anchor="middle" x="74" y="-13.1635" font-family="Times,serif" font-size="12.00" fill="#000000">2</text>
</g>
<!-- 1&#45;&gt;2 -->
<g id="edge1" class="edge">
<title>1&#45;&gt;2</title>
<path fill="none" stroke="#000000" d="M17.0582,-436.1462C9.9701,-419.7393 0,-392.2368 0,-367.3417 0,-367.3417 0,-367.3417 0,-104.033 0,-71.801 29.5306,-45.2663 51.2821,-30.0933"/>
<polygon fill="#000000" stroke="#000000" points="53.3366,-32.9305 59.7321,-24.4837 49.465,-27.0986 53.3366,-32.9305"/>
<text text-anchor="middle" x="12.5" y="-229.866" font-family="Times,serif" font-size="14.00" fill="#000000">2.00</text>
</g>
<!-- 5 -->
<g id="node3" class="node">
<title>5</title>
<ellipse fill="none" stroke="#000000" cx="46" cy="-367.3417" rx="16.0303" ry="16.0303"/>
<text text-anchor="middle" x="46" y="-364.2417" font-family="Times,serif" font-size="12.00" fill="#000000">5</text>
</g>
<!-- 1&#45;&gt;5 -->
<g id="edge2" class="edge">
<title>1&#45;&gt;5</title>
<path fill="none" stroke="#000000" d="M28.2418,-434.7637C31.3661,-422.9018 35.678,-406.5311 39.2704,-392.8917"/>
<polygon fill="#000000" stroke="#000000" points="42.6833,-393.6755 41.8458,-383.1138 35.9142,-391.8925 42.6833,-393.6755"/>
<text text-anchor="middle" x="49.5" y="-405.4051" font-family="Times,serif" font-size="14.00" fill="#000000">2.00</text>
</g>
<!-- 26 -->
<g id="node7" class="node">
<title>26</title>
<ellipse fill="none" stroke="#000000" cx="49" cy="-279.5721" rx="20.5122" ry="20.5122"/>
<text text-anchor="middle" x="49" y="-276.4721" font-family="Times,serif" font-size="12.00" fill="#000000">26</text>
</g>
<!-- 5&#45;&gt;26 -->
<g id="edge6" class="edge">
<title>5&#45;&gt;26</title>
<path fill="none" stroke="#000000" d="M46.5643,-350.8329C46.95,-339.5482 47.4731,-324.2424 47.9358,-310.7082"/>
<polygon fill="#000000" stroke="#000000" points="51.4463,-310.4582 48.29,-300.3445 44.4503,-310.219 51.4463,-310.4582"/>
<text text-anchor="middle" x="59.5" y="-321.8782" font-family="Times,serif" font-size="14.00" fill="#000000">1.00</text>
</g>
<!-- 4 -->
<g id="node4" class="node">
<title>4</title>
<ellipse fill="none" stroke="#ff0000" cx="171" cy="-450.8686" rx="16.0303" ry="16.0303"/>
<text text-anchor="middle" x="171" y="-447.7686" font-family="Times,serif" font-size="12.00" fill="#000000">4</text>
</g>
<!-- 4&#45;&gt;2 -->
<g id="edge3" class="edge">
<title>4&#45;&gt;2</title>
<path fill="none" stroke="#000000" d="M163.769,-436.1768C156.3855,-419.7966 146,-392.3174 146,-367.3417 146,-367.3417 146,-367.3417 146,-104.033 146,-72.4742 117.831,-46.0561 96.7318,-30.6948"/>
<polygon fill="#000000" stroke="#000000" points="98.4391,-27.6199 88.2249,-24.8056 94.4547,-33.3753 98.4391,-27.6199"/>
<text text-anchor="middle" x="158.5" y="-229.866" font-family="Times,serif" font-size="14.00" fill="#000000">1.00</text>
</g>
<!-- 7 -->
<g id="node5" class="node">
<title>7</title>
<ellipse fill="none" stroke="#ff0000" cx="194" cy="-16.2635" rx="16.0303" ry="16.0303"/>
<text text-anchor="middle" x="194" y="-13.1635" font-family="Times,serif" font-size="12.00" fill="#000000">7</text>
</g>
<!-- 4&#45;&gt;7 -->
<g id="edge4" class="edge">
<title>4&#45;&gt;7</title>
<path fill="none" stroke="#000000" d="M177.7764,-435.8168C184.5608,-419.3506 194,-392.0088 194,-367.3417 194,-367.3417 194,-367.3417 194,-104.033 194,-83.4644 194,-60.1844 194,-42.771"/>
<polygon fill="#000000" stroke="#000000" points="197.5001,-42.7635 194,-32.7635 190.5001,-42.7636 197.5001,-42.7635"/>
<text text-anchor="middle" x="206.5" y="-229.866" font-family="Times,serif" font-size="14.00" fill="#000000">2.00</text>
</g>
<!-- 8 -->
<g id="node6" class="node">
<title>8</title>
<ellipse fill="none" stroke="#ff0000" cx="98" cy="-450.8686" rx="16.0303" ry="16.0303"/>
<text text-anchor="middle" x="98" y="-447.7686" font-family="Times,serif" font-size="12.00" fill="#000000">8</text>
</g>
<!-- 8&#45;&gt;2 -->
<g id="edge5" class="edge">
<title>8&#45;&gt;2</title>
<path fill="none" stroke="#000000" d="M98,-434.5434C98,-417.7063 98,-390.6886 98,-367.3417 98,-367.3417 98,-367.3417 98,-104.033 98,-81.9799 90.8631,-57.8785 84.373,-40.5207"/>
<polygon fill="#000000" stroke="#000000" points="87.6032,-39.171 80.6853,-31.1465 81.0891,-41.7336 87.6032,-39.171"/>
<text text-anchor="middle" x="110.5" y="-229.866" font-family="Times,serif" font-size="14.00" fill="#000000">1.00</text>
</g>
<!-- 9 -->
<g id="node8" class="node">
<title>9</title>
<ellipse fill="none" stroke="#000000" cx="49" cy="-191.8026" rx="16.0303" ry="16.0303"/>
<text text-anchor="middle" x="49" y="-188.7026" font-family="Times,serif" font-size="12.00" fill="#000000">9</text>
</g>
<!-- 26&#45;&gt;9 -->
<g id="edge7" class="edge">
<title>26&#45;&gt;9</title>
<path fill="none" stroke="#000000" d="M49,-258.772C49,-246.6532 49,-231.2512 49,-218.274"/>
<polygon fill="#000000" stroke="#000000" points="52.5001,-218.0687 49,-208.0688 45.5001,-218.0688 52.5001,-218.0687"/>
<text text-anchor="middle" x="61.5" y="-229.866" font-family="Times,serif" font-size="14.00" fill="#000000">1.00</text>
</g>
<!-- 23 -->
<g id="node9" class="node">
<title>23</title>
<ellipse fill="none" stroke="#000000" cx="49" cy="-104.033" rx="20.5122" ry="20.5122"/>
<text text-anchor="middle" x="49" y="-100.933" font-family="Times,serif" font-size="12.00" fill="#000000">23</text>
</g>
<!-- 9&#45;&gt;23 -->
<g id="edge8" class="edge">
<title>9&#45;&gt;23</title>
<path fill="none" stroke="#000000" d="M49,-175.2938C49,-164.0091 49,-148.7033 49,-135.1691"/>
<polygon fill="#000000" stroke="#000000" points="52.5001,-134.8053 49,-124.8054 45.5001,-134.8054 52.5001,-134.8053"/>
<text text-anchor="middle" x="61.5" y="-146.3391" font-family="Times,serif" font-size="14.00" fill="#000000">1.00</text>
</g>
<!-- 23&#45;&gt;2 -->
<g id="edge9" class="edge">
<title>23&#45;&gt;2</title>
<path fill="none" stroke="#000000" d="M51.6831,-83.6971C53.2971,-73.5918 55.6906,-61.2745 59,-50.5269 60.0445,-47.1349 61.3267,-43.6295 62.6975,-40.2137"/>
<polygon fill="#000000" stroke="#000000" points="65.9278,-41.5616 66.6718,-30.9929 59.4994,-38.7909 65.9278,-41.5616"/>
<text text-anchor="middle" x="71.5" y="-54.3269" font-family="Times,serif" font-size="14.00" fill="#000000">2.00</text>
</g>
</g>
</svg>
