<?xml version="1.0" encoding="UTF-8" standalone="no"?>
<!DOCTYPE svg PUBLIC "-//W3C//DTD SVG 1.1//EN"
 "http://www.w3.org/Graphics/SVG/1.1/DTD/svg11.dtd">
<!-- Generated by graphviz version 2.40.1 (20161225.0304)
 -->
<!-- Title: %3 Pages: 1 -->
<svg width="339pt" height="308pt"
 viewBox="0.00 0.00 338.60 308.08" xmlns="http://www.w3.org/2000/svg" xmlns:xlink="http://www.w3.org/1999/xlink">
<g id="graph0" class="graph" transform="scale(1 1) rotate(0) translate(4 304.0782)">
<title>%3</title>
<polygon fill="#ffffff" stroke="transparent" points="-4,4 -4,-304.0782 334.5962,-304.0782 334.5962,4 -4,4"/>
<!-- 1 -->
<g id="node1" class="node">
<title>1</title>
<ellipse fill="none" stroke="#ff0000" cx="17.5962" cy="-283.8148" rx="16.0303" ry="16.0303"/>
<text text-anchor="middle" x="17.5962" y="-280.7148" font-family="Times,serif" font-size="12.00" fill="#000000">1</text>
</g>
<!-- 2 -->
<g id="node2" class="node">
<title>2</title>
<ellipse fill="none" stroke="#ff0000" cx="96.5962" cy="-16.2635" rx="16.0303" ry="16.0303"/>
<text text-anchor="middle" x="96.5962" y="-13.1635" font-family="Times,serif" font-size="12.00" fill="#000000">2</text>
</g>
<!-- 1&#45;&gt;2 -->
<g id="edge1" class="edge">
<title>1&#45;&gt;2</title>
<path fill="none" stroke="#000000" d="M12.6322,-268.1252C5.0516,-241.5866 -7.1573,-186.4395 6.5962,-142.5391 20.2034,-99.106 55.0912,-57.9657 77.2167,-35.0331"/>
<polygon fill="#000000" stroke="#000000" points="79.9164,-37.2806 84.4548,-27.707 74.9367,-32.3609 79.9164,-37.2806"/>
<text text-anchor="middle" x="19.0962" y="-146.3391" font-family="Times,serif" font-size="14.00" fill="#000000">2.00</text>
</g>
<!-- 5 -->
<g id="node5" class="node">
<title>5</title>
<ellipse fill="none" stroke="#000000" cx="72.5962" cy="-104.033" rx="16.0303" ry="16.0303"/>
<text text-anchor="middle" x="72.5962" y="-100.933" font-family="Times,serif" font-size="12.00" fill="#000000">5</text>
</g>
<!-- 1&#45;&gt;5 -->
<g id="edge4" class="edge">
<title>1&#45;&gt;5</title>
<path fill="none" stroke="#000000" stroke-dasharray="1,5" d="M16.5419,-267.5428C15.6752,-245.9165 15.9843,-206.7965 26.5962,-175.5391 32.9024,-156.9642 45.057,-138.4052 55.2889,-124.851"/>
<polygon fill="#000000" stroke="#000000" points="58.2478,-126.7491 61.6542,-116.7168 52.7351,-122.4352 58.2478,-126.7491"/>
<text text-anchor="middle" x="39.0962" y="-192.3452" font-family="Times,serif" font-size="14.00" fill="#000000">2.00</text>
</g>
<!-- 9 -->
<g id="node7" class="node">
<title>9</title>
<ellipse fill="none" stroke="#000000" cx="76.5962" cy="-196.0452" rx="16.0303" ry="16.0303"/>
<text text-anchor="middle" x="76.5962" y="-192.9452" font-family="Times,serif" font-size="12.00" fill="#000000">9</text>
</g>
<!-- 1&#45;&gt;9 -->
<g id="edge7" class="edge">
<title>1&#45;&gt;9</title>
<path fill="none" stroke="#000000" d="M26.815,-270.1008C36.1672,-256.1882 50.7903,-234.4346 61.7723,-218.0976"/>
<polygon fill="#000000" stroke="#000000" points="64.768,-219.9147 67.4422,-209.6629 58.9586,-216.0095 64.768,-219.9147"/>
<text text-anchor="middle" x="64.0962" y="-238.3513" font-family="Times,serif" font-size="14.00" fill="#000000">1.00</text>
</g>
<!-- 4 -->
<g id="node3" class="node">
<title>4</title>
<ellipse fill="none" stroke="#ff0000" cx="253.5962" cy="-283.8148" rx="16.0303" ry="16.0303"/>
<text text-anchor="middle" x="253.5962" y="-280.7148" font-family="Times,serif" font-size="12.00" fill="#000000">4</text>
</g>
<!-- 4&#45;&gt;2 -->
<g id="edge2" class="edge">
<title>4&#45;&gt;2</title>
<path fill="none" stroke="#000000" d="M246.1215,-269.2741C226.8367,-232.0694 173.2865,-130.7065 121.5962,-50.5269 118.8482,-46.2643 115.7692,-41.8151 112.7363,-37.5885"/>
<polygon fill="#000000" stroke="#000000" points="115.4337,-35.3483 106.6963,-29.356 109.7898,-39.4891 115.4337,-35.3483"/>
<text text-anchor="middle" x="197.0962" y="-146.3391" font-family="Times,serif" font-size="14.00" fill="#000000">0.63</text>
</g>
<!-- 7 -->
<g id="node6" class="node">
<title>7</title>
<ellipse fill="none" stroke="#ff0000" cx="274.5962" cy="-16.2635" rx="16.0303" ry="16.0303"/>
<text text-anchor="middle" x="274.5962" y="-13.1635" font-family="Times,serif" font-size="12.00" fill="#000000">7</text>
</g>
<!-- 4&#45;&gt;7 -->
<g id="edge6" class="edge">
<title>4&#45;&gt;7</title>
<path fill="none" stroke="#000000" stroke-dasharray="1,5" d="M265.6969,-272.9463C271.8117,-266.7261 278.7362,-258.4104 282.5962,-249.5513 312.1903,-181.6293 309.7464,-156.613 297.5962,-83.5269 295.1528,-68.8292 289.8989,-53.0349 285.0286,-40.447"/>
<polygon fill="#000000" stroke="#000000" points="288.2535,-39.0855 281.2661,-31.1214 281.762,-41.7047 288.2535,-39.0855"/>
<text text-anchor="middle" x="318.0962" y="-146.3391" font-family="Times,serif" font-size="14.00" fill="#000000">2.00</text>
</g>
<!-- 23 -->
<g id="node8" class="node">
<title>23</title>
<ellipse fill="none" stroke="#000000" cx="253.5962" cy="-196.0452" rx="20.5122" ry="20.5122"/>
<text text-anchor="middle" x="253.5962" y="-192.9452" font-family="Times,serif" font-size="12.00" fill="#000000">23</text>
</g>
<!-- 4&#45;&gt;23 -->
<g id="edge9" class="edge">
<title>4&#45;&gt;23</title>
<path fill="none" stroke="#000000" d="M253.5962,-267.306C253.5962,-256.0213 253.5962,-240.7155 253.5962,-227.1813"/>
<polygon fill="#000000" stroke="#000000" points="257.0963,-226.8175 253.5962,-216.8176 250.0963,-226.8176 257.0963,-226.8175"/>
<text text-anchor="middle" x="266.0962" y="-238.3513" font-family="Times,serif" font-size="14.00" fill="#000000">1.00</text>
</g>
<!-- 8 -->
<g id="node4" class="node">
<title>8</title>
<ellipse fill="none" stroke="#ff0000" cx="120.5962" cy="-283.8148" rx="16.0303" ry="16.0303"/>
<text text-anchor="middle" x="120.5962" y="-280.7148" font-family="Times,serif" font-size="12.00" fill="#000000">8</text>
</g>
<!-- 8&#45;&gt;2 -->
<g id="edge3" class="edge">
<title>8&#45;&gt;2</title>
<path fill="none" stroke="#000000" d="M120.8649,-267.5494C121.2262,-229.3556 120.5855,-131.0782 106.5962,-50.5269 106.0893,-47.6078 105.4229,-44.5839 104.6742,-41.5962"/>
<polygon fill="#000000" stroke="#000000" points="107.9928,-40.4674 101.9246,-31.7825 101.2524,-42.356 107.9928,-40.4674"/>
<text text-anchor="middle" x="130.0962" y="-146.3391" font-family="Times,serif" font-size="14.00" fill="#000000">1.00</text>
</g>
<!-- 5&#45;&gt;2 -->
<g id="edge5" class="edge">
<title>5&#45;&gt;2</title>
<path fill="none" stroke="#000000" d="M74.3237,-87.4015C75.6942,-76.7165 77.9911,-62.6236 81.5962,-50.5269 82.6099,-47.1256 83.8745,-43.6148 85.2366,-40.1964"/>
<polygon fill="#000000" stroke="#000000" points="88.4673,-41.5433 89.2065,-30.9743 82.0377,-38.7755 88.4673,-41.5433"/>
<text text-anchor="middle" x="94.0962" y="-54.3269" font-family="Times,serif" font-size="14.00" fill="#000000">2.00</text>
</g>
<!-- 9&#45;&gt;5 -->
<g id="edge8" class="edge">
<title>9&#45;&gt;5</title>
<path fill="none" stroke="#000000" d="M75.0975,-179.5692C74.5338,-172.7559 73.9453,-164.7725 73.5962,-157.5391 73.1743,-148.7955 72.9275,-139.2403 72.784,-130.6552"/>
<polygon fill="#000000" stroke="#000000" points="76.281,-130.3878 72.6522,-120.4337 69.2815,-130.4781 76.281,-130.3878"/>
<text text-anchor="middle" x="86.0962" y="-146.3391" font-family="Times,serif" font-size="14.00" fill="#000000">2.00</text>
</g>
<!-- 23&#45;&gt;7 -->
<g id="edge10" class="edge">
<title>23&#45;&gt;7</title>
<path fill="none" stroke="#000000" stroke-dasharray="1,5" d="M257.6108,-175.7114C258.6794,-169.8609 259.766,-163.4605 260.5962,-157.5391 266.1798,-117.7153 270.3329,-71.2687 272.6109,-42.8171"/>
<polygon fill="#000000" stroke="#000000" points="276.1003,-43.0877 273.3912,-32.8451 269.1216,-42.5416 276.1003,-43.0877"/>
<text text-anchor="middle" x="281.0962" y="-100.333" font-family="Times,serif" font-size="14.00" fill="#000000">2.00</text>
</g>
<!-- 26 -->
<g id="node9" class="node">
<title>26</title>
<ellipse fill="none" stroke="#000000" cx="217.5962" cy="-104.033" rx="20.5122" ry="20.5122"/>
<text text-anchor="middle" x="217.5962" y="-100.933" font-family="Times,serif" font-size="12.00" fill="#000000">26</text>
</g>
<!-- 23&#45;&gt;26 -->
<g id="edge11" class="edge">
<title>23&#45;&gt;26</title>
<path fill="none" stroke="#000000" d="M244.3778,-177.4296C241.4195,-171.1747 238.2298,-164.1156 235.5962,-157.5391 232.4964,-149.7984 229.4689,-141.2931 226.808,-133.3863"/>
<polygon fill="#000000" stroke="#000000" points="230.1028,-132.2014 223.6558,-123.7939 223.4527,-134.3868 230.1028,-132.2014"/>
<text text-anchor="middle" x="248.0962" y="-146.3391" font-family="Times,serif" font-size="14.00" fill="#000000">1.00</text>
</g>
<!-- 26&#45;&gt;7 -->
<g id="edge12" class="edge">
<title>26&#45;&gt;7</title>
<path fill="none" stroke="#000000" d="M221.7149,-83.8393C224.5008,-73.3063 228.917,-60.5624 235.5962,-50.5269 240.1966,-43.6149 246.5365,-37.2405 252.7682,-31.9118"/>
<polygon fill="#000000" stroke="#000000" points="255.3797,-34.3068 261.0254,-25.3415 251.0211,-28.8292 255.3797,-34.3068"/>
<text text-anchor="middle" x="248.0962" y="-54.3269" font-family="Times,serif" font-size="14.00" fill="#000000">2.00</text>
</g>
</g>
</svg>
