<?xml version="1.0" encoding="UTF-8" standalone="no"?>
<!DOCTYPE svg PUBLIC "-//W3C//DTD SVG 1.1//EN"
 "http://www.w3.org/Graphics/SVG/1.1/DTD/svg11.dtd">
<!-- Generated by graphviz version 2.40.1 (20161225.0304)
 -->
<!-- Title: %3 Pages: 1 -->
<svg width="219pt" height="308pt"
 viewBox="0.00 0.00 219.26 308.08" xmlns="http://www.w3.org/2000/svg" xmlns:xlink="http://www.w3.org/1999/xlink">
<g id="graph0" class="graph" transform="scale(1 1) rotate(0) translate(4 304.0782)">
<title>%3</title>
<polygon fill="#ffffff" stroke="transparent" points="-4,4 -4,-304.0782 215.2635,-304.0782 215.2635,4 -4,4"/>
<!-- 1 -->
<g id="node1" class="node">
<title>1</title>
<ellipse fill="none" stroke="#ff0000" cx="16.2635" cy="-283.8148" rx="16.0303" ry="16.0303"/>
<text text-anchor="middle" x="16.2635" y="-280.7148" font-family="Times,serif" font-size="12.00" fill="#000000">1</text>
</g>
<!-- 2 -->
<g id="node2" class="node">
<title>2</title>
<ellipse fill="none" stroke="#ff0000" cx="65.2635" cy="-16.2635" rx="16.0303" ry="16.0303"/>
<text text-anchor="middle" x="65.2635" y="-13.1635" font-family="Times,serif" font-size="12.00" fill="#000000">2</text>
</g>
<!-- 1&#45;&gt;2 -->
<g id="edge1" class="edge">
<title>1&#45;&gt;2</title>
<path fill="none" stroke="#000000" d="M12.8836,-267.834C6.2654,-233.014 -5.7685,-148.2346 18.2635,-83.5269 24.7113,-66.1657 36.7306,-49.0915 47.0001,-36.4899"/>
<polygon fill="#000000" stroke="#000000" points="49.9482,-38.4245 53.7403,-28.5316 44.6065,-33.9005 49.9482,-38.4245"/>
<text text-anchor="middle" x="18.7635" y="-146.3391" font-family="Times,serif" font-size="14.00" fill="#000000">2.00</text>
</g>
<!-- 9 -->
<g id="node3" class="node">
<title>9</title>
<ellipse fill="none" stroke="#000000" cx="39.2635" cy="-196.0452" rx="16.0303" ry="16.0303"/>
<text text-anchor="middle" x="39.2635" y="-192.9452" font-family="Times,serif" font-size="12.00" fill="#000000">9</text>
</g>
<!-- 1&#45;&gt;9 -->
<g id="edge2" class="edge">
<title>1&#45;&gt;9</title>
<path fill="none" stroke="#000000" d="M20.482,-267.7165C23.8214,-254.9731 28.5524,-236.9193 32.4306,-222.12"/>
<polygon fill="#000000" stroke="#000000" points="35.9223,-222.6021 35.0716,-212.0414 29.151,-220.8276 35.9223,-222.6021"/>
<text text-anchor="middle" x="41.7635" y="-238.3513" font-family="Times,serif" font-size="14.00" fill="#000000">1.00</text>
</g>
<!-- 5 -->
<g id="node7" class="node">
<title>5</title>
<ellipse fill="none" stroke="#000000" cx="43.2635" cy="-104.033" rx="16.0303" ry="16.0303"/>
<text text-anchor="middle" x="43.2635" y="-100.933" font-family="Times,serif" font-size="12.00" fill="#000000">5</text>
</g>
<!-- 9&#45;&gt;5 -->
<g id="edge6" class="edge">
<title>9&#45;&gt;5</title>
<path fill="none" stroke="#000000" d="M39.9786,-179.5953C40.5701,-165.9875 41.4218,-146.3972 42.1097,-130.5737"/>
<polygon fill="#000000" stroke="#000000" points="45.6168,-130.4831 42.5545,-120.3405 38.6234,-130.1791 45.6168,-130.4831"/>
<text text-anchor="middle" x="54.7635" y="-146.3391" font-family="Times,serif" font-size="14.00" fill="#000000">2.00</text>
</g>
<!-- 4 -->
<g id="node4" class="node">
<title>4</title>
<ellipse fill="none" stroke="#ff0000" cx="155.2635" cy="-283.8148" rx="16.0303" ry="16.0303"/>
<text text-anchor="middle" x="155.2635" y="-280.7148" font-family="Times,serif" font-size="12.00" fill="#000000">4</text>
</g>
<!-- 4&#45;&gt;2 -->
<g id="edge3" class="edge">
<title>4&#45;&gt;2</title>
<path fill="none" stroke="#000000" d="M152.7961,-267.5468C146.4461,-228.5233 127.3757,-127.1518 90.2635,-50.5269 88.0146,-45.8837 85.1241,-41.2156 82.1117,-36.8841"/>
<polygon fill="#000000" stroke="#000000" points="84.7058,-34.5078 75.9234,-28.5814 79.0932,-38.691 84.7058,-34.5078"/>
<text text-anchor="middle" x="140.7635" y="-146.3391" font-family="Times,serif" font-size="14.00" fill="#000000">0.63</text>
</g>
<!-- 23 -->
<g id="node5" class="node">
<title>23</title>
<ellipse fill="none" stroke="#000000" cx="186.2635" cy="-196.0452" rx="20.5122" ry="20.5122"/>
<text text-anchor="middle" x="186.2635" y="-192.9452" font-family="Times,serif" font-size="12.00" fill="#000000">23</text>
</g>
<!-- 4&#45;&gt;23 -->
<g id="edge4" class="edge">
<title>4&#45;&gt;23</title>
<path fill="none" stroke="#000000" d="M160.8056,-268.1233C165.0223,-256.1846 170.9441,-239.4184 176.0153,-225.0604"/>
<polygon fill="#000000" stroke="#000000" points="179.3287,-226.1887 179.3589,-215.5939 172.7283,-223.8575 179.3287,-226.1887"/>
<text text-anchor="middle" x="184.7635" y="-238.3513" font-family="Times,serif" font-size="14.00" fill="#000000">1.00</text>
</g>
<!-- 26 -->
<g id="node8" class="node">
<title>26</title>
<ellipse fill="none" stroke="#000000" cx="186.2635" cy="-104.033" rx="20.5122" ry="20.5122"/>
<text text-anchor="middle" x="186.2635" y="-100.933" font-family="Times,serif" font-size="12.00" fill="#000000">26</text>
</g>
<!-- 23&#45;&gt;26 -->
<g id="edge7" class="edge">
<title>23&#45;&gt;26</title>
<path fill="none" stroke="#000000" d="M186.2635,-175.1662C186.2635,-163.2842 186.2635,-148.1766 186.2635,-134.9431"/>
<polygon fill="#000000" stroke="#000000" points="189.7636,-134.8293 186.2635,-124.8294 182.7636,-134.8294 189.7636,-134.8293"/>
<text text-anchor="middle" x="198.7635" y="-146.3391" font-family="Times,serif" font-size="14.00" fill="#000000">1.00</text>
</g>
<!-- 8 -->
<g id="node6" class="node">
<title>8</title>
<ellipse fill="none" stroke="#ff0000" cx="89.2635" cy="-283.8148" rx="16.0303" ry="16.0303"/>
<text text-anchor="middle" x="89.2635" y="-280.7148" font-family="Times,serif" font-size="12.00" fill="#000000">8</text>
</g>
<!-- 8&#45;&gt;2 -->
<g id="edge5" class="edge">
<title>8&#45;&gt;2</title>
<path fill="none" stroke="#000000" d="M89.5322,-267.5494C89.8934,-229.3556 89.2528,-131.0782 75.2635,-50.5269 74.7565,-47.6078 74.0901,-44.5839 73.3415,-41.5962"/>
<polygon fill="#000000" stroke="#000000" points="76.6601,-40.4674 70.5918,-31.7825 69.9196,-42.356 76.6601,-40.4674"/>
<text text-anchor="middle" x="98.7635" y="-146.3391" font-family="Times,serif" font-size="14.00" fill="#000000">1.00</text>
</g>
<!-- 5&#45;&gt;2 -->
<g id="edge8" class="edge">
<title>5&#45;&gt;2</title>
<path fill="none" stroke="#000000" d="M44.2248,-87.3999C45.1383,-76.7142 46.8984,-62.6212 50.2635,-50.5269 51.2148,-47.1076 52.4437,-43.5866 53.7882,-40.1631"/>
<polygon fill="#000000" stroke="#000000" points="57.0196,-41.5081 57.7492,-30.9384 50.5875,-38.7461 57.0196,-41.5081"/>
<text text-anchor="middle" x="62.7635" y="-54.3269" font-family="Times,serif" font-size="14.00" fill="#000000">2.00</text>
</g>
<!-- 7 -->
<g id="node9" class="node">
<title>7</title>
<ellipse fill="none" stroke="#ff0000" cx="186.2635" cy="-16.2635" rx="16.0303" ry="16.0303"/>
<text text-anchor="middle" x="186.2635" y="-13.1635" font-family="Times,serif" font-size="12.00" fill="#000000">7</text>
</g>
<!-- 26&#45;&gt;7 -->
<g id="edge9" class="edge">
<title>26&#45;&gt;7</title>
<path fill="none" stroke="#000000" d="M186.2635,-83.2328C186.2635,-71.1141 186.2635,-55.7121 186.2635,-42.7349"/>
<polygon fill="#000000" stroke="#000000" points="189.7636,-42.5296 186.2635,-32.5297 182.7636,-42.5297 189.7636,-42.5296"/>
<text text-anchor="middle" x="198.7635" y="-54.3269" font-family="Times,serif" font-size="14.00" fill="#000000">2.00</text>
</g>
</g>
</svg>
