<?xml version="1.0" encoding="UTF-8" standalone="no"?>
<!DOCTYPE svg PUBLIC "-//W3C//DTD SVG 1.1//EN"
 "http://www.w3.org/Graphics/SVG/1.1/DTD/svg11.dtd">
<!-- Generated by graphviz version 2.40.1 (20161225.0304)
 -->
<!-- Title: %3 Pages: 1 -->
<svg width="262pt" height="326pt"
 viewBox="0.00 0.00 261.53 325.61" xmlns="http://www.w3.org/2000/svg" xmlns:xlink="http://www.w3.org/1999/xlink">
<g id="graph0" class="graph" transform="scale(1 1) rotate(0) translate(4 321.6051)">
<title>%3</title>
<polygon fill="#ffffff" stroke="transparent" points="-4,4 -4,-321.6051 257.5269,-321.6051 257.5269,4 -4,4"/>
<!-- 1 -->
<g id="node1" class="node">
<title>1</title>
<ellipse fill="none" stroke="#ff0000" cx="44.2635" cy="-301.3417" rx="16.0303" ry="16.0303"/>
<text text-anchor="middle" x="44.2635" y="-298.2417" font-family="Times,serif" font-size="12.00" fill="#000000">1</text>
</g>
<!-- 5 -->
<g id="node2" class="node">
<title>5</title>
<ellipse fill="none" stroke="#000000" cx="16.2635" cy="-163.0452" rx="16.0303" ry="16.0303"/>
<text text-anchor="middle" x="16.2635" y="-159.9452" font-family="Times,serif" font-size="12.00" fill="#000000">5</text>
</g>
<!-- 1&#45;&gt;5 -->
<g id="edge1" class="edge">
<title>1&#45;&gt;5</title>
<path fill="none" stroke="#000000" d="M33.7649,-288.4849C29.3892,-282.3754 24.7541,-274.7425 22.2635,-267.0782 13.9887,-241.6146 13.2761,-210.8235 14.1477,-189.3749"/>
<polygon fill="#000000" stroke="#000000" points="17.6432,-189.5512 14.6962,-179.3745 10.6537,-189.1678 17.6432,-189.5512"/>
<text text-anchor="middle" x="34.7635" y="-255.8782" font-family="Times,serif" font-size="14.00" fill="#000000">2.00</text>
</g>
<!-- 23 -->
<g id="node3" class="node">
<title>23</title>
<ellipse fill="none" stroke="#000000" cx="70.2635" cy="-163.0452" rx="20.5122" ry="20.5122"/>
<text text-anchor="middle" x="70.2635" y="-159.9452" font-family="Times,serif" font-size="12.00" fill="#000000">23</text>
</g>
<!-- 1&#45;&gt;23 -->
<g id="edge2" class="edge">
<title>1&#45;&gt;23</title>
<path fill="none" stroke="#000000" d="M47.2969,-285.2066C51.5017,-262.8407 59.1832,-221.9822 64.4979,-193.7128"/>
<polygon fill="#000000" stroke="#000000" points="67.9987,-194.034 66.4067,-183.5595 61.1193,-192.7406 67.9987,-194.034"/>
<text text-anchor="middle" x="66.7635" y="-255.8782" font-family="Times,serif" font-size="14.00" fill="#000000">1.00</text>
</g>
<!-- 2 -->
<g id="node5" class="node">
<title>2</title>
<ellipse fill="none" stroke="#ff0000" cx="101.2635" cy="-16.2635" rx="16.0303" ry="16.0303"/>
<text text-anchor="middle" x="101.2635" y="-13.1635" font-family="Times,serif" font-size="12.00" fill="#000000">2</text>
</g>
<!-- 5&#45;&gt;2 -->
<g id="edge6" class="edge">
<title>5&#45;&gt;2</title>
<path fill="none" stroke="#000000" d="M21.3237,-147.5304C27.0014,-131.0755 37.0366,-104.6001 49.2635,-83.5269 59.1074,-66.5607 72.7436,-49.0835 83.5824,-36.1978"/>
<polygon fill="#000000" stroke="#000000" points="86.3788,-38.3134 90.233,-28.4445 81.0657,-33.7559 86.3788,-38.3134"/>
<text text-anchor="middle" x="61.7635" y="-100.333" font-family="Times,serif" font-size="14.00" fill="#000000">1.14</text>
</g>
<!-- 23&#45;&gt;2 -->
<g id="edge7" class="edge">
<title>23&#45;&gt;2</title>
<path fill="none" stroke="#000000" d="M73.8237,-142.7289C76.7103,-126.6303 80.9879,-103.5875 85.2635,-83.5269 88.1956,-69.7693 91.7961,-54.5123 94.8385,-42.0114"/>
<polygon fill="#000000" stroke="#000000" points="98.2491,-42.7987 97.2361,-32.2524 91.4513,-41.1286 98.2491,-42.7987"/>
<text text-anchor="middle" x="97.7635" y="-100.333" font-family="Times,serif" font-size="14.00" fill="#000000">2.00</text>
</g>
<!-- 4 -->
<g id="node4" class="node">
<title>4</title>
<ellipse fill="none" stroke="#ff0000" cx="214.2635" cy="-301.3417" rx="16.0303" ry="16.0303"/>
<text text-anchor="middle" x="214.2635" y="-298.2417" font-family="Times,serif" font-size="12.00" fill="#000000">4</text>
</g>
<!-- 4&#45;&gt;2 -->
<g id="edge3" class="edge">
<title>4&#45;&gt;2</title>
<path fill="none" stroke="#000000" d="M211.6513,-285.2166C204.4601,-241.4557 183.9962,-121.2256 170.2635,-83.5269 164.5452,-67.8294 163.5197,-62.8723 152.2635,-50.5269 144.5016,-42.0141 134.2119,-34.5858 124.9087,-28.8421"/>
<polygon fill="#000000" stroke="#000000" points="126.4657,-25.6984 116.0645,-23.6821 122.9381,-31.7446 126.4657,-25.6984"/>
<text text-anchor="middle" x="205.7635" y="-159.3452" font-family="Times,serif" font-size="14.00" fill="#000000">1.00</text>
</g>
<!-- 7 -->
<g id="node6" class="node">
<title>7</title>
<ellipse fill="none" stroke="#ff0000" cx="237.2635" cy="-16.2635" rx="16.0303" ry="16.0303"/>
<text text-anchor="middle" x="237.2635" y="-13.1635" font-family="Times,serif" font-size="12.00" fill="#000000">7</text>
</g>
<!-- 4&#45;&gt;7 -->
<g id="edge4" class="edge">
<title>4&#45;&gt;7</title>
<path fill="none" stroke="#000000" d="M215.5994,-284.7824C219.4274,-237.3361 230.4594,-100.5976 235.1319,-42.6834"/>
<polygon fill="#000000" stroke="#000000" points="238.6368,-42.7622 235.9524,-32.5131 231.6595,-42.1993 238.6368,-42.7622"/>
<text text-anchor="middle" x="238.7635" y="-159.3452" font-family="Times,serif" font-size="14.00" fill="#000000">2.00</text>
</g>
<!-- 8 -->
<g id="node7" class="node">
<title>8</title>
<ellipse fill="none" stroke="#ff0000" cx="140.2635" cy="-301.3417" rx="16.0303" ry="16.0303"/>
<text text-anchor="middle" x="140.2635" y="-298.2417" font-family="Times,serif" font-size="12.00" fill="#000000">8</text>
</g>
<!-- 9 -->
<g id="node8" class="node">
<title>9</title>
<ellipse fill="none" stroke="#000000" cx="140.2635" cy="-217.8148" rx="16.0303" ry="16.0303"/>
<text text-anchor="middle" x="140.2635" y="-214.7148" font-family="Times,serif" font-size="12.00" fill="#000000">9</text>
</g>
<!-- 8&#45;&gt;9 -->
<g id="edge5" class="edge">
<title>8&#45;&gt;9</title>
<path fill="none" stroke="#000000" d="M140.2635,-284.8394C140.2635,-273.2849 140.2635,-257.5981 140.2635,-244.3053"/>
<polygon fill="#000000" stroke="#000000" points="143.7636,-244.2827 140.2635,-234.2827 136.7636,-244.2827 143.7636,-244.2827"/>
<text text-anchor="middle" x="152.7635" y="-255.8782" font-family="Times,serif" font-size="14.00" fill="#000000">1.00</text>
</g>
<!-- 26 -->
<g id="node9" class="node">
<title>26</title>
<ellipse fill="none" stroke="#000000" cx="140.2635" cy="-104.033" rx="20.5122" ry="20.5122"/>
<text text-anchor="middle" x="140.2635" y="-100.933" font-family="Times,serif" font-size="12.00" fill="#000000">26</text>
</g>
<!-- 9&#45;&gt;26 -->
<g id="edge8" class="edge">
<title>9&#45;&gt;26</title>
<path fill="none" stroke="#000000" d="M140.2635,-201.5126C140.2635,-184.1654 140.2635,-156.3125 140.2635,-134.813"/>
<polygon fill="#000000" stroke="#000000" points="143.7636,-134.5412 140.2635,-124.5413 136.7636,-134.5413 143.7636,-134.5412"/>
<text text-anchor="middle" x="152.7635" y="-159.3452" font-family="Times,serif" font-size="14.00" fill="#000000">1.00</text>
</g>
<!-- 26&#45;&gt;2 -->
<g id="edge9" class="edge">
<title>26&#45;&gt;2</title>
<path fill="none" stroke="#000000" d="M131.801,-84.9883C126.0323,-72.0058 118.342,-54.6988 112.1221,-40.7008"/>
<polygon fill="#000000" stroke="#000000" points="115.1605,-38.9193 107.9014,-31.2021 108.7636,-41.7618 115.1605,-38.9193"/>
<text text-anchor="middle" x="135.7635" y="-54.3269" font-family="Times,serif" font-size="14.00" fill="#000000">1.00</text>
</g>
</g>
</svg>
