<?xml version="1.0" encoding="UTF-8" standalone="no"?>
<!DOCTYPE svg PUBLIC "-//W3C//DTD SVG 1.1//EN"
 "http://www.w3.org/Graphics/SVG/1.1/DTD/svg11.dtd">
<!-- Generated by graphviz version 2.40.1 (20161225.0304)
 -->
<!-- Title: %3 Pages: 1 -->
<svg width="254pt" height="208pt"
 viewBox="0.00 0.00 254.25 207.58" xmlns="http://www.w3.org/2000/svg" xmlns:xlink="http://www.w3.org/1999/xlink">
<g id="graph0" class="graph" transform="scale(1 1) rotate(0) translate(4 203.5807)">
<title>%3</title>
<polygon fill="#ffffff" stroke="transparent" points="-4,4 -4,-203.5807 250.251,-203.5807 250.251,4 -4,4"/>
<!-- 1 -->
<g id="node1" class="node">
<title>1</title>
<ellipse fill="none" stroke="#ff0000" cx="19.9875" cy="-183.3173" rx="16.0303" ry="16.0303"/>
<text text-anchor="middle" x="19.9875" y="-180.2173" font-family="Times,serif" font-size="12.00" fill="#000000">1</text>
</g>
<!-- 2 -->
<g id="node2" class="node">
<title>2</title>
<ellipse fill="none" stroke="#ff0000" cx="81.9875" cy="-16.2635" rx="16.0303" ry="16.0303"/>
<text text-anchor="middle" x="81.9875" y="-13.1635" font-family="Times,serif" font-size="12.00" fill="#000000">2</text>
</g>
<!-- 1&#45;&gt;2 -->
<g id="edge1" class="edge">
<title>1&#45;&gt;2</title>
<path fill="none" stroke="#000000" d="M13.0363,-168.3975C4.7025,-148.2399 -6.6561,-111.6013 5.9875,-83.5269 16.7083,-59.7219 40.4792,-40.9398 58.6019,-29.3409"/>
<polygon fill="#000000" stroke="#000000" points="60.7458,-32.1332 67.4651,-23.9416 57.104,-26.1551 60.7458,-32.1332"/>
<text text-anchor="middle" x="18.4875" y="-96.0904" font-family="Times,serif" font-size="14.00" fill="#000000">2.00</text>
</g>
<!-- 5 -->
<g id="node3" class="node">
<title>5</title>
<ellipse fill="none" stroke="#000000" cx="55.9875" cy="-99.7904" rx="16.0303" ry="16.0303"/>
<text text-anchor="middle" x="55.9875" y="-96.6904" font-family="Times,serif" font-size="12.00" fill="#000000">5</text>
</g>
<!-- 1&#45;&gt;5 -->
<g id="edge2" class="edge">
<title>1&#45;&gt;5</title>
<path fill="none" stroke="#000000" d="M26.5905,-167.9972C31.9011,-155.6755 39.4602,-138.137 45.5832,-123.9303"/>
<polygon fill="#000000" stroke="#000000" points="48.8036,-125.301 49.5475,-114.7323 42.3753,-122.5304 48.8036,-125.301"/>
<text text-anchor="middle" x="54.4875" y="-137.8538" font-family="Times,serif" font-size="14.00" fill="#000000">2.00</text>
</g>
<!-- 5&#45;&gt;2 -->
<g id="edge6" class="edge">
<title>5&#45;&gt;2</title>
<path fill="none" stroke="#000000" d="M59.7833,-83.6937C62.1786,-74.0094 65.4761,-61.4768 68.9875,-50.5269 69.9978,-47.3765 71.134,-44.0923 72.3033,-40.8586"/>
<polygon fill="#000000" stroke="#000000" points="75.5812,-42.0855 75.8177,-31.4933 69.0274,-39.6261 75.5812,-42.0855"/>
<text text-anchor="middle" x="81.4875" y="-54.3269" font-family="Times,serif" font-size="14.00" fill="#000000">2.00</text>
</g>
<!-- 4 -->
<g id="node4" class="node">
<title>4</title>
<ellipse fill="none" stroke="#ff0000" cx="198.9875" cy="-183.3173" rx="16.0303" ry="16.0303"/>
<text text-anchor="middle" x="198.9875" y="-180.2173" font-family="Times,serif" font-size="12.00" fill="#000000">4</text>
</g>
<!-- 4&#45;&gt;2 -->
<g id="edge3" class="edge">
<title>4&#45;&gt;2</title>
<path fill="none" stroke="#000000" d="M190.3864,-169.392C175.0462,-144.8139 141.6024,-92.3817 109.9875,-50.5269 106.5148,-45.9295 102.6737,-41.085 98.978,-36.5328"/>
<polygon fill="#000000" stroke="#000000" points="101.6494,-34.2709 92.5939,-28.7711 96.2432,-38.7176 101.6494,-34.2709"/>
<text text-anchor="middle" x="168.4875" y="-96.0904" font-family="Times,serif" font-size="14.00" fill="#000000">1.00</text>
</g>
<!-- 7 -->
<g id="node5" class="node">
<title>7</title>
<ellipse fill="none" stroke="#ff0000" cx="229.9875" cy="-16.2635" rx="16.0303" ry="16.0303"/>
<text text-anchor="middle" x="229.9875" y="-13.1635" font-family="Times,serif" font-size="12.00" fill="#000000">7</text>
</g>
<!-- 4&#45;&gt;7 -->
<g id="edge4" class="edge">
<title>4&#45;&gt;7</title>
<path fill="none" stroke="#000000" d="M201.9599,-167.2995C207.316,-138.4362 218.6332,-77.4496 225.1293,-42.4437"/>
<polygon fill="#000000" stroke="#000000" points="228.5952,-42.949 226.9785,-32.4782 221.7127,-41.6718 228.5952,-42.949"/>
<text text-anchor="middle" x="229.4875" y="-96.0904" font-family="Times,serif" font-size="14.00" fill="#000000">2.00</text>
</g>
<!-- 8 -->
<g id="node6" class="node">
<title>8</title>
<ellipse fill="none" stroke="#ff0000" cx="107.9875" cy="-183.3173" rx="16.0303" ry="16.0303"/>
<text text-anchor="middle" x="107.9875" y="-180.2173" font-family="Times,serif" font-size="12.00" fill="#000000">8</text>
</g>
<!-- 8&#45;&gt;2 -->
<g id="edge5" class="edge">
<title>8&#45;&gt;2</title>
<path fill="none" stroke="#000000" d="M107.4723,-166.764C106.4093,-141.4419 103.2342,-91.6918 93.9875,-50.5269 93.2916,-47.4291 92.405,-44.2237 91.4296,-41.073"/>
<polygon fill="#000000" stroke="#000000" points="94.6706,-39.7325 88.1358,-31.393 88.0437,-41.9874 94.6706,-39.7325"/>
<text text-anchor="middle" x="116.4875" y="-96.0904" font-family="Times,serif" font-size="14.00" fill="#000000">1.00</text>
</g>
</g>
</svg>
