<?xml version="1.0" encoding="UTF-8" standalone="no"?>
<!DOCTYPE svg PUBLIC "-//W3C//DTD SVG 1.1//EN"
 "http://www.w3.org/Graphics/SVG/1.1/DTD/svg11.dtd">
<!-- Generated by graphviz version 2.40.1 (20161225.0304)
 -->
<!-- Title: %3 Pages: 1 -->
<svg width="244pt" height="326pt"
 viewBox="0.00 0.00 244.26 325.61" xmlns="http://www.w3.org/2000/svg" xmlns:xlink="http://www.w3.org/1999/xlink">
<g id="graph0" class="graph" transform="scale(1 1) rotate(0) translate(4 321.6051)">
<title>%3</title>
<polygon fill="#ffffff" stroke="transparent" points="-4,4 -4,-321.6051 240.2634,-321.6051 240.2634,4 -4,4"/>
<!-- 1 -->
<g id="node1" class="node">
<title>1</title>
<ellipse fill="none" stroke="#ff0000" cx="32.2634" cy="-301.3417" rx="16.0303" ry="16.0303"/>
<text text-anchor="middle" x="32.2634" y="-298.2417" font-family="Times,serif" font-size="12.00" fill="#000000">1</text>
</g>
<!-- 2 -->
<g id="node2" class="node">
<title>2</title>
<ellipse fill="none" stroke="#ff0000" cx="78.2634" cy="-16.2635" rx="16.0303" ry="16.0303"/>
<text text-anchor="middle" x="78.2634" y="-13.1635" font-family="Times,serif" font-size="12.00" fill="#000000">2</text>
</g>
<!-- 1&#45;&gt;2 -->
<g id="edge1" class="edge">
<title>1&#45;&gt;2</title>
<path fill="none" stroke="#000000" d="M25.5291,-286.3166C13.1981,-256.7115 -10.3666,-188.9445 5.2634,-134.0538 16.0717,-96.0964 43.0031,-58.4181 60.9565,-36.2471"/>
<polygon fill="#000000" stroke="#000000" points="63.6574,-38.4732 67.3454,-28.5409 58.2685,-34.0055 63.6574,-38.4732"/>
<text text-anchor="middle" x="17.7634" y="-150.8599" font-family="Times,serif" font-size="14.00" fill="#000000">2.00</text>
</g>
<!-- 5 -->
<g id="node3" class="node">
<title>5</title>
<ellipse fill="none" stroke="#000000" cx="55.2634" cy="-154.5599" rx="16.0303" ry="16.0303"/>
<text text-anchor="middle" x="55.2634" y="-151.4599" font-family="Times,serif" font-size="12.00" fill="#000000">5</text>
</g>
<!-- 1&#45;&gt;5 -->
<g id="edge2" class="edge">
<title>1&#45;&gt;5</title>
<path fill="none" stroke="#000000" d="M34.8127,-285.0726C38.7502,-259.9441 46.3514,-211.4343 51.096,-181.1553"/>
<polygon fill="#000000" stroke="#000000" points="54.6123,-181.3231 52.7027,-170.9018 47.6967,-180.2394 54.6123,-181.3231"/>
<text text-anchor="middle" x="52.7634" y="-255.8782" font-family="Times,serif" font-size="14.00" fill="#000000">2.00</text>
</g>
<!-- 5&#45;&gt;2 -->
<g id="edge6" class="edge">
<title>5&#45;&gt;2</title>
<path fill="none" stroke="#000000" d="M56.9703,-138.1424C58.5596,-123.7107 61.1484,-102.163 64.2634,-83.5269 66.5448,-69.878 69.6337,-54.7857 72.3296,-42.3614"/>
<polygon fill="#000000" stroke="#000000" points="75.8275,-42.7529 74.5675,-32.2332 68.9923,-41.2426 75.8275,-42.7529"/>
<text text-anchor="middle" x="76.7634" y="-96.0904" font-family="Times,serif" font-size="14.00" fill="#000000">2.00</text>
</g>
<!-- 4 -->
<g id="node4" class="node">
<title>4</title>
<ellipse fill="none" stroke="#ff0000" cx="180.2634" cy="-301.3417" rx="16.0303" ry="16.0303"/>
<text text-anchor="middle" x="180.2634" y="-298.2417" font-family="Times,serif" font-size="12.00" fill="#000000">4</text>
</g>
<!-- 4&#45;&gt;2 -->
<g id="edge3" class="edge">
<title>4&#45;&gt;2</title>
<path fill="none" stroke="#000000" d="M177.1347,-284.9997C172.5325,-260.9341 163.6805,-214.5428 156.2634,-175.066 148.6224,-134.3979 149.0563,-123.7311 139.2634,-83.5269 135.6365,-68.637 138.3753,-62.8491 129.2634,-50.5269 122.2464,-41.0377 111.7685,-33.3508 102.132,-27.6807"/>
<polygon fill="#000000" stroke="#000000" points="103.7477,-24.5753 93.2911,-22.8695 100.4017,-30.7239 103.7477,-24.5753"/>
<text text-anchor="middle" x="168.7634" y="-150.8599" font-family="Times,serif" font-size="14.00" fill="#000000">1.00</text>
</g>
<!-- 26 -->
<g id="node5" class="node">
<title>26</title>
<ellipse fill="none" stroke="#000000" cx="211.2634" cy="-154.5599" rx="20.5122" ry="20.5122"/>
<text text-anchor="middle" x="211.2634" y="-151.4599" font-family="Times,serif" font-size="12.00" fill="#000000">26</text>
</g>
<!-- 4&#45;&gt;26 -->
<g id="edge4" class="edge">
<title>4&#45;&gt;26</title>
<path fill="none" stroke="#000000" d="M183.6399,-285.354C188.7215,-261.2935 198.4248,-215.3491 204.8711,-184.8266"/>
<polygon fill="#000000" stroke="#000000" points="208.3605,-185.2421 207.0025,-174.7347 201.5116,-183.7956 208.3605,-185.2421"/>
<text text-anchor="middle" x="202.7634" y="-255.8782" font-family="Times,serif" font-size="14.00" fill="#000000">1.00</text>
</g>
<!-- 7 -->
<g id="node8" class="node">
<title>7</title>
<ellipse fill="none" stroke="#ff0000" cx="211.2634" cy="-16.2635" rx="16.0303" ry="16.0303"/>
<text text-anchor="middle" x="211.2634" y="-13.1635" font-family="Times,serif" font-size="12.00" fill="#000000">7</text>
</g>
<!-- 26&#45;&gt;7 -->
<g id="edge7" class="edge">
<title>26&#45;&gt;7</title>
<path fill="none" stroke="#000000" d="M211.2634,-133.8555C211.2634,-109.6164 211.2634,-69.4173 211.2634,-42.881"/>
<polygon fill="#000000" stroke="#000000" points="214.7635,-42.7682 211.2634,-32.7683 207.7635,-42.7683 214.7635,-42.7682"/>
<text text-anchor="middle" x="223.7634" y="-96.0904" font-family="Times,serif" font-size="14.00" fill="#000000">2.00</text>
</g>
<!-- 8 -->
<g id="node6" class="node">
<title>8</title>
<ellipse fill="none" stroke="#ff0000" cx="111.2634" cy="-301.3417" rx="16.0303" ry="16.0303"/>
<text text-anchor="middle" x="111.2634" y="-298.2417" font-family="Times,serif" font-size="12.00" fill="#000000">8</text>
</g>
<!-- 23 -->
<g id="node7" class="node">
<title>23</title>
<ellipse fill="none" stroke="#000000" cx="111.2634" cy="-213.5721" rx="20.5122" ry="20.5122"/>
<text text-anchor="middle" x="111.2634" y="-210.4721" font-family="Times,serif" font-size="12.00" fill="#000000">23</text>
</g>
<!-- 8&#45;&gt;23 -->
<g id="edge5" class="edge">
<title>8&#45;&gt;23</title>
<path fill="none" stroke="#000000" d="M111.2634,-284.8329C111.2634,-273.5482 111.2634,-258.2424 111.2634,-244.7082"/>
<polygon fill="#000000" stroke="#000000" points="114.7635,-244.3444 111.2634,-234.3445 107.7635,-244.3445 114.7635,-244.3444"/>
<text text-anchor="middle" x="123.7634" y="-255.8782" font-family="Times,serif" font-size="14.00" fill="#000000">1.00</text>
</g>
<!-- 9 -->
<g id="node9" class="node">
<title>9</title>
<ellipse fill="none" stroke="#000000" cx="114.2634" cy="-99.7904" rx="16.0303" ry="16.0303"/>
<text text-anchor="middle" x="114.2634" y="-96.6904" font-family="Times,serif" font-size="12.00" fill="#000000">9</text>
</g>
<!-- 23&#45;&gt;9 -->
<g id="edge8" class="edge">
<title>23&#45;&gt;9</title>
<path fill="none" stroke="#000000" d="M111.7586,-192.9767C112.1501,-176.9227 112.7196,-154.0704 113.2634,-134.0538 113.3327,-131.5033 113.4068,-128.8459 113.4822,-126.1892"/>
<polygon fill="#000000" stroke="#000000" points="116.9813,-126.2695 113.7718,-116.1725 109.9842,-126.0672 116.9813,-126.2695"/>
<text text-anchor="middle" x="125.7634" y="-150.8599" font-family="Times,serif" font-size="14.00" fill="#000000">1.00</text>
</g>
<!-- 9&#45;&gt;2 -->
<g id="edge9" class="edge">
<title>9&#45;&gt;2</title>
<path fill="none" stroke="#000000" d="M107.6604,-84.4702C102.3498,-72.1486 94.7907,-54.61 88.6677,-40.4034"/>
<polygon fill="#000000" stroke="#000000" points="91.8756,-39.0035 84.7033,-31.2054 85.4472,-41.7741 91.8756,-39.0035"/>
<text text-anchor="middle" x="112.7634" y="-54.3269" font-family="Times,serif" font-size="14.00" fill="#000000">1.00</text>
</g>
</g>
</svg>
