<?xml version="1.0" encoding="UTF-8" standalone="no"?>
<!DOCTYPE svg PUBLIC "-//W3C//DTD SVG 1.1//EN"
 "http://www.w3.org/Graphics/SVG/1.1/DTD/svg11.dtd">
<!-- Generated by graphviz version 2.40.1 (20161225.0304)
 -->
<!-- Title: %3 Pages: 1 -->
<svg width="334pt" height="428pt"
 viewBox="0.00 0.00 333.63 428.27" xmlns="http://www.w3.org/2000/svg" xmlns:xlink="http://www.w3.org/1999/xlink">
<g id="graph0" class="graph" transform="scale(1 1) rotate(0) translate(4 424.2742)">
<title>%3</title>
<polygon fill="#ffffff" stroke="transparent" points="-4,4 -4,-424.2742 329.6274,-424.2742 329.6274,4 -4,4"/>
<!-- 1 -->
<g id="node1" class="node">
<title>1</title>
<ellipse fill="none" stroke="#ff0000" cx="27.6274" cy="-387.6468" rx="22.7556" ry="22.7556"/>
<text text-anchor="middle" x="27.6274" y="-390.4468" font-family="Times,serif" font-size="9.00" fill="#000000">sum</text>
<text text-anchor="middle" x="27.6274" y="-380.4468" font-family="Times,serif" font-size="9.00" fill="#000000">id</text>
<text text-anchor="middle" x="2.5" y="-413.0742" font-family="Times,serif" font-size="9.00" fill="#000000">1</text>
</g>
<!-- 4 -->
<g id="node2" class="node">
<title>4</title>
<ellipse fill="none" stroke="#ff0000" cx="115.6274" cy="-22.6274" rx="22.7556" ry="22.7556"/>
<text text-anchor="middle" x="115.6274" y="-25.4274" font-family="Times,serif" font-size="9.00" fill="#000000">sum</text>
<text text-anchor="middle" x="115.6274" y="-15.4274" font-family="Times,serif" font-size="9.00" fill="#000000">step</text>
<text text-anchor="middle" x="90.5" y="-48.0548" font-family="Times,serif" font-size="9.00" fill="#000000">4</text>
</g>
<!-- 1&#45;&gt;4 -->
<g id="edge1" class="edge">
<title>1&#45;&gt;4</title>
<path fill="none" stroke="#000000" stroke-dasharray="5,2" d="M19.1937,-366.636C12.6295,-348.3787 4.6274,-321.0628 4.6274,-296.3919 4.6274,-296.3919 4.6274,-296.3919 4.6274,-113.8823 4.6274,-72.3959 51.4668,-46.301 84.2921,-33.1073"/>
<polygon fill="#000000" stroke="#000000" points="85.8627,-36.2544 93.962,-29.4241 83.3711,-29.7129 85.8627,-36.2544"/>
<text text-anchor="middle" x="12.6274" y="-202.9371" font-family="Times,serif" font-size="9.00" fill="#000000">2.63</text>
</g>
<!-- 5 -->
<g id="node4" class="node">
<title>5</title>
<ellipse fill="none" stroke="#000000" cx="108.6274" cy="-205.1371" rx="22.7556" ry="22.7556"/>
<text text-anchor="middle" x="108.6274" y="-207.9371" font-family="Times,serif" font-size="9.00" fill="#000000">sum</text>
<text text-anchor="middle" x="108.6274" y="-197.9371" font-family="Times,serif" font-size="9.00" fill="#000000">sig</text>
<text text-anchor="middle" x="83.5" y="-230.5645" font-family="Times,serif" font-size="9.00" fill="#000000">5</text>
</g>
<!-- 1&#45;&gt;5 -->
<g id="edge11" class="edge">
<title>1&#45;&gt;5</title>
<path fill="none" stroke="#000000" d="M32.9884,-365.6042C39.0932,-342.186 50.129,-304.3915 64.6274,-273.7645 71.4982,-259.2505 80.9216,-244.1213 89.2854,-231.7732"/>
<polygon fill="#000000" stroke="#000000" points="92.3218,-233.536 95.1365,-223.3219 86.5666,-229.5514 92.3218,-233.536"/>
<text text-anchor="middle" x="72.6274" y="-294.1919" font-family="Times,serif" font-size="9.00" fill="#000000">6.72</text>
</g>
<!-- 2 -->
<g id="node3" class="node">
<title>2</title>
<ellipse fill="none" stroke="#ff0000" cx="220.6274" cy="-387.6468" rx="22.7556" ry="22.7556"/>
<text text-anchor="middle" x="220.6274" y="-390.4468" font-family="Times,serif" font-size="9.00" fill="#000000">sum</text>
<text text-anchor="middle" x="220.6274" y="-380.4468" font-family="Times,serif" font-size="9.00" fill="#000000">id</text>
<text text-anchor="middle" x="195.5" y="-413.0742" font-family="Times,serif" font-size="9.00" fill="#000000">2</text>
</g>
<!-- 2&#45;&gt;4 -->
<g id="edge2" class="edge">
<title>2&#45;&gt;4</title>
<path fill="none" stroke="#c0c0c0" stroke-dasharray="5,2" d="M231.0971,-367.2122C239.4038,-349.093 249.6274,-321.6598 249.6274,-296.3919 249.6274,-296.3919 249.6274,-296.3919 249.6274,-113.8823 249.6274,-64.8165 187.4911,-40.2589 147.843,-29.5835"/>
<polygon fill="#c0c0c0" stroke="#c0c0c0" points="148.6093,-26.1671 138.056,-27.1042 146.8903,-32.9528 148.6093,-26.1671"/>
<text text-anchor="middle" x="259.1274" y="-202.9371" font-family="Times,serif" font-size="9.00" fill="#000000">&#45;4.19</text>
</g>
<!-- 2&#45;&gt;5 -->
<g id="edge3" class="edge">
<title>2&#45;&gt;5</title>
<path fill="none" stroke="#000000" stroke-dasharray="5,2" d="M199.2149,-379.8414C175.0825,-369.806 136.849,-349.9012 118.6274,-319.0193 104.2187,-294.5996 102.7773,-261.97 104.3175,-237.8981"/>
<polygon fill="#000000" stroke="#000000" points="107.814,-238.0863 105.1649,-227.828 100.8386,-237.4993 107.814,-238.0863"/>
<text text-anchor="middle" x="126.6274" y="-294.1919" font-family="Times,serif" font-size="9.00" fill="#000000">1.00</text>
</g>
<!-- 3 -->
<g id="node5" class="node">
<title>3</title>
<ellipse fill="none" stroke="#ff0000" cx="254.6274" cy="-22.6274" rx="22.7556" ry="22.7556"/>
<text text-anchor="middle" x="254.6274" y="-25.4274" font-family="Times,serif" font-size="9.00" fill="#000000">sum</text>
<text text-anchor="middle" x="254.6274" y="-15.4274" font-family="Times,serif" font-size="9.00" fill="#000000">step</text>
<text text-anchor="middle" x="229.5" y="-48.0548" font-family="Times,serif" font-size="9.00" fill="#000000">3</text>
</g>
<!-- 2&#45;&gt;3 -->
<g id="edge6" class="edge">
<title>2&#45;&gt;3</title>
<path fill="none" stroke="#000000" d="M240.9615,-377.089C265.8215,-362.5519 304.6274,-333.8593 304.6274,-296.3919 304.6274,-296.3919 304.6274,-296.3919 304.6274,-113.8823 304.6274,-89.0427 290.2031,-64.5605 276.8493,-47.2176"/>
<polygon fill="#000000" stroke="#000000" points="279.4592,-44.8788 270.4477,-39.3071 274.0177,-49.2823 279.4592,-44.8788"/>
<text text-anchor="middle" x="315.1274" y="-202.9371" font-family="Times,serif" font-size="9.00" fill="#000000">23.37</text>
</g>
<!-- 6 -->
<g id="node6" class="node">
<title>6</title>
<ellipse fill="none" stroke="#000000" cx="166.6274" cy="-296.3919" rx="22.7556" ry="22.7556"/>
<text text-anchor="middle" x="166.6274" y="-299.1919" font-family="Times,serif" font-size="9.00" fill="#000000">sum</text>
<text text-anchor="middle" x="166.6274" y="-289.1919" font-family="Times,serif" font-size="9.00" fill="#000000">sig</text>
<text text-anchor="middle" x="141.5" y="-321.8193" font-family="Times,serif" font-size="9.00" fill="#000000">6</text>
</g>
<!-- 2&#45;&gt;6 -->
<g id="edge7" class="edge">
<title>2&#45;&gt;6</title>
<path fill="none" stroke="#000000" d="M208.9102,-367.8458C201.4802,-355.2897 191.7478,-338.8429 183.4935,-324.894"/>
<polygon fill="#000000" stroke="#000000" points="186.4266,-322.9779 178.3217,-316.1542 180.4023,-326.5428 186.4266,-322.9779"/>
<text text-anchor="middle" x="202.6274" y="-339.8193" font-family="Times,serif" font-size="9.00" fill="#000000">1.00</text>
</g>
<!-- 5&#45;&gt;4 -->
<g id="edge4" class="edge">
<title>5&#45;&gt;4</title>
<path fill="none" stroke="#000000" stroke-dasharray="5,2" d="M109.4998,-182.3911C110.724,-150.4726 112.9589,-92.2023 114.3647,-55.549"/>
<polygon fill="#000000" stroke="#000000" points="117.8691,-55.4995 114.755,-45.3727 110.8743,-55.2311 117.8691,-55.4995"/>
<text text-anchor="middle" x="120.6274" y="-111.6823" font-family="Times,serif" font-size="9.00" fill="#000000">1.87</text>
</g>
<!-- 5&#45;&gt;3 -->
<g id="edge5" class="edge">
<title>5&#45;&gt;3</title>
<path fill="none" stroke="#000000" stroke-dasharray="5,2" d="M130.5798,-199.0447C148.9631,-192.9563 174.82,-181.9564 191.6274,-164.5097 221.4466,-133.5562 238.5621,-86.1091 247.2297,-54.729"/>
<polygon fill="#000000" stroke="#000000" points="250.6954,-55.3112 249.8514,-44.75 243.9252,-53.5324 250.6954,-55.3112"/>
<text text-anchor="middle" x="241.6274" y="-111.6823" font-family="Times,serif" font-size="9.00" fill="#000000">1.64</text>
</g>
<!-- 7 -->
<g id="node7" class="node">
<title>7</title>
<ellipse fill="none" stroke="#000000" stroke-dasharray="5,2" cx="56.6274" cy="-113.8823" rx="22.7556" ry="22.7556"/>
<text text-anchor="middle" x="56.6274" y="-116.6823" font-family="Times,serif" font-size="9.00" fill="#000000">sum</text>
<text text-anchor="middle" x="56.6274" y="-106.6823" font-family="Times,serif" font-size="9.00" fill="#000000">sig</text>
<text text-anchor="middle" x="31.5" y="-139.3097" font-family="Times,serif" font-size="9.00" fill="#000000">7</text>
</g>
<!-- 5&#45;&gt;7 -->
<g id="edge9" class="edge">
<title>5&#45;&gt;7</title>
<path fill="none" stroke="#000000" stroke-dasharray="5,2" d="M97.3442,-185.3361C90.1893,-172.78 80.8174,-156.3332 72.8688,-142.3843"/>
<polygon fill="#000000" stroke="#000000" points="75.8806,-140.6001 67.8886,-133.6445 69.7987,-144.0658 75.8806,-140.6001"/>
<text text-anchor="middle" x="91.6274" y="-157.3097" font-family="Times,serif" font-size="9.00" fill="#000000">1.00</text>
</g>
<!-- 6&#45;&gt;4 -->
<g id="edge12" class="edge">
<title>6&#45;&gt;4</title>
<path fill="none" stroke="#c0c0c0" d="M162.9959,-273.914C156.8743,-236.1545 144.0497,-157.6052 132.6274,-91.2548 130.4828,-78.7968 130.5334,-75.5576 127.6274,-63.2548 126.9231,-60.2732 126.1303,-57.1862 125.2965,-54.1071"/>
<polygon fill="#c0c0c0" stroke="#c0c0c0" points="128.6492,-53.1009 122.551,-44.437 121.9153,-55.0128 128.6492,-53.1009"/>
<text text-anchor="middle" x="156.6274" y="-157.3097" font-family="Times,serif" font-size="9.00" fill="#000000">&#45;11.28</text>
</g>
<!-- 6&#45;&gt;5 -->
<g id="edge8" class="edge">
<title>6&#45;&gt;5</title>
<path fill="none" stroke="#000000" d="M152.6674,-278.548C147.4276,-271.5824 141.5529,-263.4385 136.6274,-255.7645 132.3753,-249.1396 128.1023,-241.8259 124.2198,-234.866"/>
<polygon fill="#000000" stroke="#000000" points="127.0734,-232.7891 119.2062,-225.6927 120.9309,-236.1462 127.0734,-232.7891"/>
<text text-anchor="middle" x="144.6274" y="-248.5645" font-family="Times,serif" font-size="9.00" fill="#000000">1.00</text>
</g>
<!-- 7&#45;&gt;4 -->
<g id="edge10" class="edge">
<title>7&#45;&gt;4</title>
<path fill="none" stroke="#000000" stroke-dasharray="5,2" d="M67.3997,-93.8483C72.6503,-84.4129 79.2066,-73.0954 85.6274,-63.2548 88.7417,-58.4818 92.2086,-53.5134 95.6482,-48.7566"/>
<polygon fill="#000000" stroke="#000000" points="98.6107,-50.6364 101.7281,-40.5106 92.9765,-46.4823 98.6107,-50.6364"/>
<text text-anchor="middle" x="93.6274" y="-66.0548" font-family="Times,serif" font-size="9.00" fill="#000000">1.87</text>
</g>
</g>
</svg>
