<?xml version="1.0" encoding="UTF-8" standalone="no"?>
<!DOCTYPE svg PUBLIC "-//W3C//DTD SVG 1.1//EN"
 "http://www.w3.org/Graphics/SVG/1.1/DTD/svg11.dtd">
<!-- Generated by graphviz version 2.40.1 (20161225.0304)
 -->
<!-- Title: %3 Pages: 1 -->
<svg width="187pt" height="246pt"
 viewBox="0.00 0.00 187.25 245.76" xmlns="http://www.w3.org/2000/svg" xmlns:xlink="http://www.w3.org/1999/xlink">
<g id="graph0" class="graph" transform="scale(1 1) rotate(0) translate(4 241.7645)">
<title>%3</title>
<polygon fill="#ffffff" stroke="transparent" points="-4,4 -4,-241.7645 183.2548,-241.7645 183.2548,4 -4,4"/>
<!-- 1 -->
<g id="node1" class="node">
<title>1</title>
<ellipse fill="none" stroke="#ff0000" cx="30.6274" cy="-205.1371" rx="22.7556" ry="22.7556"/>
<text text-anchor="middle" x="30.6274" y="-207.9371" font-family="Times,serif" font-size="9.00" fill="#000000">sum</text>
<text text-anchor="middle" x="30.6274" y="-197.9371" font-family="Times,serif" font-size="9.00" fill="#000000">id</text>
<text text-anchor="middle" x="5.5" y="-230.5645" font-family="Times,serif" font-size="9.00" fill="#000000">1</text>
</g>
<!-- 23 -->
<g id="node2" class="node">
<title>23</title>
<ellipse fill="none" stroke="#000000" cx="32.6274" cy="-113.8823" rx="22.7556" ry="22.7556"/>
<text text-anchor="middle" x="32.6274" y="-116.6823" font-family="Times,serif" font-size="9.00" fill="#000000">sum</text>
<text text-anchor="middle" x="32.6274" y="-106.6823" font-family="Times,serif" font-size="9.00" fill="#000000">sig</text>
<text text-anchor="middle" x="5" y="-139.3097" font-family="Times,serif" font-size="9.00" fill="#000000">23</text>
</g>
<!-- 1&#45;&gt;23 -->
<g id="edge1" class="edge">
<title>1&#45;&gt;23</title>
<path fill="none" stroke="#000000" d="M31.1321,-182.1096C31.366,-171.4375 31.6483,-158.5585 31.9043,-146.8782"/>
<polygon fill="#000000" stroke="#000000" points="35.4098,-146.6605 32.1298,-136.5862 28.4115,-146.5071 35.4098,-146.6605"/>
<text text-anchor="middle" x="40.6274" y="-157.3097" font-family="Times,serif" font-size="9.00" fill="#000000">1.00</text>
</g>
<!-- 2 -->
<g id="node6" class="node">
<title>2</title>
<ellipse fill="none" stroke="#ff0000" cx="69.6274" cy="-22.6274" rx="22.7556" ry="22.7556"/>
<text text-anchor="middle" x="69.6274" y="-25.4274" font-family="Times,serif" font-size="9.00" fill="#000000">sum</text>
<text text-anchor="middle" x="69.6274" y="-15.4274" font-family="Times,serif" font-size="9.00" fill="#000000">sig</text>
<text text-anchor="middle" x="44.5" y="-48.0548" font-family="Times,serif" font-size="9.00" fill="#000000">2</text>
</g>
<!-- 23&#45;&gt;2 -->
<g id="edge4" class="edge">
<title>23&#45;&gt;2</title>
<path fill="none" stroke="#c0c0c0" d="M41.209,-92.7172C45.9722,-80.9693 51.981,-66.1497 57.2451,-53.1666"/>
<polygon fill="#c0c0c0" stroke="#c0c0c0" points="60.5784,-54.2601 61.0924,-43.6777 54.0914,-51.6298 60.5784,-54.2601"/>
<text text-anchor="middle" x="62.1274" y="-66.0548" font-family="Times,serif" font-size="9.00" fill="#000000">&#45;2.00</text>
</g>
<!-- 4 -->
<g id="node3" class="node">
<title>4</title>
<ellipse fill="none" stroke="#ff0000" cx="156.6274" cy="-205.1371" rx="22.7556" ry="22.7556"/>
<text text-anchor="middle" x="156.6274" y="-207.9371" font-family="Times,serif" font-size="9.00" fill="#000000">sum</text>
<text text-anchor="middle" x="156.6274" y="-197.9371" font-family="Times,serif" font-size="9.00" fill="#000000">id</text>
<text text-anchor="middle" x="131.5" y="-230.5645" font-family="Times,serif" font-size="9.00" fill="#000000">4</text>
</g>
<!-- 7 -->
<g id="node4" class="node">
<title>7</title>
<ellipse fill="none" stroke="#ff0000" cx="156.6274" cy="-22.6274" rx="22.7556" ry="22.7556"/>
<text text-anchor="middle" x="156.6274" y="-25.4274" font-family="Times,serif" font-size="9.00" fill="#000000">sum</text>
<text text-anchor="middle" x="156.6274" y="-15.4274" font-family="Times,serif" font-size="9.00" fill="#000000">sig</text>
<text text-anchor="middle" x="131.5" y="-48.0548" font-family="Times,serif" font-size="9.00" fill="#000000">7</text>
</g>
<!-- 4&#45;&gt;7 -->
<g id="edge2" class="edge">
<title>4&#45;&gt;7</title>
<path fill="none" stroke="#000000" d="M156.6274,-182.3911C156.6274,-150.4726 156.6274,-92.2023 156.6274,-55.549"/>
<polygon fill="#000000" stroke="#000000" points="160.1275,-55.3726 156.6274,-45.3727 153.1275,-55.3727 160.1275,-55.3726"/>
<text text-anchor="middle" x="164.6274" y="-111.6823" font-family="Times,serif" font-size="9.00" fill="#000000">2.00</text>
</g>
<!-- 8 -->
<g id="node5" class="node">
<title>8</title>
<ellipse fill="none" stroke="#ff0000" cx="93.6274" cy="-205.1371" rx="22.7556" ry="22.7556"/>
<text text-anchor="middle" x="93.6274" y="-207.9371" font-family="Times,serif" font-size="9.00" fill="#000000">sum</text>
<text text-anchor="middle" x="93.6274" y="-197.9371" font-family="Times,serif" font-size="9.00" fill="#000000">id</text>
<text text-anchor="middle" x="68.5" y="-230.5645" font-family="Times,serif" font-size="9.00" fill="#000000">8</text>
</g>
<!-- 8&#45;&gt;2 -->
<g id="edge3" class="edge">
<title>8&#45;&gt;2</title>
<path fill="none" stroke="#000000" d="M90.9016,-182.5111C87.4928,-154.4936 81.4012,-105.3193 75.6274,-63.2548 75.2796,-60.7208 74.9114,-58.0991 74.5354,-55.4641"/>
<polygon fill="#000000" stroke="#000000" points="77.9738,-54.7858 73.0731,-45.3925 71.0464,-55.7917 77.9738,-54.7858"/>
<text text-anchor="middle" x="93.6274" y="-111.6823" font-family="Times,serif" font-size="9.00" fill="#000000">1.00</text>
</g>
</g>
</svg>
