<?xml version="1.0" encoding="UTF-8" standalone="no"?>
<!DOCTYPE svg PUBLIC "-//W3C//DTD SVG 1.1//EN"
 "http://www.w3.org/Graphics/SVG/1.1/DTD/svg11.dtd">
<!-- Generated by graphviz version 2.40.1 (20161225.0304)
 -->
<!-- Title: %3 Pages: 1 -->
<svg width="268pt" height="372pt"
 viewBox="0.00 0.00 267.91 371.65" xmlns="http://www.w3.org/2000/svg" xmlns:xlink="http://www.w3.org/1999/xlink">
<g id="graph0" class="graph" transform="scale(1 1) rotate(0) translate(4 367.6468)">
<title>%3</title>
<polygon fill="#ffffff" stroke="transparent" points="-4,4 -4,-367.6468 263.9117,-367.6468 263.9117,4 -4,4"/>
<!-- 1 -->
<g id="node1" class="node">
<title>1</title>
<ellipse fill="none" stroke="#ff0000" cx="165.4558" cy="-325.1909" rx="25.4118" ry="25.4118"/>
<text text-anchor="middle" x="165.4558" y="-328.5909" font-family="Times,serif" font-size="12.00" fill="#000000">sum</text>
<text text-anchor="middle" x="165.4558" y="-315.5909" font-family="Times,serif" font-size="12.00" fill="#000000">id</text>
<text text-anchor="middle" x="136.5" y="-354.0468" font-family="Times,serif" font-size="12.00" fill="#000000">1</text>
</g>
<!-- 23 -->
<g id="node2" class="node">
<title>23</title>
<ellipse fill="none" stroke="#000000" cx="165.4558" cy="-225.2792" rx="25.4118" ry="25.4118"/>
<text text-anchor="middle" x="165.4558" y="-228.6792" font-family="Times,serif" font-size="12.00" fill="#000000">sum</text>
<text text-anchor="middle" x="165.4558" y="-215.6792" font-family="Times,serif" font-size="12.00" fill="#000000">sig</text>
</g>
<!-- 1&#45;&gt;23 -->
<g id="edge1" class="edge">
<title>1&#45;&gt;23</title>
<path fill="none" stroke="#000000" d="M165.4558,-299.7205C165.4558,-288.0671 165.4558,-274.052 165.4558,-261.3408"/>
<polygon fill="#000000" stroke="#000000" points="168.9559,-261.0505 165.4558,-251.0506 161.9559,-261.0506 168.9559,-261.0505"/>
<text text-anchor="middle" x="176.4558" y="-272.1351" font-family="Times,serif" font-size="12.00" fill="#000000">1.00</text>
</g>
<!-- 9 -->
<g id="node8" class="node">
<title>9</title>
<ellipse fill="none" stroke="#000000" cx="165.4558" cy="-125.3675" rx="25.4118" ry="25.4118"/>
<text text-anchor="middle" x="165.4558" y="-128.7675" font-family="Times,serif" font-size="12.00" fill="#000000">sum</text>
<text text-anchor="middle" x="165.4558" y="-115.7675" font-family="Times,serif" font-size="12.00" fill="#000000">id</text>
</g>
<!-- 23&#45;&gt;9 -->
<g id="edge7" class="edge">
<title>23&#45;&gt;9</title>
<path fill="none" stroke="#000000" d="M165.4558,-199.8088C165.4558,-188.1554 165.4558,-174.1404 165.4558,-161.4292"/>
<polygon fill="#000000" stroke="#000000" points="168.9559,-161.1388 165.4558,-151.1389 161.9559,-161.1389 168.9559,-161.1388"/>
<text text-anchor="middle" x="176.4558" y="-172.2234" font-family="Times,serif" font-size="12.00" fill="#000000">1.00</text>
</g>
<!-- 4 -->
<g id="node3" class="node">
<title>4</title>
<ellipse fill="none" stroke="#ff0000" cx="69.4558" cy="-325.1909" rx="25.4118" ry="25.4118"/>
<text text-anchor="middle" x="69.4558" y="-328.5909" font-family="Times,serif" font-size="12.00" fill="#000000">sum</text>
<text text-anchor="middle" x="69.4558" y="-315.5909" font-family="Times,serif" font-size="12.00" fill="#000000">id</text>
<text text-anchor="middle" x="40.5" y="-354.0468" font-family="Times,serif" font-size="12.00" fill="#000000">4</text>
</g>
<!-- 4&#45;&gt;23 -->
<g id="edge4" class="edge">
<title>4&#45;&gt;23</title>
<path fill="none" stroke="#000000" d="M87.5127,-306.3983C102.4907,-290.81 123.9452,-268.4813 140.5546,-251.1952"/>
<polygon fill="#000000" stroke="#000000" points="143.3996,-253.2858 147.8043,-243.65 138.352,-248.4359 143.3996,-253.2858"/>
<text text-anchor="middle" x="137.4558" y="-272.1351" font-family="Times,serif" font-size="12.00" fill="#000000">22.80</text>
</g>
<!-- 7 -->
<g id="node4" class="node">
<title>7</title>
<ellipse fill="none" stroke="#ff0000" cx="32.4558" cy="-25.4558" rx="25.4118" ry="25.4118"/>
<text text-anchor="middle" x="32.4558" y="-28.8558" font-family="Times,serif" font-size="12.00" fill="#000000">sum</text>
<text text-anchor="middle" x="32.4558" y="-15.8558" font-family="Times,serif" font-size="12.00" fill="#000000">sig</text>
<text text-anchor="middle" x="3.5" y="-54.3117" font-family="Times,serif" font-size="12.00" fill="#000000">7</text>
</g>
<!-- 4&#45;&gt;7 -->
<g id="edge2" class="edge">
<title>4&#45;&gt;7</title>
<path fill="none" stroke="#000000" d="M62.4983,-300.5653C58.6791,-286.1522 54.1791,-267.5382 51.4558,-250.7351 40.6724,-184.1985 35.8064,-105.5529 33.7714,-60.9867"/>
<polygon fill="#000000" stroke="#000000" points="37.2661,-60.7876 33.3349,-50.9492 30.2727,-61.0918 37.2661,-60.7876"/>
<text text-anchor="middle" x="53.4558" y="-172.2234" font-family="Times,serif" font-size="12.00" fill="#000000">2.00</text>
</g>
<!-- 26 -->
<g id="node5" class="node">
<title>26</title>
<ellipse fill="none" stroke="#000000" cx="85.4558" cy="-225.2792" rx="25" ry="25"/>
<text text-anchor="middle" x="85.4558" y="-228.6792" font-family="Times,serif" font-size="12.00" fill="#000000">min</text>
<text text-anchor="middle" x="85.4558" y="-215.6792" font-family="Times,serif" font-size="12.00" fill="#000000">sig</text>
</g>
<!-- 4&#45;&gt;26 -->
<g id="edge3" class="edge">
<title>4&#45;&gt;26</title>
<path fill="none" stroke="#000000" d="M68.2171,-299.7346C68.1825,-289.9741 68.6804,-278.7743 70.4558,-268.7351 71.0722,-265.25 71.9251,-261.6684 72.9141,-258.1283"/>
<polygon fill="#000000" stroke="#000000" points="76.3197,-258.9652 75.9783,-248.3759 69.6416,-256.8669 76.3197,-258.9652"/>
<text text-anchor="middle" x="81.4558" y="-272.1351" font-family="Times,serif" font-size="12.00" fill="#000000">1.00</text>
</g>
<!-- 2 -->
<g id="node7" class="node">
<title>2</title>
<ellipse fill="none" stroke="#ff0000" cx="165.4558" cy="-25.4558" rx="25.4118" ry="25.4118"/>
<text text-anchor="middle" x="165.4558" y="-28.8558" font-family="Times,serif" font-size="12.00" fill="#000000">sum</text>
<text text-anchor="middle" x="165.4558" y="-15.8558" font-family="Times,serif" font-size="12.00" fill="#000000">sig</text>
<text text-anchor="middle" x="136.5" y="-54.3117" font-family="Times,serif" font-size="12.00" fill="#000000">2</text>
</g>
<!-- 26&#45;&gt;2 -->
<g id="edge8" class="edge">
<title>26&#45;&gt;2</title>
<path fill="none" stroke="#000000" d="M86.9058,-200.2601C89.167,-174.2201 94.9156,-132.7352 109.4558,-99.9117 117.1594,-82.5215 129.6019,-65.3973 140.8041,-51.9641"/>
<polygon fill="#000000" stroke="#000000" points="143.6952,-53.9703 147.5654,-44.1076 138.3895,-49.4042 143.6952,-53.9703"/>
<text text-anchor="middle" x="120.4558" y="-122.2675" font-family="Times,serif" font-size="12.00" fill="#000000">1.00</text>
</g>
<!-- 26&#45;&gt;9 -->
<g id="edge9" class="edge">
<title>26&#45;&gt;9</title>
<path fill="none" stroke="#000000" d="M101.2613,-205.5399C113.127,-190.7209 129.5425,-170.2195 142.8033,-153.6582"/>
<polygon fill="#000000" stroke="#000000" points="145.8912,-155.4015 149.4094,-145.4078 140.427,-151.0262 145.8912,-155.4015"/>
<text text-anchor="middle" x="144.4558" y="-172.2234" font-family="Times,serif" font-size="12.00" fill="#000000">16.80</text>
</g>
<!-- 8 -->
<g id="node6" class="node">
<title>8</title>
<ellipse fill="none" stroke="#ff0000" cx="234.4558" cy="-325.1909" rx="25.4118" ry="25.4118"/>
<text text-anchor="middle" x="234.4558" y="-328.5909" font-family="Times,serif" font-size="12.00" fill="#000000">sum</text>
<text text-anchor="middle" x="234.4558" y="-315.5909" font-family="Times,serif" font-size="12.00" fill="#000000">id</text>
<text text-anchor="middle" x="205.5" y="-354.0468" font-family="Times,serif" font-size="12.00" fill="#000000">8</text>
</g>
<!-- 8&#45;&gt;2 -->
<g id="edge5" class="edge">
<title>8&#45;&gt;2</title>
<path fill="none" stroke="#000000" d="M231.3281,-299.7062C225.9993,-257.8024 214.2828,-171.8202 199.4558,-99.9117 196.5823,-85.9757 196.9427,-82.0404 191.4558,-68.9117 189.604,-64.4806 187.3586,-59.962 184.972,-55.5949"/>
<polygon fill="#000000" stroke="#000000" points="187.9916,-53.8249 179.9556,-46.9203 181.9319,-57.3292 187.9916,-53.8249"/>
<text text-anchor="middle" x="224.4558" y="-172.2234" font-family="Times,serif" font-size="12.00" fill="#000000">1.00</text>
</g>
<!-- 8&#45;&gt;9 -->
<g id="edge6" class="edge">
<title>8&#45;&gt;9</title>
<path fill="none" stroke="#000000" d="M229.1705,-300.1262C222.0666,-268.654 208.0301,-213.3854 188.4558,-168.8234 186.7179,-164.8669 184.7679,-160.7759 182.7577,-156.7582"/>
<polygon fill="#000000" stroke="#000000" points="185.7316,-154.8893 178.0292,-147.6145 179.5138,-158.1048 185.7316,-154.8893"/>
<text text-anchor="middle" x="230.4558" y="-222.1792" font-family="Times,serif" font-size="12.00" fill="#000000">18.80</text>
</g>
<!-- 9&#45;&gt;2 -->
<g id="edge10" class="edge">
<title>9&#45;&gt;2</title>
<path fill="none" stroke="#000000" d="M165.4558,-99.8971C165.4558,-88.2437 165.4558,-74.2287 165.4558,-61.5175"/>
<polygon fill="#000000" stroke="#000000" points="168.9559,-61.2272 165.4558,-51.2272 161.9559,-61.2272 168.9559,-61.2272"/>
<text text-anchor="middle" x="176.4558" y="-72.3117" font-family="Times,serif" font-size="12.00" fill="#000000">2.00</text>
</g>
</g>
</svg>
