<?xml version="1.0" encoding="UTF-8" standalone="no"?>
<!DOCTYPE svg PUBLIC "-//W3C//DTD SVG 1.1//EN"
 "http://www.w3.org/Graphics/SVG/1.1/DTD/svg11.dtd">
<!-- Generated by graphviz version 2.40.1 (20161225.0304)
 -->
<!-- Title: %3 Pages: 1 -->
<svg width="372pt" height="317pt"
 viewBox="0.00 0.00 372.01 317.12" xmlns="http://www.w3.org/2000/svg" xmlns:xlink="http://www.w3.org/1999/xlink">
<g id="graph0" class="graph" transform="scale(1 1) rotate(0) translate(4 313.1198)">
<title>%3</title>
<polygon fill="#ffffff" stroke="transparent" points="-4,4 -4,-313.1198 368.0143,-313.1198 368.0143,4 -4,4"/>
<!-- 1 -->
<g id="node1" class="node">
<title>1</title>
<ellipse fill="none" stroke="#ff0000" cx="53.5082" cy="-292.8564" rx="16.0303" ry="16.0303"/>
<text text-anchor="middle" x="53.5082" y="-289.7564" font-family="Times,serif" font-size="12.00" fill="#000000">1</text>
</g>
<!-- 2 -->
<g id="node2" class="node">
<title>2</title>
<ellipse fill="none" stroke="#ff0000" cx="145.5082" cy="-16.2635" rx="16.0303" ry="16.0303"/>
<text text-anchor="middle" x="145.5082" y="-13.1635" font-family="Times,serif" font-size="12.00" fill="#000000">2</text>
</g>
<!-- 1&#45;&gt;2 -->
<g id="edge1" class="edge">
<title>1&#45;&gt;2</title>
<path fill="none" stroke="#000000" d="M65.7222,-281.9201C71.9587,-275.68 79.134,-267.367 83.5082,-258.5929 108.7366,-207.9889 95.4526,-188.8231 109.5082,-134.0538 117.7964,-101.758 129.3436,-65.1056 137.105,-41.3849"/>
<polygon fill="#000000" stroke="#000000" points="140.4712,-42.3529 140.2791,-31.7598 133.8233,-40.1605 140.4712,-42.3529"/>
<text text-anchor="middle" x="122.0082" y="-150.8599" font-family="Times,serif" font-size="14.00" fill="#000000">2.00</text>
</g>
<!-- 5 -->
<g id="node5" class="node">
<title>5</title>
<ellipse fill="none" stroke="#000000" cx="49.5082" cy="-99.7904" rx="16.0303" ry="16.0303"/>
<text text-anchor="middle" x="49.5082" y="-96.6904" font-family="Times,serif" font-size="12.00" fill="#000000">5</text>
</g>
<!-- 1&#45;&gt;5 -->
<g id="edge4" class="edge">
<title>1&#45;&gt;5</title>
<path fill="none" stroke="#000000" stroke-dasharray="1,5" d="M41.2306,-281.3612C28.9698,-268.9627 10.9146,-247.9712 3.5082,-225.5929 -8.7911,-188.4306 14.972,-145.7486 32.6907,-120.8727"/>
<polygon fill="#000000" stroke="#000000" points="35.7144,-122.6716 38.8672,-112.5568 30.0948,-118.4978 35.7144,-122.6716"/>
<text text-anchor="middle" x="16.0082" y="-205.6295" font-family="Times,serif" font-size="14.00" fill="#000000">2.00</text>
</g>
<!-- 9 -->
<g id="node7" class="node">
<title>9</title>
<ellipse fill="none" stroke="#000000" cx="53.5082" cy="-209.3295" rx="16.0303" ry="16.0303"/>
<text text-anchor="middle" x="53.5082" y="-206.2295" font-family="Times,serif" font-size="12.00" fill="#000000">9</text>
</g>
<!-- 1&#45;&gt;9 -->
<g id="edge7" class="edge">
<title>1&#45;&gt;9</title>
<path fill="none" stroke="#ff0000" d="M53.5082,-276.3542C53.5082,-264.7996 53.5082,-249.1128 53.5082,-235.82"/>
<polygon fill="#ff0000" stroke="#ff0000" points="57.0083,-235.7974 53.5082,-225.7974 50.0083,-235.7975 57.0083,-235.7974"/>
<text text-anchor="middle" x="68.0082" y="-247.3929" font-family="Times,serif" font-size="14.00" fill="#000000">&#45;0.24</text>
</g>
<!-- 4 -->
<g id="node3" class="node">
<title>4</title>
<ellipse fill="none" stroke="#ff0000" cx="292.5082" cy="-292.8564" rx="16.0303" ry="16.0303"/>
<text text-anchor="middle" x="292.5082" y="-289.7564" font-family="Times,serif" font-size="12.00" fill="#000000">4</text>
</g>
<!-- 4&#45;&gt;2 -->
<g id="edge2" class="edge">
<title>4&#45;&gt;2</title>
<path fill="none" stroke="#000000" d="M287.3489,-277.131C273.2147,-234.4908 233.465,-117.5901 211.5082,-83.5269 199.0601,-64.2151 180.4073,-45.8491 166.1036,-33.2029"/>
<polygon fill="#000000" stroke="#000000" points="168.1262,-30.3258 158.2642,-26.454 163.5593,-35.6308 168.1262,-30.3258"/>
<text text-anchor="middle" x="263.0082" y="-150.8599" font-family="Times,serif" font-size="14.00" fill="#000000">1.00</text>
</g>
<!-- 7 -->
<g id="node6" class="node">
<title>7</title>
<ellipse fill="none" stroke="#ff0000" cx="316.5082" cy="-16.2635" rx="16.0303" ry="16.0303"/>
<text text-anchor="middle" x="316.5082" y="-13.1635" font-family="Times,serif" font-size="12.00" fill="#000000">7</text>
</g>
<!-- 4&#45;&gt;7 -->
<g id="edge6" class="edge">
<title>4&#45;&gt;7</title>
<path fill="none" stroke="#000000" stroke-dasharray="1,5" d="M290.5827,-276.5557C287.512,-247.7085 282.4397,-185.823 288.5082,-134.0538 292.3027,-101.6837 301.7725,-65.3141 308.6508,-41.6648"/>
<polygon fill="#000000" stroke="#000000" points="312.0126,-42.6384 311.5073,-32.0557 305.3028,-40.6438 312.0126,-42.6384"/>
<text text-anchor="middle" x="301.0082" y="-150.8599" font-family="Times,serif" font-size="14.00" fill="#000000">2.00</text>
</g>
<!-- 23 -->
<g id="node8" class="node">
<title>23</title>
<ellipse fill="none" stroke="#000000" cx="343.5082" cy="-154.5599" rx="20.5122" ry="20.5122"/>
<text text-anchor="middle" x="343.5082" y="-151.4599" font-family="Times,serif" font-size="12.00" fill="#000000">23</text>
</g>
<!-- 4&#45;&gt;23 -->
<g id="edge9" class="edge">
<title>4&#45;&gt;23</title>
<path fill="none" stroke="#000000" d="M298.9323,-277.5657C301.3664,-271.6615 304.124,-264.8361 306.5082,-258.5929 316.0882,-233.5076 326.2622,-204.7265 333.5119,-183.8049"/>
<polygon fill="#000000" stroke="#000000" points="336.8672,-184.811 336.8205,-174.2163 330.2501,-182.5277 336.8672,-184.811"/>
<text text-anchor="middle" x="324.0082" y="-247.3929" font-family="Times,serif" font-size="14.00" fill="#000000">1.00</text>
</g>
<!-- 8 -->
<g id="node4" class="node">
<title>8</title>
<ellipse fill="none" stroke="#ff0000" cx="167.5082" cy="-292.8564" rx="16.0303" ry="16.0303"/>
<text text-anchor="middle" x="167.5082" y="-289.7564" font-family="Times,serif" font-size="12.00" fill="#000000">8</text>
</g>
<!-- 8&#45;&gt;2 -->
<g id="edge3" class="edge">
<title>8&#45;&gt;2</title>
<path fill="none" stroke="#000000" stroke-dasharray="1,5" d="M162.8635,-277.0354C156.5408,-254.5945 145.5494,-212.123 141.5082,-175.066 136.4535,-128.7146 139.8198,-74.324 142.689,-42.7288"/>
<polygon fill="#000000" stroke="#000000" points="146.194,-42.8438 143.6685,-32.5544 139.2262,-42.1729 146.194,-42.8438"/>
<text text-anchor="middle" x="154.0082" y="-150.8599" font-family="Times,serif" font-size="14.00" fill="#000000">1.00</text>
</g>
<!-- 26 -->
<g id="node9" class="node">
<title>26</title>
<ellipse fill="none" stroke="#000000" cx="196.5082" cy="-154.5599" rx="20.5122" ry="20.5122"/>
<text text-anchor="middle" x="196.5082" y="-151.4599" font-family="Times,serif" font-size="12.00" fill="#000000">26</text>
</g>
<!-- 8&#45;&gt;26 -->
<g id="edge11" class="edge">
<title>8&#45;&gt;26</title>
<path fill="none" stroke="#000000" d="M170.8916,-276.7214C175.5817,-254.3554 184.1495,-213.4969 190.0774,-185.2275"/>
<polygon fill="#000000" stroke="#000000" points="193.5796,-185.5797 192.2065,-175.0742 186.7286,-184.143 193.5796,-185.5797"/>
<text text-anchor="middle" x="190.0082" y="-247.3929" font-family="Times,serif" font-size="14.00" fill="#000000">1.00</text>
</g>
<!-- 5&#45;&gt;2 -->
<g id="edge5" class="edge">
<title>5&#45;&gt;2</title>
<path fill="none" stroke="#000000" d="M48.6366,-83.4853C48.9278,-72.9927 50.9985,-59.6601 58.5082,-50.5269 73.5399,-32.2456 99.6686,-23.674 119.3787,-19.6819"/>
<polygon fill="#000000" stroke="#000000" points="120.038,-23.1198 129.2823,-17.9435 118.8277,-16.2252 120.038,-23.1198"/>
<text text-anchor="middle" x="71.0082" y="-54.3269" font-family="Times,serif" font-size="14.00" fill="#000000">2.00</text>
</g>
<!-- 9&#45;&gt;5 -->
<g id="edge8" class="edge">
<title>9&#45;&gt;5</title>
<path fill="none" stroke="#000000" d="M51.8268,-192.964C51.3111,-187.3014 50.8025,-180.9105 50.5082,-175.066 49.6964,-158.9431 49.4352,-140.8549 49.3822,-126.451"/>
<polygon fill="#000000" stroke="#000000" points="52.8822,-126.2461 49.3766,-116.2481 45.8822,-126.25 52.8822,-126.2461"/>
<text text-anchor="middle" x="63.0082" y="-150.8599" font-family="Times,serif" font-size="14.00" fill="#000000">2.00</text>
</g>
<!-- 23&#45;&gt;7 -->
<g id="edge10" class="edge">
<title>23&#45;&gt;7</title>
<path fill="none" stroke="#000000" d="M339.5243,-134.1538C334.7798,-109.8521 326.8448,-69.2082 321.6436,-42.5672"/>
<polygon fill="#000000" stroke="#000000" points="325.0163,-41.5765 319.6649,-32.4324 318.146,-42.9178 325.0163,-41.5765"/>
<text text-anchor="middle" x="348.0082" y="-96.0904" font-family="Times,serif" font-size="14.00" fill="#000000">7.25</text>
</g>
<!-- 26&#45;&gt;2 -->
<g id="edge12" class="edge">
<title>26&#45;&gt;2</title>
<path fill="none" stroke="#000000" d="M189.8205,-134.9036C182.6078,-113.9115 170.6558,-79.7172 159.5082,-50.5269 158.3161,-47.4053 157.0306,-44.1382 155.739,-40.9134"/>
<polygon fill="#000000" stroke="#000000" points="158.942,-39.4986 151.9323,-31.5541 152.4578,-42.1359 158.942,-39.4986"/>
<text text-anchor="middle" x="195.0082" y="-96.0904" font-family="Times,serif" font-size="14.00" fill="#000000">1.00</text>
</g>
</g>
</svg>
