<?xml version="1.0" encoding="UTF-8" standalone="no"?>
<!DOCTYPE svg PUBLIC "-//W3C//DTD SVG 1.1//EN"
 "http://www.w3.org/Graphics/SVG/1.1/DTD/svg11.dtd">
<!-- Generated by graphviz version 2.40.1 (20161225.0304)
 -->
<!-- Title: %3 Pages: 1 -->
<svg width="287pt" height="346pt"
 viewBox="0.00 0.00 287.25 345.50" xmlns="http://www.w3.org/2000/svg" xmlns:xlink="http://www.w3.org/1999/xlink">
<g id="graph0" class="graph" transform="scale(1 1) rotate(0) translate(4 341.5046)">
<title>%3</title>
<polygon fill="#ffffff" stroke="transparent" points="-4,4 -4,-341.5046 283.2548,-341.5046 283.2548,4 -4,4"/>
<!-- 1 -->
<g id="node1" class="node">
<title>1</title>
<ellipse fill="none" stroke="#ff0000" cx="27.6274" cy="-304.8772" rx="22.7556" ry="22.7556"/>
<text text-anchor="middle" x="27.6274" y="-307.6772" font-family="Times,serif" font-size="9.00" fill="#000000">sum</text>
<text text-anchor="middle" x="27.6274" y="-297.6772" font-family="Times,serif" font-size="9.00" fill="#000000">id</text>
<text text-anchor="middle" x="2.5" y="-330.3046" font-family="Times,serif" font-size="9.00" fill="#000000">1</text>
</g>
<!-- 2 -->
<g id="node2" class="node">
<title>2</title>
<ellipse fill="none" stroke="#ff0000" cx="102.6274" cy="-22.6274" rx="22.7556" ry="22.7556"/>
<text text-anchor="middle" x="102.6274" y="-25.4274" font-family="Times,serif" font-size="9.00" fill="#000000">sum</text>
<text text-anchor="middle" x="102.6274" y="-15.4274" font-family="Times,serif" font-size="9.00" fill="#000000">sig</text>
<text text-anchor="middle" x="77.5" y="-48.0548" font-family="Times,serif" font-size="9.00" fill="#000000">2</text>
</g>
<!-- 1&#45;&gt;2 -->
<g id="edge1" class="edge">
<title>1&#45;&gt;2</title>
<path fill="none" stroke="#c0c0c0" d="M33.5125,-282.7295C46.7386,-232.9557 78.8527,-112.0995 94.1952,-54.3607"/>
<polygon fill="#c0c0c0" stroke="#c0c0c0" points="97.5841,-55.2357 96.7696,-44.6722 90.8188,-53.438 97.5841,-55.2357"/>
<text text-anchor="middle" x="76.1274" y="-157.3097" font-family="Times,serif" font-size="9.00" fill="#000000">&#45;2.00</text>
</g>
<!-- 23 -->
<g id="node3" class="node">
<title>23</title>
<ellipse fill="none" stroke="#000000" cx="133.6274" cy="-209.3797" rx="26.7407" ry="26.7407"/>
<text text-anchor="middle" x="133.6274" y="-212.1797" font-family="Times,serif" font-size="9.00" fill="#000000">max</text>
<text text-anchor="middle" x="133.6274" y="-202.1797" font-family="Times,serif" font-size="9.00" fill="#000000">arctan</text>
<text text-anchor="middle" x="101.7574" y="-239.0498" font-family="Times,serif" font-size="9.00" fill="#000000">23</text>
</g>
<!-- 1&#45;&gt;23 -->
<g id="edge2" class="edge">
<title>1&#45;&gt;23</title>
<path fill="none" stroke="#000000" d="M44.6582,-289.5339C61.1177,-274.7051 86.3406,-251.9813 105.7325,-234.5108"/>
<polygon fill="#000000" stroke="#000000" points="108.2907,-236.917 113.3776,-227.6232 103.6053,-231.7163 108.2907,-236.917"/>
<text text-anchor="middle" x="94.1274" y="-257.0498" font-family="Times,serif" font-size="9.00" fill="#000000">22.80</text>
</g>
<!-- 23&#45;&gt;2 -->
<g id="edge8" class="edge">
<title>23&#45;&gt;2</title>
<path fill="none" stroke="#c0c0c0" d="M129.1859,-182.6227C123.5937,-148.9337 113.9943,-91.1044 107.9964,-54.9717"/>
<polygon fill="#c0c0c0" stroke="#c0c0c0" points="111.4232,-54.2416 106.3328,-44.9498 104.5177,-55.388 111.4232,-54.2416"/>
<text text-anchor="middle" x="130.1274" y="-111.6823" font-family="Times,serif" font-size="9.00" fill="#000000">&#45;1.00</text>
</g>
<!-- 9 -->
<g id="node6" class="node">
<title>9</title>
<ellipse fill="none" stroke="#000000" cx="196.6274" cy="-113.8823" rx="22.7556" ry="22.7556"/>
<text text-anchor="middle" x="196.6274" y="-116.6823" font-family="Times,serif" font-size="9.00" fill="#000000">sum</text>
<text text-anchor="middle" x="196.6274" y="-106.6823" font-family="Times,serif" font-size="9.00" fill="#000000">sig</text>
<text text-anchor="middle" x="171.5" y="-139.3097" font-family="Times,serif" font-size="9.00" fill="#000000">9</text>
</g>
<!-- 23&#45;&gt;9 -->
<g id="edge9" class="edge">
<title>23&#45;&gt;9</title>
<path fill="none" stroke="#000000" d="M144.6907,-184.6337C149.4193,-174.9449 155.3063,-163.9201 161.6274,-154.5097 165.3066,-149.0323 169.6313,-143.4738 173.9621,-138.2989"/>
<polygon fill="#000000" stroke="#000000" points="176.7745,-140.3979 180.6807,-130.5494 171.4855,-135.8124 176.7745,-140.3979"/>
<text text-anchor="middle" x="172.1274" y="-157.3097" font-family="Times,serif" font-size="9.00" fill="#000000">23.80</text>
</g>
<!-- 4 -->
<g id="node4" class="node">
<title>4</title>
<ellipse fill="none" stroke="#ff0000" cx="256.6274" cy="-304.8772" rx="22.7556" ry="22.7556"/>
<text text-anchor="middle" x="256.6274" y="-307.6772" font-family="Times,serif" font-size="9.00" fill="#000000">sum</text>
<text text-anchor="middle" x="256.6274" y="-297.6772" font-family="Times,serif" font-size="9.00" fill="#000000">id</text>
<text text-anchor="middle" x="231.5" y="-330.3046" font-family="Times,serif" font-size="9.00" fill="#000000">4</text>
</g>
<!-- 4&#45;&gt;23 -->
<g id="edge4" class="edge">
<title>4&#45;&gt;23</title>
<path fill="none" stroke="#000000" d="M238.7422,-290.991C218.9546,-275.6279 186.7561,-250.6289 163.2021,-232.3416"/>
<polygon fill="#000000" stroke="#000000" points="165.3111,-229.5479 155.2658,-226.1798 161.0182,-235.0771 165.3111,-229.5479"/>
<text text-anchor="middle" x="209.6274" y="-257.0498" font-family="Times,serif" font-size="9.00" fill="#000000">1.00</text>
</g>
<!-- 7 -->
<g id="node5" class="node">
<title>7</title>
<ellipse fill="none" stroke="#ff0000" cx="251.6274" cy="-22.6274" rx="22.7556" ry="22.7556"/>
<text text-anchor="middle" x="251.6274" y="-25.4274" font-family="Times,serif" font-size="9.00" fill="#000000">sum</text>
<text text-anchor="middle" x="251.6274" y="-15.4274" font-family="Times,serif" font-size="9.00" fill="#000000">sig</text>
<text text-anchor="middle" x="226.5" y="-48.0548" font-family="Times,serif" font-size="9.00" fill="#000000">7</text>
</g>
<!-- 4&#45;&gt;7 -->
<g id="edge3" class="edge">
<title>4&#45;&gt;7</title>
<path fill="none" stroke="#000000" d="M258.6845,-282.336C259.8019,-268.9557 261.0672,-251.65 261.6274,-236.2498 263.9557,-172.2521 258.6068,-97.5164 254.8692,-55.5655"/>
<polygon fill="#000000" stroke="#000000" points="258.3342,-55.0228 253.9358,-45.3841 251.3634,-55.6619 258.3342,-55.0228"/>
<text text-anchor="middle" x="268.6274" y="-157.3097" font-family="Times,serif" font-size="9.00" fill="#000000">2.00</text>
</g>
<!-- 4&#45;&gt;9 -->
<g id="edge5" class="edge">
<title>4&#45;&gt;9</title>
<path fill="none" stroke="#000000" d="M250.7722,-282.6284C244.1721,-257.9966 232.8871,-217.1863 221.6274,-182.5097 217.5583,-169.978 212.6738,-156.3133 208.3062,-144.4999"/>
<polygon fill="#000000" stroke="#000000" points="211.565,-143.2216 204.7883,-135.0775 205.0072,-145.6701 211.565,-143.2216"/>
<text text-anchor="middle" x="247.1274" y="-207.1797" font-family="Times,serif" font-size="9.00" fill="#000000">15.80</text>
</g>
<!-- 9&#45;&gt;2 -->
<g id="edge10" class="edge">
<title>9&#45;&gt;2</title>
<path fill="none" stroke="#000000" d="M180.2539,-97.9869C165.3834,-83.5507 143.2682,-62.0814 126.4423,-45.7468"/>
<polygon fill="#000000" stroke="#000000" points="128.7418,-43.1011 119.1287,-38.6468 123.8659,-48.1237 128.7418,-43.1011"/>
<text text-anchor="middle" x="159.6274" y="-66.0548" font-family="Times,serif" font-size="9.00" fill="#000000">2.00</text>
</g>
<!-- 9&#45;&gt;7 -->
<g id="edge11" class="edge">
<title>9&#45;&gt;7</title>
<path fill="none" stroke="#000000" d="M208.5616,-94.0813C216.1811,-81.4392 226.1778,-64.8529 234.6215,-50.8432"/>
<polygon fill="#000000" stroke="#000000" points="237.7411,-52.4476 239.9055,-42.0762 231.7458,-48.8342 237.7411,-52.4476"/>
<text text-anchor="middle" x="236.1274" y="-66.0548" font-family="Times,serif" font-size="9.00" fill="#000000">14.80</text>
</g>
<!-- 8 -->
<g id="node7" class="node">
<title>8</title>
<ellipse fill="none" stroke="#ff0000" cx="93.6274" cy="-304.8772" rx="22.7556" ry="22.7556"/>
<text text-anchor="middle" x="93.6274" y="-307.6772" font-family="Times,serif" font-size="9.00" fill="#000000">sum</text>
<text text-anchor="middle" x="93.6274" y="-297.6772" font-family="Times,serif" font-size="9.00" fill="#000000">id</text>
<text text-anchor="middle" x="68.5" y="-330.3046" font-family="Times,serif" font-size="9.00" fill="#000000">8</text>
</g>
<!-- 8&#45;&gt;2 -->
<g id="edge6" class="edge">
<title>8&#45;&gt;2</title>
<path fill="none" stroke="#c0c0c0" d="M94.3487,-282.2566C95.9351,-232.5044 99.7328,-113.405 101.5812,-55.4376"/>
<polygon fill="#c0c0c0" stroke="#c0c0c0" points="105.0821,-55.4622 101.9027,-45.3557 98.0857,-55.2391 105.0821,-55.4622"/>
<text text-anchor="middle" x="107.1274" y="-157.3097" font-family="Times,serif" font-size="9.00" fill="#000000">&#45;0.90</text>
</g>
<!-- 8&#45;&gt;9 -->
<g id="edge7" class="edge">
<title>8&#45;&gt;9</title>
<path fill="none" stroke="#000000" d="M112.9753,-292.6175C130.5134,-280.4634 155.6852,-260.2237 169.6274,-236.2498 185.6804,-208.6463 192.2012,-172.4699 194.8432,-146.6252"/>
<polygon fill="#000000" stroke="#000000" points="198.3369,-146.8494 195.7291,-136.5806 191.364,-146.2344 198.3369,-146.8494"/>
<text text-anchor="middle" x="199.1274" y="-207.1797" font-family="Times,serif" font-size="9.00" fill="#000000">16.80</text>
</g>
</g>
</svg>
