<?xml version="1.0" encoding="UTF-8" standalone="no"?>
<!DOCTYPE svg PUBLIC "-//W3C//DTD SVG 1.1//EN"
 "http://www.w3.org/Graphics/SVG/1.1/DTD/svg11.dtd">
<!-- Generated by graphviz version 2.40.1 (20161225.0304)
 -->
<!-- Title: %3 Pages: 1 -->
<svg width="317pt" height="318pt"
 viewBox="0.00 0.00 317.15 317.89" xmlns="http://www.w3.org/2000/svg" xmlns:xlink="http://www.w3.org/1999/xlink">
<g id="graph0" class="graph" transform="scale(1 1) rotate(0) translate(4 313.8894)">
<title>%3</title>
<polygon fill="#ffffff" stroke="transparent" points="-4,4 -4,-313.8894 313.155,-313.8894 313.155,4 -4,4"/>
<!-- 1 -->
<g id="node1" class="node">
<title>1</title>
<ellipse fill="none" stroke="#ff0000" cx="127.0246" cy="-264.5341" rx="33.4697" ry="33.4697"/>
<text text-anchor="middle" x="127.0246" y="-272.3341" font-family="Times,serif" font-size="9.00" fill="#000000">1</text>
<text text-anchor="middle" x="127.0246" y="-262.3341" font-family="Times,serif" font-size="9.00" fill="#000000">sum, 5.2</text>
<text text-anchor="middle" x="127.0246" y="-252.3341" font-family="Times,serif" font-size="9.00" fill="#000000">id</text>
<text text-anchor="middle" x="91.2906" y="-300.5681" font-family="Times,serif" font-size="9.00" fill="#000000">1</text>
</g>
<!-- 4 -->
<g id="node2" class="node">
<title>4</title>
<ellipse fill="none" stroke="#000000" cx="88.0246" cy="-147.8234" rx="35.2113" ry="35.2113"/>
<text text-anchor="middle" x="88.0246" y="-155.6234" font-family="Times,serif" font-size="9.00" fill="#000000">2</text>
<text text-anchor="middle" x="88.0246" y="-145.6234" font-family="Times,serif" font-size="9.00" fill="#000000">sum, &#45;2.2</text>
<text text-anchor="middle" x="88.0246" y="-135.6234" font-family="Times,serif" font-size="9.00" fill="#000000">sig</text>
<text text-anchor="middle" x="50.1693" y="-185.9787" font-family="Times,serif" font-size="9.00" fill="#000000">4</text>
</g>
<!-- 1&#45;&gt;4 -->
<g id="edge1" class="edge">
<title>1&#45;&gt;4</title>
<path fill="none" stroke="#c0c0c0" d="M93.9385,-260.2576C64.7349,-254.5394 23.8195,-241.3424 4.0246,-211.1787 -10.1847,-189.5263 17.1115,-172.4243 44.2969,-161.4739"/>
<polygon fill="#c0c0c0" stroke="#c0c0c0" points="45.7276,-164.6747 53.8398,-157.8598 43.2484,-158.1285 45.7276,-164.6747"/>
<text text-anchor="middle" x="13.5246" y="-203.9787" font-family="Times,serif" font-size="9.00" fill="#000000">&#45;0.57</text>
</g>
<!-- 1&#45;&gt;4 -->
<g id="edge10" class="edge">
<title>1&#45;&gt;4</title>
</g>
<!-- 5 -->
<g id="node3" class="node">
<title>5</title>
<ellipse fill="none" stroke="#000000" cx="260.0246" cy="-147.8234" rx="33.4697" ry="33.4697"/>
<text text-anchor="middle" x="260.0246" y="-155.6234" font-family="Times,serif" font-size="9.00" fill="#000000">2</text>
<text text-anchor="middle" x="260.0246" y="-145.6234" font-family="Times,serif" font-size="9.00" fill="#000000">sum, 7.3</text>
<text text-anchor="middle" x="260.0246" y="-135.6234" font-family="Times,serif" font-size="9.00" fill="#000000">sig</text>
<text text-anchor="middle" x="224.2906" y="-183.8574" font-family="Times,serif" font-size="9.00" fill="#000000">5</text>
</g>
<!-- 1&#45;&gt;5 -->
<g id="edge2" class="edge">
<title>1&#45;&gt;5</title>
<path fill="none" stroke="#c0c0c0" d="M152.2411,-242.5353C158.4541,-237.744 165.2702,-232.9778 172.0246,-229.1787 191.883,-218.0092 202.3544,-225.5618 220.0246,-211.1787 228.1205,-204.5888 235.0714,-195.9047 240.7995,-187.0869"/>
<polygon fill="#c0c0c0" stroke="#c0c0c0" points="243.9355,-188.665 246.1172,-178.2972 237.9463,-185.0416 243.9355,-188.665"/>
<text text-anchor="middle" x="239.5246" y="-203.9787" font-family="Times,serif" font-size="9.00" fill="#000000">&#45;2.00</text>
</g>
<!-- 1&#45;&gt;5 -->
<g id="edge11" class="edge">
<title>1&#45;&gt;5</title>
</g>
<!-- 6 -->
<g id="node4" class="node">
<title>6</title>
<ellipse fill="none" stroke="#000000" cx="176.0246" cy="-147.8234" rx="33.4697" ry="33.4697"/>
<text text-anchor="middle" x="176.0246" y="-155.6234" font-family="Times,serif" font-size="9.00" fill="#000000">2</text>
<text text-anchor="middle" x="176.0246" y="-145.6234" font-family="Times,serif" font-size="9.00" fill="#000000">sum, 0.3</text>
<text text-anchor="middle" x="176.0246" y="-135.6234" font-family="Times,serif" font-size="9.00" fill="#000000">sig</text>
<text text-anchor="middle" x="140.2906" y="-183.8574" font-family="Times,serif" font-size="9.00" fill="#000000">6</text>
</g>
<!-- 1&#45;&gt;6 -->
<g id="edge3" class="edge">
<title>1&#45;&gt;6</title>
<path fill="none" stroke="#c0c0c0" d="M110.7646,-235.3552C106.7701,-224.3267 104.9213,-211.8667 110.0246,-201.1787 110.1491,-200.918 126.0054,-188.0964 142.1429,-175.089"/>
<polygon fill="#c0c0c0" stroke="#c0c0c0" points="144.4286,-177.7422 150.0199,-168.7428 140.0369,-172.2911 144.4286,-177.7422"/>
<text text-anchor="middle" x="119.5246" y="-203.9787" font-family="Times,serif" font-size="9.00" fill="#000000">&#45;1.79</text>
</g>
<!-- 1&#45;&gt;6 -->
<g id="edge12" class="edge">
<title>1&#45;&gt;6</title>
</g>
<!-- 3 -->
<g id="node6" class="node">
<title>3</title>
<ellipse fill="none" stroke="#ff0000" cx="177.0246" cy="-33.234" rx="33.4697" ry="33.4697"/>
<text text-anchor="middle" x="177.0246" y="-41.034" font-family="Times,serif" font-size="9.00" fill="#000000">3</text>
<text text-anchor="middle" x="177.0246" y="-31.034" font-family="Times,serif" font-size="9.00" fill="#000000">sum, 6.1</text>
<text text-anchor="middle" x="177.0246" y="-21.034" font-family="Times,serif" font-size="9.00" fill="#000000">sig</text>
<text text-anchor="middle" x="141.2906" y="-69.268" font-family="Times,serif" font-size="9.00" fill="#000000">3</text>
</g>
<!-- 4&#45;&gt;3 -->
<g id="edge7" class="edge">
<title>4&#45;&gt;3</title>
<path fill="none" stroke="#c0c0c0" d="M86.4159,-112.4321C87.3953,-102.7754 89.842,-92.7126 95.0246,-84.468 104.733,-69.0238 120.9753,-57.4594 136.4549,-49.2638"/>
<polygon fill="#c0c0c0" stroke="#c0c0c0" points="138.0159,-52.3965 145.4257,-44.8238 134.9108,-46.1229 138.0159,-52.3965"/>
<text text-anchor="middle" x="104.5246" y="-87.268" font-family="Times,serif" font-size="9.00" fill="#000000">&#45;0.38</text>
</g>
<!-- 4&#45;&gt;3 -->
<g id="edge16" class="edge">
<title>4&#45;&gt;3</title>
</g>
<!-- 5&#45;&gt;3 -->
<g id="edge8" class="edge">
<title>5&#45;&gt;3</title>
<path fill="none" stroke="#000000" d="M240.3548,-120.6673C229.0879,-105.1123 214.8199,-85.414 202.6803,-68.6541"/>
<polygon fill="#000000" stroke="#000000" points="205.2539,-66.2407 196.5533,-60.1952 199.5848,-70.347 205.2539,-66.2407"/>
<text text-anchor="middle" x="228.0246" y="-87.268" font-family="Times,serif" font-size="9.00" fill="#000000">0.27</text>
</g>
<!-- 5&#45;&gt;3 -->
<g id="edge17" class="edge">
<title>5&#45;&gt;3</title>
</g>
<!-- 6&#45;&gt;3 -->
<g id="edge9" class="edge">
<title>6&#45;&gt;3</title>
<path fill="none" stroke="#000000" d="M165.2362,-116.0643C162.972,-106.0089 161.636,-94.8177 163.0246,-84.468 163.4538,-81.2694 164.0273,-77.9877 164.6976,-74.7055"/>
<polygon fill="#000000" stroke="#000000" points="168.113,-75.4706 166.9517,-64.9396 161.2923,-73.8963 168.113,-75.4706"/>
<text text-anchor="middle" x="171.0246" y="-87.268" font-family="Times,serif" font-size="9.00" fill="#000000">1.14</text>
</g>
<!-- 6&#45;&gt;3 -->
<g id="edge18" class="edge">
<title>6&#45;&gt;3</title>
</g>
<!-- 2 -->
<g id="node5" class="node">
<title>2</title>
<ellipse fill="none" stroke="#ff0000" cx="216.0246" cy="-264.5341" rx="35.2113" ry="35.2113"/>
<text text-anchor="middle" x="216.0246" y="-272.3341" font-family="Times,serif" font-size="9.00" fill="#000000">1</text>
<text text-anchor="middle" x="216.0246" y="-262.3341" font-family="Times,serif" font-size="9.00" fill="#000000">sum, &#45;4.8</text>
<text text-anchor="middle" x="216.0246" y="-252.3341" font-family="Times,serif" font-size="9.00" fill="#000000">id</text>
<text text-anchor="middle" x="178.1693" y="-302.6894" font-family="Times,serif" font-size="9.00" fill="#000000">2</text>
</g>
<!-- 2&#45;&gt;4 -->
<g id="edge4" class="edge">
<title>2&#45;&gt;4</title>
<path fill="none" stroke="#000000" d="M189.1934,-241.3107C182.8936,-236.7452 175.9797,-232.3836 169.0246,-229.1787 135.5314,-213.7449 111.1003,-239.9452 88.0246,-211.1787 83.7241,-205.8177 81.523,-199.2993 80.6525,-192.5079"/>
<polygon fill="#000000" stroke="#000000" points="84.1476,-192.3132 80.2398,-182.4654 77.1535,-192.6007 84.1476,-192.3132"/>
<text text-anchor="middle" x="96.0246" y="-203.9787" font-family="Times,serif" font-size="9.00" fill="#000000">0.60</text>
</g>
<!-- 2&#45;&gt;4 -->
<g id="edge13" class="edge">
<title>2&#45;&gt;4</title>
</g>
<!-- 2&#45;&gt;5 -->
<g id="edge5" class="edge">
<title>2&#45;&gt;5</title>
<path fill="none" stroke="#c0c0c0" d="M247.2677,-247.385C260.2414,-238.4509 273.9093,-226.2247 281.0246,-211.1787 284.8758,-203.0349 284.4513,-193.9946 281.9928,-185.3533"/>
<polygon fill="#c0c0c0" stroke="#c0c0c0" points="285.2242,-184.0003 278.4723,-175.8356 278.6589,-186.4288 285.2242,-184.0003"/>
<text text-anchor="middle" x="292.5246" y="-203.9787" font-family="Times,serif" font-size="9.00" fill="#000000">&#45;0.21</text>
</g>
<!-- 2&#45;&gt;5 -->
<g id="edge14" class="edge">
<title>2&#45;&gt;5</title>
</g>
<!-- 2&#45;&gt;6 -->
<g id="edge6" class="edge">
<title>2&#45;&gt;6</title>
<path fill="none" stroke="#c0c0c0" d="M204.455,-230.7765C199.9989,-217.7748 194.8595,-202.7792 190.1862,-189.1436"/>
<polygon fill="#c0c0c0" stroke="#c0c0c0" points="193.4353,-187.8282 186.8822,-179.5032 186.8134,-190.0978 193.4353,-187.8282"/>
<text text-anchor="middle" x="206.5246" y="-203.9787" font-family="Times,serif" font-size="9.00" fill="#000000">&#45;1.69</text>
</g>
<!-- 2&#45;&gt;6 -->
<g id="edge15" class="edge">
<title>2&#45;&gt;6</title>
</g>
</g>
</svg>
