<?xml version="1.0" encoding="UTF-8" standalone="no"?>
<!DOCTYPE svg PUBLIC "-//W3C//DTD SVG 1.1//EN"
 "http://www.w3.org/Graphics/SVG/1.1/DTD/svg11.dtd">
<!-- Generated by graphviz version 2.40.1 (20161225.0304)
 -->
<!-- Title: %3 Pages: 1 -->
<svg width="388pt" height="326pt"
 viewBox="0.00 0.00 387.75 325.61" xmlns="http://www.w3.org/2000/svg" xmlns:xlink="http://www.w3.org/1999/xlink">
<g id="graph0" class="graph" transform="scale(1 1) rotate(0) translate(4 321.6051)">
<title>%3</title>
<polygon fill="#ffffff" stroke="transparent" points="-4,4 -4,-321.6051 383.7451,-321.6051 383.7451,4 -4,4"/>
<!-- 1 -->
<g id="node1" class="node">
<title>1</title>
<ellipse fill="none" stroke="#ff0000" cx="70.7451" cy="-301.3417" rx="16.0303" ry="16.0303"/>
<text text-anchor="middle" x="70.7451" y="-298.2417" font-family="Times,serif" font-size="12.00" fill="#000000">1</text>
</g>
<!-- 2 -->
<g id="node2" class="node">
<title>2</title>
<ellipse fill="none" stroke="#ff0000" cx="178.7451" cy="-16.2635" rx="16.0303" ry="16.0303"/>
<text text-anchor="middle" x="178.7451" y="-13.1635" font-family="Times,serif" font-size="12.00" fill="#000000">2</text>
</g>
<!-- 1&#45;&gt;2 -->
<g id="edge1" class="edge">
<title>1&#45;&gt;2</title>
<path fill="none" stroke="#000000" stroke-dasharray="1,5" d="M59.4826,-289.2575C34.8279,-261.2702 -19.6115,-190.114 7.7451,-134.0538 37.0503,-74.0005 113.5706,-39.1575 153.5667,-24.5017"/>
<polygon fill="#000000" stroke="#000000" points="154.8596,-27.757 163.126,-21.13 152.5312,-21.1556 154.8596,-27.757"/>
<text text-anchor="middle" x="20.2451" y="-150.8599" font-family="Times,serif" font-size="14.00" fill="#000000">2.00</text>
</g>
<!-- 5 -->
<g id="node5" class="node">
<title>5</title>
<ellipse fill="none" stroke="#000000" cx="151.7451" cy="-99.7904" rx="16.0303" ry="16.0303"/>
<text text-anchor="middle" x="151.7451" y="-96.6904" font-family="Times,serif" font-size="12.00" fill="#000000">5</text>
</g>
<!-- 1&#45;&gt;5 -->
<g id="edge4" class="edge">
<title>1&#45;&gt;5</title>
<path fill="none" stroke="#000000" stroke-dasharray="1,5" d="M84.8935,-292.6915C93.9434,-286.5297 105.3337,-277.5118 112.7451,-267.0782 142.9772,-224.5184 150.0995,-161.9415 151.5811,-126.6238"/>
<polygon fill="#000000" stroke="#000000" points="155.0927,-126.2726 151.886,-116.1748 148.0957,-126.0684 155.0927,-126.2726"/>
<text text-anchor="middle" x="155.2451" y="-209.8721" font-family="Times,serif" font-size="14.00" fill="#000000">2.00</text>
</g>
<!-- 23 -->
<g id="node8" class="node">
<title>23</title>
<ellipse fill="none" stroke="#000000" cx="94.7451" cy="-213.5721" rx="20.5122" ry="20.5122"/>
<text text-anchor="middle" x="94.7451" y="-210.4721" font-family="Times,serif" font-size="12.00" fill="#000000">23</text>
</g>
<!-- 1&#45;&gt;23 -->
<g id="edge9" class="edge">
<title>1&#45;&gt;23</title>
<path fill="none" stroke="#000000" d="M75.0358,-285.6502C78.2473,-273.9057 82.7362,-257.4894 86.619,-243.2897"/>
<polygon fill="#000000" stroke="#000000" points="90.0506,-244.0095 89.3122,-233.4404 83.2985,-242.1631 90.0506,-244.0095"/>
<text text-anchor="middle" x="96.2451" y="-255.8782" font-family="Times,serif" font-size="14.00" fill="#000000">1.00</text>
</g>
<!-- 26 -->
<g id="node9" class="node">
<title>26</title>
<ellipse fill="none" stroke="#000000" cx="62.7451" cy="-154.5599" rx="20.5122" ry="20.5122"/>
<text text-anchor="middle" x="62.7451" y="-151.4599" font-family="Times,serif" font-size="12.00" fill="#000000">26</text>
</g>
<!-- 1&#45;&gt;26 -->
<g id="edge11" class="edge">
<title>1&#45;&gt;26</title>
<path fill="none" stroke="#000000" d="M60.7919,-288.083C56.8393,-282.0139 52.7594,-274.5249 50.7451,-267.0782 43.3163,-239.615 48.1327,-207.2156 53.7175,-184.2537"/>
<polygon fill="#000000" stroke="#000000" points="57.1452,-184.9802 56.2962,-174.4194 50.3742,-183.2046 57.1452,-184.9802"/>
<text text-anchor="middle" x="63.2451" y="-255.8782" font-family="Times,serif" font-size="14.00" fill="#000000">1.00</text>
</g>
<!-- 4 -->
<g id="node3" class="node">
<title>4</title>
<ellipse fill="none" stroke="#ff0000" cx="298.7451" cy="-301.3417" rx="16.0303" ry="16.0303"/>
<text text-anchor="middle" x="298.7451" y="-298.2417" font-family="Times,serif" font-size="12.00" fill="#000000">4</text>
</g>
<!-- 4&#45;&gt;2 -->
<g id="edge2" class="edge">
<title>4&#45;&gt;2</title>
<path fill="none" stroke="#000000" stroke-dasharray="1,5" d="M292.5228,-286.2642C282.8428,-262.6695 263.7328,-215.5288 248.7451,-175.066 228.4056,-120.1548 233.8149,-101.9178 205.7451,-50.5269 203.0904,-45.6666 199.7492,-40.7872 196.3305,-36.2963"/>
<polygon fill="#000000" stroke="#000000" points="198.83,-33.821 189.8205,-28.2461 193.387,-38.2226 198.83,-33.821"/>
<text text-anchor="middle" x="261.2451" y="-150.8599" font-family="Times,serif" font-size="14.00" fill="#000000">1.00</text>
</g>
<!-- 7 -->
<g id="node6" class="node">
<title>7</title>
<ellipse fill="none" stroke="#ff0000" cx="351.7451" cy="-16.2635" rx="16.0303" ry="16.0303"/>
<text text-anchor="middle" x="351.7451" y="-13.1635" font-family="Times,serif" font-size="12.00" fill="#000000">7</text>
</g>
<!-- 4&#45;&gt;7 -->
<g id="edge6" class="edge">
<title>4&#45;&gt;7</title>
<path fill="none" stroke="#000000" d="M310.9309,-290.5097C317.0705,-284.3002 323.9918,-275.9831 327.7451,-267.0782 359.9784,-190.6035 357.617,-89.7247 354.2337,-42.6158"/>
<polygon fill="#000000" stroke="#000000" points="357.7209,-42.3145 353.4403,-32.6229 350.7428,-42.8686 357.7209,-42.3145"/>
<text text-anchor="middle" x="367.2451" y="-150.8599" font-family="Times,serif" font-size="14.00" fill="#000000">2.00</text>
</g>
<!-- 9 -->
<g id="node7" class="node">
<title>9</title>
<ellipse fill="none" stroke="#000000" cx="298.7451" cy="-154.5599" rx="16.0303" ry="16.0303"/>
<text text-anchor="middle" x="298.7451" y="-151.4599" font-family="Times,serif" font-size="12.00" fill="#000000">9</text>
</g>
<!-- 4&#45;&gt;9 -->
<g id="edge7" class="edge">
<title>4&#45;&gt;9</title>
<path fill="none" stroke="#000000" d="M298.7451,-285.0726C298.7451,-259.9441 298.7451,-211.4343 298.7451,-181.1553"/>
<polygon fill="#000000" stroke="#000000" points="302.2452,-180.9018 298.7451,-170.9018 295.2452,-180.9019 302.2452,-180.9018"/>
<text text-anchor="middle" x="311.2451" y="-255.8782" font-family="Times,serif" font-size="14.00" fill="#000000">0.59</text>
</g>
<!-- 8 -->
<g id="node4" class="node">
<title>8</title>
<ellipse fill="none" stroke="#ff0000" cx="204.7451" cy="-301.3417" rx="16.0303" ry="16.0303"/>
<text text-anchor="middle" x="204.7451" y="-298.2417" font-family="Times,serif" font-size="12.00" fill="#000000">8</text>
</g>
<!-- 8&#45;&gt;2 -->
<g id="edge3" class="edge">
<title>8&#45;&gt;2</title>
<path fill="none" stroke="#000000" d="M205.4044,-285.0053C206.6922,-244.7193 208.0568,-137.5726 190.7451,-50.5269 190.1258,-47.4129 189.2855,-44.1976 188.3353,-41.0416"/>
<polygon fill="#000000" stroke="#000000" points="191.5796,-39.7094 185.0606,-31.3576 184.9485,-41.9519 191.5796,-39.7094"/>
<text text-anchor="middle" x="216.2451" y="-150.8599" font-family="Times,serif" font-size="14.00" fill="#000000">1.00</text>
</g>
<!-- 5&#45;&gt;2 -->
<g id="edge5" class="edge">
<title>5&#45;&gt;2</title>
<path fill="none" stroke="#000000" d="M155.9405,-83.7104C158.5583,-74.032 162.1117,-61.4998 165.7451,-50.5269 166.7851,-47.3862 167.9389,-44.1077 169.1175,-40.877"/>
<polygon fill="#000000" stroke="#000000" points="172.3946,-42.1058 172.6381,-31.5137 165.8425,-39.6421 172.3946,-42.1058"/>
<text text-anchor="middle" x="178.2451" y="-54.3269" font-family="Times,serif" font-size="14.00" fill="#000000">2.00</text>
</g>
<!-- 9&#45;&gt;2 -->
<g id="edge8" class="edge">
<title>9&#45;&gt;2</title>
<path fill="none" stroke="#000000" d="M297.9898,-137.9516C296.0976,-115.378 289.518,-75.0233 266.7451,-50.5269 250.5646,-33.1218 224.4951,-24.442 204.9224,-20.1867"/>
<polygon fill="#000000" stroke="#000000" points="205.5752,-16.7482 195.094,-18.2961 204.2529,-23.6221 205.5752,-16.7482"/>
<text text-anchor="middle" x="307.2451" y="-96.0904" font-family="Times,serif" font-size="14.00" fill="#000000">1.00</text>
</g>
<!-- 23&#45;&gt;5 -->
<g id="edge10" class="edge">
<title>23&#45;&gt;5</title>
<path fill="none" stroke="#000000" d="M95.9025,-193.0112C97.6394,-176.1466 101.9691,-152.1833 112.7451,-134.0538 117.0839,-126.7543 123.5117,-120.1867 129.9031,-114.801"/>
<polygon fill="#000000" stroke="#000000" points="132.0739,-117.5467 137.8195,-108.6451 127.7768,-112.0208 132.0739,-117.5467"/>
<text text-anchor="middle" x="125.2451" y="-150.8599" font-family="Times,serif" font-size="14.00" fill="#000000">2.00</text>
</g>
<!-- 26&#45;&gt;2 -->
<g id="edge12" class="edge">
<title>26&#45;&gt;2</title>
<path fill="none" stroke="#000000" d="M70.8851,-135.6572C77.847,-120.6705 88.7822,-99.6409 101.7451,-83.5269 117.9465,-63.3872 140.6302,-44.3958 157.1797,-31.7627"/>
<polygon fill="#000000" stroke="#000000" points="159.2925,-34.5531 165.208,-25.7635 155.1024,-28.9457 159.2925,-34.5531"/>
<text text-anchor="middle" x="114.2451" y="-96.0904" font-family="Times,serif" font-size="14.00" fill="#000000">2.00</text>
</g>
</g>
</svg>
