<?xml version="1.0" encoding="UTF-8" standalone="no"?>
<!DOCTYPE svg PUBLIC "-//W3C//DTD SVG 1.1//EN"
 "http://www.w3.org/Graphics/SVG/1.1/DTD/svg11.dtd">
<!-- Generated by graphviz version 2.40.1 (20161225.0304)
 -->
<!-- Title: %3 Pages: 1 -->
<svg width="386pt" height="572pt"
 viewBox="0.00 0.00 385.77 571.97" xmlns="http://www.w3.org/2000/svg" xmlns:xlink="http://www.w3.org/1999/xlink">
<g id="graph0" class="graph" transform="scale(1 1) rotate(0) translate(4 567.9676)">
<title>%3</title>
<polygon fill="#ffffff" stroke="transparent" points="-4,4 -4,-567.9676 381.7696,-567.9676 381.7696,4 -4,4"/>
<!-- 1 -->
<g id="node1" class="node">
<title>1</title>
<ellipse fill="none" stroke="#ff0000" cx="43.7696" cy="-514.1981" rx="36.5405" ry="36.5405"/>
<text text-anchor="middle" x="43.7696" y="-517.5981" font-family="Times,serif" font-size="12.00" fill="#000000">sum</text>
<text text-anchor="middle" x="43.7696" y="-504.5981" font-family="Times,serif" font-size="12.00" fill="#000000">identity</text>
<text text-anchor="middle" x="3.5" y="-554.3676" font-family="Times,serif" font-size="12.00" fill="#000000">1</text>
</g>
<!-- 9 -->
<g id="node2" class="node">
<title>9</title>
<ellipse fill="none" stroke="#000000" cx="75.7696" cy="-276.898" rx="26.3269" ry="26.3269"/>
<text text-anchor="middle" x="75.7696" y="-280.298" font-family="Times,serif" font-size="12.00" fill="#000000">sum</text>
<text text-anchor="middle" x="75.7696" y="-267.298" font-family="Times,serif" font-size="12.00" fill="#000000">tanh</text>
</g>
<!-- 1&#45;&gt;9 -->
<g id="edge1" class="edge">
<title>1&#45;&gt;9</title>
<path fill="none" stroke="#000000" d="M48.6994,-477.64C54.7372,-432.8661 64.9002,-357.5014 70.907,-312.9565"/>
<polygon fill="#000000" stroke="#000000" points="74.3995,-313.2472 72.2673,-302.8691 67.4622,-312.3116 74.3995,-313.2472"/>
<text text-anchor="middle" x="76.7696" y="-387.1447" font-family="Times,serif" font-size="12.00" fill="#000000">1.00</text>
</g>
<!-- 23 -->
<g id="node3" class="node">
<title>23</title>
<ellipse fill="none" stroke="#000000" cx="75.7696" cy="-163.5513" rx="38.3684" ry="38.3684"/>
<text text-anchor="middle" x="75.7696" y="-166.9513" font-family="Times,serif" font-size="12.00" fill="#000000">min</text>
<text text-anchor="middle" x="75.7696" y="-153.9513" font-family="Times,serif" font-size="12.00" fill="#000000">sigmoid</text>
</g>
<!-- 1&#45;&gt;23 -->
<g id="edge2" class="edge">
<title>1&#45;&gt;23</title>
<path fill="none" stroke="#000000" d="M38.114,-477.427C31.3798,-425.9964 23.1072,-329.9846 40.7696,-250.7351 43.9958,-236.2594 49.3458,-221.0677 54.9039,-207.495"/>
<polygon fill="#000000" stroke="#000000" points="58.2776,-208.5042 58.9605,-197.9314 51.8334,-205.7707 58.2776,-208.5042"/>
<text text-anchor="middle" x="45.7696" y="-324.461" font-family="Times,serif" font-size="12.00" fill="#000000">20.80</text>
</g>
<!-- 9&#45;&gt;23 -->
<g id="edge7" class="edge">
<title>9&#45;&gt;23</title>
<path fill="none" stroke="#000000" d="M75.7696,-250.6091C75.7696,-239.2564 75.7696,-225.5943 75.7696,-212.4937"/>
<polygon fill="#000000" stroke="#000000" points="79.2696,-212.1626 75.7696,-202.1626 72.2696,-212.1627 79.2696,-212.1626"/>
<text text-anchor="middle" x="86.7696" y="-223.1351" font-family="Times,serif" font-size="12.00" fill="#000000">1.00</text>
</g>
<!-- 2 -->
<g id="node8" class="node">
<title>2</title>
<ellipse fill="none" stroke="#ff0000" cx="140.7696" cy="-38.1838" rx="38.3684" ry="38.3684"/>
<text text-anchor="middle" x="140.7696" y="-41.5838" font-family="Times,serif" font-size="12.00" fill="#000000">sum</text>
<text text-anchor="middle" x="140.7696" y="-28.5838" font-family="Times,serif" font-size="12.00" fill="#000000">sigmoid</text>
<text text-anchor="middle" x="99.0858" y="-79.7675" font-family="Times,serif" font-size="12.00" fill="#000000">2</text>
</g>
<!-- 23&#45;&gt;2 -->
<g id="edge8" class="edge">
<title>23&#45;&gt;2</title>
<path fill="none" stroke="#000000" d="M90.5579,-128.311C95.4427,-117.3042 101.0876,-105.2092 106.7696,-94.3675 109.3496,-89.4446 112.18,-84.3592 115.0718,-79.3517"/>
<polygon fill="#000000" stroke="#000000" points="118.2414,-80.8668 120.3025,-70.4743 112.2105,-77.3132 118.2414,-80.8668"/>
<text text-anchor="middle" x="117.7696" y="-97.7675" font-family="Times,serif" font-size="12.00" fill="#000000">2.00</text>
</g>
<!-- 4 -->
<g id="node4" class="node">
<title>4</title>
<ellipse fill="none" stroke="#ff0000" cx="207.7696" cy="-514.1981" rx="36.5405" ry="36.5405"/>
<text text-anchor="middle" x="207.7696" y="-517.5981" font-family="Times,serif" font-size="12.00" fill="#000000">sum</text>
<text text-anchor="middle" x="207.7696" y="-504.5981" font-family="Times,serif" font-size="12.00" fill="#000000">identity</text>
<text text-anchor="middle" x="167.5" y="-554.3676" font-family="Times,serif" font-size="12.00" fill="#000000">4</text>
</g>
<!-- 7 -->
<g id="node5" class="node">
<title>7</title>
<ellipse fill="none" stroke="#ff0000" cx="234.7696" cy="-38.1838" rx="38.3684" ry="38.3684"/>
<text text-anchor="middle" x="234.7696" y="-41.5838" font-family="Times,serif" font-size="12.00" fill="#000000">sum</text>
<text text-anchor="middle" x="234.7696" y="-28.5838" font-family="Times,serif" font-size="12.00" fill="#000000">sigmoid</text>
<text text-anchor="middle" x="193.0858" y="-79.7675" font-family="Times,serif" font-size="12.00" fill="#000000">7</text>
</g>
<!-- 4&#45;&gt;7 -->
<g id="edge3" class="edge">
<title>4&#45;&gt;7</title>
<path fill="none" stroke="#000000" d="M219.1735,-479.0768C226.1594,-454.4808 233.7696,-420.6981 233.7696,-390.2447 233.7696,-390.2447 233.7696,-390.2447 233.7696,-163.5513 233.7696,-138.2587 233.9756,-110.0966 234.2006,-86.8815"/>
<polygon fill="#000000" stroke="#000000" points="237.7033,-86.6262 234.3047,-76.5913 230.7036,-86.5553 237.7033,-86.6262"/>
<text text-anchor="middle" x="244.7696" y="-273.798" font-family="Times,serif" font-size="12.00" fill="#000000">2.00</text>
</g>
<!-- 26 -->
<g id="node6" class="node">
<title>26</title>
<ellipse fill="none" stroke="#000000" cx="156.7696" cy="-390.2447" rx="38.3684" ry="38.3684"/>
<text text-anchor="middle" x="156.7696" y="-393.6447" font-family="Times,serif" font-size="12.00" fill="#000000">sum</text>
<text text-anchor="middle" x="156.7696" y="-380.6447" font-family="Times,serif" font-size="12.00" fill="#000000">sigmoid</text>
</g>
<!-- 4&#45;&gt;26 -->
<g id="edge4" class="edge">
<title>4&#45;&gt;26</title>
<path fill="none" stroke="#ff0000" d="M193.6986,-479.9991C187.9907,-466.1264 181.3195,-449.9124 175.2296,-435.1112"/>
<polygon fill="#ff0000" stroke="#ff0000" points="178.3694,-433.5435 171.3276,-425.6274 171.8959,-436.207 178.3694,-433.5435"/>
<text text-anchor="middle" x="196.2696" y="-449.8285" font-family="Times,serif" font-size="12.00" fill="#000000">&#45;0.58</text>
</g>
<!-- 26&#45;&gt;9 -->
<g id="edge10" class="edge">
<title>26&#45;&gt;9</title>
<path fill="none" stroke="#000000" d="M127.7894,-365.2042C118.3556,-356.0628 108.3682,-345.2151 100.7696,-334.061 96.0005,-327.0603 91.8121,-319.0024 88.2948,-311.1865"/>
<polygon fill="#000000" stroke="#000000" points="91.4672,-309.7024 84.3433,-301.8602 85.0219,-312.4333 91.4672,-309.7024"/>
<text text-anchor="middle" x="114.7696" y="-324.461" font-family="Times,serif" font-size="12.00" fill="#000000">23.80</text>
</g>
<!-- 26&#45;&gt;7 -->
<g id="edge11" class="edge">
<title>26&#45;&gt;7</title>
<path fill="none" stroke="#000000" d="M163.9974,-352.7125C175.0194,-296.3729 197.1444,-186.6954 219.7696,-94.3675 220.5028,-91.3753 221.2744,-88.2981 222.0647,-85.1987"/>
<polygon fill="#000000" stroke="#000000" points="225.5091,-85.8591 224.629,-75.3009 218.7328,-84.1035 225.5091,-85.8591"/>
<text text-anchor="middle" x="203.7696" y="-223.1351" font-family="Times,serif" font-size="12.00" fill="#000000">16.80</text>
</g>
<!-- 26&#45;&gt;2 -->
<g id="edge9" class="edge">
<title>26&#45;&gt;2</title>
<path fill="none" stroke="#000000" d="M152.9018,-352.0981C149.8434,-320.2281 145.7673,-273.5695 143.7696,-232.7351 141.3376,-183.0247 140.7113,-126.0926 140.6177,-86.7168"/>
<polygon fill="#000000" stroke="#000000" points="144.1177,-86.5943 140.6045,-76.599 137.1177,-86.6036 144.1177,-86.5943"/>
<text text-anchor="middle" x="154.7696" y="-223.1351" font-family="Times,serif" font-size="12.00" fill="#000000">4.51</text>
</g>
<!-- 8 -->
<g id="node7" class="node">
<title>8</title>
<ellipse fill="none" stroke="#ff0000" cx="324.7696" cy="-514.1981" rx="36.5405" ry="36.5405"/>
<text text-anchor="middle" x="324.7696" y="-517.5981" font-family="Times,serif" font-size="12.00" fill="#000000">sum</text>
<text text-anchor="middle" x="324.7696" y="-504.5981" font-family="Times,serif" font-size="12.00" fill="#000000">identity</text>
<text text-anchor="middle" x="284.5" y="-554.3676" font-family="Times,serif" font-size="12.00" fill="#000000">8</text>
</g>
<!-- 8&#45;&gt;7 -->
<g id="edge6" class="edge">
<title>8&#45;&gt;7</title>
<path fill="none" stroke="#000000" d="M335.7349,-479.0462C342.4521,-454.4364 349.7696,-420.6496 349.7696,-390.2447 349.7696,-390.2447 349.7696,-390.2447 349.7696,-163.5513 349.7696,-119.0868 309.999,-83.5631 277.234,-61.8418"/>
<polygon fill="#000000" stroke="#000000" points="278.9616,-58.7921 268.6514,-56.3528 275.19,-64.6892 278.9616,-58.7921"/>
<text text-anchor="middle" x="363.7696" y="-273.798" font-family="Times,serif" font-size="12.00" fill="#000000">21.80</text>
</g>
<!-- 8&#45;&gt;2 -->
<g id="edge5" class="edge">
<title>8&#45;&gt;2</title>
<path fill="none" stroke="#000000" d="M310.5831,-480.1153C301.6389,-455.5698 291.7696,-421.4217 291.7696,-390.2447 291.7696,-390.2447 291.7696,-390.2447 291.7696,-163.5513 291.7696,-161.7131 223.1017,-105.3427 178.3789,-68.8241"/>
<polygon fill="#000000" stroke="#000000" points="180.5626,-66.0886 170.6023,-62.477 176.1364,-71.5116 180.5626,-66.0886"/>
<text text-anchor="middle" x="302.7696" y="-273.798" font-family="Times,serif" font-size="12.00" fill="#000000">1.00</text>
</g>
</g>
</svg>
