<?xml version="1.0" encoding="UTF-8" standalone="no"?>
<!DOCTYPE svg PUBLIC "-//W3C//DTD SVG 1.1//EN"
 "http://www.w3.org/Graphics/SVG/1.1/DTD/svg11.dtd">
<!-- Generated by graphviz version 2.40.1 (20161225.0304)
 -->
<!-- Title: %3 Pages: 1 -->
<svg width="271pt" height="246pt"
 viewBox="0.00 0.00 271.25 245.76" xmlns="http://www.w3.org/2000/svg" xmlns:xlink="http://www.w3.org/1999/xlink">
<g id="graph0" class="graph" transform="scale(1 1) rotate(0) translate(4 241.7645)">
<title>%3</title>
<polygon fill="#ffffff" stroke="transparent" points="-4,4 -4,-241.7645 267.2548,-241.7645 267.2548,4 -4,4"/>
<!-- 1 -->
<g id="node1" class="node">
<title>1</title>
<ellipse fill="none" stroke="#ff0000" cx="101.6274" cy="-205.1371" rx="22.7556" ry="22.7556"/>
<text text-anchor="middle" x="101.6274" y="-207.9371" font-family="Times,serif" font-size="9.00" fill="#000000">sum</text>
<text text-anchor="middle" x="101.6274" y="-197.9371" font-family="Times,serif" font-size="9.00" fill="#000000">id</text>
<text text-anchor="middle" x="76.5" y="-230.5645" font-family="Times,serif" font-size="9.00" fill="#000000">1</text>
</g>
<!-- 2 -->
<g id="node2" class="node">
<title>2</title>
<ellipse fill="none" stroke="#ff0000" cx="92.6274" cy="-22.6274" rx="22.7556" ry="22.7556"/>
<text text-anchor="middle" x="92.6274" y="-25.4274" font-family="Times,serif" font-size="9.00" fill="#000000">sum</text>
<text text-anchor="middle" x="92.6274" y="-15.4274" font-family="Times,serif" font-size="9.00" fill="#000000">sig</text>
<text text-anchor="middle" x="67.5" y="-48.0548" font-family="Times,serif" font-size="9.00" fill="#000000">2</text>
</g>
<!-- 1&#45;&gt;2 -->
<g id="edge1" class="edge">
<title>1&#45;&gt;2</title>
<path fill="none" stroke="#c0c0c0" d="M102.9459,-182.3676C103.2286,-176.5475 103.485,-170.2987 103.6274,-164.5097 104.7354,-119.4663 103.1561,-108.0836 98.6274,-63.2548 98.3703,-60.7099 98.0675,-58.0805 97.7367,-55.4401"/>
<polygon fill="#c0c0c0" stroke="#c0c0c0" points="101.1809,-54.793 96.3606,-45.3583 94.2452,-55.7398 101.1809,-54.793"/>
<text text-anchor="middle" x="114.1274" y="-111.6823" font-family="Times,serif" font-size="9.00" fill="#000000">&#45;1.53</text>
</g>
<!-- 5 -->
<g id="node5" class="node">
<title>5</title>
<ellipse fill="none" stroke="#000000" cx="62.6274" cy="-113.8823" rx="22.7556" ry="22.7556"/>
<text text-anchor="middle" x="62.6274" y="-116.6823" font-family="Times,serif" font-size="9.00" fill="#000000">sum</text>
<text text-anchor="middle" x="62.6274" y="-106.6823" font-family="Times,serif" font-size="9.00" fill="#000000">id</text>
<text text-anchor="middle" x="37.5" y="-139.3097" font-family="Times,serif" font-size="9.00" fill="#000000">5</text>
</g>
<!-- 1&#45;&gt;5 -->
<g id="edge4" class="edge">
<title>1&#45;&gt;5</title>
<path fill="none" stroke="#000000" stroke-dasharray="5,2" d="M92.582,-183.972C87.5613,-172.2241 81.2277,-157.4045 75.6791,-144.4214"/>
<polygon fill="#000000" stroke="#000000" points="78.7721,-142.7525 71.6238,-134.9325 72.3353,-145.5035 78.7721,-142.7525"/>
<text text-anchor="middle" x="91.6274" y="-157.3097" font-family="Times,serif" font-size="9.00" fill="#000000">8.53</text>
</g>
<!-- 4 -->
<g id="node3" class="node">
<title>4</title>
<ellipse fill="none" stroke="#ff0000" cx="185.6274" cy="-205.1371" rx="22.7556" ry="22.7556"/>
<text text-anchor="middle" x="185.6274" y="-207.9371" font-family="Times,serif" font-size="9.00" fill="#000000">sum</text>
<text text-anchor="middle" x="185.6274" y="-197.9371" font-family="Times,serif" font-size="9.00" fill="#000000">id</text>
<text text-anchor="middle" x="160.5" y="-230.5645" font-family="Times,serif" font-size="9.00" fill="#000000">4</text>
</g>
<!-- 4&#45;&gt;2 -->
<g id="edge2" class="edge">
<title>4&#45;&gt;2</title>
<path fill="none" stroke="#c0c0c0" d="M175.4209,-184.9067C161.5098,-157.3604 135.7892,-106.5253 113.6274,-63.2548 111.7668,-59.622 109.8066,-55.8099 107.8619,-52.0371"/>
<polygon fill="#c0c0c0" stroke="#c0c0c0" points="110.8233,-50.1435 103.1253,-42.864 104.6035,-53.3552 110.8233,-50.1435"/>
<text text-anchor="middle" x="161.1274" y="-111.6823" font-family="Times,serif" font-size="9.00" fill="#000000">&#45;1.00</text>
</g>
<!-- 4&#45;&gt;5 -->
<g id="edge8" class="edge">
<title>4&#45;&gt;5</title>
<path fill="none" stroke="#000000" stroke-dasharray="5,2" d="M167.2131,-191.4753C146.5613,-176.1535 112.8832,-151.1675 89.34,-133.7006"/>
<polygon fill="#000000" stroke="#000000" points="91.2842,-130.7849 81.1676,-127.6374 87.1133,-136.4067 91.2842,-130.7849"/>
<text text-anchor="middle" x="136.6274" y="-157.3097" font-family="Times,serif" font-size="9.00" fill="#000000">2.00</text>
</g>
<!-- 7 -->
<g id="node6" class="node">
<title>7</title>
<ellipse fill="none" stroke="#ff0000" cx="240.6274" cy="-22.6274" rx="22.7556" ry="22.7556"/>
<text text-anchor="middle" x="240.6274" y="-25.4274" font-family="Times,serif" font-size="9.00" fill="#000000">sum</text>
<text text-anchor="middle" x="240.6274" y="-15.4274" font-family="Times,serif" font-size="9.00" fill="#000000">sig</text>
<text text-anchor="middle" x="215.5" y="-48.0548" font-family="Times,serif" font-size="9.00" fill="#000000">7</text>
</g>
<!-- 4&#45;&gt;7 -->
<g id="edge6" class="edge">
<title>4&#45;&gt;7</title>
<path fill="none" stroke="#000000" d="M193.1222,-183.659C195.2509,-177.4858 197.5534,-170.7386 199.6274,-164.5097 203.757,-152.1076 204.8587,-149.0261 208.6274,-136.5097 216.9456,-108.8836 225.7709,-77.283 232.0418,-54.3895"/>
<polygon fill="#000000" stroke="#000000" points="235.4764,-55.0978 234.7323,-44.5291 228.7233,-53.2551 235.4764,-55.0978"/>
<text text-anchor="middle" x="230.6274" y="-111.6823" font-family="Times,serif" font-size="9.00" fill="#000000">2.00</text>
</g>
<!-- 8 -->
<g id="node4" class="node">
<title>8</title>
<ellipse fill="none" stroke="#ff0000" cx="27.6274" cy="-205.1371" rx="22.7556" ry="22.7556"/>
<text text-anchor="middle" x="27.6274" y="-207.9371" font-family="Times,serif" font-size="9.00" fill="#000000">sum</text>
<text text-anchor="middle" x="27.6274" y="-197.9371" font-family="Times,serif" font-size="9.00" fill="#000000">id</text>
<text text-anchor="middle" x="2.5" y="-230.5645" font-family="Times,serif" font-size="9.00" fill="#000000">8</text>
</g>
<!-- 8&#45;&gt;2 -->
<g id="edge3" class="edge">
<title>8&#45;&gt;2</title>
<path fill="none" stroke="#000000" d="M18.8909,-183.9683C10.5249,-160.303 1.0186,-121.3547 14.6274,-91.2548 24.6885,-69.0018 45.9263,-51.0905 63.7037,-39.1532"/>
<polygon fill="#000000" stroke="#000000" points="66.0651,-41.7979 72.6071,-33.464 62.296,-35.8993 66.0651,-41.7979"/>
<text text-anchor="middle" x="22.6274" y="-111.6823" font-family="Times,serif" font-size="9.00" fill="#000000">1.00</text>
</g>
<!-- 8&#45;&gt;5 -->
<g id="edge7" class="edge">
<title>8&#45;&gt;5</title>
<path fill="none" stroke="#000000" d="M35.7451,-183.972C40.2187,-172.3081 45.8537,-157.616 50.8076,-144.6999"/>
<polygon fill="#000000" stroke="#000000" points="54.1193,-145.8389 54.4325,-135.2486 47.5835,-143.3321 54.1193,-145.8389"/>
<text text-anchor="middle" x="54.6274" y="-157.3097" font-family="Times,serif" font-size="9.00" fill="#000000">2.00</text>
</g>
<!-- 5&#45;&gt;2 -->
<g id="edge5" class="edge">
<title>5&#45;&gt;2</title>
<path fill="none" stroke="#000000" d="M69.737,-92.2561C73.4831,-80.861 78.1472,-66.6738 82.2859,-54.0845"/>
<polygon fill="#000000" stroke="#000000" points="85.6667,-55.0075 85.4649,-44.4146 79.0168,-52.8213 85.6667,-55.0075"/>
<text text-anchor="middle" x="86.6274" y="-66.0548" font-family="Times,serif" font-size="9.00" fill="#000000">2.00</text>
</g>
</g>
</svg>
