<?xml version="1.0" encoding="UTF-8" standalone="no"?>
<!DOCTYPE svg PUBLIC "-//W3C//DTD SVG 1.1//EN"
 "http://www.w3.org/Graphics/SVG/1.1/DTD/svg11.dtd">
<!-- Generated by graphviz version 2.40.1 (20161225.0304)
 -->
<!-- Title: %3 Pages: 1 -->
<svg width="315pt" height="334pt"
 viewBox="0.00 0.00 315.25 334.19" xmlns="http://www.w3.org/2000/svg" xmlns:xlink="http://www.w3.org/1999/xlink">
<g id="graph0" class="graph" transform="scale(1 1) rotate(0) translate(4 330.1909)">
<title>%3</title>
<polygon fill="#ffffff" stroke="transparent" points="-4,4 -4,-330.1909 311.2548,-330.1909 311.2548,4 -4,4"/>
<!-- 1 -->
<g id="node1" class="node">
<title>1</title>
<ellipse fill="none" stroke="#ff0000" cx="27.6274" cy="-293.5635" rx="22.7556" ry="22.7556"/>
<text text-anchor="middle" x="27.6274" y="-296.3635" font-family="Times,serif" font-size="9.00" fill="#000000">sum</text>
<text text-anchor="middle" x="27.6274" y="-286.3635" font-family="Times,serif" font-size="9.00" fill="#000000">id</text>
<text text-anchor="middle" x="2.5" y="-318.9909" font-family="Times,serif" font-size="9.00" fill="#000000">1</text>
</g>
<!-- 2 -->
<g id="node2" class="node">
<title>2</title>
<ellipse fill="none" stroke="#ff0000" cx="78.6274" cy="-22.6274" rx="22.7556" ry="22.7556"/>
<text text-anchor="middle" x="78.6274" y="-25.4274" font-family="Times,serif" font-size="9.00" fill="#000000">sum</text>
<text text-anchor="middle" x="78.6274" y="-15.4274" font-family="Times,serif" font-size="9.00" fill="#000000">sig</text>
<text text-anchor="middle" x="53.5" y="-48.0548" font-family="Times,serif" font-size="9.00" fill="#000000">2</text>
</g>
<!-- 1&#45;&gt;2 -->
<g id="edge1" class="edge">
<title>1&#45;&gt;2</title>
<path fill="none" stroke="#c0c0c0" d="M31.8879,-270.9296C40.9291,-222.8984 62.0624,-110.6284 72.53,-55.0197"/>
<polygon fill="#c0c0c0" stroke="#c0c0c0" points="76.0045,-55.4812 74.4149,-45.0063 69.1254,-54.1862 76.0045,-55.4812"/>
<text text-anchor="middle" x="64.1274" y="-154.4812" font-family="Times,serif" font-size="9.00" fill="#000000">&#45;2.00</text>
</g>
<!-- 9 -->
<g id="node3" class="node">
<title>9</title>
<ellipse fill="none" stroke="#000000" cx="158.6274" cy="-202.3087" rx="22.7556" ry="22.7556"/>
<text text-anchor="middle" x="158.6274" y="-205.1087" font-family="Times,serif" font-size="9.00" fill="#000000">sum</text>
<text text-anchor="middle" x="158.6274" y="-195.1087" font-family="Times,serif" font-size="9.00" fill="#000000">log</text>
<text text-anchor="middle" x="133.5" y="-227.7361" font-family="Times,serif" font-size="9.00" fill="#000000">9</text>
</g>
<!-- 1&#45;&gt;9 -->
<g id="edge2" class="edge">
<title>1&#45;&gt;9</title>
<path fill="none" stroke="#000000" d="M46.3965,-280.4889C68.6731,-264.971 105.9971,-238.971 131.4352,-221.2508"/>
<polygon fill="#000000" stroke="#000000" points="133.6883,-223.9468 139.8931,-215.359 129.6871,-218.203 133.6883,-223.9468"/>
<text text-anchor="middle" x="108.1274" y="-245.7361" font-family="Times,serif" font-size="9.00" fill="#000000">14.80</text>
</g>
<!-- 7 -->
<g id="node5" class="node">
<title>7</title>
<ellipse fill="none" stroke="#ff0000" cx="213.6274" cy="-22.6274" rx="22.7556" ry="22.7556"/>
<text text-anchor="middle" x="213.6274" y="-25.4274" font-family="Times,serif" font-size="9.00" fill="#000000">sum</text>
<text text-anchor="middle" x="213.6274" y="-15.4274" font-family="Times,serif" font-size="9.00" fill="#000000">sig</text>
<text text-anchor="middle" x="188.5" y="-48.0548" font-family="Times,serif" font-size="9.00" fill="#000000">7</text>
</g>
<!-- 9&#45;&gt;7 -->
<g id="edge7" class="edge">
<title>9&#45;&gt;7</title>
<path fill="none" stroke="#000000" d="M165.2617,-180.6349C174.9245,-149.0673 192.9251,-90.2604 204.0323,-53.9741"/>
<polygon fill="#000000" stroke="#000000" points="207.3893,-54.9646 206.9696,-44.378 200.6959,-52.9157 207.3893,-54.9646"/>
<text text-anchor="middle" x="203.1274" y="-110.268" font-family="Times,serif" font-size="9.00" fill="#000000">22.80</text>
</g>
<!-- 23 -->
<g id="node7" class="node">
<title>23</title>
<ellipse fill="none" stroke="#000000" cx="130.6274" cy="-112.468" rx="21.4286" ry="21.4286"/>
<text text-anchor="middle" x="130.6274" y="-115.268" font-family="Times,serif" font-size="9.00" fill="#000000">min</text>
<text text-anchor="middle" x="130.6274" y="-105.268" font-family="Times,serif" font-size="9.00" fill="#000000">sig</text>
<text text-anchor="middle" x="104.4142" y="-136.4812" font-family="Times,serif" font-size="9.00" fill="#000000">23</text>
</g>
<!-- 9&#45;&gt;23 -->
<g id="edge8" class="edge">
<title>9&#45;&gt;23</title>
<path fill="none" stroke="#000000" d="M151.8494,-180.5607C148.2735,-169.0873 143.8321,-154.8364 139.9379,-142.3416"/>
<polygon fill="#000000" stroke="#000000" points="143.2762,-141.2897 136.9592,-132.7841 136.5932,-143.3726 143.2762,-141.2897"/>
<text text-anchor="middle" x="156.1274" y="-154.4812" font-family="Times,serif" font-size="9.00" fill="#000000">21.80</text>
</g>
<!-- 4 -->
<g id="node4" class="node">
<title>4</title>
<ellipse fill="none" stroke="#ff0000" cx="284.6274" cy="-293.5635" rx="22.7556" ry="22.7556"/>
<text text-anchor="middle" x="284.6274" y="-296.3635" font-family="Times,serif" font-size="9.00" fill="#000000">sum</text>
<text text-anchor="middle" x="284.6274" y="-286.3635" font-family="Times,serif" font-size="9.00" fill="#000000">id</text>
<text text-anchor="middle" x="259.5" y="-318.9909" font-family="Times,serif" font-size="9.00" fill="#000000">4</text>
</g>
<!-- 4&#45;&gt;9 -->
<g id="edge4" class="edge">
<title>4&#45;&gt;9</title>
<path fill="none" stroke="#000000" d="M266.0357,-280.0985C244.8189,-264.7324 209.9299,-239.4642 185.6964,-221.9132"/>
<polygon fill="#000000" stroke="#000000" points="187.4475,-218.8599 177.2954,-215.8289 183.3415,-224.5292 187.4475,-218.8599"/>
<text text-anchor="middle" x="233.6274" y="-245.7361" font-family="Times,serif" font-size="9.00" fill="#000000">1.00</text>
</g>
<!-- 4&#45;&gt;7 -->
<g id="edge3" class="edge">
<title>4&#45;&gt;7</title>
<path fill="none" stroke="#000000" d="M285.5471,-270.7258C286.3717,-227.8648 283.866,-133.3776 250.6274,-63.2548 247.5525,-56.7678 243.0884,-50.5841 238.3174,-45.0858"/>
<polygon fill="#000000" stroke="#000000" points="240.6381,-42.445 231.2339,-37.5653 235.5425,-47.2445 240.6381,-42.445"/>
<text text-anchor="middle" x="287.6274" y="-154.4812" font-family="Times,serif" font-size="9.00" fill="#000000">2.00</text>
</g>
<!-- 8 -->
<g id="node6" class="node">
<title>8</title>
<ellipse fill="none" stroke="#ff0000" cx="93.6274" cy="-293.5635" rx="22.7556" ry="22.7556"/>
<text text-anchor="middle" x="93.6274" y="-296.3635" font-family="Times,serif" font-size="9.00" fill="#000000">sum</text>
<text text-anchor="middle" x="93.6274" y="-286.3635" font-family="Times,serif" font-size="9.00" fill="#000000">id</text>
<text text-anchor="middle" x="68.5" y="-318.9909" font-family="Times,serif" font-size="9.00" fill="#000000">8</text>
</g>
<!-- 8&#45;&gt;2 -->
<g id="edge5" class="edge">
<title>8&#45;&gt;2</title>
<path fill="none" stroke="#000000" d="M92.3743,-270.9296C89.7218,-223.0179 83.5304,-111.1865 80.4438,-55.4357"/>
<polygon fill="#000000" stroke="#000000" points="83.935,-55.1786 79.8875,-45.3874 76.9457,-55.5656 83.935,-55.1786"/>
<text text-anchor="middle" x="94.6274" y="-154.4812" font-family="Times,serif" font-size="9.00" fill="#000000">1.00</text>
</g>
<!-- 8&#45;&gt;7 -->
<g id="edge6" class="edge">
<title>8&#45;&gt;7</title>
<path fill="none" stroke="#000000" d="M114.5753,-284.0021C136.663,-272.872 170.9328,-252.4439 190.6274,-224.9361 226.748,-174.486 224.1489,-98.1089 218.9457,-55.0764"/>
<polygon fill="#000000" stroke="#000000" points="222.4129,-54.597 217.6258,-45.1453 215.4739,-55.5193 222.4129,-54.597"/>
<text text-anchor="middle" x="229.1274" y="-154.4812" font-family="Times,serif" font-size="9.00" fill="#000000">15.80</text>
</g>
<!-- 23&#45;&gt;2 -->
<g id="edge9" class="edge">
<title>23&#45;&gt;2</title>
<path fill="none" stroke="#c0c0c0" d="M119.853,-93.853C112.7273,-81.542 103.2459,-65.1609 95.1726,-51.2125"/>
<polygon fill="#c0c0c0" stroke="#c0c0c0" points="98.1481,-49.3665 90.1095,-42.465 92.0897,-52.8731 98.1481,-49.3665"/>
<text text-anchor="middle" x="118.1274" y="-66.0548" font-family="Times,serif" font-size="9.00" fill="#000000">&#45;0.05</text>
</g>
<!-- 23&#45;&gt;7 -->
<g id="edge10" class="edge">
<title>23&#45;&gt;7</title>
<path fill="none" stroke="#000000" d="M137.6513,-92.3945C141.6387,-82.8759 147.3095,-71.7558 154.6274,-63.2548 162.9738,-53.5592 174.1389,-45.0956 184.5099,-38.4394"/>
<polygon fill="#000000" stroke="#000000" points="186.6075,-41.26 193.3285,-33.0698 182.967,-35.2811 186.6075,-41.26"/>
<text text-anchor="middle" x="165.1274" y="-66.0548" font-family="Times,serif" font-size="9.00" fill="#000000">17.80</text>
</g>
</g>
</svg>
