<?xml version="1.0" encoding="UTF-8" standalone="no"?>
<!DOCTYPE svg PUBLIC "-//W3C//DTD SVG 1.1//EN"
 "http://www.w3.org/Graphics/SVG/1.1/DTD/svg11.dtd">
<!-- Generated by graphviz version 2.40.1 (20161225.0304)
 -->
<!-- Title: %3 Pages: 1 -->
<svg width="442pt" height="372pt"
 viewBox="0.00 0.00 442.01 372.27" xmlns="http://www.w3.org/2000/svg" xmlns:xlink="http://www.w3.org/1999/xlink">
<g id="graph0" class="graph" transform="scale(1 1) rotate(0) translate(4 368.2742)">
<title>%3</title>
<polygon fill="#ffffff" stroke="transparent" points="-4,4 -4,-368.2742 438.0064,-368.2742 438.0064,4 -4,4"/>
<!-- 1 -->
<g id="node1" class="node">
<title>1</title>
<ellipse fill="none" stroke="#ff0000" cx="411.379" cy="-331.6468" rx="22.7556" ry="22.7556"/>
<text text-anchor="middle" x="411.379" y="-334.4468" font-family="Times,serif" font-size="9.00" fill="#000000">sum</text>
<text text-anchor="middle" x="411.379" y="-324.4468" font-family="Times,serif" font-size="9.00" fill="#000000">id</text>
<text text-anchor="middle" x="386.2515" y="-357.0742" font-family="Times,serif" font-size="9.00" fill="#000000">1</text>
</g>
<!-- 2 -->
<g id="node2" class="node">
<title>2</title>
<ellipse fill="none" stroke="#ff0000" cx="261.379" cy="-22.6274" rx="22.7556" ry="22.7556"/>
<text text-anchor="middle" x="261.379" y="-25.4274" font-family="Times,serif" font-size="9.00" fill="#000000">sum</text>
<text text-anchor="middle" x="261.379" y="-15.4274" font-family="Times,serif" font-size="9.00" fill="#000000">sig</text>
<text text-anchor="middle" x="236.2515" y="-48.0548" font-family="Times,serif" font-size="9.00" fill="#000000">2</text>
</g>
<!-- 1&#45;&gt;2 -->
<g id="edge1" class="edge">
<title>1&#45;&gt;2</title>
<path fill="none" stroke="#c0c0c0" d="M415.0453,-308.9089C415.8991,-303.0882 416.7431,-296.8312 417.379,-291.0193 424.0781,-229.7832 425.7265,-206.9346 393.379,-154.5097 365.0461,-108.5913 317.7047,-66.5972 288.0829,-42.8584"/>
<polygon fill="#c0c0c0" stroke="#c0c0c0" points="289.8832,-39.8208 279.8641,-36.3759 285.5482,-45.3169 289.8832,-39.8208"/>
<text text-anchor="middle" x="423.879" y="-174.9371" font-family="Times,serif" font-size="9.00" fill="#000000">&#45;2.00</text>
</g>
<!-- 5 -->
<g id="node5" class="node">
<title>5</title>
<ellipse fill="none" stroke="#000000" stroke-dasharray="5,2" cx="261.379" cy="-113.8823" rx="22.7556" ry="22.7556"/>
<text text-anchor="middle" x="261.379" y="-116.6823" font-family="Times,serif" font-size="9.00" fill="#000000">sum</text>
<text text-anchor="middle" x="261.379" y="-106.6823" font-family="Times,serif" font-size="9.00" fill="#000000">id</text>
<text text-anchor="middle" x="236.2515" y="-139.3097" font-family="Times,serif" font-size="9.00" fill="#000000">5</text>
</g>
<!-- 1&#45;&gt;5 -->
<g id="edge4" class="edge">
<title>1&#45;&gt;5</title>
<path fill="none" stroke="#000000" stroke-dasharray="5,2" d="M407.8041,-309.1672C400.4228,-263.9778 383.2773,-165.488 372.379,-154.5097 347.0086,-128.9531 326.2638,-151.1854 293.379,-136.5097 291.5615,-135.6986 289.7416,-134.7775 287.9436,-133.782"/>
<polygon fill="#000000" stroke="#000000" points="289.5836,-130.6798 279.2478,-128.3509 285.8754,-136.6169 289.5836,-130.6798"/>
<text text-anchor="middle" x="407.379" y="-238.1919" font-family="Times,serif" font-size="9.00" fill="#000000">2.00</text>
</g>
<!-- 4 -->
<g id="node3" class="node">
<title>4</title>
<ellipse fill="none" stroke="#ff0000" cx="80.379" cy="-331.6468" rx="22.7556" ry="22.7556"/>
<text text-anchor="middle" x="80.379" y="-334.4468" font-family="Times,serif" font-size="9.00" fill="#000000">sum</text>
<text text-anchor="middle" x="80.379" y="-324.4468" font-family="Times,serif" font-size="9.00" fill="#000000">id</text>
<text text-anchor="middle" x="55.2515" y="-357.0742" font-family="Times,serif" font-size="9.00" fill="#000000">4</text>
</g>
<!-- 4&#45;&gt;2 -->
<g id="edge2" class="edge">
<title>4&#45;&gt;2</title>
<path fill="none" stroke="#c0c0c0" d="M83.2138,-308.8806C88.6886,-267.2466 101.4982,-180.7044 116.379,-154.5097 145.0777,-103.991 199.996,-62.1942 233.3927,-39.9575"/>
<polygon fill="#c0c0c0" stroke="#c0c0c0" points="235.3352,-42.8693 241.7962,-34.4725 231.5091,-37.0074 235.3352,-42.8693"/>
<text text-anchor="middle" x="125.879" y="-174.9371" font-family="Times,serif" font-size="9.00" fill="#000000">&#45;0.92</text>
</g>
<!-- 4&#45;&gt;5 -->
<g id="edge8" class="edge">
<title>4&#45;&gt;5</title>
<path fill="none" stroke="#000000" stroke-dasharray="5,2" d="M96.0805,-314.7101C102.0204,-307.7272 108.5143,-299.3329 113.379,-291.0193 146.3306,-234.7063 121.9704,-201.3609 167.379,-154.5097 183.9972,-137.3634 209.0517,-127.0258 229.1162,-121.0721"/>
<polygon fill="#000000" stroke="#000000" points="230.0755,-124.4383 238.7938,-118.4182 228.2242,-117.6875 230.0755,-124.4383"/>
<text text-anchor="middle" x="143.379" y="-238.1919" font-family="Times,serif" font-size="9.00" fill="#000000">2.00</text>
</g>
<!-- 7 -->
<g id="node6" class="node">
<title>7</title>
<ellipse fill="none" stroke="#ff0000" cx="31.379" cy="-22.6274" rx="22.7556" ry="22.7556"/>
<text text-anchor="middle" x="31.379" y="-25.4274" font-family="Times,serif" font-size="9.00" fill="#000000">sum</text>
<text text-anchor="middle" x="31.379" y="-15.4274" font-family="Times,serif" font-size="9.00" fill="#000000">sig</text>
<text text-anchor="middle" x="6.2515" y="-48.0548" font-family="Times,serif" font-size="9.00" fill="#000000">7</text>
</g>
<!-- 4&#45;&gt;7 -->
<g id="edge6" class="edge">
<title>4&#45;&gt;7</title>
<path fill="none" stroke="#000000" stroke-dasharray="5,2" d="M66.1445,-313.7763C47.8841,-289.5928 17.1639,-244.327 5.379,-199.7645 -7.9295,-149.4411 7.3007,-89.1534 19.4263,-53.4739"/>
<polygon fill="#000000" stroke="#000000" points="22.8624,-54.2552 22.896,-43.6604 16.2627,-51.9218 22.8624,-54.2552"/>
<text text-anchor="middle" x="13.379" y="-174.9371" font-family="Times,serif" font-size="9.00" fill="#000000">2.00</text>
</g>
<!-- 23 -->
<g id="node8" class="node">
<title>23</title>
<ellipse fill="none" stroke="#000000" cx="53.379" cy="-177.1371" rx="22.7556" ry="22.7556"/>
<text text-anchor="middle" x="53.379" y="-179.9371" font-family="Times,serif" font-size="9.00" fill="#000000">sum</text>
<text text-anchor="middle" x="53.379" y="-169.9371" font-family="Times,serif" font-size="9.00" fill="#000000">sig</text>
<text text-anchor="middle" x="25.7515" y="-202.5645" font-family="Times,serif" font-size="9.00" fill="#000000">23</text>
</g>
<!-- 4&#45;&gt;23 -->
<g id="edge11" class="edge">
<title>4&#45;&gt;23</title>
<path fill="none" stroke="#000000" d="M73.937,-309.8384C72.2949,-303.7809 70.6398,-297.1759 69.379,-291.0193 63.8462,-264.0028 59.626,-232.987 56.9127,-210.1525"/>
<polygon fill="#000000" stroke="#000000" points="60.3608,-209.5005 55.7377,-199.9675 53.4069,-210.3028 60.3608,-209.5005"/>
<text text-anchor="middle" x="77.379" y="-283.8193" font-family="Times,serif" font-size="9.00" fill="#000000">1.00</text>
</g>
<!-- 8 -->
<g id="node4" class="node">
<title>8</title>
<ellipse fill="none" stroke="#ff0000" cx="270.379" cy="-331.6468" rx="22.7556" ry="22.7556"/>
<text text-anchor="middle" x="270.379" y="-334.4468" font-family="Times,serif" font-size="9.00" fill="#000000">sum</text>
<text text-anchor="middle" x="270.379" y="-324.4468" font-family="Times,serif" font-size="9.00" fill="#000000">id</text>
<text text-anchor="middle" x="245.2515" y="-357.0742" font-family="Times,serif" font-size="9.00" fill="#000000">8</text>
</g>
<!-- 8&#45;&gt;2 -->
<g id="edge3" class="edge">
<title>8&#45;&gt;2</title>
<path fill="none" stroke="#000000" stroke-dasharray="5,2" d="M252.0391,-317.9021C237.0928,-305.4579 217.0867,-285.6473 208.379,-263.0193 180.0188,-189.3224 220.2068,-96.7794 244.7661,-50.9864"/>
<polygon fill="#000000" stroke="#000000" points="247.8411,-52.6582 249.592,-42.209 241.7071,-49.2856 247.8411,-52.6582"/>
<text text-anchor="middle" x="212.379" y="-174.9371" font-family="Times,serif" font-size="9.00" fill="#000000">1.00</text>
</g>
<!-- 8&#45;&gt;5 -->
<g id="edge7" class="edge">
<title>8&#45;&gt;5</title>
<path fill="none" stroke="#000000" stroke-dasharray="5,2" d="M273.4748,-309.0999C277.5381,-275.2721 283.1831,-209.4862 274.379,-154.5097 273.8637,-151.2922 273.1415,-147.9805 272.2988,-144.7021"/>
<polygon fill="#000000" stroke="#000000" points="275.6563,-143.7133 269.4952,-135.0941 268.9365,-145.6742 275.6563,-143.7133"/>
<text text-anchor="middle" x="286.379" y="-238.1919" font-family="Times,serif" font-size="9.00" fill="#000000">2.00</text>
</g>
<!-- 9 -->
<g id="node7" class="node">
<title>9</title>
<ellipse fill="none" stroke="#000000" cx="240.379" cy="-240.3919" rx="22.7556" ry="22.7556"/>
<text text-anchor="middle" x="240.379" y="-243.1919" font-family="Times,serif" font-size="9.00" fill="#000000">sum</text>
<text text-anchor="middle" x="240.379" y="-233.1919" font-family="Times,serif" font-size="9.00" fill="#000000">sig</text>
<text text-anchor="middle" x="215.2515" y="-265.8193" font-family="Times,serif" font-size="9.00" fill="#000000">9</text>
</g>
<!-- 8&#45;&gt;9 -->
<g id="edge9" class="edge">
<title>8&#45;&gt;9</title>
<path fill="none" stroke="#000000" d="M263.2694,-310.0206C259.5232,-298.6255 254.8592,-284.4383 250.7205,-271.849"/>
<polygon fill="#000000" stroke="#000000" points="253.9895,-270.5858 247.5415,-262.1791 247.3397,-272.772 253.9895,-270.5858"/>
<text text-anchor="middle" x="263.379" y="-283.8193" font-family="Times,serif" font-size="9.00" fill="#000000">1.00</text>
</g>
<!-- 26 -->
<g id="node9" class="node">
<title>26</title>
<ellipse fill="none" stroke="#000000" stroke-dasharray="5,2" cx="340.379" cy="-177.1371" rx="22.7556" ry="22.7556"/>
<text text-anchor="middle" x="340.379" y="-179.9371" font-family="Times,serif" font-size="9.00" fill="#000000">sum</text>
<text text-anchor="middle" x="340.379" y="-169.9371" font-family="Times,serif" font-size="9.00" fill="#000000">sig</text>
<text text-anchor="middle" x="312.7515" y="-202.5645" font-family="Times,serif" font-size="9.00" fill="#000000">26</text>
</g>
<!-- 8&#45;&gt;26 -->
<g id="edge13" class="edge">
<title>8&#45;&gt;26</title>
<path fill="none" stroke="#000000" stroke-dasharray="5,2" d="M289.1138,-318.1086C297.7138,-310.9686 307.3228,-301.5167 313.379,-291.0193 327.7964,-266.0289 334.5267,-233.7267 337.662,-209.9112"/>
<polygon fill="#000000" stroke="#000000" points="341.1418,-210.2869 338.8309,-199.9472 334.1895,-209.4712 341.1418,-210.2869"/>
<text text-anchor="middle" x="326.379" y="-283.8193" font-family="Times,serif" font-size="9.00" fill="#000000">1.00</text>
</g>
<!-- 5&#45;&gt;2 -->
<g id="edge5" class="edge">
<title>5&#45;&gt;2</title>
<path fill="none" stroke="#000000" stroke-dasharray="5,2" d="M261.379,-90.8548C261.379,-80.1826 261.379,-67.3036 261.379,-55.6234"/>
<polygon fill="#000000" stroke="#000000" points="264.8791,-55.3313 261.379,-45.3314 257.8791,-55.3314 264.8791,-55.3313"/>
<text text-anchor="middle" x="269.379" y="-66.0548" font-family="Times,serif" font-size="9.00" fill="#000000">2.00</text>
</g>
<!-- 9&#45;&gt;5 -->
<g id="edge10" class="edge">
<title>9&#45;&gt;5</title>
<path fill="none" stroke="#000000" stroke-dasharray="5,2" d="M244.085,-218.0657C247.3784,-198.2252 252.2347,-168.9699 255.9633,-146.5075"/>
<polygon fill="#000000" stroke="#000000" points="259.4545,-146.849 257.6393,-136.4108 252.5489,-145.7026 259.4545,-146.849"/>
<text text-anchor="middle" x="262.379" y="-174.9371" font-family="Times,serif" font-size="9.00" fill="#000000">2.00</text>
</g>
<!-- 23&#45;&gt;7 -->
<g id="edge12" class="edge">
<title>23&#45;&gt;7</title>
<path fill="none" stroke="#000000" d="M50.18,-154.6701C46.4488,-128.4657 40.2506,-84.9347 35.9977,-55.0659"/>
<polygon fill="#000000" stroke="#000000" points="39.4566,-54.5283 34.5818,-45.1216 32.5265,-55.5151 39.4566,-54.5283"/>
<text text-anchor="middle" x="56.379" y="-111.6823" font-family="Times,serif" font-size="9.00" fill="#000000">2.00</text>
</g>
<!-- 26&#45;&gt;2 -->
<g id="edge14" class="edge">
<title>26&#45;&gt;2</title>
<path fill="none" stroke="#000000" stroke-dasharray="5,2" d="M330.0511,-156.9376C316.3302,-130.1021 291.9987,-82.5142 276.2873,-51.7854"/>
<polygon fill="#000000" stroke="#000000" points="279.3781,-50.1421 271.7094,-42.8318 273.1455,-53.3289 279.3781,-50.1421"/>
<text text-anchor="middle" x="326.379" y="-111.6823" font-family="Times,serif" font-size="9.00" fill="#000000">1.00</text>
</g>
</g>
</svg>
