<?xml version="1.0" encoding="UTF-8" standalone="no"?>
<!DOCTYPE svg PUBLIC "-//W3C//DTD SVG 1.1//EN"
 "http://www.w3.org/Graphics/SVG/1.1/DTD/svg11.dtd">
<!-- Generated by graphviz version 2.40.1 (20161225.0304)
 -->
<!-- Title: %3 Pages: 1 -->
<svg width="232pt" height="317pt"
 viewBox="0.00 0.00 232.26 317.12" xmlns="http://www.w3.org/2000/svg" xmlns:xlink="http://www.w3.org/1999/xlink">
<g id="graph0" class="graph" transform="scale(1 1) rotate(0) translate(4 313.1198)">
<title>%3</title>
<polygon fill="#ffffff" stroke="transparent" points="-4,4 -4,-313.1198 228.2635,-313.1198 228.2635,4 -4,4"/>
<!-- 1 -->
<g id="node1" class="node">
<title>1</title>
<ellipse fill="none" stroke="#ff0000" cx="16.2635" cy="-292.8564" rx="16.0303" ry="16.0303"/>
<text text-anchor="middle" x="16.2635" y="-289.7564" font-family="Times,serif" font-size="12.00" fill="#000000">1</text>
</g>
<!-- 2 -->
<g id="node2" class="node">
<title>2</title>
<ellipse fill="none" stroke="#ff0000" cx="69.2635" cy="-16.2635" rx="16.0303" ry="16.0303"/>
<text text-anchor="middle" x="69.2635" y="-13.1635" font-family="Times,serif" font-size="12.00" fill="#000000">2</text>
</g>
<!-- 1&#45;&gt;2 -->
<g id="edge1" class="edge">
<title>1&#45;&gt;2</title>
<path fill="none" stroke="#000000" d="M12.5107,-276.8268C4.8585,-240.6653 -9.5864,-150.6671 18.2635,-83.5269 25.7252,-65.5382 39.183,-48.1001 50.401,-35.4883"/>
<polygon fill="#000000" stroke="#000000" points="53.1561,-37.6637 57.3639,-27.9403 48.0109,-32.9174 53.1561,-37.6637"/>
<text text-anchor="middle" x="17.7635" y="-150.8599" font-family="Times,serif" font-size="14.00" fill="#000000">2.00</text>
</g>
<!-- 9 -->
<g id="node3" class="node">
<title>9</title>
<ellipse fill="none" stroke="#000000" cx="42.2635" cy="-209.3295" rx="16.0303" ry="16.0303"/>
<text text-anchor="middle" x="42.2635" y="-206.2295" font-family="Times,serif" font-size="12.00" fill="#000000">9</text>
</g>
<!-- 1&#45;&gt;9 -->
<g id="edge2" class="edge">
<title>1&#45;&gt;9</title>
<path fill="none" stroke="#ff0000" d="M21.1539,-277.1456C24.858,-265.2456 30.0248,-248.6471 34.3195,-234.8501"/>
<polygon fill="#ff0000" stroke="#ff0000" points="37.7646,-235.5582 37.395,-224.9698 31.081,-233.4777 37.7646,-235.5582"/>
<text text-anchor="middle" x="46.7635" y="-247.3929" font-family="Times,serif" font-size="14.00" fill="#000000">&#45;0.24</text>
</g>
<!-- 5 -->
<g id="node8" class="node">
<title>5</title>
<ellipse fill="none" stroke="#000000" cx="43.2635" cy="-99.7904" rx="16.0303" ry="16.0303"/>
<text text-anchor="middle" x="43.2635" y="-96.6904" font-family="Times,serif" font-size="12.00" fill="#000000">5</text>
</g>
<!-- 9&#45;&gt;5 -->
<g id="edge6" class="edge">
<title>9&#45;&gt;5</title>
<path fill="none" stroke="#000000" d="M41.1128,-192.9554C40.7667,-187.2922 40.4337,-180.903 40.2635,-175.066 39.7321,-156.8461 39.4678,-152.2641 40.2635,-134.0538 40.3752,-131.4961 40.5337,-128.834 40.7201,-126.1743"/>
<polygon fill="#000000" stroke="#000000" points="44.2128,-126.4053 41.5377,-116.1538 37.236,-125.836 44.2128,-126.4053"/>
<text text-anchor="middle" x="52.7635" y="-150.8599" font-family="Times,serif" font-size="14.00" fill="#000000">2.00</text>
</g>
<!-- 4 -->
<g id="node4" class="node">
<title>4</title>
<ellipse fill="none" stroke="#ff0000" cx="170.2635" cy="-292.8564" rx="16.0303" ry="16.0303"/>
<text text-anchor="middle" x="170.2635" y="-289.7564" font-family="Times,serif" font-size="12.00" fill="#000000">4</text>
</g>
<!-- 4&#45;&gt;2 -->
<g id="edge3" class="edge">
<title>4&#45;&gt;2</title>
<path fill="none" stroke="#000000" d="M166.7954,-276.7349C156.8583,-230.7904 128.47,-101.344 120.2635,-83.5269 112.1161,-65.8381 98.6845,-48.3886 87.6502,-35.6965"/>
<polygon fill="#000000" stroke="#000000" points="90.1079,-33.1948 80.8249,-28.0882 84.8973,-37.8691 90.1079,-33.1948"/>
<text text-anchor="middle" x="155.7635" y="-150.8599" font-family="Times,serif" font-size="14.00" fill="#000000">1.00</text>
</g>
<!-- 23 -->
<g id="node5" class="node">
<title>23</title>
<ellipse fill="none" stroke="#000000" cx="199.2635" cy="-154.5599" rx="20.5122" ry="20.5122"/>
<text text-anchor="middle" x="199.2635" y="-151.4599" font-family="Times,serif" font-size="12.00" fill="#000000">23</text>
</g>
<!-- 4&#45;&gt;23 -->
<g id="edge4" class="edge">
<title>4&#45;&gt;23</title>
<path fill="none" stroke="#000000" d="M173.6469,-276.7214C178.3369,-254.3554 186.9047,-213.4969 192.8326,-185.2275"/>
<polygon fill="#000000" stroke="#000000" points="196.3348,-185.5797 194.9617,-175.0742 189.4838,-184.143 196.3348,-185.5797"/>
<text text-anchor="middle" x="192.7635" y="-247.3929" font-family="Times,serif" font-size="14.00" fill="#000000">1.00</text>
</g>
<!-- 7 -->
<g id="node9" class="node">
<title>7</title>
<ellipse fill="none" stroke="#ff0000" cx="199.2635" cy="-16.2635" rx="16.0303" ry="16.0303"/>
<text text-anchor="middle" x="199.2635" y="-13.1635" font-family="Times,serif" font-size="12.00" fill="#000000">7</text>
</g>
<!-- 23&#45;&gt;7 -->
<g id="edge7" class="edge">
<title>23&#45;&gt;7</title>
<path fill="none" stroke="#000000" d="M199.2635,-133.8555C199.2635,-109.6164 199.2635,-69.4173 199.2635,-42.881"/>
<polygon fill="#000000" stroke="#000000" points="202.7636,-42.7682 199.2635,-32.7683 195.7636,-42.7683 202.7636,-42.7682"/>
<text text-anchor="middle" x="211.7635" y="-96.0904" font-family="Times,serif" font-size="14.00" fill="#000000">7.25</text>
</g>
<!-- 8 -->
<g id="node6" class="node">
<title>8</title>
<ellipse fill="none" stroke="#ff0000" cx="95.2635" cy="-292.8564" rx="16.0303" ry="16.0303"/>
<text text-anchor="middle" x="95.2635" y="-289.7564" font-family="Times,serif" font-size="12.00" fill="#000000">8</text>
</g>
<!-- 26 -->
<g id="node7" class="node">
<title>26</title>
<ellipse fill="none" stroke="#000000" cx="95.2635" cy="-154.5599" rx="20.5122" ry="20.5122"/>
<text text-anchor="middle" x="95.2635" y="-151.4599" font-family="Times,serif" font-size="12.00" fill="#000000">26</text>
</g>
<!-- 8&#45;&gt;26 -->
<g id="edge5" class="edge">
<title>8&#45;&gt;26</title>
<path fill="none" stroke="#000000" d="M95.2635,-276.4489C95.2635,-254.1165 95.2635,-213.7144 95.2635,-185.5733"/>
<polygon fill="#000000" stroke="#000000" points="98.7636,-185.4515 95.2635,-175.4515 91.7636,-185.4516 98.7636,-185.4515"/>
<text text-anchor="middle" x="107.7635" y="-247.3929" font-family="Times,serif" font-size="14.00" fill="#000000">1.00</text>
</g>
<!-- 26&#45;&gt;2 -->
<g id="edge8" class="edge">
<title>26&#45;&gt;2</title>
<path fill="none" stroke="#000000" d="M93.7368,-134.001C91.8781,-112.8506 88.1045,-79.059 81.2635,-50.5269 80.5232,-47.4394 79.6096,-44.2402 78.6195,-41.093"/>
<polygon fill="#000000" stroke="#000000" points="81.8587,-39.7478 75.3148,-31.4155 75.2343,-42.01 81.8587,-39.7478"/>
<text text-anchor="middle" x="103.7635" y="-96.0904" font-family="Times,serif" font-size="14.00" fill="#000000">1.00</text>
</g>
<!-- 5&#45;&gt;2 -->
<g id="edge9" class="edge">
<title>5&#45;&gt;2</title>
<path fill="none" stroke="#000000" d="M47.0592,-83.6937C49.4546,-74.0094 52.7521,-61.4768 56.2635,-50.5269 57.2737,-47.3765 58.4099,-44.0923 59.5793,-40.8586"/>
<polygon fill="#000000" stroke="#000000" points="62.8571,-42.0855 63.0937,-31.4933 56.3034,-39.6261 62.8571,-42.0855"/>
<text text-anchor="middle" x="68.7635" y="-54.3269" font-family="Times,serif" font-size="14.00" fill="#000000">2.00</text>
</g>
</g>
</svg>
