<?xml version="1.0" encoding="UTF-8" standalone="no"?>
<!DOCTYPE svg PUBLIC "-//W3C//DTD SVG 1.1//EN"
 "http://www.w3.org/Graphics/SVG/1.1/DTD/svg11.dtd">
<!-- Generated by graphviz version 2.40.1 (20161225.0304)
 -->
<!-- Title: %3 Pages: 1 -->
<svg width="575pt" height="499pt"
 viewBox="0.00 0.00 575.00 499.14" xmlns="http://www.w3.org/2000/svg" xmlns:xlink="http://www.w3.org/1999/xlink">
<g id="graph0" class="graph" transform="scale(1 1) rotate(0) translate(4 495.1442)">
<title>%3</title>
<polygon fill="#ffffff" stroke="transparent" points="-4,4 -4,-495.1442 571,-495.1442 571,4 -4,4"/>
<!-- 1 -->
<g id="node1" class="node">
<title>1</title>
<ellipse fill="none" stroke="#ff0000" cx="95" cy="-452.6884" rx="25.4118" ry="25.4118"/>
<text text-anchor="middle" x="95" y="-456.0884" font-family="Times,serif" font-size="12.00" fill="#000000">sum</text>
<text text-anchor="middle" x="95" y="-443.0884" font-family="Times,serif" font-size="12.00" fill="#000000">id</text>
<text text-anchor="middle" x="66.0442" y="-481.5442" font-family="Times,serif" font-size="12.00" fill="#000000">1</text>
</g>
<!-- 2 -->
<g id="node2" class="node">
<title>2</title>
<ellipse fill="none" stroke="#ff0000" cx="152" cy="-25.4558" rx="25.4118" ry="25.4118"/>
<text text-anchor="middle" x="152" y="-28.8558" font-family="Times,serif" font-size="12.00" fill="#000000">sum</text>
<text text-anchor="middle" x="152" y="-15.8558" font-family="Times,serif" font-size="12.00" fill="#000000">sig</text>
<text text-anchor="middle" x="123.0442" y="-54.3117" font-family="Times,serif" font-size="12.00" fill="#000000">2</text>
</g>
<!-- 1&#45;&gt;2 -->
<g id="edge1" class="edge">
<title>1&#45;&gt;2</title>
<path fill="none" stroke="#000000" stroke-dasharray="1,5" d="M72.0031,-440.9729C43.8876,-424.8195 0,-392.864 0,-350.7767 0,-350.7767 0,-350.7767 0,-126.6604 0,-70.7775 72.064,-43.8697 116.9522,-32.5295"/>
<polygon fill="#000000" stroke="#000000" points="117.9853,-35.8814 126.9003,-30.1566 116.3611,-29.0724 117.9853,-35.8814"/>
<text text-anchor="middle" x="12.5" y="-224.165" font-family="Times,serif" font-size="14.00" fill="#000000">2.00</text>
</g>
<!-- 5 -->
<g id="node5" class="node">
<title>5</title>
<ellipse fill="none" stroke="#000000" cx="54" cy="-289.3209" rx="27" ry="18"/>
<text text-anchor="middle" x="54" y="-285.6209" font-family="Times,serif" font-size="14.00" fill="#000000">5</text>
</g>
<!-- 1&#45;&gt;5 -->
<g id="edge4" class="edge">
<title>1&#45;&gt;5</title>
<path fill="none" stroke="#000000" stroke-dasharray="1,5" d="M88.0087,-427.9065C86.3299,-421.8109 84.5695,-415.2941 83,-409.2325 74.8628,-377.8053 66.1953,-341.5575 60.4779,-317.2142"/>
<polygon fill="#000000" stroke="#000000" points="63.8312,-316.1829 58.1448,-307.2433 57.0153,-317.7778 63.8312,-316.1829"/>
<text text-anchor="middle" x="95.5" y="-398.0325" font-family="Times,serif" font-size="14.00" fill="#000000">2.00</text>
</g>
<!-- 7 -->
<g id="node6" class="node">
<title>7</title>
<ellipse fill="none" stroke="#ff0000" cx="414" cy="-25.4558" rx="25.4118" ry="25.4118"/>
<text text-anchor="middle" x="414" y="-28.8558" font-family="Times,serif" font-size="12.00" fill="#000000">sum</text>
<text text-anchor="middle" x="414" y="-15.8558" font-family="Times,serif" font-size="12.00" fill="#000000">sig</text>
<text text-anchor="middle" x="385.0442" y="-54.3117" font-family="Times,serif" font-size="12.00" fill="#000000">7</text>
</g>
<!-- 1&#45;&gt;7 -->
<g id="edge14" class="edge">
<title>1&#45;&gt;7</title>
<path fill="none" stroke="#000000" d="M116.834,-438.7511C124.0089,-434.6075 132.1589,-430.3479 140,-427.2325 228.0556,-392.2471 281.7939,-444.9781 347,-376.2325 389.8244,-331.0836 406.6846,-141.0614 411.9682,-61.1252"/>
<polygon fill="#000000" stroke="#000000" points="415.4673,-61.2496 412.6112,-51.0471 408.4815,-60.8039 415.4673,-61.2496"/>
<text text-anchor="middle" x="412.5" y="-224.165" font-family="Times,serif" font-size="14.00" fill="#000000">20.80</text>
</g>
<!-- 23 -->
<g id="node8" class="node">
<title>23</title>
<ellipse fill="none" stroke="#000000" cx="171" cy="-227.865" rx="25.4118" ry="25.4118"/>
<text text-anchor="middle" x="171" y="-231.265" font-family="Times,serif" font-size="12.00" fill="#000000">sum</text>
<text text-anchor="middle" x="171" y="-218.265" font-family="Times,serif" font-size="12.00" fill="#000000">sig</text>
</g>
<!-- 1&#45;&gt;23 -->
<g id="edge9" class="edge">
<title>1&#45;&gt;23</title>
<path fill="none" stroke="#000000" d="M103.278,-428.2004C116.9051,-387.8886 144.0899,-307.4707 159.5513,-261.7326"/>
<polygon fill="#000000" stroke="#000000" points="162.9604,-262.5768 162.8472,-251.9825 156.3291,-260.335 162.9604,-262.5768"/>
<text text-anchor="middle" x="150.5" y="-347.0767" font-family="Times,serif" font-size="14.00" fill="#000000">1.00</text>
</g>
<!-- 4 -->
<g id="node3" class="node">
<title>4</title>
<ellipse fill="none" stroke="#ff0000" cx="465" cy="-452.6884" rx="25.4118" ry="25.4118"/>
<text text-anchor="middle" x="465" y="-456.0884" font-family="Times,serif" font-size="12.00" fill="#000000">sum</text>
<text text-anchor="middle" x="465" y="-443.0884" font-family="Times,serif" font-size="12.00" fill="#000000">id</text>
<text text-anchor="middle" x="436.0442" y="-481.5442" font-family="Times,serif" font-size="12.00" fill="#000000">4</text>
</g>
<!-- 4&#45;&gt;2 -->
<g id="edge2" class="edge">
<title>4&#45;&gt;2</title>
<path fill="none" stroke="#000000" stroke-dasharray="1,5" d="M468.5701,-427.3421C474.0298,-380.7598 480.7506,-279.2707 449,-202.4092 418.8785,-129.4913 399.5045,-109.7461 332,-68.9117 286.9943,-41.6871 225.99,-31.5115 187.8216,-27.7127"/>
<polygon fill="#000000" stroke="#000000" points="187.9674,-24.2117 177.694,-26.8015 187.3401,-31.1836 187.9674,-24.2117"/>
<text text-anchor="middle" x="476.5" y="-224.165" font-family="Times,serif" font-size="14.00" fill="#000000">1.00</text>
</g>
<!-- 4&#45;&gt;7 -->
<g id="edge6" class="edge">
<title>4&#45;&gt;7</title>
<path fill="none" stroke="#000000" d="M486.0406,-438.047C508.8389,-420.279 542,-388.0313 542,-350.7767 542,-350.7767 542,-350.7767 542,-126.6604 542,-78.8107 486.2787,-50.0459 448.3648,-36.0119"/>
<polygon fill="#000000" stroke="#000000" points="449.2745,-32.6216 438.6797,-32.5994 446.9482,-39.2238 449.2745,-32.6216"/>
<text text-anchor="middle" x="554.5" y="-224.165" font-family="Times,serif" font-size="14.00" fill="#000000">2.00</text>
</g>
<!-- 9 -->
<g id="node7" class="node">
<title>9</title>
<ellipse fill="none" stroke="#000000" cx="313" cy="-350.7767" rx="25.4118" ry="25.4118"/>
<text text-anchor="middle" x="313" y="-354.1767" font-family="Times,serif" font-size="12.00" fill="#000000">sum</text>
<text text-anchor="middle" x="313" y="-341.1767" font-family="Times,serif" font-size="12.00" fill="#000000">relu</text>
</g>
<!-- 4&#45;&gt;9 -->
<g id="edge7" class="edge">
<title>4&#45;&gt;9</title>
<path fill="none" stroke="#ff0000" d="M442.2418,-440.4696C427.1396,-432.1278 407.0374,-420.5721 390,-409.2325 373.1811,-398.0384 355.1543,-384.4468 340.7743,-373.1875"/>
<polygon fill="#ff0000" stroke="#ff0000" points="342.7829,-370.314 332.7657,-366.8635 338.4448,-375.8077 342.7829,-370.314"/>
<text text-anchor="middle" x="404.5" y="-398.0325" font-family="Times,serif" font-size="14.00" fill="#000000">&#45;0.02</text>
</g>
<!-- 26 -->
<g id="node9" class="node">
<title>26</title>
<ellipse fill="none" stroke="#000000" cx="252" cy="-126.6604" rx="25" ry="25"/>
<text text-anchor="middle" x="252" y="-130.0604" font-family="Times,serif" font-size="12.00" fill="#000000">min</text>
<text text-anchor="middle" x="252" y="-117.0604" font-family="Times,serif" font-size="12.00" fill="#000000">sig</text>
</g>
<!-- 4&#45;&gt;26 -->
<g id="edge17" class="edge">
<title>4&#45;&gt;26</title>
<path fill="none" stroke="#000000" d="M456.1246,-428.5474C431.5244,-361.8448 363.6428,-179.2805 354,-169.4092 335.8152,-150.7935 308.295,-139.9069 286.4217,-133.7832"/>
<polygon fill="#000000" stroke="#000000" points="287.0716,-130.3362 276.5137,-131.2204 285.3186,-137.1132 287.0716,-130.3362"/>
<text text-anchor="middle" x="425.5" y="-285.6209" font-family="Times,serif" font-size="14.00" fill="#000000">17.80</text>
</g>
<!-- 8 -->
<g id="node4" class="node">
<title>8</title>
<ellipse fill="none" stroke="#ff0000" cx="174" cy="-452.6884" rx="25.4118" ry="25.4118"/>
<text text-anchor="middle" x="174" y="-456.0884" font-family="Times,serif" font-size="12.00" fill="#000000">sum</text>
<text text-anchor="middle" x="174" y="-443.0884" font-family="Times,serif" font-size="12.00" fill="#000000">id</text>
<text text-anchor="middle" x="145.0442" y="-481.5442" font-family="Times,serif" font-size="12.00" fill="#000000">8</text>
</g>
<!-- 8&#45;&gt;2 -->
<g id="edge3" class="edge">
<title>8&#45;&gt;2</title>
<path fill="none" stroke="#ff0000" d="M155.8744,-434.7184C142.5592,-420.2676 125.3865,-398.7269 117,-376.2325 75.803,-265.7331 116.4536,-122.8442 139.0788,-58.9293"/>
<polygon fill="#ff0000" stroke="#ff0000" points="142.4276,-59.9608 142.5399,-49.3665 135.8455,-57.5784 142.4276,-59.9608"/>
<text text-anchor="middle" x="117.5" y="-224.165" font-family="Times,serif" font-size="14.00" fill="#000000">&#45;2.71</text>
</g>
<!-- 8&#45;&gt;26 -->
<g id="edge18" class="edge">
<title>8&#45;&gt;26</title>
<path fill="none" stroke="#000000" d="M179.9267,-427.9157C193.7289,-370.2245 228.0392,-226.813 243.8207,-160.8485"/>
<polygon fill="#000000" stroke="#000000" points="247.2656,-161.4915 246.1885,-150.9516 240.4577,-159.8627 247.2656,-161.4915"/>
<text text-anchor="middle" x="231.5" y="-285.6209" font-family="Times,serif" font-size="14.00" fill="#000000">15.80</text>
</g>
<!-- 5&#45;&gt;2 -->
<g id="edge5" class="edge">
<title>5&#45;&gt;2</title>
<path fill="none" stroke="#000000" stroke-dasharray="1,5" d="M51.3584,-271.3264C46.4439,-230.9651 40.1196,-131.8291 85,-68.9117 93.6816,-56.7411 106.9363,-47.1135 119.3716,-40.0459"/>
<polygon fill="#000000" stroke="#000000" points="121.0162,-43.1355 128.2045,-35.3522 117.7314,-36.954 121.0162,-43.1355"/>
<text text-anchor="middle" x="63.5" y="-173.2092" font-family="Times,serif" font-size="14.00" fill="#000000">2.00</text>
</g>
<!-- 9&#45;&gt;2 -->
<g id="edge8" class="edge">
<title>9&#45;&gt;2</title>
<path fill="none" stroke="#000000" d="M321.8922,-326.902C339.8764,-274.0832 373.9986,-145.9244 314,-68.9117 298.5417,-49.0699 230.1733,-36.2182 187.3447,-29.9582"/>
<polygon fill="#000000" stroke="#000000" points="187.7064,-26.4747 177.3156,-28.544 186.7289,-33.4061 187.7064,-26.4747"/>
<text text-anchor="middle" x="359.5" y="-173.2092" font-family="Times,serif" font-size="14.00" fill="#000000">1.00</text>
</g>
<!-- 9&#45;&gt;23 -->
<g id="edge13" class="edge">
<title>9&#45;&gt;23</title>
<path fill="none" stroke="#000000" d="M287.6639,-346.6074C250.9788,-339.9987 185.9236,-325.9356 172,-307.3209 162.6008,-294.7548 161.3569,-277.6685 162.8768,-262.56"/>
<polygon fill="#000000" stroke="#000000" points="166.3651,-262.8885 164.3042,-252.4961 159.4345,-261.9054 166.3651,-262.8885"/>
<text text-anchor="middle" x="187.5" y="-285.6209" font-family="Times,serif" font-size="14.00" fill="#000000">23.80</text>
</g>
<!-- 9&#45;&gt;26 -->
<g id="edge16" class="edge">
<title>9&#45;&gt;26</title>
<path fill="none" stroke="#000000" d="M305.6941,-325.9899C299.9416,-306.3219 291.7891,-278.1096 285,-253.3209 276.4535,-222.1153 267.2056,-186.4407 260.6803,-160.9214"/>
<polygon fill="#000000" stroke="#000000" points="264.0102,-159.8147 258.1472,-150.9899 257.2273,-161.5448 264.0102,-159.8147"/>
<text text-anchor="middle" x="300.5" y="-224.165" font-family="Times,serif" font-size="14.00" fill="#000000">18.80</text>
</g>
<!-- 23&#45;&gt;2 -->
<g id="edge10" class="edge">
<title>23&#45;&gt;2</title>
<path fill="none" stroke="#000000" stroke-dasharray="1,5" d="M168.5936,-202.2297C165.2316,-166.4132 159.1156,-101.2588 155.3215,-60.8402"/>
<polygon fill="#000000" stroke="#000000" points="158.8062,-60.5121 154.3868,-50.883 151.8368,-61.1663 158.8062,-60.5121"/>
<text text-anchor="middle" x="175.5" y="-122.9604" font-family="Times,serif" font-size="14.00" fill="#000000">2.00</text>
</g>
<!-- 23&#45;&gt;26 -->
<g id="edge11" class="edge">
<title>23&#45;&gt;26</title>
<path fill="none" stroke="#000000" d="M173.3942,-202.2276C175.4196,-191.3146 179.1473,-178.9351 186,-169.4092 194.5764,-157.487 207.5998,-148.0359 219.818,-141.0843"/>
<polygon fill="#000000" stroke="#000000" points="221.7245,-144.035 228.9175,-136.2561 218.4435,-137.8515 221.7245,-144.035"/>
<text text-anchor="middle" x="198.5" y="-173.2092" font-family="Times,serif" font-size="14.00" fill="#000000">1.00</text>
</g>
<!-- 26&#45;&gt;2 -->
<g id="edge12" class="edge">
<title>26&#45;&gt;2</title>
<path fill="none" stroke="#000000" d="M234.5813,-109.0319C218.7171,-92.9766 195.1022,-69.0773 177.1838,-50.943"/>
<polygon fill="#000000" stroke="#000000" points="179.4107,-48.2171 169.8924,-43.5638 174.4314,-53.1371 179.4107,-48.2171"/>
<text text-anchor="middle" x="219.5" y="-72.7117" font-family="Times,serif" font-size="14.00" fill="#000000">2.00</text>
</g>
<!-- 26&#45;&gt;7 -->
<g id="edge15" class="edge">
<title>26&#45;&gt;7</title>
<path fill="none" stroke="#000000" d="M273.1787,-113.4297C301.4009,-95.7987 351.5144,-64.4918 383.7226,-44.3707"/>
<polygon fill="#000000" stroke="#000000" points="385.6724,-47.2795 392.2991,-39.0128 381.9636,-41.3428 385.6724,-47.2795"/>
<text text-anchor="middle" x="357.5" y="-72.7117" font-family="Times,serif" font-size="14.00" fill="#000000">19.80</text>
</g>
</g>
</svg>
