<?xml version="1.0" encoding="UTF-8" standalone="no"?>
<!DOCTYPE svg PUBLIC "-//W3C//DTD SVG 1.1//EN"
 "http://www.w3.org/Graphics/SVG/1.1/DTD/svg11.dtd">
<!-- Generated by graphviz version 2.40.1 (20161225.0304)
 -->
<!-- Title: %3 Pages: 1 -->
<svg width="253pt" height="326pt"
 viewBox="0.00 0.00 252.51 325.61" xmlns="http://www.w3.org/2000/svg" xmlns:xlink="http://www.w3.org/1999/xlink">
<g id="graph0" class="graph" transform="scale(1 1) rotate(0) translate(4 321.6051)">
<title>%3</title>
<polygon fill="#ffffff" stroke="transparent" points="-4,4 -4,-321.6051 248.5061,-321.6051 248.5061,4 -4,4"/>
<!-- 1 -->
<g id="node1" class="node">
<title>1</title>
<ellipse fill="none" stroke="#ff0000" cx="45.5061" cy="-301.3417" rx="16.0303" ry="16.0303"/>
<text text-anchor="middle" x="45.5061" y="-298.2417" font-family="Times,serif" font-size="12.00" fill="#000000">1</text>
</g>
<!-- 23 -->
<g id="node2" class="node">
<title>23</title>
<ellipse fill="none" stroke="#000000" cx="20.5061" cy="-213.5721" rx="20.5122" ry="20.5122"/>
<text text-anchor="middle" x="20.5061" y="-210.4721" font-family="Times,serif" font-size="12.00" fill="#000000">23</text>
</g>
<!-- 1&#45;&gt;23 -->
<g id="edge1" class="edge">
<title>1&#45;&gt;23</title>
<path fill="none" stroke="#000000" d="M34.6986,-288.8992C30.0384,-282.7579 25.0752,-274.9819 22.5061,-267.0782 20.1552,-259.8456 19.1026,-251.7712 18.7587,-244.1316"/>
<polygon fill="#000000" stroke="#000000" points="22.2584,-244.0733 18.6734,-234.1035 15.2586,-244.1329 22.2584,-244.0733"/>
<text text-anchor="middle" x="35.0061" y="-255.8782" font-family="Times,serif" font-size="14.00" fill="#000000">1.00</text>
</g>
<!-- 26 -->
<g id="node3" class="node">
<title>26</title>
<ellipse fill="none" stroke="#000000" cx="70.5061" cy="-154.5599" rx="20.5122" ry="20.5122"/>
<text text-anchor="middle" x="70.5061" y="-151.4599" font-family="Times,serif" font-size="12.00" fill="#000000">26</text>
</g>
<!-- 1&#45;&gt;26 -->
<g id="edge2" class="edge">
<title>1&#45;&gt;26</title>
<path fill="none" stroke="#000000" d="M48.2771,-285.0726C52.371,-261.0357 60.1089,-215.6049 65.2872,-185.2013"/>
<polygon fill="#000000" stroke="#000000" points="68.7732,-185.5792 67.002,-175.1335 61.8726,-184.4039 68.7732,-185.5792"/>
<text text-anchor="middle" x="67.0061" y="-255.8782" font-family="Times,serif" font-size="14.00" fill="#000000">1.00</text>
</g>
<!-- 5 -->
<g id="node9" class="node">
<title>5</title>
<ellipse fill="none" stroke="#000000" cx="18.5061" cy="-99.7904" rx="16.0303" ry="16.0303"/>
<text text-anchor="middle" x="18.5061" y="-96.6904" font-family="Times,serif" font-size="12.00" fill="#000000">5</text>
</g>
<!-- 23&#45;&gt;5 -->
<g id="edge6" class="edge">
<title>23&#45;&gt;5</title>
<path fill="none" stroke="#000000" d="M17.3669,-193.2364C16.5993,-187.3859 15.8888,-180.9859 15.5061,-175.066 14.3301,-156.8764 14.7104,-152.2641 15.5061,-134.0538 15.6179,-131.4961 15.7763,-128.834 15.9627,-126.1743"/>
<polygon fill="#000000" stroke="#000000" points="19.4554,-126.4053 16.7803,-116.1538 12.4786,-125.836 19.4554,-126.4053"/>
<text text-anchor="middle" x="28.0061" y="-150.8599" font-family="Times,serif" font-size="14.00" fill="#000000">2.00</text>
</g>
<!-- 2 -->
<g id="node8" class="node">
<title>2</title>
<ellipse fill="none" stroke="#ff0000" cx="97.5061" cy="-16.2635" rx="16.0303" ry="16.0303"/>
<text text-anchor="middle" x="97.5061" y="-13.1635" font-family="Times,serif" font-size="12.00" fill="#000000">2</text>
</g>
<!-- 26&#45;&gt;2 -->
<g id="edge7" class="edge">
<title>26&#45;&gt;2</title>
<path fill="none" stroke="#000000" d="M74.49,-134.1538C79.2345,-109.8521 87.1695,-69.2082 92.3707,-42.5672"/>
<polygon fill="#000000" stroke="#000000" points="95.8683,-42.9178 94.3494,-32.4324 88.998,-41.5765 95.8683,-42.9178"/>
<text text-anchor="middle" x="97.0061" y="-96.0904" font-family="Times,serif" font-size="14.00" fill="#000000">2.00</text>
</g>
<!-- 4 -->
<g id="node4" class="node">
<title>4</title>
<ellipse fill="none" stroke="#ff0000" cx="200.5061" cy="-301.3417" rx="16.0303" ry="16.0303"/>
<text text-anchor="middle" x="200.5061" y="-298.2417" font-family="Times,serif" font-size="12.00" fill="#000000">4</text>
</g>
<!-- 7 -->
<g id="node5" class="node">
<title>7</title>
<ellipse fill="none" stroke="#ff0000" cx="222.5061" cy="-16.2635" rx="16.0303" ry="16.0303"/>
<text text-anchor="middle" x="222.5061" y="-13.1635" font-family="Times,serif" font-size="12.00" fill="#000000">7</text>
</g>
<!-- 4&#45;&gt;7 -->
<g id="edge3" class="edge">
<title>4&#45;&gt;7</title>
<path fill="none" stroke="#000000" d="M204.8308,-285.4142C206.2276,-279.6756 207.6382,-273.1247 208.5061,-267.0782 220.1517,-185.9481 222.2438,-88.7653 222.5331,-42.8219"/>
<polygon fill="#000000" stroke="#000000" points="226.033,-42.8083 222.5719,-32.7948 219.0331,-42.7812 226.033,-42.8083"/>
<text text-anchor="middle" x="232.0061" y="-150.8599" font-family="Times,serif" font-size="14.00" fill="#000000">2.00</text>
</g>
<!-- 9 -->
<g id="node6" class="node">
<title>9</title>
<ellipse fill="none" stroke="#000000" cx="174.5061" cy="-154.5599" rx="16.0303" ry="16.0303"/>
<text text-anchor="middle" x="174.5061" y="-151.4599" font-family="Times,serif" font-size="12.00" fill="#000000">9</text>
</g>
<!-- 4&#45;&gt;9 -->
<g id="edge4" class="edge">
<title>4&#45;&gt;9</title>
<path fill="none" stroke="#000000" d="M191.9495,-287.1574C188.7451,-281.1678 185.4203,-273.9897 183.5061,-267.0782 175.5587,-238.3835 173.8747,-204.1153 173.8188,-180.9971"/>
<polygon fill="#000000" stroke="#000000" points="177.3193,-180.9454 173.8964,-170.9187 170.3195,-180.8914 177.3193,-180.9454"/>
<text text-anchor="middle" x="196.0061" y="-255.8782" font-family="Times,serif" font-size="14.00" fill="#000000">0.59</text>
</g>
<!-- 9&#45;&gt;2 -->
<g id="edge8" class="edge">
<title>9&#45;&gt;2</title>
<path fill="none" stroke="#000000" d="M171.444,-138.2092C166.8196,-116.6373 156.5061,-78.1745 137.5061,-50.5269 132.6267,-43.4267 125.9207,-36.9117 119.3936,-31.5128"/>
<polygon fill="#000000" stroke="#000000" points="121.4247,-28.6591 111.3727,-25.3113 117.143,-34.1969 121.4247,-28.6591"/>
<text text-anchor="middle" x="178.0061" y="-96.0904" font-family="Times,serif" font-size="14.00" fill="#000000">1.00</text>
</g>
<!-- 8 -->
<g id="node7" class="node">
<title>8</title>
<ellipse fill="none" stroke="#ff0000" cx="123.5061" cy="-301.3417" rx="16.0303" ry="16.0303"/>
<text text-anchor="middle" x="123.5061" y="-298.2417" font-family="Times,serif" font-size="12.00" fill="#000000">8</text>
</g>
<!-- 8&#45;&gt;2 -->
<g id="edge5" class="edge">
<title>8&#45;&gt;2</title>
<path fill="none" stroke="#000000" d="M123.0797,-284.8893C121.9979,-248.4812 118.5607,-158.3886 109.5061,-83.5269 107.8536,-69.8646 105.2344,-54.7711 102.864,-42.3494"/>
<polygon fill="#000000" stroke="#000000" points="106.2371,-41.3624 100.8756,-32.2243 99.3683,-42.7114 106.2371,-41.3624"/>
<text text-anchor="middle" x="131.0061" y="-150.8599" font-family="Times,serif" font-size="14.00" fill="#000000">1.00</text>
</g>
<!-- 5&#45;&gt;2 -->
<g id="edge9" class="edge">
<title>5&#45;&gt;2</title>
<path fill="none" stroke="#000000" d="M19.503,-83.1942C20.8848,-72.8445 24.0994,-59.7807 31.5061,-50.5269 41.7631,-37.7119 58.1112,-29.1746 71.9702,-23.827"/>
<polygon fill="#000000" stroke="#000000" points="73.2233,-27.0965 81.4991,-20.4812 70.9043,-20.4918 73.2233,-27.0965"/>
<text text-anchor="middle" x="44.0061" y="-54.3269" font-family="Times,serif" font-size="14.00" fill="#000000">2.00</text>
</g>
</g>
</svg>
