<?xml version="1.0" encoding="UTF-8" standalone="no"?>
<!DOCTYPE svg PUBLIC "-//W3C//DTD SVG 1.1//EN"
 "http://www.w3.org/Graphics/SVG/1.1/DTD/svg11.dtd">
<!-- Generated by graphviz version 2.40.1 (20161225.0304)
 -->
<!-- Title: %3 Pages: 1 -->
<svg width="424pt" height="464pt"
 viewBox="0.00 0.00 424.25 463.53" xmlns="http://www.w3.org/2000/svg" xmlns:xlink="http://www.w3.org/1999/xlink">
<g id="graph0" class="graph" transform="scale(1 1) rotate(0) translate(4 459.529)">
<title>%3</title>
<polygon fill="#ffffff" stroke="transparent" points="-4,4 -4,-459.529 420.2548,-459.529 420.2548,4 -4,4"/>
<!-- 1 -->
<g id="node1" class="node">
<title>1</title>
<ellipse fill="none" stroke="#ff0000" cx="190.6274" cy="-422.9016" rx="22.7556" ry="22.7556"/>
<text text-anchor="middle" x="190.6274" y="-425.7016" font-family="Times,serif" font-size="9.00" fill="#000000">sum</text>
<text text-anchor="middle" x="190.6274" y="-415.7016" font-family="Times,serif" font-size="9.00" fill="#000000">id</text>
<text text-anchor="middle" x="165.5" y="-448.329" font-family="Times,serif" font-size="9.00" fill="#000000">1</text>
</g>
<!-- 2 -->
<g id="node2" class="node">
<title>2</title>
<ellipse fill="none" stroke="#ff0000" cx="194.6274" cy="-22.6274" rx="22.7556" ry="22.7556"/>
<text text-anchor="middle" x="194.6274" y="-25.4274" font-family="Times,serif" font-size="9.00" fill="#000000">sum</text>
<text text-anchor="middle" x="194.6274" y="-15.4274" font-family="Times,serif" font-size="9.00" fill="#000000">sig</text>
<text text-anchor="middle" x="169.5" y="-48.0548" font-family="Times,serif" font-size="9.00" fill="#000000">2</text>
</g>
<!-- 1&#45;&gt;2 -->
<g id="edge1" class="edge">
<title>1&#45;&gt;2</title>
<path fill="none" stroke="#c0c0c0" stroke-dasharray="5,2" d="M198.0747,-401.4348C203.761,-383.1235 210.6274,-355.9751 210.6274,-331.6468 210.6274,-331.6468 210.6274,-331.6468 210.6274,-113.8823 210.6274,-94.0355 206.9103,-72.1205 203.0594,-54.7419"/>
<polygon fill="#c0c0c0" stroke="#c0c0c0" points="206.3645,-53.505 200.6763,-44.5666 199.5489,-55.1012 206.3645,-53.505"/>
<text text-anchor="middle" x="220.1274" y="-202.9371" font-family="Times,serif" font-size="9.00" fill="#000000">&#45;2.00</text>
</g>
<!-- 5 -->
<g id="node5" class="node">
<title>5</title>
<ellipse fill="none" stroke="#000000" stroke-dasharray="5,2" cx="143.6274" cy="-205.1371" rx="22.7556" ry="22.7556"/>
<text text-anchor="middle" x="143.6274" y="-207.9371" font-family="Times,serif" font-size="9.00" fill="#000000">sum</text>
<text text-anchor="middle" x="143.6274" y="-197.9371" font-family="Times,serif" font-size="9.00" fill="#000000">id</text>
<text text-anchor="middle" x="118.5" y="-230.5645" font-family="Times,serif" font-size="9.00" fill="#000000">5</text>
</g>
<!-- 1&#45;&gt;5 -->
<g id="edge4" class="edge">
<title>1&#45;&gt;5</title>
<path fill="none" stroke="#000000" stroke-dasharray="5,2" d="M170.3579,-412.1303C151.1835,-400.6658 123.6109,-380.5578 111.6274,-354.2742 93.6076,-314.7508 111.8179,-264.6472 127.2278,-233.7484"/>
<polygon fill="#000000" stroke="#000000" points="130.3682,-235.2955 131.8771,-224.8087 124.1578,-232.0657 130.3682,-235.2955"/>
<text text-anchor="middle" x="119.6274" y="-329.4468" font-family="Times,serif" font-size="9.00" fill="#000000">2.00</text>
</g>
<!-- 23 -->
<g id="node8" class="node">
<title>23</title>
<ellipse fill="none" stroke="#000000" cx="252.6274" cy="-268.3919" rx="22.7556" ry="22.7556"/>
<text text-anchor="middle" x="252.6274" y="-271.1919" font-family="Times,serif" font-size="9.00" fill="#000000">sum</text>
<text text-anchor="middle" x="252.6274" y="-261.1919" font-family="Times,serif" font-size="9.00" fill="#000000">sig</text>
<text text-anchor="middle" x="225" y="-293.8193" font-family="Times,serif" font-size="9.00" fill="#000000">23</text>
</g>
<!-- 1&#45;&gt;23 -->
<g id="edge11" class="edge">
<title>1&#45;&gt;23</title>
<path fill="none" stroke="#000000" d="M207.0779,-406.7502C213.3853,-399.7503 220.1381,-391.135 224.6274,-382.2742 237.5545,-356.7594 244.7258,-324.9528 248.5654,-301.4436"/>
<polygon fill="#000000" stroke="#000000" points="252.068,-301.6895 250.1039,-291.2784 245.1468,-300.642 252.068,-301.6895"/>
<text text-anchor="middle" x="236.6274" y="-375.0742" font-family="Times,serif" font-size="9.00" fill="#000000">1.00</text>
</g>
<!-- 26 -->
<g id="node9" class="node">
<title>26</title>
<ellipse fill="none" stroke="#000000" stroke-dasharray="5,2" cx="159.6274" cy="-331.6468" rx="22.7556" ry="22.7556"/>
<text text-anchor="middle" x="159.6274" y="-334.4468" font-family="Times,serif" font-size="9.00" fill="#000000">sum</text>
<text text-anchor="middle" x="159.6274" y="-324.4468" font-family="Times,serif" font-size="9.00" fill="#000000">sig</text>
<text text-anchor="middle" x="132" y="-357.0742" font-family="Times,serif" font-size="9.00" fill="#000000">26</text>
</g>
<!-- 1&#45;&gt;26 -->
<g id="edge13" class="edge">
<title>1&#45;&gt;26</title>
<path fill="none" stroke="#000000" stroke-dasharray="5,2" d="M183.2808,-401.2755C179.3816,-389.7972 174.5199,-375.4859 170.2201,-362.8284"/>
<polygon fill="#000000" stroke="#000000" points="173.4519,-361.4604 166.9213,-353.1176 166.8239,-363.712 173.4519,-361.4604"/>
<text text-anchor="middle" x="184.6274" y="-375.0742" font-family="Times,serif" font-size="9.00" fill="#000000">1.00</text>
</g>
<!-- 4 -->
<g id="node3" class="node">
<title>4</title>
<ellipse fill="none" stroke="#ff0000" cx="338.6274" cy="-422.9016" rx="22.7556" ry="22.7556"/>
<text text-anchor="middle" x="338.6274" y="-425.7016" font-family="Times,serif" font-size="9.00" fill="#000000">sum</text>
<text text-anchor="middle" x="338.6274" y="-415.7016" font-family="Times,serif" font-size="9.00" fill="#000000">id</text>
<text text-anchor="middle" x="313.5" y="-448.329" font-family="Times,serif" font-size="9.00" fill="#000000">4</text>
</g>
<!-- 4&#45;&gt;2 -->
<g id="edge2" class="edge">
<title>4&#45;&gt;2</title>
<path fill="none" stroke="#c0c0c0" stroke-dasharray="5,2" d="M338.6274,-400.0249C338.6274,-381.568 338.6274,-354.9357 338.6274,-331.6468 338.6274,-331.6468 338.6274,-331.6468 338.6274,-113.8823 338.6274,-61.3842 269.4973,-37.8262 227.0336,-28.3075"/>
<polygon fill="#c0c0c0" stroke="#c0c0c0" points="227.6328,-24.8571 217.1274,-26.231 226.1966,-31.7082 227.6328,-24.8571"/>
<text text-anchor="middle" x="348.1274" y="-202.9371" font-family="Times,serif" font-size="9.00" fill="#000000">&#45;1.00</text>
</g>
<!-- 4&#45;&gt;5 -->
<g id="edge8" class="edge">
<title>4&#45;&gt;5</title>
<path fill="none" stroke="#000000" stroke-dasharray="5,2" d="M328.6949,-402.5212C322.3838,-389.0452 314.3543,-370.868 308.6274,-354.2742 292.3787,-307.193 316.8747,-279.9229 280.6274,-245.7645 250.3057,-217.1902 228.0494,-241.2482 188.6274,-227.7645 183.2493,-225.925 177.7012,-223.5609 172.4162,-221.0571"/>
<polygon fill="#000000" stroke="#000000" points="173.7894,-217.8305 163.2807,-216.4827 170.6553,-224.0897 173.7894,-217.8305"/>
<text text-anchor="middle" x="316.6274" y="-329.4468" font-family="Times,serif" font-size="9.00" fill="#000000">2.00</text>
</g>
<!-- 7 -->
<g id="node6" class="node">
<title>7</title>
<ellipse fill="none" stroke="#ff0000" cx="393.6274" cy="-22.6274" rx="22.7556" ry="22.7556"/>
<text text-anchor="middle" x="393.6274" y="-25.4274" font-family="Times,serif" font-size="9.00" fill="#000000">sum</text>
<text text-anchor="middle" x="393.6274" y="-15.4274" font-family="Times,serif" font-size="9.00" fill="#000000">sig</text>
<text text-anchor="middle" x="368.5" y="-48.0548" font-family="Times,serif" font-size="9.00" fill="#000000">7</text>
</g>
<!-- 4&#45;&gt;7 -->
<g id="edge6" class="edge">
<title>4&#45;&gt;7</title>
<path fill="none" stroke="#000000" d="M355.4281,-407.1472C371.6026,-390.1966 393.6274,-361.6133 393.6274,-331.6468 393.6274,-331.6468 393.6274,-331.6468 393.6274,-113.8823 393.6274,-94.5961 393.6274,-73.0171 393.6274,-55.687"/>
<polygon fill="#000000" stroke="#000000" points="397.1275,-55.504 393.6274,-45.5041 390.1275,-55.5041 397.1275,-55.504"/>
<text text-anchor="middle" x="401.6274" y="-202.9371" font-family="Times,serif" font-size="9.00" fill="#000000">2.00</text>
</g>
<!-- 8 -->
<g id="node4" class="node">
<title>8</title>
<ellipse fill="none" stroke="#ff0000" cx="27.6274" cy="-422.9016" rx="22.7556" ry="22.7556"/>
<text text-anchor="middle" x="27.6274" y="-425.7016" font-family="Times,serif" font-size="9.00" fill="#000000">sum</text>
<text text-anchor="middle" x="27.6274" y="-415.7016" font-family="Times,serif" font-size="9.00" fill="#000000">id</text>
<text text-anchor="middle" x="2.5" y="-448.329" font-family="Times,serif" font-size="9.00" fill="#000000">8</text>
</g>
<!-- 8&#45;&gt;2 -->
<g id="edge3" class="edge">
<title>8&#45;&gt;2</title>
<path fill="none" stroke="#000000" d="M19.1937,-401.8908C12.6295,-383.6335 4.6274,-356.3176 4.6274,-331.6468 4.6274,-331.6468 4.6274,-331.6468 4.6274,-113.8823 4.6274,-79.2466 108.5175,-45.9366 162.6541,-30.9301"/>
<polygon fill="#000000" stroke="#000000" points="163.7303,-34.2646 172.4602,-28.2613 161.892,-27.5103 163.7303,-34.2646"/>
<text text-anchor="middle" x="12.6274" y="-202.9371" font-family="Times,serif" font-size="9.00" fill="#000000">1.00</text>
</g>
<!-- 8&#45;&gt;5 -->
<g id="edge7" class="edge">
<title>8&#45;&gt;5</title>
<path fill="none" stroke="#000000" stroke-dasharray="5,2" d="M34.0452,-401.1608C44.9225,-366.4015 69.2025,-297.0176 103.6274,-245.7645 107.9529,-239.3246 113.379,-233.0198 118.8265,-227.3712"/>
<polygon fill="#000000" stroke="#000000" points="121.5097,-229.6405 126.1666,-220.124 116.5916,-224.6593 121.5097,-229.6405"/>
<text text-anchor="middle" x="76.6274" y="-329.4468" font-family="Times,serif" font-size="9.00" fill="#000000">2.00</text>
</g>
<!-- 5&#45;&gt;2 -->
<g id="edge5" class="edge">
<title>5&#45;&gt;2</title>
<path fill="none" stroke="#000000" stroke-dasharray="5,2" d="M130.4399,-186.3183C115.9731,-163.1669 96.6707,-123.0288 111.6274,-91.2548 122.6953,-67.7423 146.2107,-49.5317 165.3951,-37.7968"/>
<polygon fill="#000000" stroke="#000000" points="167.24,-40.7726 174.1173,-32.7132 163.7152,-34.7248 167.24,-40.7726"/>
<text text-anchor="middle" x="119.6274" y="-111.6823" font-family="Times,serif" font-size="9.00" fill="#000000">2.00</text>
</g>
<!-- 9 -->
<g id="node7" class="node">
<title>9</title>
<ellipse fill="none" stroke="#000000" cx="159.6274" cy="-113.8823" rx="22.7556" ry="22.7556"/>
<text text-anchor="middle" x="159.6274" y="-116.6823" font-family="Times,serif" font-size="9.00" fill="#000000">sum</text>
<text text-anchor="middle" x="159.6274" y="-106.6823" font-family="Times,serif" font-size="9.00" fill="#000000">sig</text>
<text text-anchor="middle" x="134.5" y="-139.3097" font-family="Times,serif" font-size="9.00" fill="#000000">9</text>
</g>
<!-- 5&#45;&gt;9 -->
<g id="edge9" class="edge">
<title>5&#45;&gt;9</title>
<path fill="none" stroke="#000000" stroke-dasharray="5,2" d="M147.5825,-182.5797C149.5007,-171.6395 151.8399,-158.2979 153.9448,-146.2925"/>
<polygon fill="#000000" stroke="#000000" points="157.4382,-146.6344 155.7179,-136.1802 150.5434,-145.4254 157.4382,-146.6344"/>
<text text-anchor="middle" x="160.6274" y="-157.3097" font-family="Times,serif" font-size="9.00" fill="#000000">1.00</text>
</g>
<!-- 9&#45;&gt;2 -->
<g id="edge10" class="edge">
<title>9&#45;&gt;2</title>
<path fill="none" stroke="#000000" d="M167.7451,-92.7172C172.2187,-81.0532 177.8537,-66.3612 182.8076,-53.4451"/>
<polygon fill="#000000" stroke="#000000" points="186.1193,-54.584 186.4325,-43.9938 179.5835,-52.0772 186.1193,-54.584"/>
<text text-anchor="middle" x="186.6274" y="-66.0548" font-family="Times,serif" font-size="9.00" fill="#000000">2.00</text>
</g>
<!-- 23&#45;&gt;2 -->
<g id="edge12" class="edge">
<title>23&#45;&gt;2</title>
<path fill="none" stroke="#c0c0c0" d="M253.1341,-245.6016C253.2216,-206.7144 249.9916,-125.6954 224.6274,-63.2548 222.4825,-57.9747 219.4928,-52.7567 216.2255,-47.9097"/>
<polygon fill="#c0c0c0" stroke="#c0c0c0" points="218.9047,-45.6446 210.1672,-39.6524 213.2609,-49.7855 218.9047,-45.6446"/>
<text text-anchor="middle" x="258.1274" y="-157.3097" font-family="Times,serif" font-size="9.00" fill="#000000">&#45;2.00</text>
</g>
<!-- 26&#45;&gt;5 -->
<g id="edge14" class="edge">
<title>26&#45;&gt;5</title>
<path fill="none" stroke="#000000" stroke-dasharray="5,2" d="M156.7669,-309.0294C154.2683,-289.2731 150.6097,-260.3453 147.7872,-238.0282"/>
<polygon fill="#000000" stroke="#000000" points="151.2442,-237.467 146.5171,-227.9852 144.2996,-238.3454 151.2442,-237.467"/>
<text text-anchor="middle" x="162.6274" y="-266.1919" font-family="Times,serif" font-size="9.00" fill="#000000">2.00</text>
</g>
</g>
</svg>
