<?xml version="1.0" encoding="UTF-8" standalone="no"?>
<!DOCTYPE svg PUBLIC "-//W3C//DTD SVG 1.1//EN"
 "http://www.w3.org/Graphics/SVG/1.1/DTD/svg11.dtd">
<!-- Generated by graphviz version 2.40.1 (20161225.0304)
 -->
<!-- Title: %3 Pages: 1 -->
<svg width="414pt" height="392pt"
 viewBox="0.00 0.00 414.00 391.61" xmlns="http://www.w3.org/2000/svg" xmlns:xlink="http://www.w3.org/1999/xlink">
<g id="graph0" class="graph" transform="scale(1 1) rotate(0) translate(4 387.6051)">
<title>%3</title>
<polygon fill="#ffffff" stroke="transparent" points="-4,4 -4,-387.6051 410,-387.6051 410,4 -4,4"/>
<!-- 1 -->
<g id="node1" class="node">
<title>1</title>
<ellipse fill="none" stroke="#ff0000" cx="31" cy="-367.3417" rx="16.0303" ry="16.0303"/>
<text text-anchor="middle" x="31" y="-364.2417" font-family="Times,serif" font-size="12.00" fill="#000000">1</text>
</g>
<!-- 26 -->
<g id="node2" class="node">
<title>26</title>
<ellipse fill="none" stroke="#000000" cx="89" cy="-279.5721" rx="20.5122" ry="20.5122"/>
<text text-anchor="middle" x="89" y="-276.4721" font-family="Times,serif" font-size="12.00" fill="#000000">26</text>
</g>
<!-- 1&#45;&gt;26 -->
<g id="edge1" class="edge">
<title>1&#45;&gt;26</title>
<path fill="none" stroke="#000000" d="M40.0625,-353.6277C48.5319,-340.8112 61.3985,-321.3406 71.8133,-305.5802"/>
<polygon fill="#000000" stroke="#000000" points="75.0171,-307.0804 77.6103,-296.8078 69.177,-303.2212 75.0171,-307.0804"/>
<text text-anchor="middle" x="76.5" y="-321.8782" font-family="Times,serif" font-size="14.00" fill="#000000">1.00</text>
</g>
<!-- 7 -->
<g id="node3" class="node">
<title>7</title>
<ellipse fill="none" stroke="#ff0000" cx="82" cy="-16.2635" rx="16.0303" ry="16.0303"/>
<text text-anchor="middle" x="82" y="-13.1635" font-family="Times,serif" font-size="12.00" fill="#000000">7</text>
</g>
<!-- 1&#45;&gt;7 -->
<g id="edge2" class="edge">
<title>1&#45;&gt;7</title>
<path fill="none" stroke="#000000" d="M22.6926,-353.2837C13.51,-336.3855 0,-306.883 0,-279.5721 0,-279.5721 0,-279.5721 0,-104.033 0,-69.455 34.4024,-42.8477 58.641,-28.3925"/>
<polygon fill="#000000" stroke="#000000" points="60.3702,-31.4356 67.34,-23.4562 56.9154,-25.3475 60.3702,-31.4356"/>
<text text-anchor="middle" x="15.5" y="-188.1026" font-family="Times,serif" font-size="14.00" fill="#000000">17.80</text>
</g>
<!-- 26&#45;&gt;7 -->
<g id="edge9" class="edge">
<title>26&#45;&gt;7</title>
<path fill="none" stroke="#000000" d="M87.7154,-258.8537C86.2724,-234.5844 84.0013,-193.161 83,-157.5391 81.8805,-117.7128 81.7791,-71.5477 81.8545,-43.1228"/>
<polygon fill="#000000" stroke="#000000" points="85.3555,-42.8099 81.8919,-32.7973 78.3556,-42.7845 85.3555,-42.8099"/>
<text text-anchor="middle" x="98.5" y="-146.3391" font-family="Times,serif" font-size="14.00" fill="#000000">15.80</text>
</g>
<!-- 9 -->
<g id="node8" class="node">
<title>9</title>
<ellipse fill="none" stroke="#000000" cx="131" cy="-191.8026" rx="16.0303" ry="16.0303"/>
<text text-anchor="middle" x="131" y="-188.7026" font-family="Times,serif" font-size="12.00" fill="#000000">9</text>
</g>
<!-- 26&#45;&gt;9 -->
<g id="edge8" class="edge">
<title>26&#45;&gt;9</title>
<path fill="none" stroke="#000000" d="M97.9071,-260.9584C104.2069,-247.7934 112.7093,-230.0256 119.5183,-215.7964"/>
<polygon fill="#000000" stroke="#000000" points="122.7545,-217.142 123.9139,-206.6108 116.4402,-214.1204 122.7545,-217.142"/>
<text text-anchor="middle" x="126.5" y="-229.866" font-family="Times,serif" font-size="14.00" fill="#000000">1.00</text>
</g>
<!-- 4 -->
<g id="node4" class="node">
<title>4</title>
<ellipse fill="none" stroke="#ff0000" cx="356" cy="-367.3417" rx="16.0303" ry="16.0303"/>
<text text-anchor="middle" x="356" y="-364.2417" font-family="Times,serif" font-size="12.00" fill="#000000">4</text>
</g>
<!-- 2 -->
<g id="node5" class="node">
<title>2</title>
<ellipse fill="none" stroke="#ff0000" cx="320" cy="-16.2635" rx="16.0303" ry="16.0303"/>
<text text-anchor="middle" x="320" y="-13.1635" font-family="Times,serif" font-size="12.00" fill="#000000">2</text>
</g>
<!-- 4&#45;&gt;2 -->
<g id="edge3" class="edge">
<title>4&#45;&gt;2</title>
<path fill="none" stroke="#000000" d="M362.9639,-352.4869C370.3612,-335.3201 381,-306.0313 381,-279.5721 381,-279.5721 381,-279.5721 381,-104.033 381,-75.2284 358.5724,-49.0856 340.9154,-32.967"/>
<polygon fill="#000000" stroke="#000000" points="343.0799,-30.211 333.2361,-26.293 338.488,-35.4945 343.0799,-30.211"/>
<text text-anchor="middle" x="393.5" y="-188.1026" font-family="Times,serif" font-size="14.00" fill="#000000">1.06</text>
</g>
<!-- 23 -->
<g id="node6" class="node">
<title>23</title>
<ellipse fill="none" stroke="#000000" cx="236" cy="-104.033" rx="20.5122" ry="20.5122"/>
<text text-anchor="middle" x="236" y="-100.933" font-family="Times,serif" font-size="12.00" fill="#000000">23</text>
</g>
<!-- 4&#45;&gt;23 -->
<g id="edge4" class="edge">
<title>4&#45;&gt;23</title>
<path fill="none" stroke="#000000" d="M349.2045,-352.4306C329.8407,-309.942 274.1495,-187.742 248.8184,-132.1597"/>
<polygon fill="#000000" stroke="#000000" points="251.9304,-130.5482 244.5985,-122.9001 245.5607,-133.4512 251.9304,-130.5482"/>
<text text-anchor="middle" x="309.5" y="-229.866" font-family="Times,serif" font-size="14.00" fill="#000000">1.00</text>
</g>
<!-- 23&#45;&gt;7 -->
<g id="edge10" class="edge">
<title>23&#45;&gt;7</title>
<path fill="none" stroke="#000000" d="M218.2257,-93.5475C212.7151,-90.3161 206.6155,-86.7587 201,-83.5269 167.7706,-64.4028 129.0894,-42.6282 105.0711,-29.1647"/>
<polygon fill="#000000" stroke="#000000" points="106.7636,-26.1011 96.3285,-24.2681 103.3429,-32.2084 106.7636,-26.1011"/>
<text text-anchor="middle" x="181.5" y="-54.3269" font-family="Times,serif" font-size="14.00" fill="#000000">2.00</text>
</g>
<!-- 8 -->
<g id="node7" class="node">
<title>8</title>
<ellipse fill="none" stroke="#ff0000" cx="236" cy="-367.3417" rx="16.0303" ry="16.0303"/>
<text text-anchor="middle" x="236" y="-364.2417" font-family="Times,serif" font-size="12.00" fill="#000000">8</text>
</g>
<!-- 8&#45;&gt;26 -->
<g id="edge7" class="edge">
<title>8&#45;&gt;26</title>
<path fill="none" stroke="#000000" d="M221.905,-358.926C197.4436,-344.3207 146.7623,-314.0604 115.5375,-295.4169"/>
<polygon fill="#000000" stroke="#000000" points="117.2836,-292.3831 106.9033,-290.2617 113.6951,-298.3933 117.2836,-292.3831"/>
<text text-anchor="middle" x="191.5" y="-321.8782" font-family="Times,serif" font-size="14.00" fill="#000000">18.80</text>
</g>
<!-- 8&#45;&gt;2 -->
<g id="edge5" class="edge">
<title>8&#45;&gt;2</title>
<path fill="none" stroke="#000000" d="M242.8155,-352.1875C245.2977,-346.3 247.9859,-339.4504 250,-333.0782 283.4227,-227.3366 306.8383,-96.8618 315.8715,-42.2341"/>
<polygon fill="#000000" stroke="#000000" points="319.3282,-42.7829 317.4851,-32.3496 312.4196,-41.6551 319.3282,-42.7829"/>
<text text-anchor="middle" x="302.5" y="-188.1026" font-family="Times,serif" font-size="14.00" fill="#000000">1.00</text>
</g>
<!-- 8&#45;&gt;23 -->
<g id="edge6" class="edge">
<title>8&#45;&gt;23</title>
<path fill="none" stroke="#000000" d="M236,-350.8705C236,-307.7162 236,-190.8367 236,-134.8028"/>
<polygon fill="#000000" stroke="#000000" points="239.5001,-134.763 236,-124.7631 232.5001,-134.7631 239.5001,-134.763"/>
<text text-anchor="middle" x="251.5" y="-229.866" font-family="Times,serif" font-size="14.00" fill="#000000">21.80</text>
</g>
<!-- 9&#45;&gt;7 -->
<g id="edge13" class="edge">
<title>9&#45;&gt;7</title>
<path fill="none" stroke="#000000" d="M126.5652,-175.915C118.0743,-145.497 99.4537,-78.7901 89.1726,-41.9588"/>
<polygon fill="#000000" stroke="#000000" points="92.4493,-40.6794 86.3895,-31.9886 85.7071,-42.5614 92.4493,-40.6794"/>
<text text-anchor="middle" x="128.5" y="-100.333" font-family="Times,serif" font-size="14.00" fill="#000000">20.80</text>
</g>
<!-- 9&#45;&gt;2 -->
<g id="edge11" class="edge">
<title>9&#45;&gt;2</title>
<path fill="none" stroke="#000000" d="M135.1867,-175.9939C144.2606,-142.8679 166.4953,-67.805 186,-50.5269 201.8135,-36.5187 259.1937,-25.5801 293.5297,-20.1093"/>
<polygon fill="#000000" stroke="#000000" points="294.4362,-23.511 303.7861,-18.5283 293.3696,-16.5928 294.4362,-23.511"/>
<text text-anchor="middle" x="178.5" y="-100.333" font-family="Times,serif" font-size="14.00" fill="#000000">2.00</text>
</g>
<!-- 9&#45;&gt;23 -->
<g id="edge12" class="edge">
<title>9&#45;&gt;23</title>
<path fill="none" stroke="#000000" d="M143.8751,-181.0403C160.7956,-166.8964 190.8449,-141.7782 212.0146,-124.0824"/>
<polygon fill="#000000" stroke="#000000" points="214.4963,-126.5697 219.9242,-117.4708 210.0069,-121.1989 214.4963,-126.5697"/>
<text text-anchor="middle" x="205.5" y="-146.3391" font-family="Times,serif" font-size="14.00" fill="#000000">22.80</text>
</g>
</g>
</svg>
