<?xml version="1.0" encoding="UTF-8" standalone="no"?>
<!DOCTYPE svg PUBLIC "-//W3C//DTD SVG 1.1//EN"
 "http://www.w3.org/Graphics/SVG/1.1/DTD/svg11.dtd">
<!-- Generated by graphviz version 2.40.1 (20161225.0304)
 -->
<!-- Title: %3 Pages: 1 -->
<svg width="313pt" height="322pt"
 viewBox="0.00 0.00 313.33 322.13" xmlns="http://www.w3.org/2000/svg" xmlns:xlink="http://www.w3.org/1999/xlink">
<g id="graph0" class="graph" transform="scale(1 1) rotate(0) translate(4 318.132)">
<title>%3</title>
<polygon fill="#ffffff" stroke="transparent" points="-4,4 -4,-318.132 309.3267,-318.132 309.3267,4 -4,4"/>
<!-- 1 -->
<g id="node1" class="node">
<title>1</title>
<ellipse fill="none" stroke="#ff0000" cx="126.9714" cy="-268.7767" rx="33.4697" ry="33.4697"/>
<text text-anchor="middle" x="126.9714" y="-276.5767" font-family="Times,serif" font-size="9.00" fill="#000000">1</text>
<text text-anchor="middle" x="126.9714" y="-266.5767" font-family="Times,serif" font-size="9.00" fill="#000000">sum, 5.4</text>
<text text-anchor="middle" x="126.9714" y="-256.5767" font-family="Times,serif" font-size="9.00" fill="#000000">id</text>
<text text-anchor="middle" x="91.2374" y="-304.8107" font-family="Times,serif" font-size="9.00" fill="#000000">1</text>
</g>
<!-- 4 -->
<g id="node2" class="node">
<title>4</title>
<ellipse fill="none" stroke="#000000" cx="84.9714" cy="-152.066" rx="35.2113" ry="35.2113"/>
<text text-anchor="middle" x="84.9714" y="-159.866" font-family="Times,serif" font-size="9.00" fill="#000000">2</text>
<text text-anchor="middle" x="84.9714" y="-149.866" font-family="Times,serif" font-size="9.00" fill="#000000">sum, &#45;8.6</text>
<text text-anchor="middle" x="84.9714" y="-139.866" font-family="Times,serif" font-size="9.00" fill="#000000">sig</text>
<text text-anchor="middle" x="47.116" y="-190.2214" font-family="Times,serif" font-size="9.00" fill="#000000">4</text>
</g>
<!-- 1&#45;&gt;4 -->
<g id="edge1" class="edge">
<title>1&#45;&gt;4</title>
<path fill="none" stroke="#c0c0c0" d="M93.8853,-264.5002C64.6816,-258.7821 23.7663,-245.5851 3.9714,-215.4214 -9.7251,-194.5504 15.7059,-177.5777 41.6075,-166.4714"/>
<polygon fill="#c0c0c0" stroke="#c0c0c0" points="43.1313,-169.631 51.0999,-162.6487 40.5164,-163.1377 43.1313,-169.631"/>
<text text-anchor="middle" x="13.4714" y="-208.2214" font-family="Times,serif" font-size="9.00" fill="#000000">&#45;0.57</text>
</g>
<!-- 1&#45;&gt;4 -->
<g id="edge10" class="edge">
<title>1&#45;&gt;4</title>
</g>
<!-- 5 -->
<g id="node3" class="node">
<title>5</title>
<ellipse fill="none" stroke="#000000" stroke-dasharray="5,2" cx="269.9714" cy="-152.066" rx="35.2113" ry="35.2113"/>
<text text-anchor="middle" x="269.9714" y="-159.866" font-family="Times,serif" font-size="9.00" fill="#000000">None</text>
<text text-anchor="middle" x="269.9714" y="-149.866" font-family="Times,serif" font-size="9.00" fill="#000000">sum, &#45;3.8</text>
<text text-anchor="middle" x="269.9714" y="-139.866" font-family="Times,serif" font-size="9.00" fill="#000000">sig</text>
<text text-anchor="middle" x="232.116" y="-190.2214" font-family="Times,serif" font-size="9.00" fill="#000000">5</text>
</g>
<!-- 1&#45;&gt;5 -->
<g id="edge2" class="edge">
<title>1&#45;&gt;5</title>
<path fill="none" stroke="#000000" stroke-dasharray="5,2" d="M152.1694,-246.745C158.3832,-241.9551 165.2042,-237.1977 171.9714,-233.4214 192.231,-222.1157 202.2555,-229.1323 220.9714,-215.4214 230.1606,-208.6895 238.4865,-199.7782 245.5605,-190.7718"/>
<polygon fill="#000000" stroke="#000000" points="248.5294,-192.6448 251.6939,-182.5336 242.9147,-188.4645 248.5294,-192.6448"/>
<text text-anchor="middle" x="239.9714" y="-208.2214" font-family="Times,serif" font-size="9.00" fill="#000000">0.07</text>
</g>
<!-- 1&#45;&gt;5 -->
<g id="edge11" class="edge">
<title>1&#45;&gt;5</title>
</g>
<!-- 6 -->
<g id="node4" class="node">
<title>6</title>
<ellipse fill="none" stroke="#000000" cx="178.9714" cy="-152.066" rx="33.4697" ry="33.4697"/>
<text text-anchor="middle" x="178.9714" y="-159.866" font-family="Times,serif" font-size="9.00" fill="#000000">2</text>
<text text-anchor="middle" x="178.9714" y="-149.866" font-family="Times,serif" font-size="9.00" fill="#000000">sum, 0.3</text>
<text text-anchor="middle" x="178.9714" y="-139.866" font-family="Times,serif" font-size="9.00" fill="#000000">sig</text>
<text text-anchor="middle" x="143.2374" y="-188.1" font-family="Times,serif" font-size="9.00" fill="#000000">6</text>
</g>
<!-- 1&#45;&gt;6 -->
<g id="edge3" class="edge">
<title>1&#45;&gt;6</title>
<path fill="none" stroke="#c0c0c0" stroke-dasharray="5,2" d="M110.5895,-239.5388C106.58,-228.5031 104.7528,-216.0535 109.9714,-205.4214 111.9884,-201.3119 127.4949,-189.1803 143.2973,-177.5219"/>
<polygon fill="#c0c0c0" stroke="#c0c0c0" points="145.5099,-180.24 151.5181,-171.5135 141.3793,-174.5886 145.5099,-180.24"/>
<text text-anchor="middle" x="119.4714" y="-208.2214" font-family="Times,serif" font-size="9.00" fill="#000000">&#45;0.50</text>
</g>
<!-- 1&#45;&gt;6 -->
<g id="edge12" class="edge">
<title>1&#45;&gt;6</title>
</g>
<!-- 3 -->
<g id="node6" class="node">
<title>3</title>
<ellipse fill="none" stroke="#ff0000" cx="173.9714" cy="-35.3553" rx="35.2113" ry="35.2113"/>
<text text-anchor="middle" x="173.9714" y="-43.1553" font-family="Times,serif" font-size="9.00" fill="#000000">3</text>
<text text-anchor="middle" x="173.9714" y="-33.1553" font-family="Times,serif" font-size="9.00" fill="#000000">sum, &#45;5.7</text>
<text text-anchor="middle" x="173.9714" y="-23.1553" font-family="Times,serif" font-size="9.00" fill="#000000">sig</text>
<text text-anchor="middle" x="136.116" y="-73.5107" font-family="Times,serif" font-size="9.00" fill="#000000">3</text>
</g>
<!-- 4&#45;&gt;3 -->
<g id="edge7" class="edge">
<title>4&#45;&gt;3</title>
<path fill="none" stroke="#c0c0c0" d="M83.4609,-116.7358C84.4419,-107.0801 86.8648,-97.0026 91.9714,-88.7107 101.2647,-73.6206 116.605,-61.9677 131.519,-53.457"/>
<polygon fill="#c0c0c0" stroke="#c0c0c0" points="133.5179,-56.3575 140.6921,-48.5613 130.222,-50.182 133.5179,-56.3575"/>
<text text-anchor="middle" x="101.4714" y="-91.5107" font-family="Times,serif" font-size="9.00" fill="#000000">&#45;0.38</text>
</g>
<!-- 4&#45;&gt;3 -->
<g id="edge16" class="edge">
<title>4&#45;&gt;3</title>
</g>
<!-- 5&#45;&gt;3 -->
<g id="edge8" class="edge">
<title>5&#45;&gt;3</title>
<path fill="none" stroke="#c0c0c0" stroke-dasharray="5,2" d="M246.9581,-125.0233C239.8666,-116.625 232.0609,-107.3144 224.9714,-98.7107 217.684,-89.8669 209.8916,-80.2632 202.6468,-71.2702"/>
<polygon fill="#c0c0c0" stroke="#c0c0c0" points="205.1706,-68.8235 196.1774,-63.2223 199.7148,-73.2092 205.1706,-68.8235"/>
<text text-anchor="middle" x="234.4714" y="-91.5107" font-family="Times,serif" font-size="9.00" fill="#000000">&#45;0.24</text>
</g>
<!-- 5&#45;&gt;3 -->
<g id="edge17" class="edge">
<title>5&#45;&gt;3</title>
</g>
<!-- 6&#45;&gt;3 -->
<g id="edge9" class="edge">
<title>6&#45;&gt;3</title>
<path fill="none" stroke="#000000" d="M165.9844,-121.2309C163.4926,-113.9712 161.2601,-106.1715 159.9714,-98.7107 158.8641,-92.3003 158.9688,-85.5581 159.7951,-78.9599"/>
<polygon fill="#000000" stroke="#000000" points="163.3007,-79.2384 161.6169,-68.7782 156.4102,-78.0054 163.3007,-79.2384"/>
<text text-anchor="middle" x="167.9714" y="-91.5107" font-family="Times,serif" font-size="9.00" fill="#000000">1.14</text>
</g>
<!-- 6&#45;&gt;3 -->
<g id="edge18" class="edge">
<title>6&#45;&gt;3</title>
</g>
<!-- 2 -->
<g id="node5" class="node">
<title>2</title>
<ellipse fill="none" stroke="#ff0000" cx="215.9714" cy="-268.7767" rx="35.2113" ry="35.2113"/>
<text text-anchor="middle" x="215.9714" y="-276.5767" font-family="Times,serif" font-size="9.00" fill="#000000">1</text>
<text text-anchor="middle" x="215.9714" y="-266.5767" font-family="Times,serif" font-size="9.00" fill="#000000">sum, &#45;1.4</text>
<text text-anchor="middle" x="215.9714" y="-256.5767" font-family="Times,serif" font-size="9.00" fill="#000000">id</text>
<text text-anchor="middle" x="178.116" y="-306.932" font-family="Times,serif" font-size="9.00" fill="#000000">2</text>
</g>
<!-- 2&#45;&gt;4 -->
<g id="edge4" class="edge">
<title>2&#45;&gt;4</title>
<path fill="none" stroke="#000000" d="M189.1402,-245.5534C182.8403,-240.9879 175.9265,-236.6263 168.9714,-233.4214 135.4781,-217.9876 111.7211,-243.6339 87.9714,-215.4214 83.6899,-210.3353 81.261,-204.1244 80.0491,-197.6021"/>
<polygon fill="#000000" stroke="#000000" points="83.4917,-196.8345 79.055,-187.2134 76.5236,-197.5013 83.4917,-196.8345"/>
<text text-anchor="middle" x="95.9714" y="-208.2214" font-family="Times,serif" font-size="9.00" fill="#000000">0.85</text>
</g>
<!-- 2&#45;&gt;4 -->
<g id="edge13" class="edge">
<title>2&#45;&gt;4</title>
</g>
<!-- 2&#45;&gt;5 -->
<g id="edge5" class="edge">
<title>2&#45;&gt;5</title>
<path fill="none" stroke="#000000" stroke-dasharray="5,2" d="M246.4586,-250.8454C258.6434,-241.8974 271.3396,-229.8778 277.9714,-215.4214 280.7016,-209.4697 281.7462,-202.892 281.7377,-196.2939"/>
<polygon fill="#000000" stroke="#000000" points="285.2024,-195.699 280.9483,-185.9958 278.2229,-196.2341 285.2024,-195.699"/>
<text text-anchor="middle" x="287.9714" y="-208.2214" font-family="Times,serif" font-size="9.00" fill="#000000">1.25</text>
</g>
<!-- 2&#45;&gt;5 -->
<g id="edge14" class="edge">
<title>2&#45;&gt;5</title>
</g>
<!-- 2&#45;&gt;6 -->
<g id="edge6" class="edge">
<title>2&#45;&gt;6</title>
<path fill="none" stroke="#c0c0c0" d="M205.2694,-235.0191C201.182,-222.1258 196.4728,-207.2716 192.179,-193.7274"/>
<polygon fill="#c0c0c0" stroke="#c0c0c0" points="195.4991,-192.6182 189.1407,-184.1435 188.8264,-194.7337 195.4991,-192.6182"/>
<text text-anchor="middle" x="207.4714" y="-208.2214" font-family="Times,serif" font-size="9.00" fill="#000000">&#45;1.69</text>
</g>
<!-- 2&#45;&gt;6 -->
<g id="edge15" class="edge">
<title>2&#45;&gt;6</title>
</g>
</g>
</svg>
