<?xml version="1.0" encoding="UTF-8" standalone="no"?>
<!DOCTYPE svg PUBLIC "-//W3C//DTD SVG 1.1//EN"
 "http://www.w3.org/Graphics/SVG/1.1/DTD/svg11.dtd">
<!-- Generated by graphviz version 2.40.1 (20161225.0304)
 -->
<!-- Title: %3 Pages: 1 -->
<svg width="227pt" height="326pt"
 viewBox="0.00 0.00 227.26 325.61" xmlns="http://www.w3.org/2000/svg" xmlns:xlink="http://www.w3.org/1999/xlink">
<g id="graph0" class="graph" transform="scale(1 1) rotate(0) translate(4 321.6051)">
<title>%3</title>
<polygon fill="#ffffff" stroke="transparent" points="-4,4 -4,-321.6051 223.2635,-321.6051 223.2635,4 -4,4"/>
<!-- 1 -->
<g id="node1" class="node">
<title>1</title>
<ellipse fill="none" stroke="#ff0000" cx="16.2635" cy="-301.3417" rx="16.0303" ry="16.0303"/>
<text text-anchor="middle" x="16.2635" y="-298.2417" font-family="Times,serif" font-size="12.00" fill="#000000">1</text>
</g>
<!-- 2 -->
<g id="node2" class="node">
<title>2</title>
<ellipse fill="none" stroke="#ff0000" cx="65.2635" cy="-16.2635" rx="16.0303" ry="16.0303"/>
<text text-anchor="middle" x="65.2635" y="-13.1635" font-family="Times,serif" font-size="12.00" fill="#000000">2</text>
</g>
<!-- 1&#45;&gt;2 -->
<g id="edge1" class="edge">
<title>1&#45;&gt;2</title>
<path fill="none" stroke="#000000" d="M12.8391,-285.4111C5.6531,-248.5574 -8.3223,-155.1003 17.2635,-83.5269 23.6809,-65.5748 36.3702,-48.1353 47.0906,-35.5137"/>
<polygon fill="#000000" stroke="#000000" points="49.7675,-37.77 53.7654,-27.9583 44.5215,-33.1354 49.7675,-37.77"/>
<text text-anchor="middle" x="18.7635" y="-150.8599" font-family="Times,serif" font-size="14.00" fill="#000000">2.00</text>
</g>
<!-- 26 -->
<g id="node3" class="node">
<title>26</title>
<ellipse fill="none" stroke="#000000" cx="40.2635" cy="-213.5721" rx="20.5122" ry="20.5122"/>
<text text-anchor="middle" x="40.2635" y="-210.4721" font-family="Times,serif" font-size="12.00" fill="#000000">26</text>
</g>
<!-- 1&#45;&gt;26 -->
<g id="edge2" class="edge">
<title>1&#45;&gt;26</title>
<path fill="none" stroke="#000000" d="M20.5542,-285.6502C23.7656,-273.9057 28.2546,-257.4894 32.1374,-243.2897"/>
<polygon fill="#000000" stroke="#000000" points="35.569,-244.0095 34.8306,-233.4404 28.8169,-242.1631 35.569,-244.0095"/>
<text text-anchor="middle" x="42.7635" y="-255.8782" font-family="Times,serif" font-size="14.00" fill="#000000">1.00</text>
</g>
<!-- 5 -->
<g id="node8" class="node">
<title>5</title>
<ellipse fill="none" stroke="#000000" cx="42.2635" cy="-99.7904" rx="16.0303" ry="16.0303"/>
<text text-anchor="middle" x="42.2635" y="-96.6904" font-family="Times,serif" font-size="12.00" fill="#000000">5</text>
</g>
<!-- 26&#45;&gt;5 -->
<g id="edge6" class="edge">
<title>26&#45;&gt;5</title>
<path fill="none" stroke="#000000" d="M40.6256,-192.9671C40.9539,-174.2933 41.4395,-146.6676 41.7967,-126.3434"/>
<polygon fill="#000000" stroke="#000000" points="45.2989,-126.2472 41.9752,-116.1872 38.2999,-126.1241 45.2989,-126.2472"/>
<text text-anchor="middle" x="54.7635" y="-150.8599" font-family="Times,serif" font-size="14.00" fill="#000000">2.00</text>
</g>
<!-- 4 -->
<g id="node4" class="node">
<title>4</title>
<ellipse fill="none" stroke="#ff0000" cx="144.2635" cy="-301.3417" rx="16.0303" ry="16.0303"/>
<text text-anchor="middle" x="144.2635" y="-298.2417" font-family="Times,serif" font-size="12.00" fill="#000000">4</text>
</g>
<!-- 9 -->
<g id="node5" class="node">
<title>9</title>
<ellipse fill="none" stroke="#000000" cx="138.2635" cy="-154.5599" rx="16.0303" ry="16.0303"/>
<text text-anchor="middle" x="138.2635" y="-151.4599" font-family="Times,serif" font-size="12.00" fill="#000000">9</text>
</g>
<!-- 4&#45;&gt;9 -->
<g id="edge3" class="edge">
<title>4&#45;&gt;9</title>
<path fill="none" stroke="#000000" d="M143.5984,-285.0726C142.5712,-259.9441 140.5883,-211.4343 139.3506,-181.1553"/>
<polygon fill="#000000" stroke="#000000" points="142.8371,-180.7505 138.9315,-170.9018 135.8429,-181.0365 142.8371,-180.7505"/>
<text text-anchor="middle" x="154.7635" y="-255.8782" font-family="Times,serif" font-size="14.00" fill="#000000">1.00</text>
</g>
<!-- 23 -->
<g id="node6" class="node">
<title>23</title>
<ellipse fill="none" stroke="#000000" cx="193.2635" cy="-154.5599" rx="20.5122" ry="20.5122"/>
<text text-anchor="middle" x="193.2635" y="-151.4599" font-family="Times,serif" font-size="12.00" fill="#000000">23</text>
</g>
<!-- 4&#45;&gt;23 -->
<g id="edge4" class="edge">
<title>4&#45;&gt;23</title>
<path fill="none" stroke="#000000" d="M155.1349,-289.1221C160.1299,-282.9107 165.7184,-275.0112 169.2635,-267.0782 180.9943,-240.8271 187.121,-208.5205 190.2369,-185.2693"/>
<polygon fill="#000000" stroke="#000000" points="193.7188,-185.6304 191.466,-175.2778 186.7712,-184.7756 193.7188,-185.6304"/>
<text text-anchor="middle" x="186.7635" y="-255.8782" font-family="Times,serif" font-size="14.00" fill="#000000">1.00</text>
</g>
<!-- 9&#45;&gt;2 -->
<g id="edge7" class="edge">
<title>9&#45;&gt;2</title>
<path fill="none" stroke="#000000" d="M135.4645,-138.2789C131.198,-116.7843 121.5612,-78.4067 103.2635,-50.5269 98.8403,-43.7874 92.7778,-37.5204 86.7941,-32.2378"/>
<polygon fill="#000000" stroke="#000000" points="88.7894,-29.3469 78.8447,-25.6926 84.3399,-34.7509 88.7894,-29.3469"/>
<text text-anchor="middle" x="142.7635" y="-96.0904" font-family="Times,serif" font-size="14.00" fill="#000000">1.00</text>
</g>
<!-- 7 -->
<g id="node9" class="node">
<title>7</title>
<ellipse fill="none" stroke="#ff0000" cx="196.2635" cy="-16.2635" rx="16.0303" ry="16.0303"/>
<text text-anchor="middle" x="196.2635" y="-13.1635" font-family="Times,serif" font-size="12.00" fill="#000000">7</text>
</g>
<!-- 23&#45;&gt;7 -->
<g id="edge8" class="edge">
<title>23&#45;&gt;7</title>
<path fill="none" stroke="#000000" d="M193.7126,-133.8555C194.2384,-109.6164 195.1104,-69.4173 195.6861,-42.881"/>
<polygon fill="#000000" stroke="#000000" points="199.1876,-42.8418 195.9054,-32.7683 192.1893,-42.69 199.1876,-42.8418"/>
<text text-anchor="middle" x="206.7635" y="-96.0904" font-family="Times,serif" font-size="14.00" fill="#000000">2.00</text>
</g>
<!-- 8 -->
<g id="node7" class="node">
<title>8</title>
<ellipse fill="none" stroke="#ff0000" cx="89.2635" cy="-301.3417" rx="16.0303" ry="16.0303"/>
<text text-anchor="middle" x="89.2635" y="-298.2417" font-family="Times,serif" font-size="12.00" fill="#000000">8</text>
</g>
<!-- 8&#45;&gt;2 -->
<g id="edge5" class="edge">
<title>8&#45;&gt;2</title>
<path fill="none" stroke="#000000" d="M89.6315,-285.0592C90.2637,-244.8946 90.2666,-138 75.2635,-50.5269 74.7626,-47.6068 74.1,-44.5822 73.3536,-41.5941"/>
<polygon fill="#000000" stroke="#000000" points="76.6724,-40.4662 70.606,-31.7801 69.9316,-42.3535 76.6724,-40.4662"/>
<text text-anchor="middle" x="99.7635" y="-150.8599" font-family="Times,serif" font-size="14.00" fill="#000000">1.00</text>
</g>
<!-- 5&#45;&gt;2 -->
<g id="edge9" class="edge">
<title>5&#45;&gt;2</title>
<path fill="none" stroke="#ff0000" d="M41.8699,-83.4957C42.0534,-73.7413 43.0345,-61.2044 46.2635,-50.5269 47.4479,-46.6103 49.1248,-42.6425 50.9973,-38.8637"/>
<polygon fill="#ff0000" stroke="#ff0000" points="54.1228,-40.4439 55.8861,-29.9969 47.9927,-37.0641 54.1228,-40.4439"/>
<text text-anchor="middle" x="60.7635" y="-54.3269" font-family="Times,serif" font-size="14.00" fill="#000000">&#45;0.87</text>
</g>
</g>
</svg>
