<?xml version="1.0" encoding="UTF-8" standalone="no"?>
<!DOCTYPE svg PUBLIC "-//W3C//DTD SVG 1.1//EN"
 "http://www.w3.org/Graphics/SVG/1.1/DTD/svg11.dtd">
<!-- Generated by graphviz version 2.40.1 (20161225.0304)
 -->
<!-- Title: %3 Pages: 1 -->
<svg width="570pt" height="581pt"
 viewBox="0.00 0.00 570.00 581.47" xmlns="http://www.w3.org/2000/svg" xmlns:xlink="http://www.w3.org/1999/xlink">
<g id="graph0" class="graph" transform="scale(1 1) rotate(0) translate(4 577.4701)">
<title>%3</title>
<polygon fill="#ffffff" stroke="transparent" points="-4,4 -4,-577.4701 566,-577.4701 566,4 -4,4"/>
<!-- 1 -->
<g id="node1" class="node">
<title>1</title>
<ellipse fill="none" stroke="#ff0000" cx="242" cy="-535.0143" rx="25.4118" ry="25.4118"/>
<text text-anchor="middle" x="242" y="-538.4143" font-family="Times,serif" font-size="12.00" fill="#000000">sum</text>
<text text-anchor="middle" x="242" y="-525.4143" font-family="Times,serif" font-size="12.00" fill="#000000">id</text>
<text text-anchor="middle" x="213.0442" y="-563.8701" font-family="Times,serif" font-size="12.00" fill="#000000">1</text>
</g>
<!-- 2 -->
<g id="node2" class="node">
<title>2</title>
<ellipse fill="none" stroke="#ff0000" cx="382" cy="-25.4558" rx="25.4118" ry="25.4118"/>
<text text-anchor="middle" x="382" y="-28.8558" font-family="Times,serif" font-size="12.00" fill="#000000">sum</text>
<text text-anchor="middle" x="382" y="-15.8558" font-family="Times,serif" font-size="12.00" fill="#000000">sig</text>
<text text-anchor="middle" x="353.0442" y="-54.3117" font-family="Times,serif" font-size="12.00" fill="#000000">2</text>
</g>
<!-- 1&#45;&gt;2 -->
<g id="edge1" class="edge">
<title>1&#45;&gt;2</title>
<path fill="none" stroke="#000000" stroke-dasharray="1,5" d="M265.4924,-524.1311C289.7746,-511.6788 327.0081,-489.0092 348,-458.5584 403.3268,-378.3016 410.6732,-350.4761 429,-254.7351 444.6356,-173.0531 434.8796,-147.2643 407,-68.9117 405.4481,-64.5502 403.4619,-60.1253 401.2889,-55.8515"/>
<polygon fill="#000000" stroke="#000000" points="404.2107,-53.9008 396.3294,-46.8202 398.075,-57.2702 404.2107,-53.9008"/>
<text text-anchor="middle" x="438.5" y="-276.5351" font-family="Times,serif" font-size="14.00" fill="#000000">2.00</text>
</g>
<!-- 5 -->
<g id="node5" class="node">
<title>5</title>
<ellipse fill="none" stroke="#000000" cx="260" cy="-229.2792" rx="25.4118" ry="25.4118"/>
<text text-anchor="middle" x="260" y="-232.6792" font-family="Times,serif" font-size="12.00" fill="#000000">sum</text>
<text text-anchor="middle" x="260" y="-219.6792" font-family="Times,serif" font-size="12.00" fill="#000000">sig</text>
</g>
<!-- 1&#45;&gt;5 -->
<g id="edge4" class="edge">
<title>1&#45;&gt;5</title>
<path fill="none" stroke="#000000" stroke-dasharray="1,5" d="M243.5037,-509.4733C246.7066,-455.0706 254.2093,-327.6359 257.8892,-265.1317"/>
<polygon fill="#000000" stroke="#000000" points="261.394,-265.1509 258.4879,-254.9625 254.4061,-264.7395 261.394,-265.1509"/>
<text text-anchor="middle" x="264.5" y="-378.4468" font-family="Times,serif" font-size="14.00" fill="#000000">2.00</text>
</g>
<!-- 7 -->
<g id="node6" class="node">
<title>7</title>
<ellipse fill="none" stroke="#ff0000" cx="136" cy="-25.4558" rx="25.4118" ry="25.4118"/>
<text text-anchor="middle" x="136" y="-28.8558" font-family="Times,serif" font-size="12.00" fill="#000000">sum</text>
<text text-anchor="middle" x="136" y="-15.8558" font-family="Times,serif" font-size="12.00" fill="#000000">sig</text>
<text text-anchor="middle" x="107.0442" y="-54.3117" font-family="Times,serif" font-size="12.00" fill="#000000">7</text>
</g>
<!-- 1&#45;&gt;7 -->
<g id="edge13" class="edge">
<title>1&#45;&gt;7</title>
<path fill="none" stroke="#000000" d="M221.6429,-519.6361C177.3746,-484.5473 74.2943,-393.3944 49,-287.7351 28.2859,-201.2082 83.2431,-102.4004 115.1038,-54.516"/>
<polygon fill="#000000" stroke="#000000" points="118.0404,-56.4217 120.7606,-46.182 112.2485,-52.4903 118.0404,-56.4217"/>
<text text-anchor="middle" x="64.5" y="-276.5351" font-family="Times,serif" font-size="14.00" fill="#000000">23.80</text>
</g>
<!-- 9 -->
<g id="node7" class="node">
<title>9</title>
<ellipse fill="none" stroke="#000000" cx="314" cy="-433.1026" rx="25.4118" ry="25.4118"/>
<text text-anchor="middle" x="314" y="-436.5026" font-family="Times,serif" font-size="12.00" fill="#000000">sum</text>
<text text-anchor="middle" x="314" y="-423.5026" font-family="Times,serif" font-size="12.00" fill="#000000">sig</text>
</g>
<!-- 1&#45;&gt;9 -->
<g id="edge7" class="edge">
<title>1&#45;&gt;9</title>
<path fill="none" stroke="#000000" d="M256.9184,-513.8981C267.4412,-499.0038 281.6742,-478.8578 293.2952,-462.409"/>
<polygon fill="#000000" stroke="#000000" points="296.189,-464.3786 299.1007,-454.1917 290.4719,-460.3395 296.189,-464.3786"/>
<text text-anchor="middle" x="295.5" y="-480.3584" font-family="Times,serif" font-size="14.00" fill="#000000">3.02</text>
</g>
<!-- 26 -->
<g id="node9" class="node">
<title>26</title>
<ellipse fill="none" stroke="#000000" cx="260" cy="-127.3675" rx="25.4118" ry="25.4118"/>
<text text-anchor="middle" x="260" y="-130.7675" font-family="Times,serif" font-size="12.00" fill="#000000">sum</text>
<text text-anchor="middle" x="260" y="-117.7675" font-family="Times,serif" font-size="12.00" fill="#000000">sig</text>
</g>
<!-- 1&#45;&gt;26 -->
<g id="edge18" class="edge">
<title>1&#45;&gt;26</title>
<path fill="none" stroke="#000000" stroke-dasharray="1,5" d="M235.8802,-510.0053C223.2545,-454.0935 197.7667,-315.142 226,-203.8234 229.8796,-188.5267 236.589,-172.4448 243.028,-158.9986"/>
<polygon fill="#000000" stroke="#000000" points="246.3206,-160.2367 247.6244,-149.7223 240.0484,-157.1287 246.3206,-160.2367"/>
<text text-anchor="middle" x="230.5" y="-327.4909" font-family="Times,serif" font-size="14.00" fill="#000000">16.80</text>
</g>
<!-- 4 -->
<g id="node3" class="node">
<title>4</title>
<ellipse fill="none" stroke="#ff0000" cx="36" cy="-535.0143" rx="25.4118" ry="25.4118"/>
<text text-anchor="middle" x="36" y="-538.4143" font-family="Times,serif" font-size="12.00" fill="#000000">sum</text>
<text text-anchor="middle" x="36" y="-525.4143" font-family="Times,serif" font-size="12.00" fill="#000000">id</text>
<text text-anchor="middle" x="7.0442" y="-563.8701" font-family="Times,serif" font-size="12.00" fill="#000000">4</text>
</g>
<!-- 4&#45;&gt;2 -->
<g id="edge2" class="edge">
<title>4&#45;&gt;2</title>
<path fill="none" stroke="#000000" d="M42.5928,-510.1803C65.6697,-423.6378 142.5698,-138.5975 164,-101.9117 174.3049,-84.2711 178.2215,-78.9768 196,-68.9117 243.5812,-41.9741 307.0293,-31.7093 346.1673,-27.8148"/>
<polygon fill="#000000" stroke="#000000" points="346.6456,-31.2859 356.2883,-26.8963 346.0129,-24.3145 346.6456,-31.2859"/>
<text text-anchor="middle" x="121.5" y="-276.5351" font-family="Times,serif" font-size="14.00" fill="#000000">1.00</text>
</g>
<!-- 4&#45;&gt;7 -->
<g id="edge6" class="edge">
<title>4&#45;&gt;7</title>
<path fill="none" stroke="#000000" d="M23.2064,-512.7397C12.8589,-492.607 0,-461.8122 0,-433.1026 0,-433.1026 0,-433.1026 0,-127.3675 0,-76.7762 61.0139,-48.2362 101.3075,-34.9044"/>
<polygon fill="#000000" stroke="#000000" points="102.5663,-38.1776 111.0555,-31.8385 100.4661,-31.5001 102.5663,-38.1776"/>
<text text-anchor="middle" x="12.5" y="-276.5351" font-family="Times,serif" font-size="14.00" fill="#000000">2.00</text>
</g>
<!-- 8 -->
<g id="node4" class="node">
<title>8</title>
<ellipse fill="none" stroke="#ff0000" cx="514" cy="-535.0143" rx="25.4118" ry="25.4118"/>
<text text-anchor="middle" x="514" y="-538.4143" font-family="Times,serif" font-size="12.00" fill="#000000">sum</text>
<text text-anchor="middle" x="514" y="-525.4143" font-family="Times,serif" font-size="12.00" fill="#000000">id</text>
<text text-anchor="middle" x="485.0442" y="-563.8701" font-family="Times,serif" font-size="12.00" fill="#000000">8</text>
</g>
<!-- 8&#45;&gt;2 -->
<g id="edge3" class="edge">
<title>8&#45;&gt;2</title>
<path fill="none" stroke="#000000" d="M522.6953,-510.6498C529.2085,-490.218 537,-460.1282 537,-433.1026 537,-433.1026 537,-433.1026 537,-127.3675 537,-70.3303 462.8151,-43.4357 417.0902,-32.276"/>
<polygon fill="#000000" stroke="#000000" points="417.779,-28.843 407.2484,-30.0077 416.2069,-35.6642 417.779,-28.843"/>
<text text-anchor="middle" x="549.5" y="-276.5351" font-family="Times,serif" font-size="14.00" fill="#000000">1.00</text>
</g>
<!-- 8&#45;&gt;5 -->
<g id="edge15" class="edge">
<title>8&#45;&gt;5</title>
<path fill="none" stroke="#000000" stroke-dasharray="1,5" d="M508.1679,-510.1402C501.1577,-483.3878 487.6872,-440.2998 467,-407.6468 433.0388,-354.0417 415.2212,-346.9853 367,-305.7351 342.4498,-284.7339 312.3479,-263.5898 290.3326,-248.8773"/>
<polygon fill="#000000" stroke="#000000" points="291.9991,-245.7831 281.7291,-243.1796 288.134,-251.6193 291.9991,-245.7831"/>
<text text-anchor="middle" x="470.5" y="-378.4468" font-family="Times,serif" font-size="14.00" fill="#000000">20.80</text>
</g>
<!-- 5&#45;&gt;2 -->
<g id="edge5" class="edge">
<title>5&#45;&gt;2</title>
<path fill="none" stroke="#000000" stroke-dasharray="1,5" d="M276.8124,-209.9502C282.8539,-202.6164 289.5228,-194.0472 295,-185.8234 310.2797,-162.8815 344.9964,-97.0089 365.6582,-57.1845"/>
<polygon fill="#000000" stroke="#000000" points="368.8491,-58.6338 370.3393,-48.1443 362.633,-55.4151 368.8491,-58.6338"/>
<text text-anchor="middle" x="354.5" y="-123.6675" font-family="Times,serif" font-size="14.00" fill="#000000">2.00</text>
</g>
<!-- 5&#45;&gt;7 -->
<g id="edge14" class="edge">
<title>5&#45;&gt;7</title>
<path fill="none" stroke="#000000" d="M241.9036,-210.9296C227.9229,-196.1041 208.709,-174.2494 195,-152.8234 175.7837,-122.79 159.261,-85.4834 148.6297,-59.0271"/>
<polygon fill="#000000" stroke="#000000" points="151.7786,-57.472 144.8502,-49.4565 145.2679,-60.0431 151.7786,-57.472"/>
<text text-anchor="middle" x="210.5" y="-123.6675" font-family="Times,serif" font-size="14.00" fill="#000000">22.80</text>
</g>
<!-- 5&#45;&gt;26 -->
<g id="edge19" class="edge">
<title>5&#45;&gt;26</title>
<path fill="none" stroke="#000000" stroke-dasharray="1,5" d="M260,-203.5626C260,-191.3723 260,-176.6038 260,-163.3266"/>
<polygon fill="#000000" stroke="#000000" points="263.5001,-163.0759 260,-153.0759 256.5001,-163.076 263.5001,-163.0759"/>
<text text-anchor="middle" x="275.5" y="-174.6234" font-family="Times,serif" font-size="14.00" fill="#000000">15.80</text>
</g>
<!-- 9&#45;&gt;2 -->
<g id="edge8" class="edge">
<title>9&#45;&gt;2</title>
<path fill="none" stroke="#000000" stroke-dasharray="1,5" d="M332.7544,-415.7337C340.0831,-408.2322 348.1209,-399.0316 354,-389.6468 362.3687,-376.2879 362.8125,-371.8441 367,-356.6468 401.0988,-232.8946 408.3609,-196.2288 392,-68.9117 391.63,-66.0323 391.1538,-63.064 390.6105,-60.0946"/>
<polygon fill="#000000" stroke="#000000" points="394.0026,-59.2134 388.5614,-50.1226 387.1459,-60.6224 394.0026,-59.2134"/>
<text text-anchor="middle" x="412.5" y="-225.5792" font-family="Times,serif" font-size="14.00" fill="#000000">2.00</text>
</g>
<!-- 9&#45;&gt;7 -->
<g id="edge20" class="edge">
<title>9&#45;&gt;7</title>
<path fill="none" stroke="#000000" d="M304.9812,-409.1225C294.261,-382.3819 274.6767,-338.5776 250,-305.7351 229.975,-279.0835 212.6853,-282.9935 195,-254.7351 169.8839,-214.6033 175.9807,-198.6256 164,-152.8234 155.8927,-121.8291 148.1931,-86.1841 142.9275,-60.4995"/>
<polygon fill="#000000" stroke="#000000" points="146.3148,-59.5922 140.895,-50.4886 139.4548,-60.9851 146.3148,-59.5922"/>
<text text-anchor="middle" x="210.5" y="-225.5792" font-family="Times,serif" font-size="14.00" fill="#000000">14.80</text>
</g>
<!-- 23 -->
<g id="node8" class="node">
<title>23</title>
<ellipse fill="none" stroke="#000000" cx="333" cy="-331.1909" rx="25.4118" ry="25.4118"/>
<text text-anchor="middle" x="333" y="-334.5909" font-family="Times,serif" font-size="12.00" fill="#000000">sum</text>
<text text-anchor="middle" x="333" y="-321.5909" font-family="Times,serif" font-size="12.00" fill="#000000">sig</text>
</g>
<!-- 9&#45;&gt;23 -->
<g id="edge9" class="edge">
<title>9&#45;&gt;23</title>
<path fill="none" stroke="#000000" d="M318.6966,-407.9109C321.026,-395.4168 323.8782,-380.1182 326.4211,-366.4788"/>
<polygon fill="#000000" stroke="#000000" points="329.8994,-366.9181 328.2916,-356.446 323.018,-365.6351 329.8994,-366.9181"/>
<text text-anchor="middle" x="337.5" y="-378.4468" font-family="Times,serif" font-size="14.00" fill="#000000">1.00</text>
</g>
<!-- 23&#45;&gt;2 -->
<g id="edge10" class="edge">
<title>23&#45;&gt;2</title>
<path fill="none" stroke="#000000" stroke-dasharray="1,5" d="M338.5958,-306.1995C346.1378,-271.8066 359.5873,-207.8827 368,-152.8234 372.725,-121.8994 376.4834,-86.5165 378.9114,-60.9048"/>
<polygon fill="#000000" stroke="#000000" points="382.3997,-61.1928 379.8383,-50.9122 375.4296,-60.5462 382.3997,-61.1928"/>
<text text-anchor="middle" x="378.5" y="-174.6234" font-family="Times,serif" font-size="14.00" fill="#000000">2.00</text>
</g>
<!-- 23&#45;&gt;5 -->
<g id="edge17" class="edge">
<title>23&#45;&gt;5</title>
<path fill="none" stroke="#000000" d="M311.4959,-316.958C297.4606,-307.2764 280.87,-294.9571 276,-287.7351 271.3159,-280.7888 267.9977,-272.5084 265.649,-264.3958"/>
<polygon fill="#000000" stroke="#000000" points="269.0445,-263.5465 263.2381,-254.6844 262.2507,-265.2331 269.0445,-263.5465"/>
<text text-anchor="middle" x="291.5" y="-276.5351" font-family="Times,serif" font-size="14.00" fill="#000000">18.80</text>
</g>
<!-- 23&#45;&gt;26 -->
<g id="edge11" class="edge">
<title>23&#45;&gt;26</title>
<path fill="none" stroke="#000000" stroke-dasharray="1,5" d="M329.276,-305.7696C323.8709,-273.2998 312.1128,-215.9159 291,-170.8234 288.5931,-165.6827 285.5633,-160.5143 282.3466,-155.6258"/>
<polygon fill="#000000" stroke="#000000" points="285.0488,-153.3826 276.4486,-147.195 279.3131,-157.3953 285.0488,-153.3826"/>
<text text-anchor="middle" x="331.5" y="-225.5792" font-family="Times,serif" font-size="14.00" fill="#000000">1.00</text>
</g>
<!-- 26&#45;&gt;2 -->
<g id="edge12" class="edge">
<title>26&#45;&gt;2</title>
<path fill="none" stroke="#000000" stroke-dasharray="1,5" d="M268.1981,-103.1722C273.0767,-91.646 280.245,-78.3511 290,-68.9117 306.0329,-53.3974 328.6391,-42.614 347.4301,-35.6697"/>
<polygon fill="#000000" stroke="#000000" points="348.8383,-38.8856 357.1317,-32.2924 346.5368,-32.2747 348.8383,-38.8856"/>
<text text-anchor="middle" x="302.5" y="-72.7117" font-family="Times,serif" font-size="14.00" fill="#000000">0.69</text>
</g>
<!-- 26&#45;&gt;7 -->
<g id="edge16" class="edge">
<title>26&#45;&gt;7</title>
<path fill="none" stroke="#000000" stroke-dasharray="1,5" d="M242.3951,-108.5877C230.8302,-96.671 215.0987,-81.2324 200,-68.9117 189.4082,-60.2687 177.1211,-51.6286 166.1614,-44.3556"/>
<polygon fill="#000000" stroke="#000000" points="168.0014,-41.377 157.7143,-38.8419 164.1752,-47.2388 168.0014,-41.377"/>
<text text-anchor="middle" x="231.5" y="-72.7117" font-family="Times,serif" font-size="14.00" fill="#000000">19.80</text>
</g>
</g>
</svg>
