<?xml version="1.0" encoding="UTF-8" standalone="no"?>
<!DOCTYPE svg PUBLIC "-//W3C//DTD SVG 1.1//EN"
 "http://www.w3.org/Graphics/SVG/1.1/DTD/svg11.dtd">
<!-- Generated by graphviz version 2.40.1 (20161225.0304)
 -->
<!-- Title: %3 Pages: 1 -->
<svg width="313pt" height="322pt"
 viewBox="0.00 0.00 313.30 322.13" xmlns="http://www.w3.org/2000/svg" xmlns:xlink="http://www.w3.org/1999/xlink">
<g id="graph0" class="graph" transform="scale(1 1) rotate(0) translate(4 318.132)">
<title>%3</title>
<polygon fill="#ffffff" stroke="transparent" points="-4,4 -4,-318.132 309.2951,-318.132 309.2951,4 -4,4"/>
<!-- 1 -->
<g id="node1" class="node">
<title>1</title>
<ellipse fill="none" stroke="#ff0000" cx="126.9397" cy="-268.7767" rx="33.4697" ry="33.4697"/>
<text text-anchor="middle" x="126.9397" y="-276.5767" font-family="Times,serif" font-size="9.00" fill="#000000">1</text>
<text text-anchor="middle" x="126.9397" y="-266.5767" font-family="Times,serif" font-size="9.00" fill="#000000">sum, 5.4</text>
<text text-anchor="middle" x="126.9397" y="-256.5767" font-family="Times,serif" font-size="9.00" fill="#000000">id</text>
<text text-anchor="middle" x="91.2057" y="-304.8107" font-family="Times,serif" font-size="9.00" fill="#000000">1</text>
</g>
<!-- 4 -->
<g id="node2" class="node">
<title>4</title>
<ellipse fill="none" stroke="#000000" cx="82.9397" cy="-152.066" rx="35.2113" ry="35.2113"/>
<text text-anchor="middle" x="82.9397" y="-159.866" font-family="Times,serif" font-size="9.00" fill="#000000">2</text>
<text text-anchor="middle" x="82.9397" y="-149.866" font-family="Times,serif" font-size="9.00" fill="#000000">sum, &#45;8.6</text>
<text text-anchor="middle" x="82.9397" y="-139.866" font-family="Times,serif" font-size="9.00" fill="#000000">sig</text>
<text text-anchor="middle" x="45.0844" y="-190.2214" font-family="Times,serif" font-size="9.00" fill="#000000">4</text>
</g>
<!-- 1&#45;&gt;4 -->
<g id="edge1" class="edge">
<title>1&#45;&gt;4</title>
<path fill="none" stroke="#c0c0c0" d="M93.8536,-264.5002C64.65,-258.7821 23.7346,-245.5851 3.9397,-215.4214 -9.4032,-195.0891 14.7392,-178.2317 39.7527,-167.0304"/>
<polygon fill="#c0c0c0" stroke="#c0c0c0" points="41.4408,-170.1177 49.3057,-163.0188 38.7305,-163.6636 41.4408,-170.1177"/>
<text text-anchor="middle" x="13.4397" y="-208.2214" font-family="Times,serif" font-size="9.00" fill="#000000">&#45;1.48</text>
</g>
<!-- 1&#45;&gt;4 -->
<g id="edge10" class="edge">
<title>1&#45;&gt;4</title>
</g>
<!-- 5 -->
<g id="node3" class="node">
<title>5</title>
<ellipse fill="none" stroke="#000000" stroke-dasharray="5,2" cx="269.9397" cy="-152.066" rx="35.2113" ry="35.2113"/>
<text text-anchor="middle" x="269.9397" y="-159.866" font-family="Times,serif" font-size="9.00" fill="#000000">None</text>
<text text-anchor="middle" x="269.9397" y="-149.866" font-family="Times,serif" font-size="9.00" fill="#000000">sum, &#45;3.8</text>
<text text-anchor="middle" x="269.9397" y="-139.866" font-family="Times,serif" font-size="9.00" fill="#000000">sig</text>
<text text-anchor="middle" x="232.0844" y="-190.2214" font-family="Times,serif" font-size="9.00" fill="#000000">5</text>
</g>
<!-- 1&#45;&gt;5 -->
<g id="edge2" class="edge">
<title>1&#45;&gt;5</title>
<path fill="none" stroke="#000000" stroke-dasharray="5,2" d="M152.1378,-246.745C158.3516,-241.9551 165.1725,-237.1977 171.9397,-233.4214 192.1994,-222.1157 202.2239,-229.1323 220.9397,-215.4214 230.129,-208.6895 238.4548,-199.7782 245.5288,-190.7718"/>
<polygon fill="#000000" stroke="#000000" points="248.4978,-192.6448 251.6623,-182.5336 242.883,-188.4645 248.4978,-192.6448"/>
<text text-anchor="middle" x="239.9397" y="-208.2214" font-family="Times,serif" font-size="9.00" fill="#000000">0.07</text>
</g>
<!-- 1&#45;&gt;5 -->
<g id="edge11" class="edge">
<title>1&#45;&gt;5</title>
</g>
<!-- 6 -->
<g id="node4" class="node">
<title>6</title>
<ellipse fill="none" stroke="#000000" stroke-dasharray="5,2" cx="177.9397" cy="-152.066" rx="35.2113" ry="35.2113"/>
<text text-anchor="middle" x="177.9397" y="-159.866" font-family="Times,serif" font-size="9.00" fill="#000000">None</text>
<text text-anchor="middle" x="177.9397" y="-149.866" font-family="Times,serif" font-size="9.00" fill="#000000">sum, &#45;1.8</text>
<text text-anchor="middle" x="177.9397" y="-139.866" font-family="Times,serif" font-size="9.00" fill="#000000">sig</text>
<text text-anchor="middle" x="140.0844" y="-190.2214" font-family="Times,serif" font-size="9.00" fill="#000000">6</text>
</g>
<!-- 1&#45;&gt;6 -->
<g id="edge3" class="edge">
<title>1&#45;&gt;6</title>
<path fill="none" stroke="#c0c0c0" stroke-dasharray="5,2" d="M110.5977,-239.5583C106.5931,-228.525 104.7588,-216.0719 109.9397,-205.4214 113.5003,-198.1019 126.2545,-187.4045 139.771,-177.5064"/>
<polygon fill="#c0c0c0" stroke="#c0c0c0" points="142.1032,-180.1419 148.2101,-171.4841 138.0371,-174.444 142.1032,-180.1419"/>
<text text-anchor="middle" x="119.4397" y="-208.2214" font-family="Times,serif" font-size="9.00" fill="#000000">&#45;0.50</text>
</g>
<!-- 1&#45;&gt;6 -->
<g id="edge12" class="edge">
<title>1&#45;&gt;6</title>
</g>
<!-- 3 -->
<g id="node6" class="node">
<title>3</title>
<ellipse fill="none" stroke="#ff0000" cx="175.9397" cy="-35.3553" rx="35.2113" ry="35.2113"/>
<text text-anchor="middle" x="175.9397" y="-43.1553" font-family="Times,serif" font-size="9.00" fill="#000000">3</text>
<text text-anchor="middle" x="175.9397" y="-33.1553" font-family="Times,serif" font-size="9.00" fill="#000000">sum, &#45;5.7</text>
<text text-anchor="middle" x="175.9397" y="-23.1553" font-family="Times,serif" font-size="9.00" fill="#000000">sig</text>
<text text-anchor="middle" x="138.0844" y="-73.5107" font-family="Times,serif" font-size="9.00" fill="#000000">3</text>
</g>
<!-- 4&#45;&gt;3 -->
<g id="edge7" class="edge">
<title>4&#45;&gt;3</title>
<path fill="none" stroke="#000000" d="M85.2584,-116.6129C87.1615,-106.9552 90.4219,-96.9074 95.9397,-88.7107 105.513,-74.4896 120.2781,-63.0924 134.5296,-54.5419"/>
<polygon fill="#000000" stroke="#000000" points="136.307,-57.5577 143.2858,-49.5861 132.8591,-51.4657 136.307,-57.5577"/>
<text text-anchor="middle" x="103.9397" y="-91.5107" font-family="Times,serif" font-size="9.00" fill="#000000">0.73</text>
</g>
<!-- 4&#45;&gt;3 -->
<g id="edge16" class="edge">
<title>4&#45;&gt;3</title>
</g>
<!-- 5&#45;&gt;3 -->
<g id="edge8" class="edge">
<title>5&#45;&gt;3</title>
<path fill="none" stroke="#c0c0c0" stroke-dasharray="5,2" d="M247.6189,-124.376C240.9647,-116.1194 233.6561,-107.0494 226.9397,-98.7107 219.7515,-89.7862 211.9954,-80.1529 204.7538,-71.1572"/>
<polygon fill="#c0c0c0" stroke="#c0c0c0" points="207.2761,-68.7089 198.2791,-63.1137 201.8232,-73.0982 207.2761,-68.7089"/>
<text text-anchor="middle" x="236.4397" y="-91.5107" font-family="Times,serif" font-size="9.00" fill="#000000">&#45;0.24</text>
</g>
<!-- 5&#45;&gt;3 -->
<g id="edge17" class="edge">
<title>5&#45;&gt;3</title>
</g>
<!-- 6&#45;&gt;3 -->
<g id="edge9" class="edge">
<title>6&#45;&gt;3</title>
<path fill="none" stroke="#000000" stroke-dasharray="5,2" d="M166.2711,-118.5312C164.4707,-112.0315 162.8943,-105.217 161.9397,-98.7107 160.9955,-92.2743 161.1897,-85.5178 162.0567,-78.913"/>
<polygon fill="#000000" stroke="#000000" points="165.5633,-79.1914 163.9062,-68.7269 158.676,-77.9408 165.5633,-79.1914"/>
<text text-anchor="middle" x="169.9397" y="-91.5107" font-family="Times,serif" font-size="9.00" fill="#000000">1.65</text>
</g>
<!-- 6&#45;&gt;3 -->
<g id="edge18" class="edge">
<title>6&#45;&gt;3</title>
</g>
<!-- 2 -->
<g id="node5" class="node">
<title>2</title>
<ellipse fill="none" stroke="#ff0000" cx="215.9397" cy="-268.7767" rx="35.2113" ry="35.2113"/>
<text text-anchor="middle" x="215.9397" y="-276.5767" font-family="Times,serif" font-size="9.00" fill="#000000">1</text>
<text text-anchor="middle" x="215.9397" y="-266.5767" font-family="Times,serif" font-size="9.00" fill="#000000">sum, &#45;1.4</text>
<text text-anchor="middle" x="215.9397" y="-256.5767" font-family="Times,serif" font-size="9.00" fill="#000000">id</text>
<text text-anchor="middle" x="178.0844" y="-306.932" font-family="Times,serif" font-size="9.00" fill="#000000">2</text>
</g>
<!-- 2&#45;&gt;4 -->
<g id="edge4" class="edge">
<title>2&#45;&gt;4</title>
<path fill="none" stroke="#000000" d="M189.1086,-245.5534C182.8087,-240.9879 175.8948,-236.6263 168.9397,-233.4214 135.4465,-217.9876 112.13,-243.2571 87.9397,-215.4214 83.5702,-210.3933 80.9836,-204.213 79.5819,-197.7037"/>
<polygon fill="#000000" stroke="#000000" points="82.9961,-196.8039 78.2688,-187.3221 76.0514,-197.6823 82.9961,-196.8039"/>
<text text-anchor="middle" x="95.9397" y="-208.2214" font-family="Times,serif" font-size="9.00" fill="#000000">0.85</text>
</g>
<!-- 2&#45;&gt;4 -->
<g id="edge13" class="edge">
<title>2&#45;&gt;4</title>
</g>
<!-- 2&#45;&gt;5 -->
<g id="edge5" class="edge">
<title>2&#45;&gt;5</title>
<path fill="none" stroke="#000000" stroke-dasharray="5,2" d="M246.427,-250.8454C258.6118,-241.8974 271.308,-229.8778 277.9397,-215.4214 280.67,-209.4697 281.7146,-202.892 281.7061,-196.2939"/>
<polygon fill="#000000" stroke="#000000" points="285.1708,-195.699 280.9166,-185.9958 278.1913,-196.2341 285.1708,-195.699"/>
<text text-anchor="middle" x="287.9397" y="-208.2214" font-family="Times,serif" font-size="9.00" fill="#000000">1.25</text>
</g>
<!-- 2&#45;&gt;5 -->
<g id="edge14" class="edge">
<title>2&#45;&gt;5</title>
</g>
<!-- 2&#45;&gt;6 -->
<g id="edge6" class="edge">
<title>2&#45;&gt;6</title>
<path fill="none" stroke="#c0c0c0" stroke-dasharray="5,2" d="M204.9486,-235.0191C200.9311,-222.6802 196.3289,-208.5453 192.0754,-195.4815"/>
<polygon fill="#c0c0c0" stroke="#c0c0c0" points="195.3303,-194.1728 188.9062,-185.7477 188.6742,-196.34 195.3303,-194.1728"/>
<text text-anchor="middle" x="207.4397" y="-208.2214" font-family="Times,serif" font-size="9.00" fill="#000000">&#45;0.44</text>
</g>
<!-- 2&#45;&gt;6 -->
<g id="edge15" class="edge">
<title>2&#45;&gt;6</title>
</g>
</g>
</svg>
