<?xml version="1.0" encoding="UTF-8" standalone="no"?>
<!DOCTYPE svg PUBLIC "-//W3C//DTD SVG 1.1//EN"
 "http://www.w3.org/Graphics/SVG/1.1/DTD/svg11.dtd">
<!-- Generated by graphviz version 2.40.1 (20161225.0304)
 -->
<!-- Title: %3 Pages: 1 -->
<svg width="568pt" height="601pt"
 viewBox="0.00 0.00 568.00 600.97" xmlns="http://www.w3.org/2000/svg" xmlns:xlink="http://www.w3.org/1999/xlink">
<g id="graph0" class="graph" transform="scale(1 1) rotate(0) translate(4 596.9676)">
<title>%3</title>
<polygon fill="#ffffff" stroke="transparent" points="-4,4 -4,-596.9676 564,-596.9676 564,4 -4,4"/>
<!-- 1 -->
<g id="node1" class="node">
<title>1</title>
<ellipse fill="none" stroke="#ff0000" cx="68" cy="-543.1981" rx="36.5405" ry="36.5405"/>
<text text-anchor="middle" x="68" y="-546.5981" font-family="Times,serif" font-size="12.00" fill="#000000">sum</text>
<text text-anchor="middle" x="68" y="-533.5981" font-family="Times,serif" font-size="12.00" fill="#000000">identity</text>
<text text-anchor="middle" x="27.7304" y="-583.3676" font-family="Times,serif" font-size="12.00" fill="#000000">1</text>
</g>
<!-- 2 -->
<g id="node2" class="node">
<title>2</title>
<ellipse fill="none" stroke="#ff0000" cx="180" cy="-38.1838" rx="38.3684" ry="38.3684"/>
<text text-anchor="middle" x="180" y="-41.5838" font-family="Times,serif" font-size="12.00" fill="#000000">sum</text>
<text text-anchor="middle" x="180" y="-28.5838" font-family="Times,serif" font-size="12.00" fill="#000000">sigmoid</text>
<text text-anchor="middle" x="138.3162" y="-79.7675" font-family="Times,serif" font-size="12.00" fill="#000000">2</text>
</g>
<!-- 1&#45;&gt;2 -->
<g id="edge1" class="edge">
<title>1&#45;&gt;2</title>
<path fill="none" stroke="#000000" stroke-dasharray="1,5" d="M43.0654,-515.9506C23.6583,-491.8471 0,-454.7685 0,-417.2447 0,-417.2447 0,-417.2447 0,-165.5513 0,-100.3206 79.7451,-65.4981 133.078,-49.5032"/>
<polygon fill="#000000" stroke="#000000" points="134.0621,-52.8621 142.7039,-46.7326 132.1259,-46.1352 134.0621,-52.8621"/>
<text text-anchor="middle" x="12.5" y="-277.198" font-family="Times,serif" font-size="14.00" fill="#000000">2.00</text>
</g>
<!-- 5 -->
<g id="node5" class="node">
<title>5</title>
<ellipse fill="none" stroke="#000000" cx="43" cy="-343.061" rx="27" ry="18"/>
<text text-anchor="middle" x="43" y="-339.361" font-family="Times,serif" font-size="14.00" fill="#000000">5</text>
</g>
<!-- 1&#45;&gt;5 -->
<g id="edge4" class="edge">
<title>1&#45;&gt;5</title>
<path fill="none" stroke="#000000" stroke-dasharray="1,5" d="M57.977,-507.7404C56.4463,-501.3525 55.0346,-494.7234 54,-488.4285 47.376,-448.1239 44.7321,-400.8655 43.6826,-371.438"/>
<polygon fill="#000000" stroke="#000000" points="47.1695,-370.968 43.3534,-361.0843 40.173,-371.1905 47.1695,-370.968"/>
<text text-anchor="middle" x="66.5" y="-477.2285" font-family="Times,serif" font-size="14.00" fill="#000000">2.00</text>
</g>
<!-- 9 -->
<g id="node7" class="node">
<title>9</title>
<ellipse fill="none" stroke="#000000" cx="156" cy="-280.898" rx="26.3269" ry="26.3269"/>
<text text-anchor="middle" x="156" y="-284.298" font-family="Times,serif" font-size="12.00" fill="#000000">sum</text>
<text text-anchor="middle" x="156" y="-271.298" font-family="Times,serif" font-size="12.00" fill="#000000">tanh</text>
</g>
<!-- 1&#45;&gt;9 -->
<g id="edge7" class="edge">
<title>1&#45;&gt;9</title>
<path fill="none" stroke="#000000" d="M91.4766,-514.6308C97.2312,-506.5408 102.906,-497.4665 107,-488.4285 132.6992,-431.6939 145.783,-359.897 151.7333,-317.3397"/>
<polygon fill="#000000" stroke="#000000" points="155.2359,-317.5533 153.0958,-307.1769 148.298,-316.6232 155.2359,-317.5533"/>
<text text-anchor="middle" x="152.5" y="-413.5447" font-family="Times,serif" font-size="14.00" fill="#000000">1.00</text>
</g>
<!-- 23 -->
<g id="node8" class="node">
<title>23</title>
<ellipse fill="none" stroke="#000000" cx="180" cy="-165.5513" rx="38.3684" ry="38.3684"/>
<text text-anchor="middle" x="180" y="-168.9513" font-family="Times,serif" font-size="12.00" fill="#000000">min</text>
<text text-anchor="middle" x="180" y="-155.9513" font-family="Times,serif" font-size="12.00" fill="#000000">sigmoid</text>
</g>
<!-- 1&#45;&gt;23 -->
<g id="edge15" class="edge">
<title>1&#45;&gt;23</title>
<path fill="none" stroke="#000000" d="M75.3821,-506.9816C76.6119,-500.7959 77.858,-494.4309 79,-488.4285 98.7241,-384.7604 81.7459,-352.6903 121,-254.7351 128.1005,-237.0164 139.0149,-219.1441 149.5342,-204.0998"/>
<polygon fill="#000000" stroke="#000000" points="152.6555,-205.7541 155.6503,-195.5913 146.9716,-201.6683 152.6555,-205.7541"/>
<text text-anchor="middle" x="114.5" y="-339.361" font-family="Times,serif" font-size="14.00" fill="#000000">20.80</text>
</g>
<!-- 4 -->
<g id="node3" class="node">
<title>4</title>
<ellipse fill="none" stroke="#ff0000" cx="325" cy="-543.1981" rx="36.5405" ry="36.5405"/>
<text text-anchor="middle" x="325" y="-546.5981" font-family="Times,serif" font-size="12.00" fill="#000000">sum</text>
<text text-anchor="middle" x="325" y="-533.5981" font-family="Times,serif" font-size="12.00" fill="#000000">identity</text>
<text text-anchor="middle" x="284.7304" y="-583.3676" font-family="Times,serif" font-size="12.00" fill="#000000">4</text>
</g>
<!-- 4&#45;&gt;2 -->
<g id="edge2" class="edge">
<title>4&#45;&gt;2</title>
<path fill="none" stroke="#000000" stroke-dasharray="1,5" d="M297.3696,-518.0773C274.5883,-494.5008 246,-456.9955 246,-417.2447 246,-417.2447 246,-417.2447 246,-165.5513 246,-132.5796 228.3486,-99.6468 211.3027,-75.5307"/>
<polygon fill="#000000" stroke="#000000" points="214.0642,-73.3777 205.3286,-67.3827 208.419,-77.5168 214.0642,-73.3777"/>
<text text-anchor="middle" x="258.5" y="-277.198" font-family="Times,serif" font-size="14.00" fill="#000000">1.00</text>
</g>
<!-- 7 -->
<g id="node6" class="node">
<title>7</title>
<ellipse fill="none" stroke="#ff0000" cx="407" cy="-38.1838" rx="38.3684" ry="38.3684"/>
<text text-anchor="middle" x="407" y="-41.5838" font-family="Times,serif" font-size="12.00" fill="#000000">sum</text>
<text text-anchor="middle" x="407" y="-28.5838" font-family="Times,serif" font-size="12.00" fill="#000000">sigmoid</text>
<text text-anchor="middle" x="365.3162" y="-79.7675" font-family="Times,serif" font-size="12.00" fill="#000000">7</text>
</g>
<!-- 4&#45;&gt;7 -->
<g id="edge6" class="edge">
<title>4&#45;&gt;7</title>
<path fill="none" stroke="#000000" d="M353.2197,-518.7378C376.9394,-495.3308 407,-457.6884 407,-417.2447 407,-417.2447 407,-417.2447 407,-165.5513 407,-139.5476 407,-110.5576 407,-86.8122"/>
<polygon fill="#000000" stroke="#000000" points="410.5001,-86.6416 407,-76.6417 403.5001,-86.6417 410.5001,-86.6416"/>
<text text-anchor="middle" x="419.5" y="-277.198" font-family="Times,serif" font-size="14.00" fill="#000000">2.00</text>
</g>
<!-- 26 -->
<g id="node9" class="node">
<title>26</title>
<ellipse fill="none" stroke="#000000" cx="325" cy="-417.2447" rx="38.3684" ry="38.3684"/>
<text text-anchor="middle" x="325" y="-420.6447" font-family="Times,serif" font-size="12.00" fill="#000000">sum</text>
<text text-anchor="middle" x="325" y="-407.6447" font-family="Times,serif" font-size="12.00" fill="#000000">sigmoid</text>
</g>
<!-- 4&#45;&gt;26 -->
<g id="edge11" class="edge">
<title>4&#45;&gt;26</title>
<path fill="none" stroke="#ff0000" d="M325,-506.0891C325,-493.4833 325,-479.2038 325,-465.8376"/>
<polygon fill="#ff0000" stroke="#ff0000" points="328.5001,-465.8372 325,-455.8372 321.5001,-465.8372 328.5001,-465.8372"/>
<text text-anchor="middle" x="339.5" y="-477.2285" font-family="Times,serif" font-size="14.00" fill="#000000">&#45;0.58</text>
</g>
<!-- 8 -->
<g id="node4" class="node">
<title>8</title>
<ellipse fill="none" stroke="#ff0000" cx="498" cy="-543.1981" rx="36.5405" ry="36.5405"/>
<text text-anchor="middle" x="498" y="-546.5981" font-family="Times,serif" font-size="12.00" fill="#000000">sum</text>
<text text-anchor="middle" x="498" y="-533.5981" font-family="Times,serif" font-size="12.00" fill="#000000">identity</text>
<text text-anchor="middle" x="457.7304" y="-583.3676" font-family="Times,serif" font-size="12.00" fill="#000000">8</text>
</g>
<!-- 8&#45;&gt;2 -->
<g id="edge3" class="edge">
<title>8&#45;&gt;2</title>
<path fill="none" stroke="#000000" d="M485.1903,-508.7036C477.0364,-483.6816 468,-448.8272 468,-417.2447 468,-417.2447 468,-417.2447 468,-165.5513 468,-113.5281 308.8356,-68.4635 227.1547,-48.7622"/>
<polygon fill="#000000" stroke="#000000" points="227.8943,-45.3406 217.3557,-46.4308 226.274,-52.1505 227.8943,-45.3406"/>
<text text-anchor="middle" x="480.5" y="-277.198" font-family="Times,serif" font-size="14.00" fill="#000000">1.00</text>
</g>
<!-- 8&#45;&gt;7 -->
<g id="edge14" class="edge">
<title>8&#45;&gt;7</title>
<path fill="none" stroke="#000000" d="M511.2367,-508.7386C519.6624,-483.7334 529,-448.8846 529,-417.2447 529,-417.2447 529,-417.2447 529,-165.5513 529,-118.5522 485.1416,-82.1245 450.018,-60.4873"/>
<polygon fill="#000000" stroke="#000000" points="451.6924,-57.411 441.3085,-55.3076 448.1143,-63.4274 451.6924,-57.411"/>
<text text-anchor="middle" x="544.5" y="-277.198" font-family="Times,serif" font-size="14.00" fill="#000000">21.80</text>
</g>
<!-- 5&#45;&gt;2 -->
<g id="edge5" class="edge">
<title>5&#45;&gt;2</title>
<path fill="none" stroke="#000000" stroke-dasharray="1,5" d="M42.8101,-324.6536C42.981,-300.6003 44.7321,-257.3498 54,-221.7351 69.6647,-161.5391 73.5764,-143.2814 112,-94.3675 120.0616,-84.105 130.2913,-74.449 140.3523,-66.1331"/>
<polygon fill="#000000" stroke="#000000" points="142.7026,-68.7356 148.3402,-59.7652 138.3391,-63.262 142.7026,-68.7356"/>
<text text-anchor="middle" x="66.5" y="-225.5351" font-family="Times,serif" font-size="14.00" fill="#000000">2.00</text>
</g>
<!-- 9&#45;&gt;2 -->
<g id="edge8" class="edge">
<title>9&#45;&gt;2</title>
<path fill="none" stroke="#000000" stroke-dasharray="1,5" d="M139.102,-260.8081C127.8534,-246.0593 114.0667,-224.9731 108,-203.7351 98.6776,-171.0993 96.694,-159.3703 108,-127.3675 115.4623,-106.2447 130.2853,-86.4527 144.552,-70.906"/>
<polygon fill="#000000" stroke="#000000" points="147.1193,-73.2853 151.4763,-63.6277 142.0477,-68.4604 147.1193,-73.2853"/>
<text text-anchor="middle" x="120.5" y="-161.8513" font-family="Times,serif" font-size="14.00" fill="#000000">2.00</text>
</g>
<!-- 9&#45;&gt;23 -->
<g id="edge9" class="edge">
<title>9&#45;&gt;23</title>
<path fill="none" stroke="#000000" d="M161.3861,-255.012C163.9439,-242.7187 167.0848,-227.6233 170.0529,-213.358"/>
<polygon fill="#000000" stroke="#000000" points="173.5624,-213.6726 172.1729,-203.1692 166.7092,-212.2466 173.5624,-213.6726"/>
<text text-anchor="middle" x="180.5" y="-225.5351" font-family="Times,serif" font-size="14.00" fill="#000000">1.00</text>
</g>
<!-- 23&#45;&gt;2 -->
<g id="edge10" class="edge">
<title>23&#45;&gt;2</title>
<path fill="none" stroke="#000000" d="M180,-127.3368C180,-114.4908 180,-99.9893 180,-86.4723"/>
<polygon fill="#000000" stroke="#000000" points="183.5001,-86.3712 180,-76.3713 176.5001,-86.3713 183.5001,-86.3712"/>
<text text-anchor="middle" x="192.5" y="-98.1675" font-family="Times,serif" font-size="14.00" fill="#000000">2.00</text>
</g>
<!-- 26&#45;&gt;2 -->
<g id="edge12" class="edge">
<title>26&#45;&gt;2</title>
<path fill="none" stroke="#000000" d="M326.1228,-379.0313C326.2032,-314.9077 318.4723,-183.8894 260,-94.3675 250.9401,-80.4967 237.1574,-69.035 223.571,-60.162"/>
<polygon fill="#000000" stroke="#000000" points="225.0715,-56.9754 214.7227,-54.7056 221.3973,-62.9336 225.0715,-56.9754"/>
<text text-anchor="middle" x="324.5" y="-225.5351" font-family="Times,serif" font-size="14.00" fill="#000000">4.51</text>
</g>
<!-- 26&#45;&gt;7 -->
<g id="edge16" class="edge">
<title>26&#45;&gt;7</title>
<path fill="none" stroke="#000000" d="M334.687,-380.1689C336.2185,-373.8147 337.7176,-367.2628 339,-361.061 351.7088,-299.6005 349.459,-283.23 362,-221.7351 373.6417,-164.6497 379.0677,-150.9375 393,-94.3675 393.7336,-91.389 394.4912,-88.3222 395.2567,-85.2306"/>
<polygon fill="#000000" stroke="#000000" points="398.6972,-85.8978 397.7086,-75.3492 391.9032,-84.2119 398.6972,-85.8978"/>
<text text-anchor="middle" x="377.5" y="-225.5351" font-family="Times,serif" font-size="14.00" fill="#000000">16.80</text>
</g>
<!-- 26&#45;&gt;9 -->
<g id="edge13" class="edge">
<title>26&#45;&gt;9</title>
<path fill="none" stroke="#000000" d="M295.1752,-393.1825C263.9936,-368.0257 215.4047,-328.8248 184.6637,-304.0235"/>
<polygon fill="#000000" stroke="#000000" points="186.4764,-300.9889 176.4958,-297.4337 182.081,-306.4369 186.4764,-300.9889"/>
<text text-anchor="middle" x="265.5" y="-339.361" font-family="Times,serif" font-size="14.00" fill="#000000">23.80</text>
</g>
</g>
</svg>
