<?xml version="1.0" encoding="UTF-8" standalone="no"?>
<!DOCTYPE svg PUBLIC "-//W3C//DTD SVG 1.1//EN"
 "http://www.w3.org/Graphics/SVG/1.1/DTD/svg11.dtd">
<!-- Generated by graphviz version 2.40.1 (20161225.0304)
 -->
<!-- Title: %3 Pages: 1 -->
<svg width="491pt" height="464pt"
 viewBox="0.00 0.00 491.25 463.53" xmlns="http://www.w3.org/2000/svg" xmlns:xlink="http://www.w3.org/1999/xlink">
<g id="graph0" class="graph" transform="scale(1 1) rotate(0) translate(4 459.529)">
<title>%3</title>
<polygon fill="#ffffff" stroke="transparent" points="-4,4 -4,-459.529 487.2548,-459.529 487.2548,4 -4,4"/>
<!-- 1 -->
<g id="node1" class="node">
<title>1</title>
<ellipse fill="none" stroke="#ff0000" cx="303.6274" cy="-422.9016" rx="22.7556" ry="22.7556"/>
<text text-anchor="middle" x="303.6274" y="-425.7016" font-family="Times,serif" font-size="9.00" fill="#000000">sum</text>
<text text-anchor="middle" x="303.6274" y="-415.7016" font-family="Times,serif" font-size="9.00" fill="#000000">id</text>
<text text-anchor="middle" x="278.5" y="-448.329" font-family="Times,serif" font-size="9.00" fill="#000000">1</text>
</g>
<!-- 2 -->
<g id="node2" class="node">
<title>2</title>
<ellipse fill="none" stroke="#ff0000" cx="326.6274" cy="-22.6274" rx="22.7556" ry="22.7556"/>
<text text-anchor="middle" x="326.6274" y="-25.4274" font-family="Times,serif" font-size="9.00" fill="#000000">sum</text>
<text text-anchor="middle" x="326.6274" y="-15.4274" font-family="Times,serif" font-size="9.00" fill="#000000">sig</text>
<text text-anchor="middle" x="301.5" y="-48.0548" font-family="Times,serif" font-size="9.00" fill="#000000">2</text>
</g>
<!-- 1&#45;&gt;2 -->
<g id="edge1" class="edge">
<title>1&#45;&gt;2</title>
<path fill="none" stroke="#c0c0c0" d="M312.0612,-401.8908C318.6254,-383.6335 326.6274,-356.3176 326.6274,-331.6468 326.6274,-331.6468 326.6274,-331.6468 326.6274,-113.8823 326.6274,-94.5961 326.6274,-73.0171 326.6274,-55.687"/>
<polygon fill="#c0c0c0" stroke="#c0c0c0" points="330.1275,-55.504 326.6274,-45.5041 323.1275,-55.5041 330.1275,-55.504"/>
<text text-anchor="middle" x="336.1274" y="-202.9371" font-family="Times,serif" font-size="9.00" fill="#000000">&#45;1.53</text>
</g>
<!-- 5 -->
<g id="node5" class="node">
<title>5</title>
<ellipse fill="none" stroke="#000000" stroke-dasharray="5,2" cx="253.6274" cy="-113.8823" rx="22.7556" ry="22.7556"/>
<text text-anchor="middle" x="253.6274" y="-116.6823" font-family="Times,serif" font-size="9.00" fill="#000000">sum</text>
<text text-anchor="middle" x="253.6274" y="-106.6823" font-family="Times,serif" font-size="9.00" fill="#000000">id</text>
<text text-anchor="middle" x="228.5" y="-139.3097" font-family="Times,serif" font-size="9.00" fill="#000000">5</text>
</g>
<!-- 1&#45;&gt;5 -->
<g id="edge4" class="edge">
<title>1&#45;&gt;5</title>
<path fill="none" stroke="#000000" stroke-dasharray="5,2" d="M300.3861,-400.2303C293.7019,-353.9507 277.665,-245.3077 261.6274,-154.5097 261.1515,-151.8151 260.6402,-149.0237 260.1147,-146.2238"/>
<polygon fill="#000000" stroke="#000000" points="263.5133,-145.3628 258.1863,-136.2045 256.6394,-146.6858 263.5133,-145.3628"/>
<text text-anchor="middle" x="291.6274" y="-266.1919" font-family="Times,serif" font-size="9.00" fill="#000000">8.53</text>
</g>
<!-- 4 -->
<g id="node3" class="node">
<title>4</title>
<ellipse fill="none" stroke="#ff0000" cx="103.6274" cy="-422.9016" rx="22.7556" ry="22.7556"/>
<text text-anchor="middle" x="103.6274" y="-425.7016" font-family="Times,serif" font-size="9.00" fill="#000000">sum</text>
<text text-anchor="middle" x="103.6274" y="-415.7016" font-family="Times,serif" font-size="9.00" fill="#000000">id</text>
<text text-anchor="middle" x="78.5" y="-448.329" font-family="Times,serif" font-size="9.00" fill="#000000">4</text>
</g>
<!-- 4&#45;&gt;2 -->
<g id="edge2" class="edge">
<title>4&#45;&gt;2</title>
<path fill="none" stroke="#c0c0c0" d="M94.827,-401.9238C87.9774,-383.6872 79.6274,-356.383 79.6274,-331.6468 79.6274,-331.6468 79.6274,-331.6468 79.6274,-113.8823 79.6274,-68.753 226.5459,-38.9553 293.7639,-27.684"/>
<polygon fill="#c0c0c0" stroke="#c0c0c0" points="294.5303,-31.1051 303.833,-26.0345 293.3987,-24.1972 294.5303,-31.1051"/>
<text text-anchor="middle" x="89.1274" y="-202.9371" font-family="Times,serif" font-size="9.00" fill="#000000">&#45;1.00</text>
</g>
<!-- 4&#45;&gt;5 -->
<g id="edge8" class="edge">
<title>4&#45;&gt;5</title>
<path fill="none" stroke="#000000" stroke-dasharray="5,2" d="M105.9905,-400.1233C111.3121,-355.9255 126.934,-256.3898 165.6274,-182.5097 178.3332,-158.2496 203.8369,-139.8574 224.1319,-128.2494"/>
<polygon fill="#000000" stroke="#000000" points="225.9236,-131.2589 233.0254,-123.3966 222.5707,-125.1141 225.9236,-131.2589"/>
<text text-anchor="middle" x="146.6274" y="-266.1919" font-family="Times,serif" font-size="9.00" fill="#000000">2.00</text>
</g>
<!-- 7 -->
<g id="node6" class="node">
<title>7</title>
<ellipse fill="none" stroke="#ff0000" cx="27.6274" cy="-22.6274" rx="22.7556" ry="22.7556"/>
<text text-anchor="middle" x="27.6274" y="-25.4274" font-family="Times,serif" font-size="9.00" fill="#000000">sum</text>
<text text-anchor="middle" x="27.6274" y="-15.4274" font-family="Times,serif" font-size="9.00" fill="#000000">sig</text>
<text text-anchor="middle" x="2.5" y="-48.0548" font-family="Times,serif" font-size="9.00" fill="#000000">7</text>
</g>
<!-- 4&#45;&gt;7 -->
<g id="edge6" class="edge">
<title>4&#45;&gt;7</title>
<path fill="none" stroke="#000000" d="M84.0555,-411.0617C61.5373,-395.7754 27.6274,-366.903 27.6274,-331.6468 27.6274,-331.6468 27.6274,-331.6468 27.6274,-113.8823 27.6274,-94.5961 27.6274,-73.0171 27.6274,-55.687"/>
<polygon fill="#000000" stroke="#000000" points="31.1275,-55.504 27.6274,-45.5041 24.1275,-55.5041 31.1275,-55.504"/>
<text text-anchor="middle" x="35.6274" y="-202.9371" font-family="Times,serif" font-size="9.00" fill="#000000">2.00</text>
</g>
<!-- 23 -->
<g id="node8" class="node">
<title>23</title>
<ellipse fill="none" stroke="#000000" cx="177.6274" cy="-331.6468" rx="22.7556" ry="22.7556"/>
<text text-anchor="middle" x="177.6274" y="-334.4468" font-family="Times,serif" font-size="9.00" fill="#000000">sum</text>
<text text-anchor="middle" x="177.6274" y="-324.4468" font-family="Times,serif" font-size="9.00" fill="#000000">sig</text>
<text text-anchor="middle" x="150" y="-357.0742" font-family="Times,serif" font-size="9.00" fill="#000000">23</text>
</g>
<!-- 4&#45;&gt;23 -->
<g id="edge11" class="edge">
<title>4&#45;&gt;23</title>
<path fill="none" stroke="#000000" d="M119.5263,-406.2617C126.2239,-399.0456 133.9888,-390.4016 140.6274,-382.2742 146.7976,-374.7202 153.1809,-366.2526 158.8723,-358.4362"/>
<polygon fill="#000000" stroke="#000000" points="161.7376,-360.4465 164.7337,-350.2841 156.0542,-356.36 161.7376,-360.4465"/>
<text text-anchor="middle" x="155.6274" y="-375.0742" font-family="Times,serif" font-size="9.00" fill="#000000">1.00</text>
</g>
<!-- 8 -->
<g id="node4" class="node">
<title>8</title>
<ellipse fill="none" stroke="#ff0000" cx="419.6274" cy="-422.9016" rx="22.7556" ry="22.7556"/>
<text text-anchor="middle" x="419.6274" y="-425.7016" font-family="Times,serif" font-size="9.00" fill="#000000">sum</text>
<text text-anchor="middle" x="419.6274" y="-415.7016" font-family="Times,serif" font-size="9.00" fill="#000000">id</text>
<text text-anchor="middle" x="394.5" y="-448.329" font-family="Times,serif" font-size="9.00" fill="#000000">8</text>
</g>
<!-- 8&#45;&gt;2 -->
<g id="edge3" class="edge">
<title>8&#45;&gt;2</title>
<path fill="none" stroke="#000000" stroke-dasharray="5,2" d="M419.6274,-400.0249C419.6274,-381.568 419.6274,-354.9357 419.6274,-331.6468 419.6274,-331.6468 419.6274,-331.6468 419.6274,-113.8823 419.6274,-78.0669 384.0528,-51.6469 356.9082,-36.7008"/>
<polygon fill="#000000" stroke="#000000" points="358.2133,-33.4334 347.7306,-31.896 354.9666,-39.635 358.2133,-33.4334"/>
<text text-anchor="middle" x="427.6274" y="-202.9371" font-family="Times,serif" font-size="9.00" fill="#000000">1.00</text>
</g>
<!-- 8&#45;&gt;5 -->
<g id="edge7" class="edge">
<title>8&#45;&gt;5</title>
<path fill="none" stroke="#000000" stroke-dasharray="5,2" d="M411.9805,-401.4726C409.8494,-395.3002 407.5837,-388.5411 405.6274,-382.2742 378.151,-294.2563 402.581,-257.9949 349.6274,-182.5097 332.819,-158.5493 304.8746,-139.9593 283.4573,-128.2075"/>
<polygon fill="#000000" stroke="#000000" points="284.9125,-125.018 274.4352,-123.4443 281.6443,-131.2082 284.9125,-125.018"/>
<text text-anchor="middle" x="396.6274" y="-266.1919" font-family="Times,serif" font-size="9.00" fill="#000000">2.00</text>
</g>
<!-- 9 -->
<g id="node7" class="node">
<title>9</title>
<ellipse fill="none" stroke="#000000" cx="460.6274" cy="-268.3919" rx="22.7556" ry="22.7556"/>
<text text-anchor="middle" x="460.6274" y="-271.1919" font-family="Times,serif" font-size="9.00" fill="#000000">sum</text>
<text text-anchor="middle" x="460.6274" y="-261.1919" font-family="Times,serif" font-size="9.00" fill="#000000">sig</text>
<text text-anchor="middle" x="435.5" y="-293.8193" font-family="Times,serif" font-size="9.00" fill="#000000">9</text>
</g>
<!-- 8&#45;&gt;9 -->
<g id="edge9" class="edge">
<title>8&#45;&gt;9</title>
<path fill="none" stroke="#000000" d="M427.4389,-401.5221C429.5726,-395.3505 431.7985,-388.5794 433.6274,-382.2742 441.5307,-355.028 448.8442,-323.6278 453.8606,-300.7088"/>
<polygon fill="#000000" stroke="#000000" points="457.3061,-301.3343 455.9976,-290.8205 450.4641,-299.8555 457.3061,-301.3343"/>
<text text-anchor="middle" x="443.6274" y="-375.0742" font-family="Times,serif" font-size="9.00" fill="#000000">1.00</text>
</g>
<!-- 5&#45;&gt;2 -->
<g id="edge5" class="edge">
<title>5&#45;&gt;2</title>
<path fill="none" stroke="#000000" stroke-dasharray="5,2" d="M268.0499,-95.8532C278.9182,-82.2671 293.9698,-63.4516 306.094,-48.2956"/>
<polygon fill="#000000" stroke="#000000" points="308.9696,-50.3037 312.4833,-40.3085 303.5034,-45.931 308.9696,-50.3037"/>
<text text-anchor="middle" x="299.6274" y="-66.0548" font-family="Times,serif" font-size="9.00" fill="#000000">2.00</text>
</g>
<!-- 9&#45;&gt;2 -->
<g id="edge10" class="edge">
<title>9&#45;&gt;2</title>
<path fill="none" stroke="#000000" d="M464.5232,-245.839C470.2761,-204.7677 476.2002,-117.0584 433.6274,-63.2548 415.7185,-40.6215 383.6862,-30.5928 359.3226,-26.1516"/>
<polygon fill="#000000" stroke="#000000" points="359.8408,-22.6901 349.414,-24.5699 358.7373,-29.6026 359.8408,-22.6901"/>
<text text-anchor="middle" x="474.6274" y="-157.3097" font-family="Times,serif" font-size="9.00" fill="#000000">1.00</text>
</g>
<!-- 23&#45;&gt;5 -->
<g id="edge12" class="edge">
<title>23&#45;&gt;5</title>
<path fill="none" stroke="#000000" stroke-dasharray="5,2" d="M173.1326,-309.2618C168.1687,-279.0374 163.1185,-224.1691 181.6274,-182.5097 190.9416,-161.5454 209.9773,-143.8588 226.1369,-131.6934"/>
<polygon fill="#000000" stroke="#000000" points="228.1875,-134.5298 234.2584,-125.8469 224.0977,-128.8488 228.1875,-134.5298"/>
<text text-anchor="middle" x="189.6274" y="-202.9371" font-family="Times,serif" font-size="9.00" fill="#000000">2.00</text>
</g>
<!-- 26 -->
<g id="node9" class="node">
<title>26</title>
<ellipse fill="none" stroke="#000000" stroke-dasharray="5,2" cx="229.6274" cy="-205.1371" rx="22.7556" ry="22.7556"/>
<text text-anchor="middle" x="229.6274" y="-207.9371" font-family="Times,serif" font-size="9.00" fill="#000000">sum</text>
<text text-anchor="middle" x="229.6274" y="-197.9371" font-family="Times,serif" font-size="9.00" fill="#000000">sig</text>
<text text-anchor="middle" x="202" y="-230.5645" font-family="Times,serif" font-size="9.00" fill="#000000">26</text>
</g>
<!-- 23&#45;&gt;26 -->
<g id="edge13" class="edge">
<title>23&#45;&gt;26</title>
<path fill="none" stroke="#000000" stroke-dasharray="5,2" d="M186.331,-310.4719C194.7301,-290.038 207.5363,-258.8821 217.0447,-235.7493"/>
<polygon fill="#000000" stroke="#000000" points="220.3308,-236.9608 220.8954,-226.381 213.8564,-234.2996 220.3308,-236.9608"/>
<text text-anchor="middle" x="220.6274" y="-266.1919" font-family="Times,serif" font-size="9.00" fill="#000000">1.00</text>
</g>
<!-- 26&#45;&gt;5 -->
<g id="edge14" class="edge">
<title>26&#45;&gt;5</title>
<path fill="none" stroke="#000000" stroke-dasharray="5,2" d="M235.4371,-183.0468C238.3851,-171.8378 242.0194,-158.0191 245.2626,-145.6877"/>
<polygon fill="#000000" stroke="#000000" points="248.7125,-146.3304 247.8712,-135.7691 241.9427,-144.5499 248.7125,-146.3304"/>
<text text-anchor="middle" x="249.6274" y="-157.3097" font-family="Times,serif" font-size="9.00" fill="#000000">2.00</text>
</g>
</g>
</svg>
