<?xml version="1.0" encoding="UTF-8" standalone="no"?>
<!DOCTYPE svg PUBLIC "-//W3C//DTD SVG 1.1//EN"
 "http://www.w3.org/Graphics/SVG/1.1/DTD/svg11.dtd">
<!-- Generated by graphviz version 2.40.1 (20161225.0304)
 -->
<!-- Title: %3 Pages: 1 -->
<svg width="561pt" height="472pt"
 viewBox="0.00 0.00 561.00 472.01" xmlns="http://www.w3.org/2000/svg" xmlns:xlink="http://www.w3.org/1999/xlink">
<g id="graph0" class="graph" transform="scale(1 1) rotate(0) translate(4 468.0143)">
<title>%3</title>
<polygon fill="#ffffff" stroke="transparent" points="-4,4 -4,-468.0143 557,-468.0143 557,4 -4,4"/>
<!-- 1 -->
<g id="node1" class="node">
<title>1</title>
<ellipse fill="none" stroke="#ff0000" cx="93" cy="-431.3869" rx="22.7556" ry="22.7556"/>
<text text-anchor="middle" x="93" y="-434.1869" font-family="Times,serif" font-size="9.00" fill="#000000">sum</text>
<text text-anchor="middle" x="93" y="-424.1869" font-family="Times,serif" font-size="9.00" fill="#000000">id</text>
<text text-anchor="middle" x="67.8726" y="-456.8143" font-family="Times,serif" font-size="9.00" fill="#000000">1</text>
</g>
<!-- 2 -->
<g id="node2" class="node">
<title>2</title>
<ellipse fill="none" stroke="#ff0000" cx="129" cy="-22.6274" rx="22.7556" ry="22.7556"/>
<text text-anchor="middle" x="129" y="-25.4274" font-family="Times,serif" font-size="9.00" fill="#000000">sum</text>
<text text-anchor="middle" x="129" y="-15.4274" font-family="Times,serif" font-size="9.00" fill="#000000">sig</text>
<text text-anchor="middle" x="103.8726" y="-48.0548" font-family="Times,serif" font-size="9.00" fill="#000000">2</text>
</g>
<!-- 1&#45;&gt;2 -->
<g id="edge1" class="edge">
<title>1&#45;&gt;2</title>
<path fill="none" stroke="#c0c0c0" d="M71.8969,-422.1182C44.458,-408.4668 0,-380.1702 0,-340.132 0,-340.132 0,-340.132 0,-113.8823 0,-66.413 58.937,-41.423 97.1369,-30.2112"/>
<polygon fill="#c0c0c0" stroke="#c0c0c0" points="98.1205,-33.5706 106.8241,-27.5294 96.2528,-26.8244 98.1205,-33.5706"/>
<text text-anchor="middle" x="9.5" y="-202.9371" font-family="Times,serif" font-size="9.00" fill="#000000">&#45;2.00</text>
</g>
<!-- 5 -->
<g id="node5" class="node">
<title>5</title>
<ellipse fill="none" stroke="#000000" stroke-dasharray="5,2" cx="289" cy="-205.1371" rx="22.7556" ry="22.7556"/>
<text text-anchor="middle" x="289" y="-207.9371" font-family="Times,serif" font-size="9.00" fill="#000000">sum</text>
<text text-anchor="middle" x="289" y="-197.9371" font-family="Times,serif" font-size="9.00" fill="#000000">id</text>
<text text-anchor="middle" x="263.8726" y="-230.5645" font-family="Times,serif" font-size="9.00" fill="#000000">5</text>
</g>
<!-- 1&#45;&gt;5 -->
<g id="edge4" class="edge">
<title>1&#45;&gt;5</title>
<path fill="none" stroke="#000000" stroke-dasharray="5,2" d="M106.5374,-412.9005C111.1522,-406.1337 116.1206,-398.2876 120,-390.7595 135.966,-359.7763 128.8113,-346.6021 148,-317.5046 173.2182,-279.264 185.7424,-273.7589 222,-245.7645 233.8408,-236.6222 247.8721,-227.8375 260.027,-220.7902"/>
<polygon fill="#000000" stroke="#000000" points="261.9182,-223.7414 268.8888,-215.7626 258.464,-217.6529 261.9182,-223.7414"/>
<text text-anchor="middle" x="156" y="-337.932" font-family="Times,serif" font-size="9.00" fill="#000000">2.00</text>
</g>
<!-- 23 -->
<g id="node8" class="node">
<title>23</title>
<ellipse fill="none" stroke="#000000" cx="97" cy="-272.6346" rx="26.7407" ry="26.7407"/>
<text text-anchor="middle" x="97" y="-275.4346" font-family="Times,serif" font-size="9.00" fill="#000000">max</text>
<text text-anchor="middle" x="97" y="-265.4346" font-family="Times,serif" font-size="9.00" fill="#000000">arctan</text>
<text text-anchor="middle" x="65.1299" y="-302.3046" font-family="Times,serif" font-size="9.00" fill="#000000">23</text>
</g>
<!-- 1&#45;&gt;23 -->
<g id="edge16" class="edge">
<title>1&#45;&gt;23</title>
<path fill="none" stroke="#000000" d="M93.5731,-408.6415C94.2224,-382.8727 95.2903,-340.4888 96.0616,-309.8773"/>
<polygon fill="#000000" stroke="#000000" points="99.5678,-309.6722 96.3209,-299.5872 92.57,-309.4958 99.5678,-309.6722"/>
<text text-anchor="middle" x="105.5" y="-383.5595" font-family="Times,serif" font-size="9.00" fill="#000000">22.80</text>
</g>
<!-- 4 -->
<g id="node3" class="node">
<title>4</title>
<ellipse fill="none" stroke="#ff0000" cx="430" cy="-431.3869" rx="22.7556" ry="22.7556"/>
<text text-anchor="middle" x="430" y="-434.1869" font-family="Times,serif" font-size="9.00" fill="#000000">sum</text>
<text text-anchor="middle" x="430" y="-424.1869" font-family="Times,serif" font-size="9.00" fill="#000000">id</text>
<text text-anchor="middle" x="404.8726" y="-456.8143" font-family="Times,serif" font-size="9.00" fill="#000000">4</text>
</g>
<!-- 4&#45;&gt;2 -->
<g id="edge2" class="edge">
<title>4&#45;&gt;2</title>
<path fill="none" stroke="#c0c0c0" stroke-dasharray="5,2" d="M442.8651,-412.7474C453.8892,-394.9341 468,-366.9041 468,-340.132 468,-340.132 468,-340.132 468,-113.8823 468,-50.9031 247.0788,-30.1369 161.9225,-24.4717"/>
<polygon fill="#c0c0c0" stroke="#c0c0c0" points="161.9713,-20.9678 151.7691,-23.8256 161.5266,-27.9537 161.9713,-20.9678"/>
<text text-anchor="middle" x="477.5" y="-202.9371" font-family="Times,serif" font-size="9.00" fill="#000000">&#45;1.00</text>
</g>
<!-- 4&#45;&gt;5 -->
<g id="edge8" class="edge">
<title>4&#45;&gt;5</title>
<path fill="none" stroke="#000000" stroke-dasharray="5,2" d="M415.0955,-413.8822C394.6905,-389.3845 357.6685,-342.9833 332,-299.5046 319.9188,-279.0409 308.8646,-254.5927 300.99,-235.7088"/>
<polygon fill="#000000" stroke="#000000" points="304.2028,-234.3185 297.1733,-226.3915 297.7252,-236.972 304.2028,-234.3185"/>
<text text-anchor="middle" x="381" y="-337.932" font-family="Times,serif" font-size="9.00" fill="#000000">2.00</text>
</g>
<!-- 7 -->
<g id="node6" class="node">
<title>7</title>
<ellipse fill="none" stroke="#ff0000" cx="519" cy="-22.6274" rx="22.7556" ry="22.7556"/>
<text text-anchor="middle" x="519" y="-25.4274" font-family="Times,serif" font-size="9.00" fill="#000000">sum</text>
<text text-anchor="middle" x="519" y="-15.4274" font-family="Times,serif" font-size="9.00" fill="#000000">sig</text>
<text text-anchor="middle" x="493.8726" y="-48.0548" font-family="Times,serif" font-size="9.00" fill="#000000">7</text>
</g>
<!-- 4&#45;&gt;7 -->
<g id="edge6" class="edge">
<title>4&#45;&gt;7</title>
<path fill="none" stroke="#000000" d="M451.653,-424.0586C482.9188,-411.944 537,-384.5668 537,-340.132 537,-340.132 537,-340.132 537,-113.8823 537,-93.769 532.739,-71.6255 528.3633,-54.1887"/>
<polygon fill="#000000" stroke="#000000" points="531.7459,-53.2894 525.805,-44.5169 524.9786,-55.0795 531.7459,-53.2894"/>
<text text-anchor="middle" x="545" y="-202.9371" font-family="Times,serif" font-size="9.00" fill="#000000">2.00</text>
</g>
<!-- 9 -->
<g id="node7" class="node">
<title>9</title>
<ellipse fill="none" stroke="#000000" cx="336" cy="-113.8823" rx="22.7556" ry="22.7556"/>
<text text-anchor="middle" x="336" y="-116.6823" font-family="Times,serif" font-size="9.00" fill="#000000">sum</text>
<text text-anchor="middle" x="336" y="-106.6823" font-family="Times,serif" font-size="9.00" fill="#000000">sig</text>
<text text-anchor="middle" x="310.8726" y="-139.3097" font-family="Times,serif" font-size="9.00" fill="#000000">9</text>
</g>
<!-- 4&#45;&gt;9 -->
<g id="edge18" class="edge">
<title>4&#45;&gt;9</title>
<path fill="none" stroke="#000000" d="M423.7809,-409.4365C410.4466,-362.5299 377.9617,-249.0901 349,-154.5097 348.0968,-151.5599 347.1433,-148.4944 346.1798,-145.429"/>
<polygon fill="#000000" stroke="#000000" points="349.4783,-144.2518 343.1174,-135.7789 342.8062,-146.3692 349.4783,-144.2518"/>
<text text-anchor="middle" x="402.5" y="-270.4346" font-family="Times,serif" font-size="9.00" fill="#000000">15.80</text>
</g>
<!-- 4&#45;&gt;23 -->
<g id="edge11" class="edge">
<title>4&#45;&gt;23</title>
<path fill="none" stroke="#000000" d="M408.0151,-425.0206C375.9593,-415.0746 315.3826,-393.7266 271,-362.7595 248.2463,-346.8835 251.3514,-332.4876 228,-317.5046 198.8454,-298.7982 161.0085,-286.9346 133.4997,-280.1372"/>
<polygon fill="#000000" stroke="#000000" points="134.0387,-276.6683 123.5019,-277.7763 132.4299,-283.4809 134.0387,-276.6683"/>
<text text-anchor="middle" x="325" y="-383.5595" font-family="Times,serif" font-size="9.00" fill="#000000">1.00</text>
</g>
<!-- 8 -->
<g id="node4" class="node">
<title>8</title>
<ellipse fill="none" stroke="#ff0000" cx="245" cy="-431.3869" rx="22.7556" ry="22.7556"/>
<text text-anchor="middle" x="245" y="-434.1869" font-family="Times,serif" font-size="9.00" fill="#000000">sum</text>
<text text-anchor="middle" x="245" y="-424.1869" font-family="Times,serif" font-size="9.00" fill="#000000">id</text>
<text text-anchor="middle" x="219.8726" y="-456.8143" font-family="Times,serif" font-size="9.00" fill="#000000">8</text>
</g>
<!-- 8&#45;&gt;2 -->
<g id="edge3" class="edge">
<title>8&#45;&gt;2</title>
<path fill="none" stroke="#c0c0c0" d="M223.2046,-424.7663C173.2977,-408.1081 55,-359.4641 55,-272.6346 55,-272.6346 55,-272.6346 55,-113.8823 55,-83.2705 80.4324,-57.188 101.478,-40.845"/>
<polygon fill="#c0c0c0" stroke="#c0c0c0" points="103.6027,-43.6269 109.5574,-34.8638 99.4376,-38.0009 103.6027,-43.6269"/>
<text text-anchor="middle" x="64.5" y="-202.9371" font-family="Times,serif" font-size="9.00" fill="#000000">&#45;0.90</text>
</g>
<!-- 8&#45;&gt;5 -->
<g id="edge7" class="edge">
<title>8&#45;&gt;5</title>
<path fill="none" stroke="#c0c0c0" stroke-dasharray="5,2" d="M251.3608,-409.6403C258.7483,-383.6498 270.8348,-338.7434 278,-299.5046 281.7152,-279.1589 284.43,-256.1043 286.233,-237.8757"/>
<polygon fill="#c0c0c0" stroke="#c0c0c0" points="289.7328,-238.0427 287.19,-227.7576 282.7639,-237.3836 289.7328,-238.0427"/>
<text text-anchor="middle" x="283.5" y="-337.932" font-family="Times,serif" font-size="9.00" fill="#000000">&#45;2.92</text>
</g>
<!-- 8&#45;&gt;9 -->
<g id="edge17" class="edge">
<title>8&#45;&gt;9</title>
<path fill="none" stroke="#000000" d="M260.9326,-415.061C272.7558,-401.9846 288.2801,-382.6033 297,-362.7595 328.8821,-290.2055 335.1699,-195.6703 336.1226,-146.6228"/>
<polygon fill="#000000" stroke="#000000" points="339.6226,-146.6326 336.2541,-136.5876 332.6232,-146.5408 339.6226,-146.6326"/>
<text text-anchor="middle" x="338.5" y="-270.4346" font-family="Times,serif" font-size="9.00" fill="#000000">16.80</text>
</g>
<!-- 26 -->
<g id="node9" class="node">
<title>26</title>
<ellipse fill="none" stroke="#000000" stroke-dasharray="5,2" cx="196" cy="-340.132" rx="22.7556" ry="22.7556"/>
<text text-anchor="middle" x="196" y="-342.932" font-family="Times,serif" font-size="9.00" fill="#000000">sum</text>
<text text-anchor="middle" x="196" y="-332.932" font-family="Times,serif" font-size="9.00" fill="#000000">sig</text>
<text text-anchor="middle" x="168.3726" y="-365.5595" font-family="Times,serif" font-size="9.00" fill="#000000">26</text>
</g>
<!-- 8&#45;&gt;26 -->
<g id="edge13" class="edge">
<title>8&#45;&gt;26</title>
<path fill="none" stroke="#000000" stroke-dasharray="5,2" d="M234.1253,-411.1345C227.5277,-398.8474 218.9972,-382.9607 211.6787,-369.3311"/>
<polygon fill="#000000" stroke="#000000" points="214.6587,-367.4823 206.8443,-360.3278 208.4915,-370.7938 214.6587,-367.4823"/>
<text text-anchor="middle" x="229" y="-383.5595" font-family="Times,serif" font-size="9.00" fill="#000000">1.00</text>
</g>
<!-- 5&#45;&gt;2 -->
<g id="edge5" class="edge">
<title>5&#45;&gt;2</title>
<path fill="none" stroke="#000000" stroke-dasharray="5,2" d="M273.9476,-187.967C245.5971,-155.628 184.1685,-85.5573 151.115,-47.8537"/>
<polygon fill="#000000" stroke="#000000" points="153.353,-45.0971 144.129,-39.8848 148.0893,-49.7117 153.353,-45.0971"/>
<text text-anchor="middle" x="235" y="-111.6823" font-family="Times,serif" font-size="9.00" fill="#000000">2.00</text>
</g>
<!-- 5&#45;&gt;9 -->
<g id="edge9" class="edge">
<title>5&#45;&gt;9</title>
<path fill="none" stroke="#000000" stroke-dasharray="5,2" d="M299.4308,-184.8847C305.7591,-172.5977 313.9415,-156.7109 320.9613,-143.0813"/>
<polygon fill="#000000" stroke="#000000" points="324.131,-144.5708 325.5983,-134.078 317.9079,-141.3656 324.131,-144.5708"/>
<text text-anchor="middle" x="321" y="-157.3097" font-family="Times,serif" font-size="9.00" fill="#000000">1.00</text>
</g>
<!-- 9&#45;&gt;2 -->
<g id="edge10" class="edge">
<title>9&#45;&gt;2</title>
<path fill="none" stroke="#000000" d="M315.0126,-104.6301C278.1097,-88.3616 201.4936,-54.5858 159.0074,-35.856"/>
<polygon fill="#000000" stroke="#000000" points="160.2974,-32.5997 149.7352,-31.7684 157.4736,-39.0049 160.2974,-32.5997"/>
<text text-anchor="middle" x="246" y="-66.0548" font-family="Times,serif" font-size="9.00" fill="#000000">2.00</text>
</g>
<!-- 9&#45;&gt;7 -->
<g id="edge19" class="edge">
<title>9&#45;&gt;7</title>
<path fill="none" stroke="#000000" d="M356.2834,-103.7677C388.5742,-87.6656 451.8331,-56.1209 489.2534,-37.4608"/>
<polygon fill="#000000" stroke="#000000" points="491.2386,-40.382 498.6257,-32.7872 488.1148,-34.1177 491.2386,-40.382"/>
<text text-anchor="middle" x="442.5" y="-66.0548" font-family="Times,serif" font-size="9.00" fill="#000000">14.80</text>
</g>
<!-- 23&#45;&gt;2 -->
<g id="edge12" class="edge">
<title>23&#45;&gt;2</title>
<path fill="none" stroke="#c0c0c0" d="M100.4246,-245.8794C106.3402,-199.6619 118.4517,-105.0385 124.8412,-55.119"/>
<polygon fill="#c0c0c0" stroke="#c0c0c0" points="128.3155,-55.5423 126.1135,-45.1788 121.3721,-54.6535 128.3155,-55.5423"/>
<text text-anchor="middle" x="121.5" y="-157.3097" font-family="Times,serif" font-size="9.00" fill="#000000">&#45;1.00</text>
</g>
<!-- 23&#45;&gt;9 -->
<g id="edge15" class="edge">
<title>23&#45;&gt;9</title>
<path fill="none" stroke="#000000" d="M116.9847,-254.5543C120.5767,-251.525 124.3428,-248.4853 128,-245.7645 189.2664,-200.1855 266.2784,-154.0172 307.2512,-130.2634"/>
<polygon fill="#000000" stroke="#000000" points="309.233,-133.1608 316.1454,-125.1314 305.7346,-127.0977 309.233,-133.1608"/>
<text text-anchor="middle" x="229.5" y="-202.9371" font-family="Times,serif" font-size="9.00" fill="#000000">23.80</text>
</g>
<!-- 26&#45;&gt;5 -->
<g id="edge14" class="edge">
<title>26&#45;&gt;5</title>
<path fill="none" stroke="#000000" stroke-dasharray="5,2" d="M208.9313,-321.3616C224.8049,-298.32 251.8538,-259.0569 270.069,-232.6165"/>
<polygon fill="#000000" stroke="#000000" points="273.0878,-234.404 275.8788,-224.1833 267.3233,-230.4327 273.0878,-234.404"/>
<text text-anchor="middle" x="266" y="-270.4346" font-family="Times,serif" font-size="9.00" fill="#000000">2.00</text>
</g>
</g>
</svg>
