<?xml version="1.0" encoding="UTF-8" standalone="no"?>
<!DOCTYPE svg PUBLIC "-//W3C//DTD SVG 1.1//EN"
 "http://www.w3.org/Graphics/SVG/1.1/DTD/svg11.dtd">
<!-- Generated by graphviz version 2.40.1 (20161225.0304)
 -->
<!-- Title: %3 Pages: 1 -->
<svg width="406pt" height="326pt"
 viewBox="0.00 0.00 406.26 325.61" xmlns="http://www.w3.org/2000/svg" xmlns:xlink="http://www.w3.org/1999/xlink">
<g id="graph0" class="graph" transform="scale(1 1) rotate(0) translate(4 321.6051)">
<title>%3</title>
<polygon fill="#ffffff" stroke="transparent" points="-4,4 -4,-321.6051 402.2635,-321.6051 402.2635,4 -4,4"/>
<!-- 1 -->
<g id="node1" class="node">
<title>1</title>
<ellipse fill="none" stroke="#ff0000" cx="274.2635" cy="-301.3417" rx="16.0303" ry="16.0303"/>
<text text-anchor="middle" x="274.2635" y="-298.2417" font-family="Times,serif" font-size="12.00" fill="#000000">1</text>
</g>
<!-- 2 -->
<g id="node2" class="node">
<title>2</title>
<ellipse fill="none" stroke="#ff0000" cx="221.2635" cy="-16.2635" rx="16.0303" ry="16.0303"/>
<text text-anchor="middle" x="221.2635" y="-13.1635" font-family="Times,serif" font-size="12.00" fill="#000000">2</text>
</g>
<!-- 1&#45;&gt;2 -->
<g id="edge1" class="edge">
<title>1&#45;&gt;2</title>
<path fill="none" stroke="#000000" stroke-dasharray="1,5" d="M273.7461,-284.9227C272.2275,-240.959 267.1851,-121.3484 256.2635,-83.5269 251.7234,-67.8048 243.3395,-51.4909 235.9154,-38.8673"/>
<polygon fill="#000000" stroke="#000000" points="238.7027,-36.7159 230.5048,-30.0043 232.728,-40.3632 238.7027,-36.7159"/>
<text text-anchor="middle" x="280.7635" y="-159.3452" font-family="Times,serif" font-size="14.00" fill="#000000">2.00</text>
</g>
<!-- 5 -->
<g id="node5" class="node">
<title>5</title>
<ellipse fill="none" stroke="#000000" cx="320.2635" cy="-163.0452" rx="16.0303" ry="16.0303"/>
<text text-anchor="middle" x="320.2635" y="-159.9452" font-family="Times,serif" font-size="12.00" fill="#000000">5</text>
</g>
<!-- 1&#45;&gt;5 -->
<g id="edge4" class="edge">
<title>1&#45;&gt;5</title>
<path fill="none" stroke="#000000" d="M280.831,-286.104C283.2828,-280.2063 286.0149,-273.3715 288.2635,-267.0782 297.6728,-240.7427 306.8976,-210.0879 313.0066,-188.9094"/>
<polygon fill="#000000" stroke="#000000" points="316.4407,-189.6299 315.8219,-179.0531 309.7099,-187.7072 316.4407,-189.6299"/>
<text text-anchor="middle" x="304.7635" y="-255.8782" font-family="Times,serif" font-size="14.00" fill="#000000">2.00</text>
</g>
<!-- 23 -->
<g id="node8" class="node">
<title>23</title>
<ellipse fill="none" stroke="#000000" cx="228.2635" cy="-163.0452" rx="20.5122" ry="20.5122"/>
<text text-anchor="middle" x="228.2635" y="-159.9452" font-family="Times,serif" font-size="12.00" fill="#000000">23</text>
</g>
<!-- 1&#45;&gt;23 -->
<g id="edge9" class="edge">
<title>1&#45;&gt;23</title>
<path fill="none" stroke="#000000" d="M260.1659,-293.0589C251.3571,-287.0523 240.6894,-278.0691 235.2635,-267.0782 224.0211,-244.3053 222.9988,-215.2476 224.3711,-193.6334"/>
<polygon fill="#000000" stroke="#000000" points="227.8829,-193.6401 225.2341,-183.3818 220.9075,-193.0529 227.8829,-193.6401"/>
<text text-anchor="middle" x="247.7635" y="-255.8782" font-family="Times,serif" font-size="14.00" fill="#000000">1.00</text>
</g>
<!-- 4 -->
<g id="node3" class="node">
<title>4</title>
<ellipse fill="none" stroke="#ff0000" cx="98.2635" cy="-301.3417" rx="16.0303" ry="16.0303"/>
<text text-anchor="middle" x="98.2635" y="-298.2417" font-family="Times,serif" font-size="12.00" fill="#000000">4</text>
</g>
<!-- 4&#45;&gt;2 -->
<g id="edge2" class="edge">
<title>4&#45;&gt;2</title>
<path fill="none" stroke="#000000" stroke-dasharray="1,5" d="M109.8443,-289.7565C115.6618,-283.4572 122.4726,-275.2906 127.2635,-267.0782 156.9963,-216.1112 152.5582,-197.7928 173.2635,-142.5391 186.428,-107.4086 201.8817,-66.8782 211.624,-41.4122"/>
<polygon fill="#000000" stroke="#000000" points="214.998,-42.3881 215.3046,-31.7977 208.4607,-39.8855 214.998,-42.3881"/>
<text text-anchor="middle" x="185.7635" y="-159.3452" font-family="Times,serif" font-size="14.00" fill="#000000">1.00</text>
</g>
<!-- 7 -->
<g id="node6" class="node">
<title>7</title>
<ellipse fill="none" stroke="#ff0000" cx="16.2635" cy="-16.2635" rx="16.0303" ry="16.0303"/>
<text text-anchor="middle" x="16.2635" y="-13.1635" font-family="Times,serif" font-size="12.00" fill="#000000">7</text>
</g>
<!-- 4&#45;&gt;7 -->
<g id="edge6" class="edge">
<title>4&#45;&gt;7</title>
<path fill="none" stroke="#000000" d="M90.1514,-286.9584C78.2592,-265.2418 56.2127,-222.4767 44.2635,-183.5513 29.4344,-135.2446 21.9046,-76.5327 18.5515,-43.0707"/>
<polygon fill="#000000" stroke="#000000" points="22.0004,-42.3662 17.5699,-32.7422 15.0318,-43.0285 22.0004,-42.3662"/>
<text text-anchor="middle" x="56.7635" y="-159.3452" font-family="Times,serif" font-size="14.00" fill="#000000">2.00</text>
</g>
<!-- 9 -->
<g id="node7" class="node">
<title>9</title>
<ellipse fill="none" stroke="#000000" cx="98.2635" cy="-217.8148" rx="16.0303" ry="16.0303"/>
<text text-anchor="middle" x="98.2635" y="-214.7148" font-family="Times,serif" font-size="12.00" fill="#000000">9</text>
</g>
<!-- 4&#45;&gt;9 -->
<g id="edge7" class="edge">
<title>4&#45;&gt;9</title>
<path fill="none" stroke="#000000" d="M98.2635,-284.8394C98.2635,-273.2849 98.2635,-257.5981 98.2635,-244.3053"/>
<polygon fill="#000000" stroke="#000000" points="101.7636,-244.2827 98.2635,-234.2827 94.7636,-244.2827 101.7636,-244.2827"/>
<text text-anchor="middle" x="110.7635" y="-255.8782" font-family="Times,serif" font-size="14.00" fill="#000000">1.00</text>
</g>
<!-- 8 -->
<g id="node4" class="node">
<title>8</title>
<ellipse fill="none" stroke="#ff0000" cx="373.2635" cy="-301.3417" rx="16.0303" ry="16.0303"/>
<text text-anchor="middle" x="373.2635" y="-298.2417" font-family="Times,serif" font-size="12.00" fill="#000000">8</text>
</g>
<!-- 8&#45;&gt;2 -->
<g id="edge3" class="edge">
<title>8&#45;&gt;2</title>
<path fill="none" stroke="#000000" d="M374.929,-285.137C378.0562,-247.3062 381.5393,-151.2472 345.2635,-83.5269 325.6083,-46.8344 277.3954,-29.2148 247.2078,-21.5159"/>
<polygon fill="#000000" stroke="#000000" points="247.8947,-18.0819 237.3582,-19.1914 246.2869,-24.8948 247.8947,-18.0819"/>
<text text-anchor="middle" x="385.7635" y="-159.3452" font-family="Times,serif" font-size="14.00" fill="#000000">1.00</text>
</g>
<!-- 5&#45;&gt;2 -->
<g id="edge5" class="edge">
<title>5&#45;&gt;2</title>
<path fill="none" stroke="#000000" d="M319.6116,-146.6524C317.8594,-122.9278 311.4646,-78.7771 288.2635,-50.5269 277.6545,-37.6093 260.9143,-29.0452 246.8214,-23.7096"/>
<polygon fill="#000000" stroke="#000000" points="247.7478,-20.327 237.153,-20.379 245.4678,-26.9453 247.7478,-20.327"/>
<text text-anchor="middle" x="328.7635" y="-100.333" font-family="Times,serif" font-size="14.00" fill="#000000">2.00</text>
</g>
<!-- 9&#45;&gt;2 -->
<g id="edge8" class="edge">
<title>9&#45;&gt;2</title>
<path fill="none" stroke="#000000" stroke-dasharray="1,5" d="M102.8798,-202.1325C104.5857,-196.3023 106.5261,-189.6285 108.2635,-183.5513 120.9527,-139.1653 115.7425,-124.8794 136.2635,-83.5269 144.4427,-67.0446 147.4381,-62.6689 161.2635,-50.5269 171.896,-41.1889 185.4703,-33.1812 197.0173,-27.2607"/>
<polygon fill="#000000" stroke="#000000" points="198.6911,-30.3382 206.1309,-22.795 195.611,-24.0523 198.6911,-30.3382"/>
<text text-anchor="middle" x="148.7635" y="-100.333" font-family="Times,serif" font-size="14.00" fill="#000000">1.00</text>
</g>
<!-- 26 -->
<g id="node9" class="node">
<title>26</title>
<ellipse fill="none" stroke="#000000" cx="65.2635" cy="-104.033" rx="20.5122" ry="20.5122"/>
<text text-anchor="middle" x="65.2635" y="-100.933" font-family="Times,serif" font-size="12.00" fill="#000000">26</text>
</g>
<!-- 9&#45;&gt;26 -->
<g id="edge11" class="edge">
<title>9&#45;&gt;26</title>
<path fill="none" stroke="#000000" d="M91.0631,-203.0446C88.3544,-197.0884 85.4132,-190.0902 83.2635,-183.5513 78.0343,-167.6456 73.7944,-149.4612 70.7461,-134.5"/>
<polygon fill="#000000" stroke="#000000" points="74.0964,-133.3953 68.74,-124.2542 67.2268,-134.7405 74.0964,-133.3953"/>
<text text-anchor="middle" x="95.7635" y="-159.3452" font-family="Times,serif" font-size="14.00" fill="#000000">1.00</text>
</g>
<!-- 23&#45;&gt;2 -->
<g id="edge10" class="edge">
<title>23&#45;&gt;2</title>
<path fill="none" stroke="#000000" d="M227.2754,-142.3263C226.0322,-116.2593 223.8956,-71.4555 222.5327,-42.8771"/>
<polygon fill="#000000" stroke="#000000" points="226.0242,-42.6133 222.0517,-32.7914 219.0321,-42.9468 226.0242,-42.6133"/>
<text text-anchor="middle" x="239.7635" y="-100.333" font-family="Times,serif" font-size="14.00" fill="#000000">2.00</text>
</g>
<!-- 26&#45;&gt;2 -->
<g id="edge12" class="edge">
<title>26&#45;&gt;2</title>
<path fill="none" stroke="#000000" d="M67.3979,-83.3935C69.6108,-72.1983 74.1123,-58.964 83.2635,-50.5269 99.3822,-35.6659 159.5696,-24.9322 194.9119,-19.7528"/>
<polygon fill="#000000" stroke="#000000" points="195.5948,-23.1911 205.0062,-18.3253 194.6146,-16.2601 195.5948,-23.1911"/>
<text text-anchor="middle" x="95.7635" y="-54.3269" font-family="Times,serif" font-size="14.00" fill="#000000">0.66</text>
</g>
</g>
</svg>
