<?xml version="1.0" encoding="UTF-8" standalone="no"?>
<!DOCTYPE svg PUBLIC "-//W3C//DTD SVG 1.1//EN"
 "http://www.w3.org/Graphics/SVG/1.1/DTD/svg11.dtd">
<!-- Generated by graphviz version 2.40.1 (20161225.0304)
 -->
<!-- Title: %3 Pages: 1 -->
<svg width="519pt" height="413pt"
 viewBox="0.00 0.00 519.00 412.61" xmlns="http://www.w3.org/2000/svg" xmlns:xlink="http://www.w3.org/1999/xlink">
<g id="graph0" class="graph" transform="scale(1 1) rotate(0) translate(4 408.6051)">
<title>%3</title>
<polygon fill="#ffffff" stroke="transparent" points="-4,4 -4,-408.6051 515,-408.6051 515,4 -4,4"/>
<!-- 1 -->
<g id="node1" class="node">
<title>1</title>
<ellipse fill="none" stroke="#ff0000" cx="98" cy="-388.3417" rx="16.0303" ry="16.0303"/>
<text text-anchor="middle" x="98" y="-385.2417" font-family="Times,serif" font-size="12.00" fill="#000000">1</text>
</g>
<!-- 2 -->
<g id="node2" class="node">
<title>2</title>
<ellipse fill="none" stroke="#ff0000" cx="91" cy="-16.2635" rx="16.0303" ry="16.0303"/>
<text text-anchor="middle" x="91" y="-13.1635" font-family="Times,serif" font-size="12.00" fill="#000000">2</text>
</g>
<!-- 1&#45;&gt;2 -->
<g id="edge1" class="edge">
<title>1&#45;&gt;2</title>
<path fill="none" stroke="#000000" stroke-dasharray="1,5" d="M82.6875,-382.85C55.125,-371.8688 0,-344.4248 0,-300.5721 0,-300.5721 0,-300.5721 0,-104.033 0,-67.0856 39.3437,-40.7794 66.2916,-27.0947"/>
<polygon fill="#000000" stroke="#000000" points="68.0734,-30.1213 75.5631,-22.6277 65.035,-23.8151 68.0734,-30.1213"/>
<text text-anchor="middle" x="12.5" y="-188.1026" font-family="Times,serif" font-size="14.00" fill="#000000">2.00</text>
</g>
<!-- 5 -->
<g id="node5" class="node">
<title>5</title>
<ellipse fill="none" stroke="#000000" cx="54" cy="-244.066" rx="27" ry="18"/>
<text text-anchor="middle" x="54" y="-240.366" font-family="Times,serif" font-size="14.00" fill="#000000">5</text>
</g>
<!-- 1&#45;&gt;5 -->
<g id="edge4" class="edge">
<title>1&#45;&gt;5</title>
<path fill="none" stroke="#ff0000" stroke-dasharray="1,5" d="M83.1212,-381.0114C73.1665,-375.2118 60.8553,-366.0908 55,-354.0782 42.4449,-328.3205 44.2617,-294.9708 47.9174,-271.7734"/>
<polygon fill="#ff0000" stroke="#ff0000" points="51.3693,-272.3528 49.6815,-261.8932 44.4783,-271.1223 51.3693,-272.3528"/>
<text text-anchor="middle" x="69.5" y="-342.8782" font-family="Times,serif" font-size="14.00" fill="#000000">&#45;1.04</text>
</g>
<!-- 7 -->
<g id="node6" class="node">
<title>7</title>
<ellipse fill="none" stroke="#ff0000" cx="295" cy="-16.2635" rx="16.0303" ry="16.0303"/>
<text text-anchor="middle" x="295" y="-13.1635" font-family="Times,serif" font-size="12.00" fill="#000000">7</text>
</g>
<!-- 1&#45;&gt;7 -->
<g id="edge17" class="edge">
<title>1&#45;&gt;7</title>
<path fill="none" stroke="#000000" d="M95.0599,-372.1131C87.039,-322.3929 69.9806,-170.2956 143,-83.5269 175.3587,-45.0752 234.0345,-27.811 268.2462,-20.7023"/>
<polygon fill="#000000" stroke="#000000" points="269.2742,-24.0685 278.4299,-18.7371 267.9478,-17.1953 269.2742,-24.0685"/>
<text text-anchor="middle" x="113.5" y="-188.1026" font-family="Times,serif" font-size="14.00" fill="#000000">17.80</text>
</g>
<!-- 9 -->
<g id="node7" class="node">
<title>9</title>
<ellipse fill="none" stroke="#000000" cx="225" cy="-191.8026" rx="16.0303" ry="16.0303"/>
<text text-anchor="middle" x="225" y="-188.7026" font-family="Times,serif" font-size="12.00" fill="#000000">9</text>
</g>
<!-- 1&#45;&gt;9 -->
<g id="edge7" class="edge">
<title>1&#45;&gt;9</title>
<path fill="none" stroke="#000000" stroke-dasharray="1,5" d="M106.9304,-374.5214C128.6091,-340.9725 184.1737,-254.9834 210.6087,-214.0738"/>
<polygon fill="#000000" stroke="#000000" points="213.5918,-215.9062 216.0795,-205.6075 207.7124,-212.107 213.5918,-215.9062"/>
<text text-anchor="middle" x="179.5" y="-296.8721" font-family="Times,serif" font-size="14.00" fill="#000000">1.00</text>
</g>
<!-- 26 -->
<g id="node9" class="node">
<title>26</title>
<ellipse fill="none" stroke="#000000" cx="246" cy="-300.5721" rx="20.5122" ry="20.5122"/>
<text text-anchor="middle" x="246" y="-297.4721" font-family="Times,serif" font-size="12.00" fill="#000000">26</text>
</g>
<!-- 1&#45;&gt;26 -->
<g id="edge11" class="edge">
<title>1&#45;&gt;26</title>
<path fill="none" stroke="#000000" d="M112.1909,-379.926C136.8187,-365.3207 187.8448,-335.0604 219.282,-316.4169"/>
<polygon fill="#000000" stroke="#000000" points="221.1589,-319.373 227.9749,-311.2617 217.5883,-313.3522 221.1589,-319.373"/>
<text text-anchor="middle" x="192.5" y="-342.8782" font-family="Times,serif" font-size="14.00" fill="#000000">1.00</text>
</g>
<!-- 4 -->
<g id="node3" class="node">
<title>4</title>
<ellipse fill="none" stroke="#ff0000" cx="440" cy="-388.3417" rx="16.0303" ry="16.0303"/>
<text text-anchor="middle" x="440" y="-385.2417" font-family="Times,serif" font-size="12.00" fill="#000000">4</text>
</g>
<!-- 4&#45;&gt;2 -->
<g id="edge2" class="edge">
<title>4&#45;&gt;2</title>
<path fill="none" stroke="#000000" d="M438.7012,-371.8002C433.8646,-314.4524 415.0264,-125.387 374,-83.5269 338.0786,-46.8755 180.8192,-26.0241 117.5271,-18.9864"/>
<polygon fill="#000000" stroke="#000000" points="117.8465,-15.5006 107.5277,-17.9033 117.0926,-22.4599 117.8465,-15.5006"/>
<text text-anchor="middle" x="429.5" y="-188.1026" font-family="Times,serif" font-size="14.00" fill="#000000">1.06</text>
</g>
<!-- 4&#45;&gt;7 -->
<g id="edge6" class="edge">
<title>4&#45;&gt;7</title>
<path fill="none" stroke="#000000" stroke-dasharray="1,5" d="M451.1353,-376.3089C464.7491,-360.2962 486,-330.5066 486,-300.5721 486,-300.5721 486,-300.5721 486,-104.033 486,-68.0995 372.9713,-35.5113 320.8126,-22.386"/>
<polygon fill="#000000" stroke="#000000" points="321.5032,-18.9515 310.956,-19.9557 319.8273,-25.748 321.5032,-18.9515"/>
<text text-anchor="middle" x="498.5" y="-188.1026" font-family="Times,serif" font-size="14.00" fill="#000000">2.00</text>
</g>
<!-- 23 -->
<g id="node8" class="node">
<title>23</title>
<ellipse fill="none" stroke="#000000" cx="344" cy="-104.033" rx="20.5122" ry="20.5122"/>
<text text-anchor="middle" x="344" y="-100.933" font-family="Times,serif" font-size="12.00" fill="#000000">23</text>
</g>
<!-- 4&#45;&gt;23 -->
<g id="edge9" class="edge">
<title>4&#45;&gt;23</title>
<path fill="none" stroke="#000000" d="M441.6823,-372.1346C444.7973,-335.1698 448.4626,-242.6435 416,-175.5391 405.4817,-153.7963 385.5787,-134.8332 369.36,-121.9086"/>
<polygon fill="#000000" stroke="#000000" points="371.3495,-119.0237 361.2836,-115.7176 367.0908,-124.5792 371.3495,-119.0237"/>
<text text-anchor="middle" x="451.5" y="-240.366" font-family="Times,serif" font-size="14.00" fill="#000000">1.00</text>
</g>
<!-- 8 -->
<g id="node4" class="node">
<title>8</title>
<ellipse fill="none" stroke="#ff0000" cx="246" cy="-388.3417" rx="16.0303" ry="16.0303"/>
<text text-anchor="middle" x="246" y="-385.2417" font-family="Times,serif" font-size="12.00" fill="#000000">8</text>
</g>
<!-- 8&#45;&gt;2 -->
<g id="edge3" class="edge">
<title>8&#45;&gt;2</title>
<path fill="none" stroke="#000000" d="M239.197,-373.438C233.0297,-359.8454 223.7469,-339.1815 216,-321.0782 171.6989,-217.554 121.6083,-92.9832 100.8338,-40.9643"/>
<polygon fill="#000000" stroke="#000000" points="104.0366,-39.5468 97.0802,-31.5556 97.535,-42.1407 104.0366,-39.5468"/>
<text text-anchor="middle" x="180.5" y="-188.1026" font-family="Times,serif" font-size="14.00" fill="#000000">1.00</text>
</g>
<!-- 8&#45;&gt;23 -->
<g id="edge14" class="edge">
<title>8&#45;&gt;23</title>
<path fill="none" stroke="#000000" d="M259.0882,-378.5776C266.5541,-372.3495 275.4936,-363.6636 281,-354.0782 322.2382,-282.2915 336.7726,-183.7364 341.6643,-134.5483"/>
<polygon fill="#000000" stroke="#000000" points="345.1533,-134.8288 342.5921,-124.5482 338.1832,-134.182 345.1533,-134.8288"/>
<text text-anchor="middle" x="341.5" y="-240.366" font-family="Times,serif" font-size="14.00" fill="#000000">21.80</text>
</g>
<!-- 8&#45;&gt;26 -->
<g id="edge16" class="edge">
<title>8&#45;&gt;26</title>
<path fill="none" stroke="#000000" d="M246,-371.8329C246,-360.5482 246,-345.2424 246,-331.7082"/>
<polygon fill="#000000" stroke="#000000" points="249.5001,-331.3444 246,-321.3445 242.5001,-331.3445 249.5001,-331.3444"/>
<text text-anchor="middle" x="261.5" y="-342.8782" font-family="Times,serif" font-size="14.00" fill="#000000">18.80</text>
</g>
<!-- 5&#45;&gt;2 -->
<g id="edge5" class="edge">
<title>5&#45;&gt;2</title>
<path fill="none" stroke="#000000" stroke-dasharray="1,5" d="M54.1062,-226.0266C54.4073,-205.6752 55.4582,-171.6192 59,-142.5391 64.0379,-101.1753 65.0629,-90.45 77,-50.5269 77.9572,-47.3255 79.1032,-44.0109 80.3218,-40.7613"/>
<polygon fill="#000000" stroke="#000000" points="83.6081,-41.9696 84.0791,-31.3852 77.1104,-39.3657 83.6081,-41.9696"/>
<text text-anchor="middle" x="71.5" y="-146.3391" font-family="Times,serif" font-size="14.00" fill="#000000">2.00</text>
</g>
<!-- 9&#45;&gt;2 -->
<g id="edge8" class="edge">
<title>9&#45;&gt;2</title>
<path fill="none" stroke="#000000" d="M214.9282,-178.6086C191.9381,-148.4917 135.4213,-74.4551 107.3576,-37.6918"/>
<polygon fill="#000000" stroke="#000000" points="110.0385,-35.4355 101.1887,-29.6105 104.4744,-39.683 110.0385,-35.4355"/>
<text text-anchor="middle" x="185.5" y="-100.333" font-family="Times,serif" font-size="14.00" fill="#000000">2.00</text>
</g>
<!-- 9&#45;&gt;7 -->
<g id="edge15" class="edge">
<title>9&#45;&gt;7</title>
<path fill="none" stroke="#000000" d="M224.7946,-175.2179C224.9762,-165.5844 225.7262,-153.2685 228,-142.5391 233.803,-115.1563 237.2426,-108.4416 250,-83.5269 258.2726,-67.3708 269.6555,-50.3914 278.903,-37.5339"/>
<polygon fill="#000000" stroke="#000000" points="281.8111,-39.4867 284.8993,-29.3519 276.165,-35.3488 281.8111,-39.4867"/>
<text text-anchor="middle" x="265.5" y="-100.333" font-family="Times,serif" font-size="14.00" fill="#000000">20.80</text>
</g>
<!-- 9&#45;&gt;23 -->
<g id="edge13" class="edge">
<title>9&#45;&gt;23</title>
<path fill="none" stroke="#000000" d="M227.0516,-175.2941C229.163,-164.7157 233.4249,-151.3637 242,-142.5391 252.3059,-131.9333 288.0325,-119.9286 314.3075,-112.1841"/>
<polygon fill="#000000" stroke="#000000" points="315.5487,-115.469 324.1898,-109.3384 313.6117,-108.7423 315.5487,-115.469"/>
<text text-anchor="middle" x="257.5" y="-146.3391" font-family="Times,serif" font-size="14.00" fill="#000000">22.80</text>
</g>
<!-- 23&#45;&gt;7 -->
<g id="edge10" class="edge">
<title>23&#45;&gt;7</title>
<path fill="none" stroke="#000000" d="M333.8472,-85.8471C326.3508,-72.4195 316.0875,-54.0357 307.9927,-39.5363"/>
<polygon fill="#000000" stroke="#000000" points="310.968,-37.6854 303.0373,-30.6601 304.856,-41.0977 310.968,-37.6854"/>
<text text-anchor="middle" x="334.5" y="-54.3269" font-family="Times,serif" font-size="14.00" fill="#000000">2.00</text>
</g>
<!-- 26&#45;&gt;7 -->
<g id="edge18" class="edge">
<title>26&#45;&gt;7</title>
<path fill="none" stroke="#000000" d="M256.9723,-282.7382C260.3914,-276.4193 263.8308,-269.1225 266,-262.066 289.679,-185.0387 294.2281,-88.9557 294.9677,-43.0732"/>
<polygon fill="#000000" stroke="#000000" points="298.4706,-42.8247 295.0815,-32.7865 291.471,-42.7471 298.4706,-42.8247"/>
<text text-anchor="middle" x="303.5" y="-146.3391" font-family="Times,serif" font-size="14.00" fill="#000000">15.80</text>
</g>
<!-- 26&#45;&gt;9 -->
<g id="edge12" class="edge">
<title>26&#45;&gt;9</title>
<path fill="none" stroke="#000000" d="M242.0993,-280.3683C238.6965,-262.7438 233.7388,-237.0652 230.0368,-217.8909"/>
<polygon fill="#000000" stroke="#000000" points="233.4596,-217.1553 228.1273,-208.0002 226.5865,-218.4824 233.4596,-217.1553"/>
<text text-anchor="middle" x="249.5" y="-240.366" font-family="Times,serif" font-size="14.00" fill="#000000">1.00</text>
</g>
</g>
</svg>
