<?xml version="1.0" encoding="UTF-8" standalone="no"?>
<!DOCTYPE svg PUBLIC "-//W3C//DTD SVG 1.1//EN"
 "http://www.w3.org/Graphics/SVG/1.1/DTD/svg11.dtd">
<!-- Generated by graphviz version 2.40.1 (20161225.0304)
 -->
<!-- Title: %3 Pages: 1 -->
<svg width="458pt" height="216pt"
 viewBox="0.00 0.00 458.01 216.07" xmlns="http://www.w3.org/2000/svg" xmlns:xlink="http://www.w3.org/1999/xlink">
<g id="graph0" class="graph" transform="scale(1 1) rotate(0) translate(4 212.066)">
<title>%3</title>
<polygon fill="#ffffff" stroke="transparent" points="-4,4 -4,-212.066 454.0122,-212.066 454.0122,4 -4,4"/>
<!-- 1 -->
<g id="node1" class="node">
<title>1</title>
<ellipse fill="none" stroke="#ff0000" cx="77.5061" cy="-191.8026" rx="16.0303" ry="16.0303"/>
<text text-anchor="middle" x="77.5061" y="-188.7026" font-family="Times,serif" font-size="12.00" fill="#000000">1</text>
</g>
<!-- 2 -->
<g id="node2" class="node">
<title>2</title>
<ellipse fill="none" stroke="#ff0000" cx="191.5061" cy="-16.2635" rx="16.0303" ry="16.0303"/>
<text text-anchor="middle" x="191.5061" y="-13.1635" font-family="Times,serif" font-size="12.00" fill="#000000">2</text>
</g>
<!-- 1&#45;&gt;2 -->
<g id="edge1" class="edge">
<title>1&#45;&gt;2</title>
<path fill="none" stroke="#ff0000" stroke-dasharray="1,5" d="M74.6799,-175.7834C71.6007,-153.4016 69.1863,-112.2905 86.5061,-83.5269 104.4677,-53.6973 141.3068,-34.7991 166.2126,-24.8711"/>
<polygon fill="#ff0000" stroke="#ff0000" points="167.6265,-28.0785 175.7468,-21.2733 165.155,-21.5293 167.6265,-28.0785"/>
<text text-anchor="middle" x="101.0061" y="-100.333" font-family="Times,serif" font-size="14.00" fill="#000000">&#45;1.79</text>
</g>
<!-- 5 -->
<g id="node5" class="node">
<title>5</title>
<ellipse fill="none" stroke="#000000" cx="140.5061" cy="-104.033" rx="16.0303" ry="16.0303"/>
<text text-anchor="middle" x="140.5061" y="-100.933" font-family="Times,serif" font-size="12.00" fill="#000000">5</text>
</g>
<!-- 1&#45;&gt;5 -->
<g id="edge4" class="edge">
<title>1&#45;&gt;5</title>
<path fill="none" stroke="#000000" d="M87.0744,-178.4723C97.0654,-164.5531 112.9,-142.4929 124.742,-125.995"/>
<polygon fill="#000000" stroke="#000000" points="127.8598,-127.6536 130.8477,-117.4888 122.1731,-123.5717 127.8598,-127.6536"/>
<text text-anchor="middle" x="125.0061" y="-146.3391" font-family="Times,serif" font-size="14.00" fill="#000000">2.00</text>
</g>
<!-- 26 -->
<g id="node9" class="node">
<title>26</title>
<ellipse fill="none" stroke="#000000" cx="20.5061" cy="-104.033" rx="20.5122" ry="20.5122"/>
<text text-anchor="middle" x="20.5061" y="-100.933" font-family="Times,serif" font-size="12.00" fill="#000000">26</text>
</g>
<!-- 1&#45;&gt;26 -->
<g id="edge11" class="edge">
<title>1&#45;&gt;26</title>
<path fill="none" stroke="#000000" d="M63.9353,-182.7246C55.5694,-176.5094 45.1975,-167.5929 38.5061,-157.5391 33.8098,-150.4829 30.2322,-142.0877 27.5536,-134.0635"/>
<polygon fill="#000000" stroke="#000000" points="30.8329,-132.8121 24.6247,-124.2267 24.1239,-134.8097 30.8329,-132.8121"/>
<text text-anchor="middle" x="51.0061" y="-146.3391" font-family="Times,serif" font-size="14.00" fill="#000000">1.00</text>
</g>
<!-- 4 -->
<g id="node3" class="node">
<title>4</title>
<ellipse fill="none" stroke="#ff0000" cx="243.5061" cy="-191.8026" rx="16.0303" ry="16.0303"/>
<text text-anchor="middle" x="243.5061" y="-188.7026" font-family="Times,serif" font-size="12.00" fill="#000000">4</text>
</g>
<!-- 4&#45;&gt;2 -->
<g id="edge2" class="edge">
<title>4&#45;&gt;2</title>
<path fill="none" stroke="#000000" stroke-dasharray="1,5" d="M243.6273,-175.306C243.2283,-148.0614 239.8535,-92.5036 220.5061,-50.5269 218.0187,-45.1303 214.4404,-39.9087 210.6415,-35.2367"/>
<polygon fill="#000000" stroke="#000000" points="213.0178,-32.6423 203.7537,-27.5016 207.79,-37.2974 213.0178,-32.6423"/>
<text text-anchor="middle" x="252.0061" y="-100.333" font-family="Times,serif" font-size="14.00" fill="#000000">1.00</text>
</g>
<!-- 7 -->
<g id="node6" class="node">
<title>7</title>
<ellipse fill="none" stroke="#ff0000" cx="365.5061" cy="-16.2635" rx="16.0303" ry="16.0303"/>
<text text-anchor="middle" x="365.5061" y="-13.1635" font-family="Times,serif" font-size="12.00" fill="#000000">7</text>
</g>
<!-- 4&#45;&gt;7 -->
<g id="edge6" class="edge">
<title>4&#45;&gt;7</title>
<path fill="none" stroke="#000000" d="M258.2925,-184.6347C278.3067,-174.1825 313.7786,-152.875 333.5061,-124.5391 350.6194,-99.9581 358.704,-66.1462 362.4411,-42.8801"/>
<polygon fill="#000000" stroke="#000000" points="365.9462,-43.0951 363.9082,-32.6982 359.0178,-42.0968 365.9462,-43.0951"/>
<text text-anchor="middle" x="365.0061" y="-100.333" font-family="Times,serif" font-size="14.00" fill="#000000">2.00</text>
</g>
<!-- 9 -->
<g id="node7" class="node">
<title>9</title>
<ellipse fill="none" stroke="#000000" cx="191.5061" cy="-104.033" rx="16.0303" ry="16.0303"/>
<text text-anchor="middle" x="191.5061" y="-100.933" font-family="Times,serif" font-size="12.00" fill="#000000">9</text>
</g>
<!-- 4&#45;&gt;9 -->
<g id="edge7" class="edge">
<title>4&#45;&gt;9</title>
<path fill="none" stroke="#000000" d="M229.636,-182.9146C221.1507,-176.7752 210.7583,-167.8718 204.5061,-157.5391 199.5974,-149.4268 196.541,-139.5685 194.6383,-130.5349"/>
<polygon fill="#000000" stroke="#000000" points="198.0491,-129.7187 192.8929,-120.4633 191.1519,-130.9141 198.0491,-129.7187"/>
<text text-anchor="middle" x="217.0061" y="-146.3391" font-family="Times,serif" font-size="14.00" fill="#000000">1.00</text>
</g>
<!-- 8 -->
<g id="node4" class="node">
<title>8</title>
<ellipse fill="none" stroke="#ff0000" cx="358.5061" cy="-191.8026" rx="16.0303" ry="16.0303"/>
<text text-anchor="middle" x="358.5061" y="-188.7026" font-family="Times,serif" font-size="12.00" fill="#000000">8</text>
</g>
<!-- 8&#45;&gt;2 -->
<g id="edge3" class="edge">
<title>8&#45;&gt;2</title>
<path fill="none" stroke="#000000" stroke-dasharray="1,5" d="M348.2847,-178.8668C331.9046,-158.2852 298.5582,-116.9898 268.5061,-83.5269 254.8554,-68.3269 251.7874,-64.0865 236.5061,-50.5269 229.221,-44.0626 220.8258,-37.4639 213.2744,-31.8054"/>
<polygon fill="#000000" stroke="#000000" points="215.0444,-28.7626 204.9143,-25.6591 210.898,-34.4025 215.0444,-28.7626"/>
<text text-anchor="middle" x="316.0061" y="-100.333" font-family="Times,serif" font-size="14.00" fill="#000000">1.00</text>
</g>
<!-- 23 -->
<g id="node8" class="node">
<title>23</title>
<ellipse fill="none" stroke="#000000" cx="429.5061" cy="-104.033" rx="20.5122" ry="20.5122"/>
<text text-anchor="middle" x="429.5061" y="-100.933" font-family="Times,serif" font-size="12.00" fill="#000000">23</text>
</g>
<!-- 8&#45;&gt;23 -->
<g id="edge9" class="edge">
<title>8&#45;&gt;23</title>
<path fill="none" stroke="#000000" d="M368.9824,-178.8519C379.7566,-165.5329 396.7876,-144.4793 410.0424,-128.0938"/>
<polygon fill="#000000" stroke="#000000" points="413.0084,-129.9924 416.5765,-120.0165 407.5661,-125.59 413.0084,-129.9924"/>
<text text-anchor="middle" x="410.0061" y="-146.3391" font-family="Times,serif" font-size="14.00" fill="#000000">1.00</text>
</g>
<!-- 5&#45;&gt;2 -->
<g id="edge5" class="edge">
<title>5&#45;&gt;2</title>
<path fill="none" stroke="#000000" d="M145.4644,-88.432C149.3067,-77.4179 155.2015,-62.5421 162.5061,-50.5269 165.593,-45.4493 169.4138,-40.3568 173.2574,-35.7086"/>
<polygon fill="#000000" stroke="#000000" points="176.1135,-37.7588 180.047,-27.9212 170.8372,-33.1586 176.1135,-37.7588"/>
<text text-anchor="middle" x="175.0061" y="-54.3269" font-family="Times,serif" font-size="14.00" fill="#000000">2.00</text>
</g>
<!-- 9&#45;&gt;2 -->
<g id="edge8" class="edge">
<title>9&#45;&gt;2</title>
<path fill="none" stroke="#000000" d="M191.5061,-87.5242C191.5061,-75.0198 191.5061,-57.5781 191.5061,-43.0804"/>
<polygon fill="#000000" stroke="#000000" points="195.0062,-42.6982 191.5061,-32.6982 188.0062,-42.6982 195.0062,-42.6982"/>
<text text-anchor="middle" x="204.0061" y="-54.3269" font-family="Times,serif" font-size="14.00" fill="#000000">1.00</text>
</g>
<!-- 23&#45;&gt;2 -->
<g id="edge10" class="edge">
<title>23&#45;&gt;2</title>
<path fill="none" stroke="#000000" d="M411.9307,-93.1799C406.4283,-89.9335 400.2832,-86.4601 394.5061,-83.5269 361.6713,-66.8557 353.2644,-62.6887 318.5061,-50.5269 284.2151,-38.5287 243.5002,-28.2111 217.5868,-22.1187"/>
<polygon fill="#000000" stroke="#000000" points="218.3061,-18.6927 207.7744,-19.8478 216.7277,-25.5125 218.3061,-18.6927"/>
<text text-anchor="middle" x="369.0061" y="-54.3269" font-family="Times,serif" font-size="14.00" fill="#000000">1.00</text>
</g>
<!-- 26&#45;&gt;2 -->
<g id="edge12" class="edge">
<title>26&#45;&gt;2</title>
<path fill="none" stroke="#000000" d="M22.5156,-83.5774C24.6855,-72.3001 29.1855,-58.9236 38.5061,-50.5269 56.8997,-33.9567 126.3993,-23.6356 165.0928,-19.0489"/>
<polygon fill="#000000" stroke="#000000" points="165.5816,-22.5159 175.1214,-17.9068 164.7895,-15.5609 165.5816,-22.5159"/>
<text text-anchor="middle" x="51.0061" y="-54.3269" font-family="Times,serif" font-size="14.00" fill="#000000">2.00</text>
</g>
</g>
</svg>
