<?xml version="1.0" encoding="UTF-8" standalone="no"?>
<!DOCTYPE svg PUBLIC "-//W3C//DTD SVG 1.1//EN"
 "http://www.w3.org/Graphics/SVG/1.1/DTD/svg11.dtd">
<!-- Generated by graphviz version 2.40.1 (20161225.0304)
 -->
<!-- Title: %3 Pages: 1 -->
<svg width="479pt" height="337pt"
 viewBox="0.00 0.00 478.59 337.02" xmlns="http://www.w3.org/2000/svg" xmlns:xlink="http://www.w3.org/1999/xlink">
<g id="graph0" class="graph" transform="scale(1 1) rotate(0) translate(4 333.0193)">
<title>%3</title>
<polygon fill="#ffffff" stroke="transparent" points="-4,4 -4,-333.0193 474.587,-333.0193 474.587,4 -4,4"/>
<!-- 1 -->
<g id="node1" class="node">
<title>1</title>
<ellipse fill="none" stroke="#ff0000" cx="162.587" cy="-296.3919" rx="22.7556" ry="22.7556"/>
<text text-anchor="middle" x="162.587" y="-299.1919" font-family="Times,serif" font-size="9.00" fill="#000000">sum</text>
<text text-anchor="middle" x="162.587" y="-289.1919" font-family="Times,serif" font-size="9.00" fill="#000000">id</text>
<text text-anchor="middle" x="137.4596" y="-321.8193" font-family="Times,serif" font-size="9.00" fill="#000000">1</text>
</g>
<!-- 2 -->
<g id="node2" class="node">
<title>2</title>
<ellipse fill="none" stroke="#ff0000" cx="143.587" cy="-22.6274" rx="22.7556" ry="22.7556"/>
<text text-anchor="middle" x="143.587" y="-25.4274" font-family="Times,serif" font-size="9.00" fill="#000000">sum</text>
<text text-anchor="middle" x="143.587" y="-15.4274" font-family="Times,serif" font-size="9.00" fill="#000000">sig</text>
<text text-anchor="middle" x="118.4596" y="-48.0548" font-family="Times,serif" font-size="9.00" fill="#000000">2</text>
</g>
<!-- 1&#45;&gt;2 -->
<g id="edge1" class="edge">
<title>1&#45;&gt;2</title>
<path fill="none" stroke="#c0c0c0" d="M150.8093,-276.7113C136.5762,-251.6727 113.4359,-206.6115 104.587,-164.5097 96.2312,-124.7542 113.3054,-79.6415 127.4403,-51.1677"/>
<polygon fill="#c0c0c0" stroke="#c0c0c0" points="130.6024,-52.6723 132.0803,-42.181 124.3825,-49.4609 130.6024,-52.6723"/>
<text text-anchor="middle" x="114.087" y="-157.3097" font-family="Times,serif" font-size="9.00" fill="#000000">&#45;2.00</text>
</g>
<!-- 5 -->
<g id="node5" class="node">
<title>5</title>
<ellipse fill="none" stroke="#000000" stroke-dasharray="5,2" cx="232.587" cy="-113.8823" rx="22.7556" ry="22.7556"/>
<text text-anchor="middle" x="232.587" y="-116.6823" font-family="Times,serif" font-size="9.00" fill="#000000">sum</text>
<text text-anchor="middle" x="232.587" y="-106.6823" font-family="Times,serif" font-size="9.00" fill="#000000">id</text>
<text text-anchor="middle" x="207.4596" y="-139.3097" font-family="Times,serif" font-size="9.00" fill="#000000">5</text>
</g>
<!-- 1&#45;&gt;5 -->
<g id="edge4" class="edge">
<title>1&#45;&gt;5</title>
<path fill="none" stroke="#000000" stroke-dasharray="5,2" d="M170.7539,-275.0985C183.083,-242.9531 206.5141,-181.8616 220.7252,-144.8092"/>
<polygon fill="#000000" stroke="#000000" points="224.1589,-145.6302 224.4721,-135.04 217.6231,-143.1234 224.1589,-145.6302"/>
<text text-anchor="middle" x="214.587" y="-202.9371" font-family="Times,serif" font-size="9.00" fill="#000000">2.00</text>
</g>
<!-- 9 -->
<g id="node7" class="node">
<title>9</title>
<ellipse fill="none" stroke="#000000" cx="313.587" cy="-205.1371" rx="22.7556" ry="22.7556"/>
<text text-anchor="middle" x="313.587" y="-207.9371" font-family="Times,serif" font-size="9.00" fill="#000000">sum</text>
<text text-anchor="middle" x="313.587" y="-197.9371" font-family="Times,serif" font-size="9.00" fill="#000000">log</text>
<text text-anchor="middle" x="288.4596" y="-230.5645" font-family="Times,serif" font-size="9.00" fill="#000000">9</text>
</g>
<!-- 1&#45;&gt;9 -->
<g id="edge19" class="edge">
<title>1&#45;&gt;9</title>
<path fill="none" stroke="#000000" d="M182.3831,-284.5318C205.1409,-270.884 243.6046,-247.777 276.587,-227.7645 279.4194,-226.0459 282.3712,-224.2496 285.3176,-222.4532"/>
<polygon fill="#000000" stroke="#000000" points="287.3063,-225.3398 294.0163,-217.1406 283.6578,-219.3658 287.3063,-225.3398"/>
<text text-anchor="middle" x="255.087" y="-248.5645" font-family="Times,serif" font-size="9.00" fill="#000000">14.80</text>
</g>
<!-- 4 -->
<g id="node3" class="node">
<title>4</title>
<ellipse fill="none" stroke="#ff0000" cx="349.587" cy="-296.3919" rx="22.7556" ry="22.7556"/>
<text text-anchor="middle" x="349.587" y="-299.1919" font-family="Times,serif" font-size="9.00" fill="#000000">sum</text>
<text text-anchor="middle" x="349.587" y="-289.1919" font-family="Times,serif" font-size="9.00" fill="#000000">id</text>
<text text-anchor="middle" x="324.4596" y="-321.8193" font-family="Times,serif" font-size="9.00" fill="#000000">4</text>
</g>
<!-- 4&#45;&gt;2 -->
<g id="edge2" class="edge">
<title>4&#45;&gt;2</title>
<path fill="none" stroke="#c0c0c0" stroke-dasharray="5,2" d="M326.8096,-294.4104C289.9663,-289.8505 218.1444,-275.0477 185.587,-227.7645 149.5708,-175.4582 143.1514,-99.0128 142.7068,-55.7312"/>
<polygon fill="#c0c0c0" stroke="#c0c0c0" points="146.2067,-55.4773 142.7081,-45.4768 139.2067,-55.4763 146.2067,-55.4773"/>
<text text-anchor="middle" x="167.087" y="-157.3097" font-family="Times,serif" font-size="9.00" fill="#000000">&#45;1.00</text>
</g>
<!-- 4&#45;&gt;5 -->
<g id="edge8" class="edge">
<title>4&#45;&gt;5</title>
<path fill="none" stroke="#000000" stroke-dasharray="5,2" d="M329.6562,-285.0596C310.4998,-273.1691 282.0939,-252.7456 265.587,-227.7645 249.3751,-203.2299 240.9805,-170.6136 236.7269,-146.5759"/>
<polygon fill="#000000" stroke="#000000" points="240.1525,-145.8339 235.0988,-136.5221 233.2425,-146.953 240.1525,-145.8339"/>
<text text-anchor="middle" x="273.587" y="-202.9371" font-family="Times,serif" font-size="9.00" fill="#000000">2.00</text>
</g>
<!-- 7 -->
<g id="node6" class="node">
<title>7</title>
<ellipse fill="none" stroke="#ff0000" cx="340.587" cy="-22.6274" rx="22.7556" ry="22.7556"/>
<text text-anchor="middle" x="340.587" y="-25.4274" font-family="Times,serif" font-size="9.00" fill="#000000">sum</text>
<text text-anchor="middle" x="340.587" y="-15.4274" font-family="Times,serif" font-size="9.00" fill="#000000">sig</text>
<text text-anchor="middle" x="315.4596" y="-48.0548" font-family="Times,serif" font-size="9.00" fill="#000000">7</text>
</g>
<!-- 4&#45;&gt;7 -->
<g id="edge6" class="edge">
<title>4&#45;&gt;7</title>
<path fill="none" stroke="#000000" d="M371.6587,-290.128C398.4506,-281.2022 442.4208,-261.9865 461.587,-227.7645 471.4151,-210.216 467.2741,-201.8022 461.587,-182.5097 444.6908,-125.1926 396.0483,-72.8547 365.8314,-44.5901"/>
<polygon fill="#000000" stroke="#000000" points="367.9449,-41.7795 358.2079,-37.6031 363.2153,-46.94 367.9449,-41.7795"/>
<text text-anchor="middle" x="462.587" y="-157.3097" font-family="Times,serif" font-size="9.00" fill="#000000">2.00</text>
</g>
<!-- 4&#45;&gt;9 -->
<g id="edge9" class="edge">
<title>4&#45;&gt;9</title>
<path fill="none" stroke="#000000" d="M341.2374,-275.2269C336.6028,-263.479 330.7565,-248.6593 325.6347,-235.6763"/>
<polygon fill="#000000" stroke="#000000" points="328.8169,-234.2052 321.8913,-226.1874 322.3053,-236.7741 328.8169,-234.2052"/>
<text text-anchor="middle" x="340.587" y="-248.5645" font-family="Times,serif" font-size="9.00" fill="#000000">1.00</text>
</g>
<!-- 23 -->
<g id="node8" class="node">
<title>23</title>
<ellipse fill="none" stroke="#000000" cx="372.587" cy="-113.8823" rx="21.4286" ry="21.4286"/>
<text text-anchor="middle" x="372.587" y="-116.6823" font-family="Times,serif" font-size="9.00" fill="#000000">min</text>
<text text-anchor="middle" x="372.587" y="-106.6823" font-family="Times,serif" font-size="9.00" fill="#000000">sig</text>
<text text-anchor="middle" x="346.3738" y="-137.8955" font-family="Times,serif" font-size="9.00" fill="#000000">23</text>
</g>
<!-- 4&#45;&gt;23 -->
<g id="edge11" class="edge">
<title>4&#45;&gt;23</title>
<path fill="none" stroke="#000000" stroke-dasharray="5,2" d="M352.4534,-273.646C356.5416,-241.2057 364.0601,-181.5448 368.6625,-145.0237"/>
<polygon fill="#000000" stroke="#000000" points="372.1562,-145.2924 369.9341,-134.9333 365.2112,-144.4172 372.1562,-145.2924"/>
<text text-anchor="middle" x="371.587" y="-202.9371" font-family="Times,serif" font-size="9.00" fill="#000000">1.00</text>
</g>
<!-- 26 -->
<g id="node9" class="node">
<title>26</title>
<ellipse fill="none" stroke="#000000" stroke-dasharray="5,2" cx="429.587" cy="-205.1371" rx="22.7556" ry="22.7556"/>
<text text-anchor="middle" x="429.587" y="-207.9371" font-family="Times,serif" font-size="9.00" fill="#000000">sum</text>
<text text-anchor="middle" x="429.587" y="-197.9371" font-family="Times,serif" font-size="9.00" fill="#000000">sig</text>
<text text-anchor="middle" x="401.9596" y="-230.5645" font-family="Times,serif" font-size="9.00" fill="#000000">26</text>
</g>
<!-- 4&#45;&gt;26 -->
<g id="edge13" class="edge">
<title>4&#45;&gt;26</title>
<path fill="none" stroke="#000000" stroke-dasharray="5,2" d="M365.2008,-279.5104C371.8503,-272.2534 379.6563,-263.6443 386.587,-255.7645 393.7843,-247.5817 401.5273,-238.5414 408.4325,-230.3916"/>
<polygon fill="#000000" stroke="#000000" points="411.2308,-232.5026 415.0071,-222.6035 405.8819,-227.9871 411.2308,-232.5026"/>
<text text-anchor="middle" x="402.587" y="-248.5645" font-family="Times,serif" font-size="9.00" fill="#000000">1.00</text>
</g>
<!-- 8 -->
<g id="node4" class="node">
<title>8</title>
<ellipse fill="none" stroke="#ff0000" cx="30.587" cy="-296.3919" rx="22.7556" ry="22.7556"/>
<text text-anchor="middle" x="30.587" y="-299.1919" font-family="Times,serif" font-size="9.00" fill="#000000">sum</text>
<text text-anchor="middle" x="30.587" y="-289.1919" font-family="Times,serif" font-size="9.00" fill="#000000">id</text>
<text text-anchor="middle" x="5.4596" y="-321.8193" font-family="Times,serif" font-size="9.00" fill="#000000">8</text>
</g>
<!-- 8&#45;&gt;2 -->
<g id="edge3" class="edge">
<title>8&#45;&gt;2</title>
<path fill="none" stroke="#000000" d="M20.4496,-275.8171C7.9567,-247.4396 -9.6286,-195.1848 7.587,-154.5097 29.382,-103.0147 82.212,-61.7498 115.242,-39.8393"/>
<polygon fill="#000000" stroke="#000000" points="117.4952,-42.5502 123.9908,-34.1802 113.6933,-36.6726 117.4952,-42.5502"/>
<text text-anchor="middle" x="15.587" y="-157.3097" font-family="Times,serif" font-size="9.00" fill="#000000">1.00</text>
</g>
<!-- 8&#45;&gt;5 -->
<g id="edge7" class="edge">
<title>8&#45;&gt;5</title>
<path fill="none" stroke="#000000" stroke-dasharray="5,2" d="M47.4619,-281.1452C83.1832,-248.8705 166.5606,-173.538 208.1263,-135.9828"/>
<polygon fill="#000000" stroke="#000000" points="210.5444,-138.515 215.618,-129.214 205.8516,-133.321 210.5444,-138.515"/>
<text text-anchor="middle" x="163.587" y="-202.9371" font-family="Times,serif" font-size="9.00" fill="#000000">2.00</text>
</g>
<!-- 8&#45;&gt;7 -->
<g id="edge18" class="edge">
<title>8&#45;&gt;7</title>
<path fill="none" stroke="#000000" d="M34.051,-273.9127C39.4875,-244.2936 52.2458,-191.6175 78.587,-154.5097 116.7596,-100.7344 136.7254,-92.9911 195.587,-63.2548 231.9067,-44.9065 277.6631,-33.8512 307.955,-28.0034"/>
<polygon fill="#000000" stroke="#000000" points="308.7871,-31.4089 317.9838,-26.1487 307.514,-24.5256 308.7871,-31.4089"/>
<text text-anchor="middle" x="89.087" y="-157.3097" font-family="Times,serif" font-size="9.00" fill="#000000">15.80</text>
</g>
<!-- 5&#45;&gt;2 -->
<g id="edge5" class="edge">
<title>5&#45;&gt;2</title>
<path fill="none" stroke="#000000" stroke-dasharray="5,2" d="M216.6756,-97.5677C202.8399,-83.3815 182.6102,-62.6393 166.9394,-46.5715"/>
<polygon fill="#000000" stroke="#000000" points="169.1485,-43.8236 159.6607,-39.1084 164.1372,-48.7111 169.1485,-43.8236"/>
<text text-anchor="middle" x="199.587" y="-66.0548" font-family="Times,serif" font-size="9.00" fill="#000000">2.00</text>
</g>
<!-- 9&#45;&gt;5 -->
<g id="edge10" class="edge">
<title>9&#45;&gt;5</title>
<path fill="none" stroke="#000000" stroke-dasharray="5,2" d="M297.2581,-189.2711C289.8593,-181.9014 281.1049,-172.9245 273.587,-164.5097 266.652,-156.7474 259.4045,-148.0231 252.9654,-140.0318"/>
<polygon fill="#000000" stroke="#000000" points="255.5651,-137.678 246.5948,-132.0402 250.0915,-142.0415 255.5651,-137.678"/>
<text text-anchor="middle" x="281.587" y="-157.3097" font-family="Times,serif" font-size="9.00" fill="#000000">2.00</text>
</g>
<!-- 9&#45;&gt;7 -->
<g id="edge15" class="edge">
<title>9&#45;&gt;7</title>
<path fill="none" stroke="#000000" d="M310.9229,-182.5222C308.3177,-154.0975 306.2139,-104.0849 317.587,-63.2548 318.8192,-58.8311 320.6325,-54.3756 322.7094,-50.1189"/>
<polygon fill="#000000" stroke="#000000" points="325.8526,-51.6651 327.5537,-41.2077 319.7026,-48.3218 325.8526,-51.6651"/>
<text text-anchor="middle" x="322.087" y="-111.6823" font-family="Times,serif" font-size="9.00" fill="#000000">22.80</text>
</g>
<!-- 9&#45;&gt;23 -->
<g id="edge16" class="edge">
<title>9&#45;&gt;23</title>
<path fill="none" stroke="#000000" d="M322.1849,-183.7693C326.3084,-174.4726 331.6449,-163.6408 337.587,-154.5097 341.4763,-148.533 346.1714,-142.4958 350.8419,-136.9694"/>
<polygon fill="#000000" stroke="#000000" points="353.6036,-139.1287 357.5705,-129.3045 348.343,-134.5107 353.6036,-139.1287"/>
<text text-anchor="middle" x="348.087" y="-157.3097" font-family="Times,serif" font-size="9.00" fill="#000000">21.80</text>
</g>
<!-- 23&#45;&gt;2 -->
<g id="edge12" class="edge">
<title>23&#45;&gt;2</title>
<path fill="none" stroke="#c0c0c0" d="M353.5526,-103.4625C345.8946,-99.4374 336.9189,-94.9268 328.587,-91.2548 275.7213,-67.9561 212.2226,-45.5717 175.0427,-33.008"/>
<polygon fill="#c0c0c0" stroke="#c0c0c0" points="175.8787,-29.5967 165.2847,-29.7322 173.6509,-36.2328 175.8787,-29.5967"/>
<text text-anchor="middle" x="293.087" y="-66.0548" font-family="Times,serif" font-size="9.00" fill="#000000">&#45;0.05</text>
</g>
<!-- 23&#45;&gt;7 -->
<g id="edge17" class="edge">
<title>23&#45;&gt;7</title>
<path fill="none" stroke="#000000" d="M366.3688,-93.0837C363.5298,-83.8925 360.0361,-72.9858 356.587,-63.2548 355.4117,-59.9391 354.1368,-56.4904 352.8369,-53.066"/>
<polygon fill="#000000" stroke="#000000" points="356.0486,-51.6676 349.1696,-43.6097 349.5222,-54.1987 356.0486,-51.6676"/>
<text text-anchor="middle" x="370.087" y="-66.0548" font-family="Times,serif" font-size="9.00" fill="#000000">17.80</text>
</g>
<!-- 26&#45;&gt;23 -->
<g id="edge14" class="edge">
<title>26&#45;&gt;23</title>
<path fill="none" stroke="#000000" stroke-dasharray="5,2" d="M417.4987,-185.7843C409.2717,-172.6131 398.2769,-155.0108 389.2252,-140.5194"/>
<polygon fill="#000000" stroke="#000000" points="392.1487,-138.593 383.8824,-131.9658 386.2117,-142.3014 392.1487,-138.593"/>
<text text-anchor="middle" x="410.587" y="-157.3097" font-family="Times,serif" font-size="9.00" fill="#000000">1.00</text>
</g>
</g>
</svg>
