<?xml version="1.0" encoding="UTF-8" standalone="no"?>
<!DOCTYPE svg PUBLIC "-//W3C//DTD SVG 1.1//EN"
 "http://www.w3.org/Graphics/SVG/1.1/DTD/svg11.dtd">
<!-- Generated by graphviz version 2.40.1 (20161225.0304)
 -->
<!-- Title: %3 Pages: 1 -->
<svg width="265pt" height="216pt"
 viewBox="0.00 0.00 265.26 216.07" xmlns="http://www.w3.org/2000/svg" xmlns:xlink="http://www.w3.org/1999/xlink">
<g id="graph0" class="graph" transform="scale(1 1) rotate(0) translate(4 212.066)">
<title>%3</title>
<polygon fill="#ffffff" stroke="transparent" points="-4,4 -4,-212.066 261.2635,-212.066 261.2635,4 -4,4"/>
<!-- 1 -->
<g id="node1" class="node">
<title>1</title>
<ellipse fill="none" stroke="#ff0000" cx="43.2635" cy="-191.8026" rx="16.0303" ry="16.0303"/>
<text text-anchor="middle" x="43.2635" y="-188.7026" font-family="Times,serif" font-size="12.00" fill="#000000">1</text>
</g>
<!-- 5 -->
<g id="node2" class="node">
<title>5</title>
<ellipse fill="none" stroke="#000000" cx="16.2635" cy="-104.033" rx="16.0303" ry="16.0303"/>
<text text-anchor="middle" x="16.2635" y="-100.933" font-family="Times,serif" font-size="12.00" fill="#000000">5</text>
</g>
<!-- 1&#45;&gt;5 -->
<g id="edge1" class="edge">
<title>1&#45;&gt;5</title>
<path fill="none" stroke="#000000" d="M32.8903,-178.9038C28.5399,-172.7858 23.89,-165.1579 21.2635,-157.5391 18.3234,-149.011 16.891,-139.2923 16.2467,-130.4989"/>
<polygon fill="#000000" stroke="#000000" points="19.7376,-130.2113 15.8034,-120.374 12.7443,-130.5175 19.7376,-130.2113"/>
<text text-anchor="middle" x="33.7635" y="-146.3391" font-family="Times,serif" font-size="14.00" fill="#000000">2.00</text>
</g>
<!-- 26 -->
<g id="node3" class="node">
<title>26</title>
<ellipse fill="none" stroke="#000000" cx="71.2635" cy="-104.033" rx="20.5122" ry="20.5122"/>
<text text-anchor="middle" x="71.2635" y="-100.933" font-family="Times,serif" font-size="12.00" fill="#000000">26</text>
</g>
<!-- 1&#45;&gt;26 -->
<g id="edge2" class="edge">
<title>1&#45;&gt;26</title>
<path fill="none" stroke="#000000" d="M48.2693,-176.1111C52.0413,-164.2872 57.3239,-147.7282 61.8748,-133.4631"/>
<polygon fill="#000000" stroke="#000000" points="65.3222,-134.1725 65.0271,-123.5818 58.6533,-132.0449 65.3222,-134.1725"/>
<text text-anchor="middle" x="71.7635" y="-146.3391" font-family="Times,serif" font-size="14.00" fill="#000000">1.00</text>
</g>
<!-- 2 -->
<g id="node9" class="node">
<title>2</title>
<ellipse fill="none" stroke="#ff0000" cx="102.2635" cy="-16.2635" rx="16.0303" ry="16.0303"/>
<text text-anchor="middle" x="102.2635" y="-13.1635" font-family="Times,serif" font-size="12.00" fill="#000000">2</text>
</g>
<!-- 5&#45;&gt;2 -->
<g id="edge6" class="edge">
<title>5&#45;&gt;2</title>
<path fill="none" stroke="#000000" d="M24.1167,-89.3154C30.6635,-77.9055 40.7542,-62.1346 52.2635,-50.5269 60.0721,-42.6515 69.9255,-35.4533 78.8166,-29.7096"/>
<polygon fill="#000000" stroke="#000000" points="80.9368,-32.514 87.6078,-24.2831 77.2599,-26.5574 80.9368,-32.514"/>
<text text-anchor="middle" x="64.7635" y="-54.3269" font-family="Times,serif" font-size="14.00" fill="#000000">2.00</text>
</g>
<!-- 26&#45;&gt;2 -->
<g id="edge7" class="edge">
<title>26&#45;&gt;2</title>
<path fill="none" stroke="#000000" d="M75.4982,-83.9115C77.8947,-73.7489 81.2234,-61.3178 85.2635,-50.5269 86.5993,-46.9588 88.1903,-43.2691 89.855,-39.6913"/>
<polygon fill="#000000" stroke="#000000" points="93.0326,-41.161 94.3088,-30.6433 86.7522,-38.0695 93.0326,-41.161"/>
<text text-anchor="middle" x="97.7635" y="-54.3269" font-family="Times,serif" font-size="14.00" fill="#000000">2.00</text>
</g>
<!-- 4 -->
<g id="node4" class="node">
<title>4</title>
<ellipse fill="none" stroke="#ff0000" cx="214.2635" cy="-191.8026" rx="16.0303" ry="16.0303"/>
<text text-anchor="middle" x="214.2635" y="-188.7026" font-family="Times,serif" font-size="12.00" fill="#000000">4</text>
</g>
<!-- 7 -->
<g id="node5" class="node">
<title>7</title>
<ellipse fill="none" stroke="#ff0000" cx="237.2635" cy="-16.2635" rx="16.0303" ry="16.0303"/>
<text text-anchor="middle" x="237.2635" y="-13.1635" font-family="Times,serif" font-size="12.00" fill="#000000">7</text>
</g>
<!-- 4&#45;&gt;7 -->
<g id="edge3" class="edge">
<title>4&#45;&gt;7</title>
<path fill="none" stroke="#000000" d="M219.0045,-175.8826C220.5643,-170.1448 222.1756,-163.5924 223.2635,-157.5391 230.3766,-117.9598 234.1096,-71.4461 235.8816,-42.9136"/>
<polygon fill="#000000" stroke="#000000" points="239.3767,-43.0982 236.4677,-32.9106 232.3887,-42.6887 239.3767,-43.0982"/>
<text text-anchor="middle" x="244.7635" y="-100.333" font-family="Times,serif" font-size="14.00" fill="#000000">2.00</text>
</g>
<!-- 9 -->
<g id="node6" class="node">
<title>9</title>
<ellipse fill="none" stroke="#000000" cx="185.2635" cy="-104.033" rx="16.0303" ry="16.0303"/>
<text text-anchor="middle" x="185.2635" y="-100.933" font-family="Times,serif" font-size="12.00" fill="#000000">9</text>
</g>
<!-- 4&#45;&gt;9 -->
<g id="edge4" class="edge">
<title>4&#45;&gt;9</title>
<path fill="none" stroke="#000000" d="M206.5954,-177.0605C203.7079,-171.1083 200.5685,-164.1053 198.2635,-157.5391 195.1683,-148.7222 192.5414,-138.8374 190.4765,-129.9857"/>
<polygon fill="#000000" stroke="#000000" points="193.8887,-129.206 188.3162,-120.1951 187.0532,-130.7143 193.8887,-129.206"/>
<text text-anchor="middle" x="210.7635" y="-146.3391" font-family="Times,serif" font-size="14.00" fill="#000000">1.00</text>
</g>
<!-- 9&#45;&gt;2 -->
<g id="edge8" class="edge">
<title>9&#45;&gt;2</title>
<path fill="none" stroke="#000000" d="M176.9401,-89.9705C169.8561,-78.6364 158.9873,-62.6469 147.2635,-50.5269 140.4919,-43.5265 132.2123,-36.8072 124.6098,-31.202"/>
<polygon fill="#000000" stroke="#000000" points="126.3082,-28.1156 116.127,-25.1837 122.2577,-33.8247 126.3082,-28.1156"/>
<text text-anchor="middle" x="171.7635" y="-54.3269" font-family="Times,serif" font-size="14.00" fill="#000000">1.00</text>
</g>
<!-- 8 -->
<g id="node7" class="node">
<title>8</title>
<ellipse fill="none" stroke="#ff0000" cx="130.2635" cy="-191.8026" rx="16.0303" ry="16.0303"/>
<text text-anchor="middle" x="130.2635" y="-188.7026" font-family="Times,serif" font-size="12.00" fill="#000000">8</text>
</g>
<!-- 23 -->
<g id="node8" class="node">
<title>23</title>
<ellipse fill="none" stroke="#000000" cx="130.2635" cy="-104.033" rx="20.5122" ry="20.5122"/>
<text text-anchor="middle" x="130.2635" y="-100.933" font-family="Times,serif" font-size="12.00" fill="#000000">23</text>
</g>
<!-- 8&#45;&gt;23 -->
<g id="edge5" class="edge">
<title>8&#45;&gt;23</title>
<path fill="none" stroke="#000000" d="M130.2635,-175.2938C130.2635,-164.0091 130.2635,-148.7033 130.2635,-135.1691"/>
<polygon fill="#000000" stroke="#000000" points="133.7636,-134.8053 130.2635,-124.8054 126.7636,-134.8054 133.7636,-134.8053"/>
<text text-anchor="middle" x="142.7635" y="-146.3391" font-family="Times,serif" font-size="14.00" fill="#000000">1.00</text>
</g>
<!-- 23&#45;&gt;2 -->
<g id="edge9" class="edge">
<title>23&#45;&gt;2</title>
<path fill="none" stroke="#000000" d="M123.9098,-84.1167C119.8982,-71.5419 114.6784,-55.1796 110.3697,-41.6734"/>
<polygon fill="#000000" stroke="#000000" points="113.6612,-40.4751 107.2875,-32.0119 106.9924,-42.6026 113.6612,-40.4751"/>
<text text-anchor="middle" x="130.7635" y="-54.3269" font-family="Times,serif" font-size="14.00" fill="#000000">1.00</text>
</g>
</g>
</svg>
