<?xml version="1.0" encoding="UTF-8" standalone="no"?>
<!DOCTYPE svg PUBLIC "-//W3C//DTD SVG 1.1//EN"
 "http://www.w3.org/Graphics/SVG/1.1/DTD/svg11.dtd">
<!-- Generated by graphviz version 2.40.1 (20161225.0304)
 -->
<!-- Title: %3 Pages: 1 -->
<svg width="301pt" height="611pt"
 viewBox="0.00 0.00 300.63 610.78" xmlns="http://www.w3.org/2000/svg" xmlns:xlink="http://www.w3.org/1999/xlink">
<g id="graph0" class="graph" transform="scale(1 1) rotate(0) translate(4 606.7838)">
<title>%3</title>
<polygon fill="#ffffff" stroke="transparent" points="-4,4 -4,-606.7838 296.6274,-606.7838 296.6274,4 -4,4"/>
<!-- 1 -->
<g id="node1" class="node">
<title>1</title>
<ellipse fill="none" stroke="#ff0000" cx="142.6274" cy="-570.1564" rx="22.7556" ry="22.7556"/>
<text text-anchor="middle" x="142.6274" y="-572.9564" font-family="Times,serif" font-size="9.00" fill="#000000">sum</text>
<text text-anchor="middle" x="142.6274" y="-562.9564" font-family="Times,serif" font-size="9.00" fill="#000000">id</text>
<text text-anchor="middle" x="117.5" y="-595.5838" font-family="Times,serif" font-size="9.00" fill="#000000">1</text>
</g>
<!-- 7 -->
<g id="node2" class="node">
<title>7</title>
<ellipse fill="none" stroke="#000000" cx="167.6274" cy="-113.8823" rx="22.7556" ry="22.7556"/>
<text text-anchor="middle" x="167.6274" y="-116.6823" font-family="Times,serif" font-size="9.00" fill="#000000">sum</text>
<text text-anchor="middle" x="167.6274" y="-106.6823" font-family="Times,serif" font-size="9.00" fill="#000000">sig</text>
<text text-anchor="middle" x="142.5" y="-139.3097" font-family="Times,serif" font-size="9.00" fill="#000000">7</text>
</g>
<!-- 1&#45;&gt;7 -->
<g id="edge1" class="edge">
<title>1&#45;&gt;7</title>
<path fill="none" stroke="#c0c0c0" d="M164.8498,-565.441C202.2247,-556.0614 273.6274,-531.2871 273.6274,-478.9016 273.6274,-478.9016 273.6274,-478.9016 273.6274,-205.1371 273.6274,-165.0855 229.6262,-138.7629 198.3226,-125.1042"/>
<polygon fill="#c0c0c0" stroke="#c0c0c0" points="199.6561,-121.8682 189.0781,-121.2706 196.9747,-128.3343 199.6561,-121.8682"/>
<text text-anchor="middle" x="283.1274" y="-339.8193" font-family="Times,serif" font-size="9.00" fill="#000000">&#45;1.67</text>
</g>
<!-- 9 -->
<g id="node3" class="node">
<title>9</title>
<ellipse fill="none" stroke="#000000" cx="142.6274" cy="-478.9016" rx="22.7556" ry="22.7556"/>
<text text-anchor="middle" x="142.6274" y="-481.7016" font-family="Times,serif" font-size="9.00" fill="#000000">sum</text>
<text text-anchor="middle" x="142.6274" y="-471.7016" font-family="Times,serif" font-size="9.00" fill="#000000">relu</text>
<text text-anchor="middle" x="117.5" y="-504.329" font-family="Times,serif" font-size="9.00" fill="#000000">9</text>
</g>
<!-- 1&#45;&gt;9 -->
<g id="edge2" class="edge">
<title>1&#45;&gt;9</title>
<path fill="none" stroke="#000000" d="M142.6274,-547.129C142.6274,-536.4568 142.6274,-523.5778 142.6274,-511.8976"/>
<polygon fill="#000000" stroke="#000000" points="146.1275,-511.6055 142.6274,-501.6056 139.1275,-511.6056 146.1275,-511.6055"/>
<text text-anchor="middle" x="153.1274" y="-522.329" font-family="Times,serif" font-size="9.00" fill="#000000">10.20</text>
</g>
<!-- 8 -->
<g id="node4" class="node">
<title>8</title>
<ellipse fill="none" stroke="#000000" cx="40.6274" cy="-296.3919" rx="22.7556" ry="22.7556"/>
<text text-anchor="middle" x="40.6274" y="-299.1919" font-family="Times,serif" font-size="9.00" fill="#000000">sum</text>
<text text-anchor="middle" x="40.6274" y="-289.1919" font-family="Times,serif" font-size="9.00" fill="#000000">sig</text>
<text text-anchor="middle" x="15.5" y="-321.8193" font-family="Times,serif" font-size="9.00" fill="#000000">8</text>
</g>
<!-- 1&#45;&gt;8 -->
<g id="edge3" class="edge">
<title>1&#45;&gt;8</title>
<path fill="none" stroke="#000000" d="M130.0436,-550.8552C111.6175,-521.661 77.5457,-463.9707 59.6274,-410.2742 50.769,-383.7276 45.9216,-352.2639 43.3451,-329.1425"/>
<polygon fill="#000000" stroke="#000000" points="46.8224,-328.7419 42.3148,-319.1538 39.8593,-329.4602 46.8224,-328.7419"/>
<text text-anchor="middle" x="76.6274" y="-431.0742" font-family="Times,serif" font-size="9.00" fill="#000000">1.31</text>
</g>
<!-- 3 -->
<g id="node7" class="node">
<title>3</title>
<ellipse fill="none" stroke="#ff0000" cx="167.6274" cy="-22.6274" rx="22.7556" ry="22.7556"/>
<text text-anchor="middle" x="167.6274" y="-25.4274" font-family="Times,serif" font-size="9.00" fill="#000000">sum</text>
<text text-anchor="middle" x="167.6274" y="-15.4274" font-family="Times,serif" font-size="9.00" fill="#000000">step</text>
<text text-anchor="middle" x="142.5" y="-48.0548" font-family="Times,serif" font-size="9.00" fill="#000000">3</text>
</g>
<!-- 7&#45;&gt;3 -->
<g id="edge7" class="edge">
<title>7&#45;&gt;3</title>
<path fill="none" stroke="#000000" d="M167.6274,-90.8548C167.6274,-80.1826 167.6274,-67.3036 167.6274,-55.6234"/>
<polygon fill="#000000" stroke="#000000" points="171.1275,-55.3313 167.6274,-45.3314 164.1275,-55.3314 171.1275,-55.3313"/>
<text text-anchor="middle" x="175.6274" y="-66.0548" font-family="Times,serif" font-size="9.00" fill="#000000">0.76</text>
</g>
<!-- 9&#45;&gt;7 -->
<g id="edge10" class="edge">
<title>9&#45;&gt;7</title>
<path fill="none" stroke="#c0c0c0" d="M150.7688,-457.6107C152.9078,-451.4405 155.0539,-444.648 156.6274,-438.2742 185.8846,-319.7669 175.9541,-286.5457 178.6274,-164.5097 178.7248,-160.0663 179.2133,-158.9153 178.6274,-154.5097 178.2391,-151.5896 177.7003,-148.5818 177.0681,-145.5862"/>
<polygon fill="#c0c0c0" stroke="#c0c0c0" points="180.4026,-144.4856 174.6414,-135.5941 173.6003,-146.1377 180.4026,-144.4856"/>
<text text-anchor="middle" x="187.1274" y="-294.1919" font-family="Times,serif" font-size="9.00" fill="#000000">&#45;0.00</text>
</g>
<!-- 6 -->
<g id="node6" class="node">
<title>6</title>
<ellipse fill="none" stroke="#000000" cx="91.6274" cy="-387.6468" rx="22.7556" ry="22.7556"/>
<text text-anchor="middle" x="91.6274" y="-390.4468" font-family="Times,serif" font-size="9.00" fill="#000000">sum</text>
<text text-anchor="middle" x="91.6274" y="-380.4468" font-family="Times,serif" font-size="9.00" fill="#000000">sig</text>
<text text-anchor="middle" x="66.5" y="-413.0742" font-family="Times,serif" font-size="9.00" fill="#000000">6</text>
</g>
<!-- 9&#45;&gt;6 -->
<g id="edge8" class="edge">
<title>9&#45;&gt;6</title>
<path fill="none" stroke="#000000" d="M128.205,-461.3365C122.9084,-454.4052 117.1157,-446.2118 112.6274,-438.2742 109.1344,-432.0967 105.8944,-425.2219 103.0564,-418.5803"/>
<polygon fill="#000000" stroke="#000000" points="106.2182,-417.0646 99.2033,-409.1247 99.7358,-419.7062 106.2182,-417.0646"/>
<text text-anchor="middle" x="120.6274" y="-431.0742" font-family="Times,serif" font-size="9.00" fill="#000000">0.32</text>
</g>
<!-- 9&#45;&gt;3 -->
<g id="edge9" class="edge">
<title>9&#45;&gt;3</title>
<path fill="none" stroke="#000000" d="M163.7306,-469.633C191.1695,-455.9815 235.6274,-427.6849 235.6274,-387.6468 235.6274,-387.6468 235.6274,-387.6468 235.6274,-113.8823 235.6274,-84.8384 213.206,-59.0604 194.1127,-42.3742"/>
<polygon fill="#000000" stroke="#000000" points="196.1341,-39.503 186.2087,-35.7966 191.6564,-44.8835 196.1341,-39.503"/>
<text text-anchor="middle" x="243.6274" y="-248.5645" font-family="Times,serif" font-size="9.00" fill="#000000">0.32</text>
</g>
<!-- 5 -->
<g id="node8" class="node">
<title>5</title>
<ellipse fill="none" stroke="#000000" cx="142.6274" cy="-205.1371" rx="22.7556" ry="22.7556"/>
<text text-anchor="middle" x="142.6274" y="-207.9371" font-family="Times,serif" font-size="9.00" fill="#000000">sum</text>
<text text-anchor="middle" x="142.6274" y="-197.9371" font-family="Times,serif" font-size="9.00" fill="#000000">tanh</text>
<text text-anchor="middle" x="117.5" y="-230.5645" font-family="Times,serif" font-size="9.00" fill="#000000">5</text>
</g>
<!-- 9&#45;&gt;5 -->
<g id="edge11" class="edge">
<title>9&#45;&gt;5</title>
<path fill="none" stroke="#c0c0c0" d="M142.6274,-456.0315C142.6274,-407.6195 142.6274,-294.6207 142.6274,-238.2879"/>
<polygon fill="#c0c0c0" stroke="#c0c0c0" points="146.1275,-238.1346 142.6274,-228.1347 139.1275,-238.1347 146.1275,-238.1346"/>
<text text-anchor="middle" x="154.6274" y="-339.8193" font-family="Times,serif" font-size="9.00" fill="#000000">&#45;12.41</text>
</g>
<!-- 8&#45;&gt;3 -->
<g id="edge13" class="edge">
<title>8&#45;&gt;3</title>
<path fill="none" stroke="#c0c0c0" d="M44.2933,-273.887C46.0572,-264.9925 48.4835,-254.7655 51.6274,-245.7645 77.5274,-171.6137 124.3083,-91.49 149.834,-50.404"/>
<polygon fill="#c0c0c0" stroke="#c0c0c0" points="152.8992,-52.1038 155.2426,-41.7713 146.9673,-48.3872 152.8992,-52.1038"/>
<text text-anchor="middle" x="99.1274" y="-157.3097" font-family="Times,serif" font-size="9.00" fill="#000000">&#45;0.80</text>
</g>
<!-- 8&#45;&gt;5 -->
<g id="edge12" class="edge">
<title>8&#45;&gt;5</title>
<path fill="none" stroke="#c0c0c0" d="M46.9045,-274.5509C50.551,-264.8361 55.97,-253.8032 63.6274,-245.7645 76.6649,-232.0778 95.3264,-222.1842 111.2385,-215.5888"/>
<polygon fill="#c0c0c0" stroke="#c0c0c0" points="112.6638,-218.7899 120.7158,-211.904 110.1272,-212.2656 112.6638,-218.7899"/>
<text text-anchor="middle" x="73.1274" y="-248.5645" font-family="Times,serif" font-size="9.00" fill="#000000">&#45;1.41</text>
</g>
<!-- 2 -->
<g id="node5" class="node">
<title>2</title>
<ellipse fill="none" stroke="#ff0000" cx="27.6274" cy="-570.1564" rx="22.7556" ry="22.7556"/>
<text text-anchor="middle" x="27.6274" y="-572.9564" font-family="Times,serif" font-size="9.00" fill="#000000">sum</text>
<text text-anchor="middle" x="27.6274" y="-562.9564" font-family="Times,serif" font-size="9.00" fill="#000000">id</text>
<text text-anchor="middle" x="2.5" y="-595.5838" font-family="Times,serif" font-size="9.00" fill="#000000">2</text>
</g>
<!-- 2&#45;&gt;9 -->
<g id="edge6" class="edge">
<title>2&#45;&gt;9</title>
<path fill="none" stroke="#c0c0c0" d="M45.5962,-555.8979C64.7534,-540.6962 95.2574,-516.4906 116.9461,-499.2802"/>
<polygon fill="#c0c0c0" stroke="#c0c0c0" points="119.127,-502.0177 124.7848,-493.06 114.7758,-496.5343 119.127,-502.0177"/>
<text text-anchor="middle" x="99.6274" y="-522.329" font-family="Times,serif" font-size="9.00" fill="#000000">&#45;12.72</text>
</g>
<!-- 2&#45;&gt;8 -->
<g id="edge5" class="edge">
<title>2&#45;&gt;8</title>
<path fill="none" stroke="#c0c0c0" d="M24.7127,-547.7168C19.8938,-505.848 12.1542,-413.1668 26.6274,-337.0193 27.2404,-333.7945 28.0562,-330.478 28.987,-327.1967"/>
<polygon fill="#c0c0c0" stroke="#c0c0c0" points="32.3485,-328.175 32.0368,-317.5848 25.6763,-326.0579 32.3485,-328.175"/>
<text text-anchor="middle" x="28.1274" y="-431.0742" font-family="Times,serif" font-size="9.00" fill="#000000">&#45;1.68</text>
</g>
<!-- 2&#45;&gt;6 -->
<g id="edge4" class="edge">
<title>2&#45;&gt;6</title>
<path fill="none" stroke="#c0c0c0" d="M26.8118,-547.4129C26.7018,-518.1954 29.7363,-466.6762 49.6274,-428.2742 53.4987,-420.8002 59.2723,-413.9034 65.3085,-407.9946"/>
<polygon fill="#c0c0c0" stroke="#c0c0c0" points="67.8988,-410.3712 72.9713,-401.0696 63.2053,-405.1777 67.8988,-410.3712"/>
<text text-anchor="middle" x="48.1274" y="-476.7016" font-family="Times,serif" font-size="9.00" fill="#000000">&#45;7.78</text>
</g>
<!-- 6&#45;&gt;7 -->
<g id="edge15" class="edge">
<title>6&#45;&gt;7</title>
<path fill="none" stroke="#c0c0c0" d="M89.4898,-365.0639C86.7094,-326.1437 84.8933,-244.6314 110.6274,-182.5097 117.8923,-164.9722 131.266,-148.4971 143.2339,-136.0868"/>
<polygon fill="#c0c0c0" stroke="#c0c0c0" points="145.8221,-138.4489 150.4368,-128.9118 140.8819,-133.4895 145.8221,-138.4489"/>
<text text-anchor="middle" x="102.1274" y="-248.5645" font-family="Times,serif" font-size="9.00" fill="#000000">&#45;7.67</text>
</g>
<!-- 6&#45;&gt;8 -->
<g id="edge14" class="edge">
<title>6&#45;&gt;8</title>
<path fill="none" stroke="#000000" d="M80.5612,-367.8458C73.5439,-355.2897 64.3522,-338.8429 56.5565,-324.894"/>
<polygon fill="#000000" stroke="#000000" points="59.6059,-323.176 51.6721,-316.1542 53.4954,-326.591 59.6059,-323.176"/>
<text text-anchor="middle" x="75.6274" y="-339.8193" font-family="Times,serif" font-size="9.00" fill="#000000">0.16</text>
</g>
<!-- 5&#45;&gt;7 -->
<g id="edge16" class="edge">
<title>5&#45;&gt;7</title>
<path fill="none" stroke="#c0c0c0" d="M148.6792,-183.0468C151.75,-171.8378 155.5358,-158.0191 158.9141,-145.6877"/>
<polygon fill="#c0c0c0" stroke="#c0c0c0" points="162.3647,-146.3385 161.6313,-135.7691 155.6134,-144.4889 162.3647,-146.3385"/>
<text text-anchor="middle" x="165.1274" y="-157.3097" font-family="Times,serif" font-size="9.00" fill="#000000">&#45;0.21</text>
</g>
</g>
</svg>
