<?xml version="1.0" encoding="UTF-8" standalone="no"?>
<!DOCTYPE svg PUBLIC "-//W3C//DTD SVG 1.1//EN"
 "http://www.w3.org/Graphics/SVG/1.1/DTD/svg11.dtd">
<!-- Generated by graphviz version 2.40.1 (20161225.0304)
 -->
<!-- Title: %3 Pages: 1 -->
<svg width="326pt" height="433pt"
 viewBox="0.00 0.00 326.00 432.52" xmlns="http://www.w3.org/2000/svg" xmlns:xlink="http://www.w3.org/1999/xlink">
<g id="graph0" class="graph" transform="scale(1 1) rotate(0) translate(4 428.5168)">
<title>%3</title>
<polygon fill="#ffffff" stroke="transparent" points="-4,4 -4,-428.5168 322,-428.5168 322,4 -4,4"/>
<!-- 2 -->
<g id="node1" class="node">
<title>2</title>
<ellipse fill="none" stroke="#ff0000" cx="62" cy="-391.8894" rx="22.7556" ry="22.7556"/>
<text text-anchor="middle" x="62" y="-394.6894" font-family="Times,serif" font-size="9.00" fill="#000000">sum</text>
<text text-anchor="middle" x="62" y="-384.6894" font-family="Times,serif" font-size="9.00" fill="#000000">id</text>
<text text-anchor="middle" x="36.8726" y="-417.3168" font-family="Times,serif" font-size="9.00" fill="#000000">2</text>
</g>
<!-- 3 -->
<g id="node2" class="node">
<title>3</title>
<ellipse fill="none" stroke="#ff0000" cx="128" cy="-22.6274" rx="22.7556" ry="22.7556"/>
<text text-anchor="middle" x="128" y="-25.4274" font-family="Times,serif" font-size="9.00" fill="#000000">sum</text>
<text text-anchor="middle" x="128" y="-15.4274" font-family="Times,serif" font-size="9.00" fill="#000000">step</text>
<text text-anchor="middle" x="102.8726" y="-48.0548" font-family="Times,serif" font-size="9.00" fill="#000000">3</text>
</g>
<!-- 2&#45;&gt;3 -->
<g id="edge1" class="edge">
<title>2&#45;&gt;3</title>
<path fill="none" stroke="#c0c0c0" stroke-dasharray="5,2" d="M44.067,-377.4747C25.7561,-361.0117 0,-332.2379 0,-300.6346 0,-300.6346 0,-300.6346 0,-116.0036 0,-68.5327 58.1703,-42.6299 96.0819,-30.7891"/>
<polygon fill="#c0c0c0" stroke="#c0c0c0" points="97.1056,-34.1362 105.7041,-27.9462 95.1222,-27.4231 97.1056,-34.1362"/>
<text text-anchor="middle" x="9.5" y="-207.1797" font-family="Times,serif" font-size="9.00" fill="#000000">&#45;0.19</text>
</g>
<!-- 4 -->
<g id="node4" class="node">
<title>4</title>
<ellipse fill="none" stroke="#000000" cx="150" cy="-300.6346" rx="22.7556" ry="22.7556"/>
<text text-anchor="middle" x="150" y="-303.4346" font-family="Times,serif" font-size="9.00" fill="#000000">sum</text>
<text text-anchor="middle" x="150" y="-293.4346" font-family="Times,serif" font-size="9.00" fill="#000000">sig</text>
<text text-anchor="middle" x="124.8726" y="-326.062" font-family="Times,serif" font-size="9.00" fill="#000000">4</text>
</g>
<!-- 2&#45;&gt;4 -->
<g id="edge3" class="edge">
<title>2&#45;&gt;4</title>
<path fill="none" stroke="#000000" d="M77.7326,-375.5749C91.4129,-361.3886 111.4153,-340.6464 126.9099,-324.5786"/>
<polygon fill="#000000" stroke="#000000" points="129.6847,-326.7434 134.1069,-317.1155 124.6459,-321.8843 129.6847,-326.7434"/>
<text text-anchor="middle" x="117" y="-344.062" font-family="Times,serif" font-size="9.00" fill="#000000">0.17</text>
</g>
<!-- 5 -->
<g id="node5" class="node">
<title>5</title>
<ellipse fill="none" stroke="#000000" cx="190" cy="-116.0036" rx="25" ry="25"/>
<text text-anchor="middle" x="190" y="-118.8036" font-family="Times,serif" font-size="9.00" fill="#000000">sum</text>
<text text-anchor="middle" x="190" y="-108.8036" font-family="Times,serif" font-size="9.00" fill="#000000">splus</text>
<text text-anchor="middle" x="162.7513" y="-143.5523" font-family="Times,serif" font-size="9.00" fill="#000000">5</text>
</g>
<!-- 2&#45;&gt;5 -->
<g id="edge8" class="edge">
<title>2&#45;&gt;5</title>
<path fill="none" stroke="#c0c0c0" d="M60.6052,-368.9831C59.3237,-328.1121 62.2237,-241.7566 104,-186.7523 108.5241,-180.7957 139.0054,-156.1871 162.408,-137.6537"/>
<polygon fill="#c0c0c0" stroke="#c0c0c0" points="164.658,-140.3367 170.3365,-131.3921 160.3195,-134.8433 164.658,-140.3367"/>
<text text-anchor="middle" x="86" y="-252.8071" font-family="Times,serif" font-size="9.00" fill="#000000">&#45;25.38</text>
</g>
<!-- 6 -->
<g id="node6" class="node">
<title>6</title>
<ellipse fill="none" stroke="#000000" cx="136" cy="-209.3797" rx="22.7556" ry="22.7556"/>
<text text-anchor="middle" x="136" y="-212.1797" font-family="Times,serif" font-size="9.00" fill="#000000">sum</text>
<text text-anchor="middle" x="136" y="-202.1797" font-family="Times,serif" font-size="9.00" fill="#000000">sig</text>
<text text-anchor="middle" x="110.8726" y="-234.8071" font-family="Times,serif" font-size="9.00" fill="#000000">6</text>
</g>
<!-- 2&#45;&gt;6 -->
<g id="edge14" class="edge">
<title>2&#45;&gt;6</title>
<path fill="none" stroke="#c0c0c0" d="M66.3916,-369.4354C71.4115,-346.0038 80.6907,-308.4988 94,-278.0071 100.2953,-263.5846 109.1835,-248.5657 117.1633,-236.2682"/>
<polygon fill="#c0c0c0" stroke="#c0c0c0" points="120.1431,-238.1079 122.7633,-227.8422 114.3132,-234.2333 120.1431,-238.1079"/>
<text text-anchor="middle" x="106" y="-298.4346" font-family="Times,serif" font-size="9.00" fill="#000000">&#45;30.00</text>
</g>
<!-- 1 -->
<g id="node3" class="node">
<title>1</title>
<ellipse fill="none" stroke="#ff0000" cx="231" cy="-391.8894" rx="22.7556" ry="22.7556"/>
<text text-anchor="middle" x="231" y="-394.6894" font-family="Times,serif" font-size="9.00" fill="#000000">sum</text>
<text text-anchor="middle" x="231" y="-384.6894" font-family="Times,serif" font-size="9.00" fill="#000000">id</text>
<text text-anchor="middle" x="205.8726" y="-417.3168" font-family="Times,serif" font-size="9.00" fill="#000000">1</text>
</g>
<!-- 1&#45;&gt;3 -->
<g id="edge2" class="edge">
<title>1&#45;&gt;3</title>
<path fill="none" stroke="#c0c0c0" d="M249.5813,-378.7203C269.7148,-362.7549 299,-333.8275 299,-300.6346 299,-300.6346 299,-300.6346 299,-116.0036 299,-53.6349 210.2913,-32.6685 160.6593,-25.8187"/>
<polygon fill="#c0c0c0" stroke="#c0c0c0" points="161.0673,-22.3425 150.7075,-24.5615 160.1899,-29.2873 161.0673,-22.3425"/>
<text text-anchor="middle" x="308.5" y="-207.1797" font-family="Times,serif" font-size="9.00" fill="#000000">&#45;0.63</text>
</g>
<!-- 1&#45;&gt;4 -->
<g id="edge5" class="edge">
<title>1&#45;&gt;4</title>
<path fill="none" stroke="#000000" d="M211.7027,-379.5402C201.1963,-372.1849 188.4517,-362.1725 179,-351.262 173.5905,-345.0175 168.6842,-337.613 164.5096,-330.4214"/>
<polygon fill="#000000" stroke="#000000" points="167.5094,-328.6125 159.6303,-321.5294 161.3726,-331.98 167.5094,-328.6125"/>
<text text-anchor="middle" x="187" y="-344.062" font-family="Times,serif" font-size="9.00" fill="#000000">0.10</text>
</g>
<!-- 1&#45;&gt;5 -->
<g id="edge13" class="edge">
<title>1&#45;&gt;5</title>
<path fill="none" stroke="#000000" d="M230.2765,-369.1121C229.3388,-346.0582 227.2851,-309.4282 223,-278.0071 216.9278,-233.4825 205.9408,-182.8278 198.3212,-150.1925"/>
<polygon fill="#000000" stroke="#000000" points="201.6804,-149.1885 195.9761,-140.2604 194.8678,-150.7971 201.6804,-149.1885"/>
<text text-anchor="middle" x="228" y="-252.8071" font-family="Times,serif" font-size="9.00" fill="#000000">8.18</text>
</g>
<!-- 1&#45;&gt;6 -->
<g id="edge11" class="edge">
<title>1&#45;&gt;6</title>
<path fill="none" stroke="#000000" d="M222.9859,-370.4117C214.0237,-347.1441 198.5761,-309.1719 182,-278.0071 175.0528,-264.9457 172.1987,-262.3216 164,-250.0071 161.1071,-245.662 158.0049,-241.0835 154.957,-236.6288"/>
<polygon fill="#000000" stroke="#000000" points="157.7841,-234.563 149.2319,-228.3091 152.0175,-238.5312 157.7841,-234.563"/>
<text text-anchor="middle" x="211" y="-298.4346" font-family="Times,serif" font-size="9.00" fill="#000000">0.42</text>
</g>
<!-- 4&#45;&gt;3 -->
<g id="edge4" class="edge">
<title>4&#45;&gt;3</title>
<path fill="none" stroke="#c0c0c0" stroke-dasharray="5,2" d="M134.5131,-283.7953C123.6222,-270.7446 109.9683,-251.6307 104,-232.0071 85.3123,-170.563 103.5341,-94.9439 116.8366,-53.4742"/>
<polygon fill="#c0c0c0" stroke="#c0c0c0" points="120.1727,-54.5334 120.0033,-43.9399 113.5296,-52.3269 120.1727,-54.5334"/>
<text text-anchor="middle" x="106.5" y="-161.5523" font-family="Times,serif" font-size="9.00" fill="#000000">&#45;0.74</text>
</g>
<!-- 4&#45;&gt;5 -->
<g id="edge6" class="edge">
<title>4&#45;&gt;5</title>
<path fill="none" stroke="#000000" stroke-dasharray="5,2" d="M158.0101,-279.3101C160.147,-273.1394 162.3248,-266.355 164,-260.0071 173.6992,-223.2534 180.9424,-180.27 185.2872,-150.8944"/>
<polygon fill="#000000" stroke="#000000" points="188.7906,-151.1218 186.7559,-140.7242 181.8624,-150.1212 188.7906,-151.1218"/>
<text text-anchor="middle" x="187" y="-207.1797" font-family="Times,serif" font-size="9.00" fill="#000000">4.16</text>
</g>
<!-- 4&#45;&gt;6 -->
<g id="edge9" class="edge">
<title>4&#45;&gt;6</title>
<path fill="none" stroke="#000000" stroke-dasharray="5,2" d="M146.5393,-278.0772C144.8734,-267.2186 142.8446,-253.9944 141.0135,-242.059"/>
<polygon fill="#000000" stroke="#000000" points="144.4454,-241.3475 139.4694,-231.9939 137.5264,-242.409 144.4454,-241.3475"/>
<text text-anchor="middle" x="152" y="-252.8071" font-family="Times,serif" font-size="9.00" fill="#000000">4.56</text>
</g>
<!-- 5&#45;&gt;3 -->
<g id="edge7" class="edge">
<title>5&#45;&gt;3</title>
<path fill="none" stroke="#000000" d="M176.2402,-95.2804C167.4362,-82.021 155.9121,-64.6649 146.3353,-50.2416"/>
<polygon fill="#000000" stroke="#000000" points="149.1131,-48.0977 140.6658,-41.703 143.2816,-51.9698 149.1131,-48.0977"/>
<text text-anchor="middle" x="169" y="-66.0548" font-family="Times,serif" font-size="9.00" fill="#000000">3.75</text>
</g>
<!-- 6&#45;&gt;3 -->
<g id="edge12" class="edge">
<title>6&#45;&gt;3</title>
<path fill="none" stroke="#c0c0c0" d="M135.019,-186.4802C133.6178,-153.769 131.0347,-93.4703 129.4232,-55.851"/>
<polygon fill="#c0c0c0" stroke="#c0c0c0" points="132.9013,-55.2628 128.9765,-45.4218 125.9077,-55.5625 132.9013,-55.2628"/>
<text text-anchor="middle" x="143.5" y="-113.8036" font-family="Times,serif" font-size="9.00" fill="#000000">&#45;6.43</text>
</g>
<!-- 6&#45;&gt;5 -->
<g id="edge10" class="edge">
<title>6&#45;&gt;5</title>
<path fill="none" stroke="#c0c0c0" d="M145.8937,-188.9152C150.5576,-179.5916 156.3333,-168.4872 162,-158.7523 164.611,-154.2668 167.4908,-149.599 170.3803,-145.0665"/>
<polygon fill="#c0c0c0" stroke="#c0c0c0" points="173.3675,-146.8929 175.8805,-136.6004 167.4975,-143.0793 173.3675,-146.8929"/>
<text text-anchor="middle" x="171.5" y="-161.5523" font-family="Times,serif" font-size="9.00" fill="#000000">&#45;0.80</text>
</g>
</g>
</svg>
