<?xml version="1.0" encoding="UTF-8" standalone="no"?>
<!DOCTYPE svg PUBLIC "-//W3C//DTD SVG 1.1//EN"
 "http://www.w3.org/Graphics/SVG/1.1/DTD/svg11.dtd">
<!-- Generated by graphviz version 2.40.1 (20161225.0304)
 -->
<!-- Title: %3 Pages: 1 -->
<svg width="649pt" height="611pt"
 viewBox="0.00 0.00 649.00 610.78" xmlns="http://www.w3.org/2000/svg" xmlns:xlink="http://www.w3.org/1999/xlink">
<g id="graph0" class="graph" transform="scale(1 1) rotate(0) translate(4 606.7838)">
<title>%3</title>
<polygon fill="#ffffff" stroke="transparent" points="-4,4 -4,-606.7838 645,-606.7838 645,4 -4,4"/>
<!-- 1 -->
<g id="node1" class="node">
<title>1</title>
<ellipse fill="none" stroke="#ff0000" cx="162" cy="-570.1564" rx="22.7556" ry="22.7556"/>
<text text-anchor="middle" x="162" y="-572.9564" font-family="Times,serif" font-size="9.00" fill="#000000">sum</text>
<text text-anchor="middle" x="162" y="-562.9564" font-family="Times,serif" font-size="9.00" fill="#000000">id</text>
<text text-anchor="middle" x="136.8726" y="-595.5838" font-family="Times,serif" font-size="9.00" fill="#000000">1</text>
</g>
<!-- 3 -->
<g id="node2" class="node">
<title>3</title>
<ellipse fill="none" stroke="#ff0000" cx="281" cy="-22.6274" rx="22.7556" ry="22.7556"/>
<text text-anchor="middle" x="281" y="-25.4274" font-family="Times,serif" font-size="9.00" fill="#000000">sum</text>
<text text-anchor="middle" x="281" y="-15.4274" font-family="Times,serif" font-size="9.00" fill="#000000">step</text>
<text text-anchor="middle" x="255.8726" y="-48.0548" font-family="Times,serif" font-size="9.00" fill="#000000">3</text>
</g>
<!-- 1&#45;&gt;3 -->
<g id="edge1" class="edge">
<title>1&#45;&gt;3</title>
<path fill="none" stroke="#c0c0c0" stroke-dasharray="5,2" d="M139.2081,-568.6049C110.1773,-565.5403 59.8434,-556.4481 27,-529.529 7.2773,-513.3639 0,-504.4025 0,-478.9016 0,-478.9016 0,-478.9016 0,-113.8823 0,-62.1828 174.2396,-35.3199 248.3106,-26.236"/>
<polygon fill="#c0c0c0" stroke="#c0c0c0" points="248.9642,-29.683 258.4796,-25.024 248.1356,-22.7322 248.9642,-29.683"/>
<text text-anchor="middle" x="9.5" y="-294.1919" font-family="Times,serif" font-size="9.00" fill="#000000">&#45;3.81</text>
</g>
<!-- 4 -->
<g id="node4" class="node">
<title>4</title>
<ellipse fill="none" stroke="#000000" stroke-dasharray="5,2" cx="51" cy="-478.9016" rx="22.7556" ry="22.7556"/>
<text text-anchor="middle" x="51" y="-481.7016" font-family="Times,serif" font-size="9.00" fill="#000000">sum</text>
<text text-anchor="middle" x="51" y="-471.7016" font-family="Times,serif" font-size="9.00" fill="#000000">sig</text>
<text text-anchor="middle" x="25.8726" y="-504.329" font-family="Times,serif" font-size="9.00" fill="#000000">4</text>
</g>
<!-- 1&#45;&gt;4 -->
<g id="edge5" class="edge">
<title>1&#45;&gt;4</title>
<path fill="none" stroke="#000000" stroke-dasharray="5,2" d="M139.5118,-566.2783C106.2655,-560.0351 46.5635,-546.6979 34,-529.529 28.9627,-522.6452 29.7415,-514.1706 32.8067,-506.1376"/>
<polygon fill="#000000" stroke="#000000" points="36.0094,-507.5549 37.2437,-497.0322 29.7168,-504.4885 36.0094,-507.5549"/>
<text text-anchor="middle" x="42" y="-522.329" font-family="Times,serif" font-size="9.00" fill="#000000">1.95</text>
</g>
<!-- 5 -->
<g id="node5" class="node">
<title>5</title>
<ellipse fill="none" stroke="#000000" cx="256" cy="-205.1371" rx="22.7556" ry="22.7556"/>
<text text-anchor="middle" x="256" y="-207.9371" font-family="Times,serif" font-size="9.00" fill="#000000">sum</text>
<text text-anchor="middle" x="256" y="-197.9371" font-family="Times,serif" font-size="9.00" fill="#000000">tanh</text>
<text text-anchor="middle" x="230.8726" y="-230.5645" font-family="Times,serif" font-size="9.00" fill="#000000">5</text>
</g>
<!-- 1&#45;&gt;5 -->
<g id="edge6" class="edge">
<title>1&#45;&gt;5</title>
<path fill="none" stroke="#c0c0c0" stroke-dasharray="5,2" d="M161.2142,-547.535C160.4679,-509.2364 161.4489,-429.5 179,-365.0193 192.2725,-316.2575 220.1493,-264.343 238.4659,-233.3353"/>
<polygon fill="#c0c0c0" stroke="#c0c0c0" points="241.6766,-234.7866 243.8167,-224.4101 235.6728,-231.1872 241.6766,-234.7866"/>
<text text-anchor="middle" x="188.5" y="-385.4468" font-family="Times,serif" font-size="9.00" fill="#000000">&#45;0.40</text>
</g>
<!-- 6 -->
<g id="node6" class="node">
<title>6</title>
<ellipse fill="none" stroke="#000000" cx="278" cy="-387.6468" rx="22.7556" ry="22.7556"/>
<text text-anchor="middle" x="278" y="-390.4468" font-family="Times,serif" font-size="9.00" fill="#000000">sum</text>
<text text-anchor="middle" x="278" y="-380.4468" font-family="Times,serif" font-size="9.00" fill="#000000">sig</text>
<text text-anchor="middle" x="252.8726" y="-413.0742" font-family="Times,serif" font-size="9.00" fill="#000000">6</text>
</g>
<!-- 1&#45;&gt;6 -->
<g id="edge8" class="edge">
<title>1&#45;&gt;6</title>
<path fill="none" stroke="#000000" stroke-dasharray="5,2" d="M174.1948,-550.9696C194.733,-518.6556 236.3099,-453.2403 260.1416,-415.7445"/>
<polygon fill="#000000" stroke="#000000" points="263.3843,-417.1674 265.7945,-406.8503 257.4766,-413.4125 263.3843,-417.1674"/>
<text text-anchor="middle" x="241" y="-476.7016" font-family="Times,serif" font-size="9.00" fill="#000000">1.67</text>
</g>
<!-- 7 -->
<g id="node7" class="node">
<title>7</title>
<ellipse fill="none" stroke="#000000" cx="323" cy="-113.8823" rx="22.7556" ry="22.7556"/>
<text text-anchor="middle" x="323" y="-116.6823" font-family="Times,serif" font-size="9.00" fill="#000000">sum</text>
<text text-anchor="middle" x="323" y="-106.6823" font-family="Times,serif" font-size="9.00" fill="#000000">sig</text>
<text text-anchor="middle" x="297.8726" y="-139.3097" font-family="Times,serif" font-size="9.00" fill="#000000">7</text>
</g>
<!-- 1&#45;&gt;7 -->
<g id="edge17" class="edge">
<title>1&#45;&gt;7</title>
<path fill="none" stroke="#c0c0c0" d="M158.7594,-547.651C153.4043,-505.6741 144.8159,-412.8216 161,-337.0193 176.4844,-264.4939 177.4753,-240.2605 224,-182.5097 246.6604,-154.3814 261.3643,-157.1595 291,-136.5097 292.6329,-135.3719 294.3104,-134.1987 296.001,-133.0131"/>
<polygon fill="#c0c0c0" stroke="#c0c0c0" points="298.2557,-135.7062 304.4174,-127.0873 294.2258,-129.9825 298.2557,-135.7062"/>
<text text-anchor="middle" x="170.5" y="-339.8193" font-family="Times,serif" font-size="9.00" fill="#000000">&#45;1.67</text>
</g>
<!-- 8 -->
<g id="node8" class="node">
<title>8</title>
<ellipse fill="none" stroke="#000000" cx="399" cy="-296.3919" rx="22.7556" ry="22.7556"/>
<text text-anchor="middle" x="399" y="-299.1919" font-family="Times,serif" font-size="9.00" fill="#000000">sum</text>
<text text-anchor="middle" x="399" y="-289.1919" font-family="Times,serif" font-size="9.00" fill="#000000">sig</text>
<text text-anchor="middle" x="373.8726" y="-321.8193" font-family="Times,serif" font-size="9.00" fill="#000000">8</text>
</g>
<!-- 1&#45;&gt;8 -->
<g id="edge29" class="edge">
<title>1&#45;&gt;8</title>
<path fill="none" stroke="#000000" d="M181.2628,-557.8005C200.5105,-544.9734 230.4099,-523.7114 253,-501.529 315.2347,-440.4177 327.5563,-420.8484 374,-347.0193 378.0192,-340.6303 381.8823,-333.5044 385.3196,-326.663"/>
<polygon fill="#000000" stroke="#000000" points="388.4979,-328.1304 389.7176,-317.606 382.201,-325.0726 388.4979,-328.1304"/>
<text text-anchor="middle" x="327" y="-431.0742" font-family="Times,serif" font-size="9.00" fill="#000000">1.31</text>
</g>
<!-- 9 -->
<g id="node9" class="node">
<title>9</title>
<ellipse fill="none" stroke="#000000" cx="413" cy="-478.9016" rx="22.7556" ry="22.7556"/>
<text text-anchor="middle" x="413" y="-481.7016" font-family="Times,serif" font-size="9.00" fill="#000000">sum</text>
<text text-anchor="middle" x="413" y="-471.7016" font-family="Times,serif" font-size="9.00" fill="#000000">relu</text>
<text text-anchor="middle" x="387.8726" y="-504.329" font-family="Times,serif" font-size="9.00" fill="#000000">9</text>
</g>
<!-- 1&#45;&gt;9 -->
<g id="edge18" class="edge">
<title>1&#45;&gt;9</title>
<path fill="none" stroke="#000000" d="M183.7295,-563.0736C220.1995,-551.0776 295.9288,-525.7028 359,-501.529 366.7415,-498.5619 375.0315,-495.1885 382.7347,-491.969"/>
<polygon fill="#000000" stroke="#000000" points="384.2432,-495.1313 392.0927,-488.0154 381.519,-488.6832 384.2432,-495.1313"/>
<text text-anchor="middle" x="315.5" y="-522.329" font-family="Times,serif" font-size="9.00" fill="#000000">10.20</text>
</g>
<!-- 2 -->
<g id="node3" class="node">
<title>2</title>
<ellipse fill="none" stroke="#ff0000" cx="413" cy="-570.1564" rx="22.7556" ry="22.7556"/>
<text text-anchor="middle" x="413" y="-572.9564" font-family="Times,serif" font-size="9.00" fill="#000000">sum</text>
<text text-anchor="middle" x="413" y="-562.9564" font-family="Times,serif" font-size="9.00" fill="#000000">id</text>
<text text-anchor="middle" x="387.8726" y="-595.5838" font-family="Times,serif" font-size="9.00" fill="#000000">2</text>
</g>
<!-- 2&#45;&gt;3 -->
<g id="edge2" class="edge">
<title>2&#45;&gt;3</title>
<path fill="none" stroke="#c0c0c0" stroke-dasharray="5,2" d="M435.7704,-567.863C467.3945,-563.897 525.6122,-553.7209 569,-529.529 597.4517,-513.6651 622,-511.4771 622,-478.9016 622,-478.9016 622,-478.9016 622,-113.8823 622,-50.4831 399.2595,-29.9557 313.8192,-24.4138"/>
<polygon fill="#c0c0c0" stroke="#c0c0c0" points="313.8354,-20.9082 303.638,-23.7828 313.4023,-27.8948 313.8354,-20.9082"/>
<text text-anchor="middle" x="631.5" y="-294.1919" font-family="Times,serif" font-size="9.00" fill="#000000">&#45;0.39</text>
</g>
<!-- 2&#45;&gt;4 -->
<g id="edge3" class="edge">
<title>2&#45;&gt;4</title>
<path fill="none" stroke="#000000" stroke-dasharray="5,2" d="M390.9002,-564.5854C329.3032,-549.0577 155.4825,-505.2401 83.1766,-487.0128"/>
<polygon fill="#000000" stroke="#000000" points="83.8227,-483.5663 73.2705,-484.5157 82.1116,-490.3539 83.8227,-483.5663"/>
<text text-anchor="middle" x="250" y="-522.329" font-family="Times,serif" font-size="9.00" fill="#000000">1.11</text>
</g>
<!-- 2&#45;&gt;5 -->
<g id="edge10" class="edge">
<title>2&#45;&gt;5</title>
<path fill="none" stroke="#000000" stroke-dasharray="5,2" d="M392.1252,-561.1939C376.4057,-553.9071 354.7717,-542.6985 338,-529.529 281.7594,-485.3676 255.7217,-476.9946 230,-410.2742 222.7651,-391.5072 227.4407,-384.9691 230,-365.0193 232.6885,-344.0624 238.0356,-339.7727 242,-319.0193 247.1626,-291.9934 250.8299,-260.9784 253.1125,-238.1465"/>
<polygon fill="#000000" stroke="#000000" points="256.6184,-238.2524 254.0932,-227.9629 249.6506,-237.5813 256.6184,-238.2524"/>
<text text-anchor="middle" x="238" y="-385.4468" font-family="Times,serif" font-size="9.00" fill="#000000">1.71</text>
</g>
<!-- 2&#45;&gt;6 -->
<g id="edge16" class="edge">
<title>2&#45;&gt;6</title>
<path fill="none" stroke="#c0c0c0" d="M392.1863,-560.8856C378.6118,-553.9342 361.3685,-543.2646 350,-529.529 319.0434,-492.1267 333.0511,-470.4499 309,-428.2742 306.1432,-423.2646 302.7386,-418.1797 299.2486,-413.3808"/>
<polygon fill="#c0c0c0" stroke="#c0c0c0" points="301.8131,-410.971 292.9741,-405.1296 296.2411,-415.2081 301.8131,-410.971"/>
<text text-anchor="middle" x="341.5" y="-476.7016" font-family="Times,serif" font-size="9.00" fill="#000000">&#45;7.78</text>
</g>
<!-- 2&#45;&gt;7 -->
<g id="edge28" class="edge">
<title>2&#45;&gt;7</title>
<path fill="none" stroke="#c0c0c0" stroke-dasharray="5,2" d="M435.6645,-567.9432C480.4524,-562.19 576,-542.4675 576,-478.9016 576,-478.9016 576,-478.9016 576,-342.0193 576,-298.4978 582.1182,-281.992 558,-245.7645 509.6312,-173.1107 406.9545,-136.3098 354.813,-121.6912"/>
<polygon fill="#c0c0c0" stroke="#c0c0c0" points="355.6567,-118.2937 345.0896,-119.0592 353.8277,-125.0506 355.6567,-118.2937"/>
<text text-anchor="middle" x="588" y="-339.8193" font-family="Times,serif" font-size="9.00" fill="#000000">&#45;30.00</text>
</g>
<!-- 2&#45;&gt;8 -->
<g id="edge21" class="edge">
<title>2&#45;&gt;8</title>
<path fill="none" stroke="#c0c0c0" d="M428.589,-553.739C451.1531,-527.9285 488.8811,-475.8836 476,-428.2742 465.1131,-388.0354 438.5545,-347.4772 419.6808,-322.17"/>
<polygon fill="#c0c0c0" stroke="#c0c0c0" points="422.4511,-320.0308 413.6085,-314.1947 416.8817,-324.2713 422.4511,-320.0308"/>
<text text-anchor="middle" x="486.5" y="-431.0742" font-family="Times,serif" font-size="9.00" fill="#000000">&#45;1.68</text>
</g>
<!-- 2&#45;&gt;9 -->
<g id="edge27" class="edge">
<title>2&#45;&gt;9</title>
<path fill="none" stroke="#c0c0c0" d="M413,-547.129C413,-536.4568 413,-523.5778 413,-511.8976"/>
<polygon fill="#c0c0c0" stroke="#c0c0c0" points="416.5001,-511.6055 413,-501.6056 409.5001,-511.6056 416.5001,-511.6055"/>
<text text-anchor="middle" x="425" y="-522.329" font-family="Times,serif" font-size="9.00" fill="#000000">&#45;12.72</text>
</g>
<!-- 4&#45;&gt;3 -->
<g id="edge4" class="edge">
<title>4&#45;&gt;3</title>
<path fill="none" stroke="#000000" stroke-dasharray="5,2" d="M50.221,-456.028C49.6595,-437.5727 49,-410.9413 49,-387.6468 49,-387.6468 49,-387.6468 49,-113.8823 49,-71.5506 184.454,-40.631 248.3604,-28.399"/>
<polygon fill="#000000" stroke="#000000" points="249.1478,-31.8124 258.3324,-26.5311 247.859,-24.9321 249.1478,-31.8124"/>
<text text-anchor="middle" x="57" y="-248.5645" font-family="Times,serif" font-size="9.00" fill="#000000">1.92</text>
</g>
<!-- 5&#45;&gt;3 -->
<g id="edge7" class="edge">
<title>5&#45;&gt;3</title>
<path fill="none" stroke="#000000" stroke-dasharray="5,2" d="M259.1157,-182.3911C263.4998,-150.3857 271.5132,-91.8845 276.5314,-55.2499"/>
<polygon fill="#000000" stroke="#000000" points="280.034,-55.4692 277.9235,-45.0867 273.0987,-54.5192 280.034,-55.4692"/>
<text text-anchor="middle" x="279" y="-111.6823" font-family="Times,serif" font-size="9.00" fill="#000000">0.58</text>
</g>
<!-- 5&#45;&gt;7 -->
<g id="edge12" class="edge">
<title>5&#45;&gt;7</title>
<path fill="none" stroke="#c0c0c0" d="M268.512,-185.6197C274.7672,-176.0958 282.5713,-164.5545 290,-154.5097 293.6691,-149.5484 297.7137,-144.3605 301.6763,-139.4154"/>
<polygon fill="#c0c0c0" stroke="#c0c0c0" points="304.5957,-141.3726 308.187,-131.405 299.1637,-136.9575 304.5957,-141.3726"/>
<text text-anchor="middle" x="299.5" y="-157.3097" font-family="Times,serif" font-size="9.00" fill="#000000">&#45;0.21</text>
</g>
<!-- 6&#45;&gt;3 -->
<g id="edge11" class="edge">
<title>6&#45;&gt;3</title>
<path fill="none" stroke="#000000" stroke-dasharray="5,2" d="M259.5731,-374.0719C214.5503,-339.1357 105.3064,-242.6709 143,-154.5097 165.2094,-102.5643 219.0339,-61.3195 252.5195,-39.5585"/>
<polygon fill="#000000" stroke="#000000" points="254.8069,-42.2527 261.3817,-33.9447 251.061,-36.3393 254.8069,-42.2527"/>
<text text-anchor="middle" x="148" y="-202.9371" font-family="Times,serif" font-size="9.00" fill="#000000">0.45</text>
</g>
<!-- 6&#45;&gt;5 -->
<g id="edge9" class="edge">
<title>6&#45;&gt;5</title>
<path fill="none" stroke="#c0c0c0" stroke-dasharray="5,2" d="M271.4418,-365.9223C267.6949,-352.5316 263.2972,-334.9341 261,-319.0193 257.0948,-291.9644 255.9482,-260.9517 255.7202,-238.1281"/>
<polygon fill="#c0c0c0" stroke="#c0c0c0" points="259.2194,-237.9326 255.6736,-227.9487 252.2195,-237.9647 259.2194,-237.9326"/>
<text text-anchor="middle" x="270.5" y="-294.1919" font-family="Times,serif" font-size="9.00" fill="#000000">&#45;0.74</text>
</g>
<!-- 6&#45;&gt;7 -->
<g id="edge25" class="edge">
<title>6&#45;&gt;7</title>
<path fill="none" stroke="#c0c0c0" d="M296.3862,-374.341C304.613,-367.256 313.4658,-357.7832 318,-347.0193 320.1842,-341.8342 319.8805,-251.3896 320,-245.7645 320.7142,-212.1569 321.5956,-173.7336 322.2177,-147.0644"/>
<polygon fill="#c0c0c0" stroke="#c0c0c0" points="325.724,-146.8331 322.459,-136.7539 318.7259,-146.6693 325.724,-146.8331"/>
<text text-anchor="middle" x="329.5" y="-248.5645" font-family="Times,serif" font-size="9.00" fill="#000000">&#45;7.67</text>
</g>
<!-- 6&#45;&gt;8 -->
<g id="edge14" class="edge">
<title>6&#45;&gt;8</title>
<path fill="none" stroke="#000000" d="M297.9369,-376.4249C311.1155,-368.7111 328.5576,-357.9267 343,-347.0193 354.0585,-338.6676 365.5352,-328.5783 375.1981,-319.6115"/>
<polygon fill="#000000" stroke="#000000" points="377.6386,-322.1209 382.5161,-312.7156 372.8379,-317.0264 377.6386,-322.1209"/>
<text text-anchor="middle" x="362" y="-339.8193" font-family="Times,serif" font-size="9.00" fill="#000000">0.16</text>
</g>
<!-- 7&#45;&gt;3 -->
<g id="edge13" class="edge">
<title>7&#45;&gt;3</title>
<path fill="none" stroke="#000000" d="M313.4695,-93.1751C307.9385,-81.1576 300.8761,-65.813 294.7514,-52.5057"/>
<polygon fill="#000000" stroke="#000000" points="297.8531,-50.8733 290.4927,-43.2526 291.4943,-53.8 297.8531,-50.8733"/>
<text text-anchor="middle" x="311" y="-66.0548" font-family="Times,serif" font-size="9.00" fill="#000000">0.76</text>
</g>
<!-- 8&#45;&gt;3 -->
<g id="edge26" class="edge">
<title>8&#45;&gt;3</title>
<path fill="none" stroke="#c0c0c0" d="M400.3837,-273.3839C401.2256,-250.1506 401.0299,-213.3839 394,-182.5097 384.2078,-139.504 380.3922,-127.3188 355,-91.2548 341.8929,-72.6391 323.027,-55.2407 307.625,-42.6198"/>
<polygon fill="#c0c0c0" stroke="#c0c0c0" points="309.4826,-39.6243 299.4833,-36.1223 305.1162,-45.0956 309.4826,-39.6243"/>
<text text-anchor="middle" x="398.5" y="-157.3097" font-family="Times,serif" font-size="9.00" fill="#000000">&#45;0.80</text>
</g>
<!-- 8&#45;&gt;5 -->
<g id="edge15" class="edge">
<title>8&#45;&gt;5</title>
<path fill="none" stroke="#c0c0c0" d="M383.4111,-279.9459C372.7276,-269.294 357.8511,-255.6217 343,-245.7645 325.4684,-234.1282 304.074,-224.0896 286.8884,-216.9022"/>
<polygon fill="#c0c0c0" stroke="#c0c0c0" points="287.899,-213.5348 277.3172,-213.0093 285.2616,-220.019 287.899,-213.5348"/>
<text text-anchor="middle" x="365.5" y="-248.5645" font-family="Times,serif" font-size="9.00" fill="#000000">&#45;1.41</text>
</g>
<!-- 8&#45;&gt;7 -->
<g id="edge23" class="edge">
<title>8&#45;&gt;7</title>
<path fill="none" stroke="#c0c0c0" stroke-dasharray="5,2" d="M390.7506,-275.16C387.1885,-266.0839 382.9416,-255.3838 379,-245.7645 364.6361,-210.7096 347.5432,-170.6882 336.0521,-144.0162"/>
<polygon fill="#c0c0c0" stroke="#c0c0c0" points="339.2628,-142.6227 332.0873,-134.8275 332.8355,-145.3959 339.2628,-142.6227"/>
<text text-anchor="middle" x="380.5" y="-202.9371" font-family="Times,serif" font-size="9.00" fill="#000000">&#45;1.98</text>
</g>
<!-- 9&#45;&gt;3 -->
<g id="edge22" class="edge">
<title>9&#45;&gt;3</title>
<path fill="none" stroke="#000000" d="M433.3616,-468.6447C468.7818,-449.1892 538,-403.3263 538,-342.0193 538,-342.0193 538,-342.0193 538,-113.8823 538,-66.8202 383.0242,-37.8212 313.7633,-27.2111"/>
<polygon fill="#000000" stroke="#000000" points="314.2147,-23.7397 303.807,-25.7225 313.1795,-30.6628 314.2147,-23.7397"/>
<text text-anchor="middle" x="546" y="-248.5645" font-family="Times,serif" font-size="9.00" fill="#000000">0.32</text>
</g>
<!-- 9&#45;&gt;5 -->
<g id="edge30" class="edge">
<title>9&#45;&gt;5</title>
<path fill="none" stroke="#c0c0c0" d="M397.8866,-461.5179C377.2392,-437.1605 339.9373,-390.9215 315,-347.0193 303.7994,-327.3007 281.4534,-271.1947 267.706,-235.7298"/>
<polygon fill="#c0c0c0" stroke="#c0c0c0" points="270.9404,-234.3895 264.073,-226.3217 264.4103,-236.9111 270.9404,-234.3895"/>
<text text-anchor="middle" x="327" y="-339.8193" font-family="Times,serif" font-size="9.00" fill="#000000">&#45;12.41</text>
</g>
<!-- 9&#45;&gt;6 -->
<g id="edge19" class="edge">
<title>9&#45;&gt;6</title>
<path fill="none" stroke="#000000" d="M394.2288,-466.213C371.1864,-450.6372 331.9218,-424.0959 305.4805,-406.2225"/>
<polygon fill="#000000" stroke="#000000" points="307.2918,-403.2223 297.047,-400.5218 303.3717,-409.0217 307.2918,-403.2223"/>
<text text-anchor="middle" x="357" y="-431.0742" font-family="Times,serif" font-size="9.00" fill="#000000">0.32</text>
</g>
<!-- 9&#45;&gt;7 -->
<g id="edge24" class="edge">
<title>9&#45;&gt;7</title>
<path fill="none" stroke="#c0c0c0" d="M428.5039,-462.1661C442.8594,-444.872 462,-416.4185 462,-387.6468 462,-387.6468 462,-387.6468 462,-250.7645 462,-190.2493 394.2879,-147.5271 353.3833,-127.2397"/>
<polygon fill="#c0c0c0" stroke="#c0c0c0" points="354.6416,-123.9616 344.1111,-122.7955 351.616,-130.274 354.6416,-123.9616"/>
<text text-anchor="middle" x="471.5" y="-294.1919" font-family="Times,serif" font-size="9.00" fill="#000000">&#45;0.00</text>
</g>
<!-- 9&#45;&gt;8 -->
<g id="edge20" class="edge">
<title>9&#45;&gt;8</title>
<path fill="none" stroke="#000000" stroke-dasharray="5,2" d="M413.1011,-456.2093C412.9825,-428.125 411.9776,-378.8834 407,-337.0193 406.6769,-334.3022 406.2731,-331.495 405.8196,-328.6844"/>
<polygon fill="#000000" stroke="#000000" points="409.2294,-327.87 404.0157,-318.6468 402.3398,-329.1082 409.2294,-327.87"/>
<text text-anchor="middle" x="422.5" y="-385.4468" font-family="Times,serif" font-size="9.00" fill="#000000">11.71</text>
</g>
</g>
</svg>
